<svg width="150" height="50" viewBox="0 0 150 50" fill="none" xmlns="http://www.w3.org/2000/svg">
<rect width="150" height="50" rx="6" fill="black"/>
<path d="M27.7045 23.763C27.7166 22.8431 27.9669 21.9411 28.4321 21.141C28.8972 20.3409 29.5621 19.6687 30.3648 19.1869C29.8548 18.4758 29.1821 17.8907 28.4 17.4779C27.6178 17.065 26.7479 16.836 25.8592 16.8088C23.9635 16.6146 22.1258 17.9163 21.1598 17.9163C20.1751 17.9163 18.6878 16.8281 17.0862 16.8603C16.0502 16.893 15.0406 17.1871 14.1557 17.714C13.2708 18.2408 12.5407 18.9825 12.0367 19.8668C9.85352 23.5571 11.482 28.9808 13.5734 31.9639C14.6197 33.4246 15.8426 35.0562 17.4428 34.9984C19.0086 34.9349 19.5934 34.0235 21.4835 34.0235C23.3561 34.0235 23.9048 34.9984 25.5374 34.9616C27.2176 34.9349 28.2762 33.4944 29.2859 32.0198C30.0377 30.979 30.6162 29.8287 31 28.6115C30.0238 28.2084 29.1908 27.5337 28.6048 26.6715C28.0187 25.8093 27.7056 24.7977 27.7045 23.763Z" fill="white"/>
<path d="M24.6208 14.8471C25.5369 13.7734 25.9883 12.3934 25.879 11C24.4793 11.1435 23.1865 11.7966 22.258 12.8291C21.804 13.3335 21.4563 13.9203 21.2348 14.556C21.0132 15.1917 20.9222 15.8638 20.9669 16.5338C21.6669 16.5408 22.3595 16.3927 22.9924 16.1005C23.6253 15.8084 24.1821 15.3798 24.6208 14.8471Z" fill="white"/>
<path d="M107.964 17.394C106.698 17.394 105.912 16.6162 105.912 15.3066V14.6782C105.912 13.3599 106.773 12.5908 107.907 12.5908C109.071 12.5908 109.893 13.3994 109.893 14.6782V15.2231H106.878V15.4517C106.878 16.1196 107.274 16.6118 107.959 16.6118C108.469 16.6118 108.821 16.3701 108.887 16.0801H109.84C109.783 16.6162 109.216 17.394 107.964 17.394ZM106.878 14.5859H108.939V14.5244C108.939 13.8257 108.531 13.3599 107.911 13.3599C107.292 13.3599 106.878 13.8257 106.878 14.5244V14.5859Z" fill="white"/>
<path d="M100.708 17.3149V11H101.68V13.5049H101.728C101.829 13.1753 102.207 12.5996 103.139 12.5996C104.044 12.5996 104.69 13.1226 104.69 14.1816V17.3149H103.719V14.4673C103.719 13.7598 103.328 13.4302 102.774 13.4302C102.075 13.4302 101.68 13.9795 101.68 14.7354V17.3149H100.708Z" fill="white"/>
<path d="M97.4829 12.7007V11.5405H98.4365V12.7007H99.478V13.4653H98.4365V15.9307C98.4365 16.436 98.6255 16.5767 99.1484 16.5767C99.2803 16.5767 99.4561 16.5679 99.5308 16.5591V17.3062C99.4517 17.3193 99.1265 17.3457 98.9067 17.3457C97.7773 17.3457 97.4697 16.9414 97.4697 16.0098V13.4653H96.7622V12.7007H97.4829Z" fill="white"/>
<path d="M89.7397 17.3149V12.6699H90.6978V13.5049H90.7461C90.8647 13.1401 91.2031 12.5996 92.1436 12.5996C93.0796 12.5996 93.708 13.1182 93.708 14.1772V17.3149H92.7324V14.4629C92.7324 13.7554 92.3633 13.4302 91.814 13.4302C91.0933 13.4302 90.7153 13.9839 90.7153 14.7354V17.3149H89.7397Z" fill="white"/>
<path d="M86.4219 12.5908C87.6348 12.5908 88.4829 13.3774 88.4829 14.6826V15.2847C88.4829 16.6338 87.6348 17.394 86.4219 17.394C85.1914 17.394 84.3521 16.6426 84.3521 15.2891V14.687C84.3521 13.417 85.2046 12.5908 86.4219 12.5908ZM86.4263 13.3774C85.7319 13.3774 85.3364 13.9575 85.3364 14.7354V15.2539C85.3364 16.0317 85.7056 16.6074 86.4263 16.6074C87.1382 16.6074 87.5029 16.0361 87.5029 15.2539V14.7354C87.5029 13.9575 87.1206 13.3774 86.4263 13.3774Z" fill="white"/>
<path d="M78.7051 12.6084C79.3599 12.6084 79.8608 12.8984 80.041 13.3687H80.0894V11H81.0649V17.3149H80.1157V16.5723H80.0674C79.9268 17.0425 79.3687 17.3765 78.6919 17.3765C77.624 17.3765 76.9297 16.6162 76.9297 15.3901V14.5947C76.9297 13.3687 77.6372 12.6084 78.7051 12.6084ZM78.9775 13.4082C78.3271 13.4082 77.9229 13.8916 77.9229 14.7354V15.2451C77.9229 16.0933 78.3315 16.5767 78.9995 16.5767C79.6587 16.5767 80.0894 16.0977 80.0894 15.3066V14.6035C80.0894 13.8872 79.6191 13.4082 78.9775 13.4082Z" fill="white"/>
<path d="M73.4316 17.3853C72.5308 17.3853 71.9111 16.8315 71.9111 15.9658C71.9111 15.144 72.4824 14.5903 73.5547 14.5903H74.728V14.1553C74.728 13.6235 74.3896 13.373 73.8535 13.373C73.3262 13.373 73.0889 13.5928 73.0142 13.9004H72.0869C72.144 13.1226 72.7285 12.5996 73.8843 12.5996C74.8774 12.5996 75.6992 13.0127 75.6992 14.1685V17.3149H74.772V16.7129H74.728C74.5215 17.0688 74.1172 17.3853 73.4316 17.3853ZM73.7349 16.6294C74.2886 16.6294 74.728 16.2515 74.728 15.7461V15.2451H73.7085C73.1416 15.2451 72.8911 15.5308 72.8911 15.9175C72.8911 16.4009 73.2954 16.6294 73.7349 16.6294Z" fill="white"/>
<path d="M68.8438 12.5908C70.0566 12.5908 70.9048 13.3774 70.9048 14.6826V15.2847C70.9048 16.6338 70.0566 17.394 68.8438 17.394C67.6133 17.394 66.7739 16.6426 66.7739 15.2891V14.687C66.7739 13.417 67.6265 12.5908 68.8438 12.5908ZM68.8481 13.3774C68.1538 13.3774 67.7583 13.9575 67.7583 14.7354V15.2539C67.7583 16.0317 68.1274 16.6074 68.8481 16.6074C69.5601 16.6074 69.9248 16.0361 69.9248 15.2539V14.7354C69.9248 13.9575 69.5425 13.3774 68.8481 13.3774Z" fill="white"/>
<path d="M64.5195 17.3149V11H65.4951V17.3149H64.5195Z" fill="white"/>
<path d="M59.0747 17.3149V12.6699H60.0327V13.5049H60.0811C60.1997 13.1401 60.5381 12.5996 61.4785 12.5996C62.4146 12.5996 63.043 13.1182 63.043 14.1772V17.3149H62.0674V14.4629C62.0674 13.7554 61.6982 13.4302 61.1489 13.4302C60.4282 13.4302 60.0503 13.9839 60.0503 14.7354V17.3149H59.0747Z" fill="white"/>
<path d="M58.1079 12.6699L56.8862 17.3149H55.8931L54.9219 13.8872H54.8955L53.9419 17.3149H52.9443L51.6699 12.6699H52.7202L53.4673 16.2119H53.5112L54.4473 12.6699H55.3657L56.3281 16.2119H56.3721L57.1323 12.6699H58.1079Z" fill="white"/>
<path d="M48.8838 12.5908C50.0967 12.5908 50.9448 13.3774 50.9448 14.6826V15.2847C50.9448 16.6338 50.0967 17.394 48.8838 17.394C47.6533 17.394 46.814 16.6426 46.814 15.2891V14.687C46.814 13.417 47.6665 12.5908 48.8838 12.5908ZM48.8882 13.3774C48.1938 13.3774 47.7983 13.9575 47.7983 14.7354V15.2539C47.7983 16.0317 48.1675 16.6074 48.8882 16.6074C49.6001 16.6074 49.9648 16.0361 49.9648 15.2539V14.7354C49.9648 13.9575 49.5825 13.3774 48.8882 13.3774Z" fill="white"/>
<path d="M41 11.3164H43.0698C44.8584 11.3164 45.7285 12.3799 45.7285 14.3091C45.7285 16.2383 44.8496 17.3149 43.0698 17.3149H41V11.3164ZM41.9976 12.1558V16.4756H42.96C44.1465 16.4756 44.7046 15.7593 44.7046 14.3223C44.7046 12.8765 44.1421 12.1558 42.96 12.1558H41.9976Z" fill="white"/>
<path d="M122.6 36.9609C119.682 36.9609 117.827 35.0331 117.827 31.8063V30.7032C117.827 27.6619 119.641 25.6929 122.507 25.6929C125.414 25.6929 127.167 27.7341 127.167 30.8063V31.8475H120.085V32.1052C120.085 33.9403 121.074 35.1568 122.631 35.1568C123.796 35.1568 124.59 34.5795 124.868 33.6413H127.043C126.713 35.4042 125.291 36.9609 122.6 36.9609ZM120.085 30.2496H124.93V30.229C124.93 28.6826 123.971 27.4661 122.518 27.4661C121.043 27.4661 120.085 28.6826 120.085 30.229V30.2496Z" fill="white"/>
<path d="M111.296 36.7757V25.8788H113.584V27.3117H113.667C113.945 26.6313 114.759 25.7241 116.275 25.7241C116.574 25.7241 116.832 25.7447 117.048 25.786V27.8066C116.852 27.755 116.45 27.7241 116.069 27.7241C114.234 27.7241 113.615 28.8581 113.615 30.3221V36.7757H111.296Z" fill="white"/>
<path d="M104.527 25.6929C107.661 25.6929 109.362 27.8991 109.362 30.8681V31.7444C109.362 34.8166 107.672 36.9609 104.527 36.9609C101.383 36.9609 99.6716 34.8166 99.6716 31.7444V30.8681C99.6716 27.9094 101.393 25.6929 104.527 25.6929ZM104.527 27.5279C102.826 27.5279 101.981 28.9197 101.981 30.8991V31.7341C101.981 33.6826 102.816 35.1156 104.527 35.1156C106.239 35.1156 107.063 33.6929 107.063 31.7341V30.8991C107.063 28.9094 106.228 27.5279 104.527 27.5279Z" fill="white"/>
<path d="M93.9755 25.8785V23.229H96.223V25.8785H98.3467V27.7135H96.223V33.528C96.223 34.7135 96.6663 35.0434 97.8931 35.0434C98.0889 35.0434 98.2745 35.0434 98.4085 35.0228V36.7754C98.223 36.8063 97.79 36.8476 97.3261 36.8476C94.6766 36.8476 93.9446 35.8991 93.9446 33.7135V27.7135H92.4395V25.8785H93.9755Z" fill="white"/>
<path d="M80.4856 32.8683H82.7743C82.8773 34.0848 83.9495 35.126 85.9392 35.126C87.7639 35.126 88.8464 34.2703 88.8464 32.9404C88.8464 31.8683 88.1248 31.291 86.6196 30.9301L84.3103 30.3528C82.4959 29.9301 80.867 28.8477 80.867 26.559C80.867 23.8683 83.2176 22.394 85.9495 22.394C88.6815 22.394 90.9598 23.8683 91.0114 26.4971H88.7639C88.6609 25.3013 87.7433 24.3116 85.9186 24.3116C84.3103 24.3116 83.2176 25.0745 83.2176 26.3837C83.2176 27.3013 83.8567 27.9611 85.166 28.26L87.465 28.827C89.5784 29.3425 91.1866 30.3425 91.1866 32.7343C91.1866 35.4971 88.9495 37.0538 85.7639 37.0538C81.8464 37.0538 80.5371 34.7652 80.4856 32.8683Z" fill="white"/>
<path d="M71.5056 36.9303C70.0933 36.9303 69.0211 36.2601 68.4438 35.2601H68.3613V40.3942H66.0726V25.8787H68.2994V27.4766H68.3819C68.9798 26.4354 70.0933 25.7344 71.5572 25.7344C74.0005 25.7344 75.7427 27.5797 75.7427 30.8375V31.8065C75.7427 35.0437 74.0211 36.9303 71.5056 36.9303ZM70.9798 35.0437C72.4335 35.0437 73.4231 33.8787 73.4231 31.6828V30.9199C73.4231 28.8065 72.4953 27.6004 70.9386 27.6004C69.3407 27.6004 68.3407 28.8993 68.3407 30.9096V31.6828C68.3407 33.7447 69.351 35.0437 70.9798 35.0437Z" fill="white"/>
<path d="M59.8713 36.9303C58.459 36.9303 57.3868 36.2601 56.8095 35.2601H56.727V40.3942H54.4384V25.8787H56.6652V27.4766H56.7476C57.3456 26.4354 58.459 25.7344 59.9229 25.7344C62.3662 25.7344 64.1085 27.5797 64.1085 30.8375V31.8065C64.1085 35.0437 62.3868 36.9303 59.8713 36.9303ZM59.3456 35.0437C60.7992 35.0437 61.7889 33.8787 61.7889 31.6828V30.9199C61.7889 28.8065 60.861 27.6004 59.3043 27.6004C57.7064 27.6004 56.7064 28.8993 56.7064 30.9096V31.6828C56.7064 33.7447 57.7167 35.0437 59.3456 35.0437Z" fill="white"/>
<path d="M43.3814 36.7753H41L45.8454 22.7031H48.4639L53.299 36.7753H50.8247L49.5773 32.8784H44.6392L43.3814 36.7753ZM47.1649 25.1361H47.0722L45.1649 31.0846H49.0515L47.1649 25.1361Z" fill="white"/>
</svg>
