<svg width="48" height="54" viewBox="0 0 48 54" fill="none" xmlns="http://www.w3.org/2000/svg">
<path d="M46.831 31.5931C46.281 28.5131 44.571 25.3631 42.321 23.0331C44.151 19.9431 46.181 17.3531 46.551 13.6031C46.871 10.4031 46.311 6.49307 44.201 3.94307C42.131 1.44307 39.321 0.653074 36.211 0.443074C32.061 0.163074 27.881 0.0830739 23.731 0.133074C17.401 0.213074 9.16103 -1.15693 3.98103 3.40307C1.48103 5.60307 0.251006 9.23307 0.0210062 12.4931C-0.278994 16.7731 2.66102 19.9831 4.82102 23.3831C2.75102 26.0831 1.43101 29.3731 0.741007 32.7031C-0.218993 37.3831 0.0110099 40.9731 1.93101 45.4231C2.95101 47.7831 4.76103 50.6631 6.95103 52.1431C8.45103 53.1531 10.291 53.1231 12.031 53.1831C17.371 53.3931 22.731 53.3431 28.071 53.2531C31.521 53.1931 35.761 53.7031 39.131 52.7631C42.451 51.8331 44.131 47.9931 45.401 45.0931C47.201 40.9931 47.611 35.9731 46.821 31.5931H46.831ZM7.09101 3.02307C11.861 0.603074 18.501 1.58307 23.721 1.52307C26.351 1.49307 28.991 1.52307 31.621 1.63307C35.261 1.79307 39.511 1.42307 42.381 4.06307C44.761 6.24307 45.411 9.99307 45.201 13.0931C44.951 16.7231 43.021 19.1831 41.271 22.0631C41.041 21.8731 40.821 21.6631 40.591 21.4931C39.181 20.4331 37.781 19.5631 36.371 18.8431C38.381 15.6931 41.441 11.1631 37.291 8.22307C33.221 5.34307 26.011 6.53307 21.401 6.58307C19.381 6.60307 17.411 6.78307 15.411 7.00307C13.431 7.21307 10.841 7.13307 9.171 8.39307C5.061 11.4831 7.43101 15.8931 9.80101 19.0531C9.38101 19.2931 8.96101 19.5231 8.56102 19.7931C7.51101 20.5031 6.58101 21.3431 5.74101 22.2631C3.77101 19.2631 1.31102 16.3831 1.47102 12.6031C1.63102 8.67307 3.51102 4.86307 7.10102 3.04307L7.09101 3.02307ZM23.941 16.0531C19.571 16.0831 15.031 16.5331 11.051 18.3931C9.36101 16.2431 7.21102 13.4231 9.03102 10.6631C10.441 8.51307 12.861 8.64307 15.081 8.41307C17.571 8.15307 19.991 7.96307 22.501 7.95307C25.981 7.94307 29.651 7.70307 33.101 8.20307C35.551 8.55307 37.701 9.57307 37.831 12.4131C37.931 14.6831 36.281 16.4131 35.121 18.2231C31.711 16.7231 28.131 16.0931 23.951 16.0431L23.941 16.0531ZM45.701 37.3531C45.541 41.3531 44.221 45.0631 42.101 48.4431C39.541 52.5231 34.581 51.7231 30.351 51.8131C25.301 51.9231 20.251 51.9731 15.201 51.8731C11.871 51.8131 8.90102 52.0931 6.32102 49.6031C3.95102 47.3231 2.791 44.1031 1.861 41.0331C0.241003 35.6831 2.81101 27.8831 6.27101 23.7231C10.621 18.4931 17.521 17.4931 23.931 17.4431C30.181 17.5131 36.331 19.0831 40.981 23.5631C44.721 27.1731 45.901 32.3531 45.691 37.3531H45.701Z" fill="white"/>
<path d="M25.1309 24.4831C21.5009 23.9731 18.1209 26.0731 17.1809 29.6531C16.2709 33.1431 17.6409 36.6331 21.3809 37.3831C24.9209 38.0931 29.8209 36.9431 30.5609 32.9131C31.2209 29.2931 28.7809 25.2231 25.1309 24.4831ZM22.8009 36.1331C15.4109 35.8431 18.0909 24.9031 24.7609 25.8331C27.3709 26.3631 29.1309 28.8531 29.2609 31.4731C29.4409 35.1931 25.8509 36.2531 22.8009 36.1331Z" fill="white"/>
<path d="M13.2111 21.4832C9.38108 23.5732 6.6411 27.0532 5.4811 31.2632C5.2411 32.1332 6.5911 32.5032 6.8211 31.6332C7.8811 27.7632 10.3811 24.6132 13.9111 22.6832C14.7011 22.2532 13.9911 21.0532 13.2111 21.4832Z" fill="white"/>
<path d="M5.37104 33.863C4.47104 33.863 4.47104 35.253 5.37104 35.253C6.27104 35.253 6.27104 33.863 5.37104 33.863Z" fill="white"/>
</svg>
