<svg width="62" height="45" viewBox="0 0 62 45" fill="none" xmlns="http://www.w3.org/2000/svg">
<path d="M61.1697 37.1386C60.9597 36.0186 60.5897 34.9486 59.4597 34.4786C58.7397 34.1786 57.9097 34.2286 57.1497 34.2086C56.0697 34.1686 54.9897 34.1486 53.8997 34.1986C53.6397 33.4886 53.3697 32.7986 53.1197 32.0886C51.9897 28.9086 50.8797 25.7086 49.9897 22.4586C49.2297 19.6486 48.0797 16.8086 47.4597 13.9886C49.5897 13.7486 51.7197 13.5086 53.8497 13.2286C55.8997 12.9586 59.4697 13.1086 59.2697 10.3186C59.0897 7.87862 57.8497 7.37862 56.2497 7.43862C55.7397 5.43862 54.5397 -0.251376 52.0597 0.00862432C50.5597 0.168624 48.2397 2.54862 47.0097 3.34862C44.3397 5.09862 41.6897 6.85862 39.2497 8.91862C39.1797 8.97862 39.1297 9.04862 39.0997 9.11862C38.4097 9.17863 37.7197 9.22863 37.0297 9.29862C31.4997 9.80863 25.9397 10.2686 20.4297 10.9086C18.1397 11.1686 15.1697 11.0586 15.4797 14.0086C15.7997 16.9486 18.0397 16.7286 20.3897 16.6086C26.4397 16.2986 32.4797 15.7586 38.4897 15.0186C38.4897 15.0686 38.4897 15.1186 38.5097 15.1686C40.8197 21.4886 42.9597 27.8686 45.0597 34.2586C31.4997 34.4686 17.9097 33.8586 4.37969 34.9386C0.719688 35.2286 -0.380309 35.8786 0.109691 39.8286C0.419691 42.2886 1.70969 42.4986 4.09969 42.5586C4.64969 42.5686 5.18969 42.5786 5.73969 42.5886C5.70969 42.6486 5.68969 42.7086 5.67969 42.7886C5.40969 45.4086 9.14969 44.6586 10.7497 44.6086C11.6597 44.5786 13.2197 44.8586 14.0497 44.4286C14.6097 44.1286 14.7697 43.3886 14.7797 42.7486C25.7597 42.8786 36.7397 42.8186 47.7197 42.8886C47.9697 43.3486 48.2497 43.7386 48.5997 43.9986C49.9897 45.0186 54.8497 44.9186 56.1397 44.1086C56.9397 43.6086 57.0597 43.0186 56.9197 42.3586C58.2897 42.2986 59.5197 42.1586 60.4797 40.9686C61.3897 39.8286 61.4397 38.5186 61.1797 37.1386H61.1697ZM51.0497 2.32862C51.1997 2.21862 51.9997 1.41862 52.2297 1.46862C52.6297 1.55862 52.9997 2.78863 53.2197 3.19863C53.9397 4.60863 54.4297 6.05862 54.8497 7.56862C54.3297 7.63862 53.7997 7.72863 53.2697 7.79863C49.3797 8.27863 45.4497 8.58862 41.5297 8.89862C44.5797 6.52862 47.9097 4.55862 51.0597 2.31862L51.0497 2.32862ZM16.9897 14.1086C16.4397 11.7786 24.7597 11.9086 26.5497 11.7286C30.2497 11.3486 33.9497 10.9686 37.6497 10.6286C40.9397 10.3286 44.2097 9.81863 47.5097 9.65863C49.0497 9.58863 50.5697 9.50863 52.0997 9.33863C52.9897 9.23863 56.4797 8.25862 57.2997 8.91862C59.3997 10.6086 55.7097 11.5686 54.7097 11.7086C52.8697 11.9786 51.0197 12.1886 49.1797 12.3986C45.7797 12.7886 42.3697 13.1386 38.9797 13.5586C35.1997 14.0286 31.4197 14.4286 27.6297 14.7286C25.6697 14.8886 17.5197 16.3486 16.9897 14.1086ZM12.7697 43.1586C12.1297 43.2586 11.3997 43.1986 10.7597 43.2186C10.2997 43.2286 6.99969 43.5986 7.07969 42.7886C7.07969 42.7186 7.07969 42.6686 7.05969 42.6086C9.16969 42.6486 11.2897 42.6886 13.3997 42.7186C13.3897 43.0386 13.2497 43.0786 12.7697 43.1586ZM8.95969 41.2086C7.19969 41.1886 5.30969 41.3686 3.55969 41.1486C1.49969 40.8886 1.54969 40.7586 1.43969 39.1986C1.34969 37.9286 1.27969 37.3486 2.27969 36.6886C4.11969 35.4786 8.91969 36.0086 11.1497 35.9086C22.5997 35.4186 34.0597 35.8286 45.5097 35.6386C45.6097 35.9586 45.7197 36.2686 45.8297 36.5886C46.2097 37.7486 46.5197 39.7786 47.0897 41.4786C34.3797 41.3986 21.6597 41.3086 8.94969 41.1986L8.95969 41.2086ZM51.7497 43.0486C49.6597 42.8486 49.1297 42.2286 48.5297 40.3586C47.9297 38.4786 47.3097 36.5986 46.6897 34.7186C46.6897 34.6886 46.6797 34.6686 46.6697 34.6486C46.3897 33.7986 46.1197 32.9486 45.8397 32.0986C43.9197 26.3286 41.9797 20.5686 39.8997 14.8586C41.9697 14.6086 44.0397 14.3786 46.1097 14.1486C46.1097 14.1786 46.1097 14.1986 46.1097 14.2186C46.5997 16.5086 47.6597 18.6386 48.1897 20.9286C48.7297 23.2686 49.4597 25.5586 50.2097 27.8286C51.0297 30.2986 51.8997 32.7586 52.7897 35.1986C52.8497 35.3686 52.9097 35.5486 52.9797 35.7186C53.5297 37.2186 55.5197 40.4086 55.3497 41.9786C55.2097 43.2886 53.0297 43.1686 51.7697 43.0486H51.7497ZM59.5897 39.8086C58.8697 41.0086 57.6497 40.9486 56.4297 40.9886C56.3897 40.8886 56.3497 40.7886 56.3097 40.6786C55.6597 38.9886 55.0497 37.2786 54.4197 35.5786C55.3297 35.5586 56.2397 35.5786 57.1497 35.6086C58.3797 35.6486 59.3297 35.5586 59.6997 36.8986C59.9597 37.8486 60.1297 38.9286 59.5897 39.8186V39.8086Z" fill="white"/>
<path d="M45.2497 19.4487C44.9497 18.6087 43.6097 18.9687 43.9097 19.8187C45.9697 25.6587 47.7697 31.5987 49.9297 37.4087C50.2397 38.2387 51.5897 37.8787 51.2697 37.0387C49.1097 31.2287 47.3197 25.2887 45.2497 19.4487Z" fill="white"/>
<path d="M27.5497 23.3486C28.4497 23.3486 28.4497 21.9586 27.5497 21.9586C24.0297 21.9586 20.5097 21.8286 16.9997 21.8186C16.0997 21.8186 16.0997 23.2086 16.9997 23.2086C20.5197 23.2086 24.0397 23.3486 27.5497 23.3486Z" fill="white"/>
<path d="M10.0598 23.2786C10.8598 23.2886 11.6698 23.2686 12.4698 23.2786C13.3698 23.2886 13.3698 21.8986 12.4698 21.8886C11.6698 21.8786 10.8598 21.8986 10.0598 21.8886C9.15977 21.8786 9.15977 23.2686 10.0598 23.2786Z" fill="white"/>
<path d="M9.76964 29.1387C14.8296 28.8587 19.9596 29.1587 25.0396 29.0587C25.9396 29.0387 25.9396 27.6487 25.0396 27.6687C19.9696 27.7687 14.8296 27.4687 9.76964 27.7487C8.87964 27.7987 8.86964 29.1887 9.76964 29.1387Z" fill="white"/>
<path d="M35.1298 29.1985C36.0198 29.2685 36.0198 27.8685 35.1298 27.8085C33.1198 27.6585 31.0998 27.7985 29.0898 27.7685C28.1898 27.7585 28.1898 29.1485 29.0898 29.1585C31.0998 29.1885 33.1198 29.0385 35.1298 29.1985Z" fill="white"/>
<path d="M3.50979 29.1487C4.34979 29.0687 5.22978 29.0687 6.06978 29.1487C6.95978 29.2287 6.95978 27.8387 6.06978 27.7587C5.22978 27.6787 4.34979 27.6787 3.50979 27.7587C2.61979 27.8387 2.61979 29.2287 3.50979 29.1487Z" fill="white"/>
</svg>
