<svg width="51" height="54" viewBox="0 0 51 54" fill="none" xmlns="http://www.w3.org/2000/svg">
<path d="M42.0912 11.7037C39.8612 10.8537 37.7512 10.9937 35.6812 11.4937C35.8012 11.3637 35.9412 11.2537 36.0612 11.1037C38.3512 8.31371 39.1412 4.13371 38.0012 0.723707C37.9812 0.663707 37.9412 0.613713 37.9112 0.573713C37.8812 0.253713 37.6712 -0.036294 37.2512 0.00370599C31.8612 0.433706 27.1812 4.31371 25.6312 9.31371C24.4212 5.69371 21.7212 2.32371 18.8712 0.203711C18.6612 0.0437106 18.4612 0.0537109 18.2812 0.133711C18.2612 0.133711 18.2412 0.15371 18.2212 0.16371C18.1812 0.19371 18.1412 0.213706 18.1012 0.253706C18.0712 0.273706 18.0412 0.283711 18.0212 0.313711C16.9312 1.53371 16.3712 3.35371 15.9512 4.89371C15.8812 5.15371 15.9512 5.35371 16.1012 5.50371C16.1812 5.61371 16.2812 5.70371 16.4412 5.75371C20.3112 6.93371 23.2012 9.97371 24.2812 13.8337C19.9812 13.1137 16.3112 10.4037 11.6612 10.9837C7.17117 11.5437 3.68117 14.6437 1.81117 18.6737C-2.99883 29.0737 2.55117 41.5437 9.33117 49.7237C12.8812 54.0137 16.1912 53.5437 21.0512 51.9237C24.5812 50.7537 26.9712 51.4337 30.4012 52.2937C32.3012 52.7737 34.4412 53.2737 36.4112 52.9537C41.1412 52.2037 44.1812 46.4637 45.8912 42.5337C48.3912 36.7537 50.3312 30.8137 50.1412 24.4537C49.9912 19.1737 47.2712 13.6837 42.0812 11.7137L42.0912 11.7037ZM36.7412 1.45371C37.6112 4.50371 36.8612 8.33371 34.6212 10.6237C32.5512 12.7437 29.3612 13.4537 26.4812 13.8737C26.4912 13.8137 26.5112 13.7637 26.5012 13.6937C26.0612 7.72371 30.8112 2.22371 36.7412 1.46371V1.45371ZM17.4712 4.64371C17.7412 3.66371 18.1012 2.62371 18.6612 1.79371C21.2812 3.91371 23.7012 7.29371 24.5612 10.7437C23.0512 7.93371 20.5312 5.76371 17.4712 4.65371V4.64371ZM39.5412 49.7137C34.9112 54.0437 29.7512 49.4437 24.5612 49.6537C22.0812 49.7537 19.8912 51.0537 17.5312 51.6437C13.3012 52.6937 10.8112 49.6437 8.70117 46.4537C5.14117 41.0637 1.86117 35.2237 1.44117 28.6437C1.02117 22.0537 3.89117 13.7937 11.1912 12.4437C16.4212 11.4737 20.4312 14.9737 25.4012 15.3437C25.4912 15.3737 25.5812 15.3837 25.7012 15.3737C27.1312 15.3537 28.5312 15.0337 29.9112 14.6037C30.5712 14.4337 31.2212 14.2137 31.8512 13.9637C34.8012 12.9437 37.7212 11.8837 40.7812 12.7237C49.1112 14.9937 49.6012 25.3537 48.0212 32.2737C46.6712 38.2037 44.0612 45.4737 39.5312 49.7037L39.5412 49.7137Z" fill="white"/>
<path d="M12.7511 16.5338C8.05111 18.4738 5.67111 24.4038 6.46111 29.1838C6.61111 30.0638 7.95111 29.6938 7.80111 28.8138C7.15111 24.8738 9.17111 19.5038 13.1211 17.8838C13.9411 17.5438 13.5811 16.1938 12.7511 16.5438V16.5338Z" fill="white"/>
<path d="M7.39106 32.0637C6.49106 32.0637 6.49106 33.4537 7.39106 33.4537C8.29106 33.4537 8.29106 32.0637 7.39106 32.0637Z" fill="white"/>
</svg>
