<svg width="69" height="50" viewBox="0 0 69 50" fill="none" xmlns="http://www.w3.org/2000/svg">
<path d="M63.8542 17.4843C63.6784 16.9827 63.4736 16.4889 63.3145 15.9725C63.1373 15.3884 63.0947 14.7269 62.586 14.3353C61.76 13.6869 60.6899 14.0979 59.7678 14.3657C59.3765 13.0212 58.9826 11.667 58.6202 10.3147C58.3692 9.37772 58.2512 7.70112 57.4587 7.02313C56.1568 5.91223 53.4576 6.81148 51.8052 7.21284C51.7238 6.98619 51.6713 6.75178 51.5925 6.53479C50.3561 3.11837 48.3057 3.07767 44.9488 3.95645C41.2415 4.91875 40.6276 6.49123 41.3399 10.193C41.9058 13.1161 42.612 16.0224 43.3376 18.9234C39.8799 20.1605 35.9945 20.7668 32.4502 21.7579C29.4082 22.6144 26.3514 23.4542 23.3302 24.3879C22.5158 21.5417 21.6724 18.7033 20.706 15.9082C19.4895 12.3726 18.1735 11.2862 14.4624 12.3116C11.8737 13.0052 9.28474 13.9681 9.73606 17.0048C9.81787 17.5419 9.919 18.0739 10.0298 18.6032C8.42445 19.0644 5.85749 19.6073 5.23889 21.0465C4.44748 22.8839 6.07734 26.7643 6.5439 28.5442C6.55943 28.6021 6.57755 28.6697 6.59308 28.7277C5.84862 28.8858 4.95669 29.073 4.42511 29.4846C3.45784 30.2407 4.36047 31.9866 4.61859 32.9113C4.88707 33.8746 4.94828 35.494 6.22556 35.4312C6.85808 35.3963 7.51302 35.2519 8.14535 35.0618C8.75099 37.322 9.48927 39.5364 10.5221 41.382C11.8151 43.6962 14.1861 43.0401 16.5173 42.4673C16.622 42.7809 16.71 43.1093 16.8244 43.4203C17.936 46.4871 19.7097 46.2292 22.5046 45.5321C24.28 45.0874 27.2275 44.9602 27.7848 42.906C28.1112 41.6901 27.4991 39.9078 27.2245 38.7287C26.6289 36.1965 25.934 33.6807 25.2418 31.1744C25.1874 30.9716 25.1331 30.7687 25.0813 30.5755C31.6772 28.7254 38.4397 27.2653 44.9438 25.1499C45.5153 27.3986 46.1184 29.6492 46.7504 31.892C47.1676 33.3332 47.4231 35.2524 48.2568 36.5095C49.6926 38.6612 52.3347 37.3942 54.423 36.8036C56.7792 36.1308 58.7814 35.76 58.6022 32.8885C58.5679 32.2972 58.468 31.6925 58.3365 31.0859C60.5285 30.4571 62.9311 29.803 62.9319 27.256C62.9295 25.2378 62.4006 23.0709 61.7655 20.9324C62.5196 20.7718 63.3689 20.5028 63.8875 20.0429C64.614 19.3927 64.1418 18.2872 63.8716 17.5107L63.8542 17.4843ZM6.36688 34.0268C6.1388 33.446 6.02524 32.7518 5.86995 32.1722C5.77419 31.8148 5.66618 31.4504 5.57041 31.093C5.54453 30.9964 5.51241 30.5288 5.3739 30.5141C5.59019 30.394 6.09576 30.3103 6.27669 30.2515C6.49886 30.192 6.71136 30.135 6.93352 30.0755C7.21772 31.252 7.49812 32.4917 7.8075 33.7236C7.34903 33.8672 6.83192 33.985 6.3643 34.0171L6.36688 34.0268ZM11.4698 39.896C10.9469 38.9491 10.7174 37.7062 10.387 36.6662C9.4786 33.8556 8.63781 31.0268 7.89103 28.1625C7.45293 26.4889 6.73106 24.5289 6.68969 22.7904C6.63828 20.744 8.56205 20.4666 10.358 19.944C11.1412 23.0988 12.3025 26.2351 13.0753 29.3512C14.0204 33.1873 14.8968 37.2696 16.0918 41.1112C13.9661 41.6394 12.7054 42.1118 11.4795 39.8935L11.4698 39.896ZM26.0995 40.055C26.3937 41.5395 26.8278 42.5413 25.3781 43.3128C24.5798 43.7337 23.2266 43.8996 22.374 44.1177C20.7364 44.5358 18.9872 44.228 18.0654 42.6426C17.3961 41.4968 17.2855 39.5387 16.922 38.2592C16.0648 35.176 15.1812 32.1102 14.4206 29.0011C13.9105 26.943 13.309 24.9301 12.7217 22.8927C12.2605 21.2873 11.9635 19.638 11.5216 18.0275C10.7809 15.379 12.4048 14.2916 14.8389 13.6394C16.0173 13.3236 17.7091 13.5329 18.6674 14.4046C19.2194 14.9192 19.4371 16.4656 19.6776 17.2087C20.1793 18.7721 20.6398 20.3362 21.1029 21.91C22 24.91 22.8803 27.9249 23.7316 30.9476C24.5681 33.9535 25.5045 36.9844 26.1091 40.0524L26.0995 40.055ZM24.6848 29.2117C24.3716 28.0429 24.0366 26.8697 23.7041 25.7061C26.7157 24.7749 29.7725 23.9351 32.8048 23.0812C36.3394 22.0927 40.2249 21.4864 43.6729 20.2519C43.9764 21.4233 44.2728 22.6069 44.5763 23.7783C38.0652 25.906 31.2904 27.3589 24.6848 29.2117ZM51.7635 12.2347C52.2614 14.2858 52.7592 16.3368 53.3465 18.3742C54.1809 21.2565 54.9161 24.155 55.654 27.0631C56.472 30.2706 58.5553 34.1434 54.0433 35.4249C53.2924 35.6364 51.9669 36.2918 51.1667 36.1646C48.8976 35.8098 48.8453 34.1467 48.3738 32.5027C47.5523 29.6687 46.7862 26.8096 46.0613 23.9498C45.3054 20.974 44.5881 17.9879 43.8778 14.9896C43.1152 11.7568 40.6784 6.48795 45.3059 5.28943C48.0543 4.5737 49.3479 5.1899 50.5757 7.95638C51.1706 9.28778 51.4321 10.8431 51.7661 12.2444L51.7635 12.2347ZM60.7449 23.4214C60.967 24.3661 61.369 25.48 61.383 26.4597C61.4091 28.8753 59.9652 29.1276 57.9664 29.7046C57.5544 28.2828 57.038 26.8579 56.7001 25.5197C56.0684 23.0076 55.4078 20.5033 54.6891 18.0145C53.7874 14.8811 53.1607 11.6533 52.23 8.5277C53.0684 8.33409 53.9686 8.06182 54.7887 8.06986C56.3971 8.08403 56.4649 8.22116 57.075 9.87978C57.8324 11.9337 58.2776 14.1749 58.8708 16.2728C59.5365 18.6412 60.1925 21.0122 60.752 23.4091L60.7449 23.4214ZM61.3245 19.5184C60.93 18.2782 60.5311 17.0599 60.2161 15.9227C60.1954 15.8454 60.1772 15.7778 60.1565 15.7006C60.4656 15.6177 60.7747 15.5349 61.0864 15.4618C61.5456 15.3594 61.5294 15.2602 61.7578 15.5717C61.9391 15.8234 61.9648 16.3445 62.0644 16.6387C62.1872 17.0199 62.3461 17.3811 62.4786 17.7597C62.5904 18.0611 62.6829 18.3676 62.7657 18.6767C62.7735 18.7056 62.7963 18.9066 62.8344 19.0103C62.7913 19.0425 62.7482 19.0748 62.7095 19.0851C62.2459 19.2094 61.7926 19.3722 61.3315 19.5061L61.3245 19.5184Z" fill="white"/>
<path d="M12.888 17.6405C12.662 19.3472 13.3755 21.2369 14.0079 22.786C14.342 23.6076 15.6872 23.2575 15.3506 22.4263C14.7659 20.9783 14.0694 19.2289 14.2781 17.6511C14.4014 16.7588 13.0042 16.7605 12.888 17.6405Z" fill="white"/>
<path d="M14.2069 15.1441C13.3376 15.3771 13.6974 16.7197 14.5667 16.4868C15.436 16.2538 15.0763 14.9112 14.2069 15.1441Z" fill="white"/>
<path d="M43.9315 8.65998C43.6291 9.42432 43.8422 10.4128 43.9571 11.1896C44.1071 12.1743 44.3131 13.1751 44.6492 14.1203C44.9472 14.9618 46.3021 14.6092 45.9919 13.7605C45.7094 12.9769 45.5307 12.1552 45.3835 11.3354C45.2654 10.663 45.0066 9.69708 45.2718 9.02555C45.5974 8.19291 44.2571 7.82734 43.9315 8.65998Z" fill="white"/>
<path d="M45.3832 6.42832C44.5139 6.66126 44.8736 8.0039 45.743 7.77096C46.6123 7.53802 46.2525 6.19539 45.3832 6.42832Z" fill="white"/>
</svg>
