<svg width="52" height="53" viewBox="0 0 52 53" fill="none" xmlns="http://www.w3.org/2000/svg">
<path d="M49.6322 0.0611105C48.6822 0.231111 48.1822 1.13111 47.6722 1.84111C47.1522 2.57111 46.7222 3.3611 46.2222 4.1111C45.1422 5.7211 44.0522 5.9411 42.2022 6.1011C39.5022 6.3411 36.6822 6.2511 33.9722 6.1911C32.5622 6.1611 30.9122 5.80111 30.4022 7.45111C29.4522 10.5611 34.4622 10.5211 37.7022 10.2911C34.6122 16.2211 32.0322 22.3311 29.5522 28.5311C28.2822 28.1911 27.0522 27.9111 25.9422 27.6911C22.3622 26.9211 18.3722 25.8611 14.5122 25.6711C13.3622 20.7911 11.9622 15.9811 10.7822 11.1011C10.7822 11.0811 10.7622 11.0711 10.7622 11.0511C12.2922 10.9011 13.8422 10.9611 15.3522 10.6811C18.0722 10.1911 17.4222 7.10111 14.8622 6.89111C12.7222 6.72111 10.7022 6.6011 8.57221 6.0811C6.53221 5.5911 4.79222 5.1211 2.71222 5.3811C2.61222 5.3711 2.51222 5.38111 2.39222 5.42111C2.22222 5.45111 2.11223 5.52111 2.03223 5.62111C0.14223 6.66111 -0.0977751 9.5011 1.65222 10.9911C2.79222 11.9611 4.95223 12.2111 6.37223 12.0311C6.52223 12.0111 6.67223 11.9711 6.81223 11.9411C7.86223 16.6111 9.01221 21.2511 10.1322 25.9011C7.4822 26.3711 5.02221 27.5111 2.95221 29.7811C-1.82779 35.0511 -0.637792 43.1211 5.32221 46.8911C6.14221 47.4111 6.99223 47.8311 7.87223 48.1711C7.44223 48.5011 7.08222 48.9311 6.90223 49.5111C6.46222 50.9011 7.47222 51.9911 8.80222 52.2411C10.0322 52.4711 11.3922 51.8311 11.7622 50.5811C11.8922 50.1411 11.8622 49.6511 11.7122 49.2011C13.2822 49.4711 14.8922 49.5911 16.4922 49.6511C21.9622 49.8311 27.6422 49.8611 33.1022 49.4911C34.2922 49.4111 35.6322 49.3411 37.0122 49.2211C36.9722 49.3211 36.9022 49.4011 36.8622 49.5011C36.4222 50.8911 37.4322 51.9811 38.7622 52.2311C39.9922 52.4611 41.3522 51.8211 41.7222 50.5711C41.9122 49.9111 41.7522 49.1611 41.3622 48.5611C42.1222 48.3811 42.8422 48.1611 43.4922 47.8811C46.0022 46.8011 46.6022 43.7111 46.2022 41.2411C45.2922 35.5711 39.8222 32.0811 34.1522 29.9611C36.7822 23.3111 39.1822 16.5911 42.4622 10.2311C44.2922 10.3211 46.2222 10.2411 47.4522 9.07111C48.5722 8.00111 49.5122 6.02111 50.3422 4.70111C50.7822 4.00111 51.7822 2.77111 51.7522 1.92111C51.7222 0.791111 50.8422 -0.188888 49.6122 0.0311117L49.6322 0.0611105ZM4.23221 10.5711C2.85221 10.1911 0.452201 7.65111 2.7522 6.79111C5.1122 6.42111 7.24221 7.31111 9.51221 7.76111C10.5422 7.97111 13.1822 7.82111 14.0422 8.34111C15.6622 9.32111 12.6722 9.44111 11.9322 9.51111C10.7922 9.62111 9.66222 9.77111 8.55222 10.0411C7.11222 10.3911 5.77222 11.0011 4.24222 10.5711H4.23221ZM8.15222 11.6011C8.55222 11.4811 8.96223 11.3511 9.37223 11.2611C9.39223 11.2611 9.40221 11.2611 9.42221 11.2611C9.42221 11.3311 9.41221 11.4011 9.42221 11.4911C10.5722 16.2311 11.9222 20.9211 13.0522 25.6611C12.5322 25.6611 12.0222 25.6911 11.5122 25.7411C10.3722 21.0311 9.21222 16.3311 8.15222 11.6111V11.6011ZM10.4222 50.2311C10.2222 50.8211 9.5222 51.0211 8.9722 50.8711C8.3422 50.7111 8.00221 50.2911 8.35221 49.6711C8.60221 49.2311 9.0322 49.0011 9.5022 48.8911C9.5422 48.9011 9.57222 48.9311 9.61222 48.9311C10.1522 49.0211 10.6022 49.6811 10.4222 50.2211V50.2311ZM40.3822 50.2311C40.1822 50.8211 39.4822 51.0211 38.9322 50.8711C38.3022 50.7111 37.9622 50.2911 38.3122 49.6711C38.4922 49.3411 38.7922 49.1411 39.1222 49.0011C39.2722 48.9811 39.4322 48.9611 39.5822 48.9411C40.1222 49.0411 40.5622 49.6911 40.3822 50.2311ZM44.8822 43.1111C44.5022 47.6111 39.0122 47.3911 35.4822 47.8711C30.9322 48.4811 26.2422 48.2311 21.6622 48.2911C13.8222 48.3911 -1.01778 47.4311 1.52222 35.5311C3.99222 23.9411 17.4522 27.2911 25.5722 29.0511C32.1222 30.3511 45.6422 34.2811 44.8922 43.1211L44.8822 43.1111ZM32.8622 29.5311C32.2022 29.3111 31.5422 29.1011 30.8922 28.9111C33.4422 22.5611 36.0822 16.3011 39.2922 10.2511C39.3022 10.2211 39.3022 10.2011 39.3122 10.1711C39.5822 10.1511 39.8222 10.1311 39.9822 10.1211C40.2922 10.1211 40.6222 10.1511 40.9622 10.1711C37.7922 16.4311 35.4322 23.0111 32.8522 29.5311H32.8622ZM49.1522 4.04111C48.5922 4.96111 47.9422 6.0411 47.2522 6.8511C45.7222 8.6311 44.0622 8.8411 42.0822 8.8011C42.0822 8.8011 42.0822 8.8011 42.0722 8.8011C41.4122 8.7911 40.7222 8.75111 39.9822 8.73111C38.2122 8.79111 36.4322 8.7611 34.6622 8.7111C33.5022 8.6811 30.8022 8.42111 33.2322 7.56111C34.3022 7.18111 36.5222 7.6211 37.6422 7.6011C39.3022 7.5711 40.9822 7.56111 42.6422 7.50111C43.7322 7.46111 44.7422 7.4811 45.6922 6.8611C47.1122 5.9311 47.3422 4.0011 48.5622 2.9911C51.2322 0.771103 49.4822 3.49111 49.1422 4.04111H49.1522Z" fill="white"/>
<path d="M22.5523 30.6312C22.3623 30.8212 22.3323 31.0512 22.3823 31.2512C22.3823 31.2612 22.3823 31.2712 22.3823 31.2912C22.3923 31.3412 22.4123 31.3912 22.4324 31.4312C22.4823 31.5412 22.5524 31.6512 22.6824 31.7312C23.2924 32.1412 23.8823 32.5911 24.4523 33.0511C23.7723 33.3811 23.0824 33.7112 22.4024 34.0412C21.5124 31.8012 19.5023 30.3412 16.1423 29.5312C11.5423 28.7112 6.63235 32.2612 5.62235 36.7812C4.48235 41.8412 8.22235 45.7412 12.9923 46.5112C17.9323 47.3112 21.7523 45.1211 22.6623 40.0511C22.9823 38.2611 23.0323 36.7212 22.7923 35.3912C23.7423 34.9312 24.6923 34.4712 25.6323 34.0212C26.0623 34.3812 26.4923 34.7412 26.9223 35.1012C27.1823 35.3212 27.4823 35.3112 27.7223 35.1812C27.8223 35.1612 27.9323 35.1112 28.0223 35.0312C28.5723 34.5612 29.9723 33.8412 29.7523 32.9312C29.5423 32.0712 28.0724 31.3212 27.4024 30.8112C26.6624 30.2412 25.5923 29.4612 24.6923 29.2012C23.7523 28.9412 23.1024 30.0512 22.5324 30.6412L22.5523 30.6312ZM21.4324 38.8412C20.9424 43.2912 18.2423 45.7311 13.7323 45.1911C9.62234 44.7011 6.02233 41.7212 6.97233 37.1512C7.74233 33.4412 11.9324 30.1912 15.7824 30.8812C17.9524 31.4012 20.4623 31.9211 21.3023 34.4111C21.3123 34.4511 21.3223 34.5111 21.3323 34.5511C19.0723 35.6211 16.7823 36.6412 14.3923 37.4312C13.5423 37.7112 13.9023 39.0512 14.7623 38.7712C17.0923 38.0112 19.3423 37.0212 21.5523 35.9812C21.6023 36.9612 21.5324 38.0012 21.4324 38.8412ZM28.2123 33.0912C27.9723 33.3112 27.7023 33.5111 27.4523 33.7211C26.3423 32.7911 25.2423 31.8512 24.0723 31.0112C24.2323 30.8512 24.3923 30.7112 24.5423 30.6812C24.7923 30.6312 25.6924 31.3112 25.9324 31.4612C26.3024 31.7012 27.6823 32.6012 28.2123 33.1012V33.0912Z" fill="white"/>
<path d="M40.1422 41.0212C40.1222 41.9212 41.5122 41.9212 41.5322 41.0212C41.5822 39.1412 40.7722 37.3512 39.3022 36.1812C38.6122 35.6312 37.6122 36.6112 38.3122 37.1712C39.5222 38.1312 40.1722 39.4812 40.1422 41.0212Z" fill="white"/>
<path d="M40.0222 42.821C39.1222 42.821 39.1222 44.211 40.0222 44.211C40.9222 44.211 40.9222 42.821 40.0222 42.821Z" fill="white"/>
</svg>
