<svg width="59" height="54" viewBox="0 0 59 54" fill="none" xmlns="http://www.w3.org/2000/svg">
<path d="M45.3219 0.323876C38.8419 -0.656124 31.8419 2.78388 29.5919 8.89388C28.4619 5.96388 26.1219 3.53388 23.3919 2.00388C18.8219 -0.556124 14.3319 -0.586124 9.43187 1.47388C5.65187 3.06388 2.69188 7.25388 1.12188 10.8939C-0.858125 15.4939 0.141875 21.1239 1.37188 25.7839C1.60188 26.6539 2.94187 26.2839 2.71187 25.4139C0.651872 17.6339 0.991882 9.05387 8.08188 3.84388C11.4119 1.40388 17.1419 0.533876 20.8419 2.23388C24.7219 4.00388 28.5819 7.47388 28.8819 12.0039C28.9419 12.9039 30.2019 12.8939 30.2719 12.0039C31.0019 3.70388 41.1819 -0.726124 48.3219 2.65388C55.9019 6.24388 59.1019 16.4239 56.6019 24.1339C55.0319 29.0039 48.7819 27.7939 44.6719 27.8139C42.3419 27.8239 40.0019 27.8539 37.6719 27.8339C37.3619 27.8339 36.0619 27.8339 36.1019 27.8539C35.7319 27.6239 34.7919 24.8439 34.5719 24.2739C34.2819 23.5139 33.3019 23.6739 33.2019 24.4639C32.7419 28.0739 31.8019 31.5839 31.0519 35.1439C30.3319 29.1639 30.0319 23.1439 29.0319 17.2039C28.9119 16.5139 27.8319 16.5639 27.6919 17.2039C26.7319 21.3539 25.7719 25.5039 24.8119 29.6539C24.3819 27.7239 23.9519 25.8039 23.5219 23.8739C23.3819 23.2339 22.2819 23.1839 22.1819 23.8739C22.0319 24.8339 21.7919 27.4339 21.1419 27.8839C20.7019 28.1939 19.0319 27.8739 18.4619 27.8639C15.9319 27.8439 13.4019 27.8339 10.8719 27.8139C8.11188 27.7939 3.76188 27.2439 3.89188 31.3939C3.95188 33.5639 5.97188 35.7639 7.25188 37.3739C9.11188 39.7039 11.3319 41.7139 13.6819 43.5439C18.5019 47.3139 23.8719 50.2339 29.0819 53.4139C29.3019 53.5439 29.5719 53.5339 29.7819 53.4139C39.2119 48.2639 46.8119 41.5939 53.5119 33.2039C54.0619 32.5139 53.0819 31.5139 52.5219 32.2139C48.0919 37.7639 43.2019 43.0239 37.3419 47.0839C35.4719 48.3739 31.3819 52.0939 29.0619 51.7739C27.9719 51.6239 26.4619 50.2239 25.5119 49.6639C24.0519 48.7939 22.5919 47.9239 21.1519 47.0239C17.9819 45.0339 14.8719 42.9139 12.0819 40.4039C10.4119 38.9039 2.04188 30.8939 7.55188 29.1939C9.63188 28.5539 13.0319 29.2339 15.2119 29.2439C17.3719 29.2539 19.5419 29.2739 21.7019 29.2839C22.0119 29.2839 22.2819 29.0639 22.3719 28.7739C22.5419 28.2439 22.6919 27.7239 22.8419 27.1939C23.2719 29.1239 23.7019 31.0539 24.1319 32.9839C24.2819 33.6539 25.3219 33.6439 25.4719 32.9839C26.3819 29.0439 27.2919 25.0939 28.2019 21.1539C28.9919 27.3439 29.2719 33.5939 30.3019 39.7639C30.4419 40.6139 31.5819 40.2839 31.6719 39.5739C32.2019 35.3739 33.3919 31.3039 34.1619 27.1439C34.6319 28.1839 35.2819 29.0139 36.5619 29.2139C39.7219 29.7239 43.4119 29.2139 46.6019 29.1939C49.5319 29.1739 53.4319 29.8239 55.8819 27.8439C58.0019 26.1239 58.4319 23.0839 58.6519 20.5439C59.4019 11.9339 54.6819 1.74388 45.3119 0.323876H45.3219Z" fill="white"/>
</svg>
