<svg width="12" height="12" viewBox="0 0 12 12" fill="none" xmlns="http://www.w3.org/2000/svg">
<g clip-path="url(#clip0_52_2)">
<path d="M9.37497 3V9C9.37497 9.19891 9.29595 9.38968 9.1553 9.53033C9.01465 9.67098 8.82388 9.75 8.62497 9.75H7.87497C7.67606 9.75 7.48529 9.67098 7.34464 9.53033C7.20399 9.38968 7.12497 9.19891 7.12497 9V6.375H4.87497V9C4.87497 9.19891 4.79595 9.38968 4.6553 9.53033C4.51465 9.67098 4.32388 9.75 4.12497 9.75H3.37497C3.17606 9.75 2.98529 9.67098 2.84464 9.53033C2.70399 9.38968 2.62497 9.19891 2.62497 9V3C2.62497 2.80109 2.70399 2.61032 2.84464 2.46967C2.98529 2.32902 3.17606 2.25 3.37497 2.25H4.12497C4.32388 2.25 4.51465 2.32902 4.6553 2.46967C4.79595 2.61032 4.87497 2.80109 4.87497 3V5.625H7.12497V3C7.12497 2.80109 7.20399 2.61032 7.34464 2.46967C7.48529 2.32902 7.67606 2.25 7.87497 2.25H8.62497C8.82388 2.25 9.01465 2.32902 9.1553 2.46967C9.29595 2.61032 9.37497 2.80109 9.37497 3ZM1.68747 3.375H1.49997C1.30106 3.375 1.11029 3.45402 0.969639 3.59467C0.828987 3.73532 0.749969 3.92609 0.749969 4.125V5.625H0.387626C0.290719 5.62357 0.196866 5.65889 0.124944 5.72385C0.0530235 5.78882 0.008371 5.8786 -3.05488e-05 5.97516C-0.00343645 6.02645 0.00374075 6.0779 0.0210553 6.1263C0.0383698 6.17471 0.0654518 6.21904 0.100619 6.25653C0.135786 6.29403 0.178288 6.32389 0.225484 6.34427C0.27268 6.36465 0.323562 6.37511 0.374969 6.375H0.749969V7.875C0.749969 8.07391 0.828987 8.26468 0.969639 8.40533C1.11029 8.54598 1.30106 8.625 1.49997 8.625H1.68747C1.7372 8.625 1.78489 8.60525 1.82005 8.57008C1.85522 8.53492 1.87497 8.48723 1.87497 8.4375V3.5625C1.87497 3.51277 1.85522 3.46508 1.82005 3.42992C1.78489 3.39475 1.7372 3.375 1.68747 3.375ZM12 5.97516C11.9916 5.87877 11.9471 5.78911 11.8753 5.72417C11.8036 5.65923 11.71 5.62381 11.6133 5.625H11.25V4.125C11.25 3.92609 11.171 3.73532 11.0303 3.59467C10.8896 3.45402 10.6989 3.375 10.5 3.375H10.3125C10.2627 3.375 10.215 3.39475 10.1799 3.42992C10.1447 3.46508 10.125 3.51277 10.125 3.5625V8.4375C10.125 8.48723 10.1447 8.53492 10.1799 8.57008C10.215 8.60525 10.2627 8.625 10.3125 8.625H10.5C10.6989 8.625 10.8896 8.54598 11.0303 8.40533C11.171 8.26468 11.25 8.07391 11.25 7.875V6.375H11.625C11.6764 6.37511 11.7273 6.36465 11.7745 6.34427C11.8217 6.32389 11.8642 6.29403 11.8993 6.25653C11.9345 6.21904 11.9616 6.17471 11.9789 6.1263C11.9962 6.0779 12.0034 6.02645 12 5.97516Z" fill="#1CBE84"/>
</g>
<defs>
<clipPath id="clip0_52_2">
<rect width="12" height="12" fill="white"/>
</clipPath>
</defs>
</svg>
