<svg width="59" height="54" viewBox="0 0 59 54" fill="none" xmlns="http://www.w3.org/2000/svg">
<path d="M45.3221 0.323876C38.8421 -0.656124 31.8421 2.78388 29.5921 8.89388C28.4621 5.96388 26.1221 3.53388 23.3921 2.00388C18.8221 -0.556124 14.3321 -0.586124 9.43212 1.47388C5.65212 3.06388 2.69212 7.25388 1.12212 10.8939C-0.857881 15.4939 0.142119 21.1239 1.37212 25.7839C1.60212 26.6539 2.94212 26.2839 2.71212 25.4139C0.652116 17.6339 0.992126 9.05388 8.08213 3.84388C11.4121 1.40388 17.1421 0.533876 20.8421 2.23388C24.7221 4.00388 28.5821 7.47388 28.8821 12.0039C28.9421 12.9039 30.2021 12.8939 30.2721 12.0039C31.0021 3.70388 41.1821 -0.726124 48.3221 2.65388C55.9021 6.24388 59.1021 16.4239 56.6021 24.1339C55.0321 29.0039 48.7821 27.7939 44.6721 27.8139C42.3421 27.8239 40.0021 27.8539 37.6721 27.8339C37.3621 27.8339 36.0621 27.8339 36.1021 27.8539C35.7321 27.6239 34.7921 24.8439 34.5721 24.2739C34.2821 23.5139 33.3021 23.6739 33.2021 24.4639C32.7421 28.0739 31.8021 31.5839 31.0521 35.1439C30.3321 29.1639 30.0321 23.1439 29.0321 17.2039C28.9121 16.5139 27.8321 16.5639 27.6921 17.2039C26.7321 21.3539 25.7721 25.5039 24.8121 29.6539C24.3821 27.7239 23.9521 25.8039 23.5221 23.8739C23.3821 23.2339 22.2821 23.1839 22.1821 23.8739C22.0321 24.8339 21.7921 27.4339 21.1421 27.8839C20.7021 28.1939 19.0321 27.8739 18.4621 27.8639C15.9321 27.8439 13.4021 27.8339 10.8721 27.8139C8.11212 27.7939 3.76212 27.2439 3.89212 31.3939C3.95212 33.5639 5.97212 35.7639 7.25212 37.3739C9.11212 39.7039 11.3321 41.7139 13.6821 43.5439C18.5021 47.3139 23.8721 50.2339 29.0821 53.4139C29.3021 53.5439 29.5721 53.5339 29.7821 53.4139C39.2121 48.2639 46.8121 41.5939 53.5121 33.2039C54.0621 32.5139 53.0821 31.5139 52.5221 32.2139C48.0921 37.7639 43.2021 43.0239 37.3421 47.0839C35.4721 48.3739 31.3821 52.0939 29.0621 51.7739C27.9721 51.6239 26.4621 50.2239 25.5121 49.6639C24.0521 48.7939 22.5921 47.9239 21.1521 47.0239C17.9821 45.0339 14.8721 42.9139 12.0821 40.4039C10.4121 38.9039 2.04213 30.8939 7.55213 29.1939C9.63213 28.5539 13.0321 29.2339 15.2121 29.2439C17.3721 29.2539 19.5421 29.2739 21.7021 29.2839C22.0121 29.2839 22.2821 29.0639 22.3721 28.7739C22.5421 28.2439 22.6921 27.7239 22.8421 27.1939C23.2721 29.1239 23.7021 31.0539 24.1321 32.9839C24.2821 33.6539 25.3221 33.6439 25.4721 32.9839C26.3821 29.0439 27.2921 25.0939 28.2021 21.1539C28.9921 27.3439 29.2721 33.5939 30.3021 39.7639C30.4421 40.6139 31.5821 40.2839 31.6721 39.5739C32.2021 35.3739 33.3921 31.3039 34.1621 27.1439C34.6321 28.1839 35.2821 29.0139 36.5621 29.2139C39.7221 29.7239 43.4121 29.2139 46.6021 29.1939C49.5321 29.1739 53.4321 29.8239 55.8821 27.8439C58.0021 26.1239 58.4321 23.0839 58.6521 20.5439C59.4021 11.9339 54.6821 1.74388 45.3121 0.323876H45.3221Z" fill="#06402B"/>
</svg>
