<svg width="51" height="54" viewBox="0 0 51 54" fill="none" xmlns="http://www.w3.org/2000/svg">
<path d="M42.0914 11.7037C39.8614 10.8537 37.7514 10.9937 35.6814 11.4937C35.8014 11.3637 35.9414 11.2537 36.0614 11.1037C38.3514 8.31371 39.1414 4.13371 38.0014 0.723707C37.9814 0.663707 37.9414 0.613713 37.9114 0.573713C37.8814 0.253713 37.6714 -0.036294 37.2514 0.00370599C31.8614 0.433706 27.1814 4.31371 25.6314 9.31371C24.4214 5.69371 21.7214 2.32371 18.8714 0.203711C18.6614 0.0437106 18.4614 0.0537109 18.2814 0.133711C18.2614 0.133711 18.2414 0.15371 18.2214 0.16371C18.1814 0.19371 18.1414 0.213706 18.1014 0.253706C18.0714 0.273706 18.0414 0.283711 18.0214 0.313711C16.9314 1.53371 16.3714 3.35371 15.9514 4.89371C15.8814 5.15371 15.9514 5.35371 16.1014 5.50371C16.1814 5.61371 16.2814 5.70371 16.4414 5.75371C20.3114 6.93371 23.2014 9.97371 24.2814 13.8337C19.9814 13.1137 16.3114 10.4037 11.6614 10.9837C7.17141 11.5437 3.68141 14.6437 1.81141 18.6737C-2.99859 29.0737 2.55141 41.5437 9.33141 49.7237C12.8814 54.0137 16.1914 53.5437 21.0514 51.9237C24.5814 50.7537 26.9714 51.4337 30.4014 52.2937C32.3014 52.7737 34.4414 53.2737 36.4114 52.9537C41.1414 52.2037 44.1814 46.4637 45.8914 42.5337C48.3914 36.7537 50.3314 30.8137 50.1414 24.4537C49.9914 19.1737 47.2714 13.6837 42.0814 11.7137L42.0914 11.7037ZM36.7414 1.45371C37.6114 4.50371 36.8614 8.33371 34.6214 10.6237C32.5514 12.7437 29.3614 13.4537 26.4814 13.8737C26.4914 13.8137 26.5114 13.7637 26.5014 13.6937C26.0614 7.72371 30.8114 2.22371 36.7414 1.46371V1.45371ZM17.4714 4.64371C17.7414 3.66371 18.1014 2.62371 18.6614 1.79371C21.2814 3.91371 23.7014 7.29371 24.5614 10.7437C23.0514 7.93371 20.5314 5.76371 17.4714 4.65371V4.64371ZM39.5414 49.7137C34.9114 54.0437 29.7514 49.4437 24.5614 49.6537C22.0814 49.7537 19.8914 51.0537 17.5314 51.6437C13.3014 52.6937 10.8114 49.6437 8.70141 46.4537C5.14141 41.0637 1.86141 35.2237 1.44141 28.6437C1.02141 22.0537 3.89141 13.7937 11.1914 12.4437C16.4214 11.4737 20.4314 14.9737 25.4014 15.3437C25.4914 15.3737 25.5814 15.3837 25.7014 15.3737C27.1314 15.3537 28.5314 15.0337 29.9114 14.6037C30.5714 14.4337 31.2214 14.2137 31.8514 13.9637C34.8014 12.9437 37.7214 11.8837 40.7814 12.7237C49.1114 14.9937 49.6014 25.3537 48.0214 32.2737C46.6714 38.2037 44.0614 45.4737 39.5314 49.7037L39.5414 49.7137Z" fill="#06402B"/>
<path d="M12.7514 16.5338C8.05136 18.4738 5.67136 24.4038 6.46136 29.1838C6.61136 30.0638 7.95136 29.6938 7.80136 28.8138C7.15136 24.8738 9.17136 19.5038 13.1214 17.8838C13.9414 17.5438 13.5814 16.1938 12.7514 16.5438V16.5338Z" fill="#06402B"/>
<path d="M7.39143 32.0637C6.49143 32.0637 6.49143 33.4537 7.39143 33.4537C8.29143 33.4537 8.29143 32.0637 7.39143 32.0637Z" fill="#06402B"/>
</svg>
