<svg width="69" height="50" viewBox="0 0 69 50" fill="none" xmlns="http://www.w3.org/2000/svg">
<path d="M63.8544 17.4843C63.6786 16.9827 63.4738 16.4889 63.3148 15.9725C63.1376 15.3884 63.0949 14.7269 62.5862 14.3353C61.7603 13.6869 60.6902 14.0979 59.7681 14.3657C59.3767 13.0212 58.9828 11.667 58.6205 10.3147C58.3694 9.37772 58.2515 7.70112 57.459 7.02313C56.1571 5.91223 53.4579 6.81148 51.8054 7.21284C51.724 6.98619 51.6715 6.75178 51.5927 6.53479C50.3563 3.11837 48.3059 3.07767 44.949 3.95645C41.2417 4.91875 40.6278 6.49123 41.3402 10.193C41.906 13.1161 42.6123 16.0224 43.3378 18.9234C39.8802 20.1605 35.9947 20.7668 32.4505 21.7579C29.4085 22.6144 26.3517 23.4542 23.3304 24.3879C22.516 21.5417 21.6726 18.7033 20.7063 15.9082C19.4897 12.3726 18.1737 11.2862 14.4627 12.3116C11.874 13.0052 9.28498 13.9681 9.73631 17.0048C9.81811 17.5419 9.91924 18.0739 10.03 18.6032C8.42469 19.0644 5.85773 19.6073 5.23913 21.0465C4.44773 22.8839 6.07758 26.7643 6.54415 28.5442C6.55968 28.6021 6.57779 28.6697 6.59332 28.7277C5.84887 28.8858 4.95693 29.073 4.42535 29.4846C3.45809 30.2407 4.36071 31.9866 4.61884 32.9113C4.88732 33.8746 4.94852 35.494 6.22581 35.4312C6.85833 35.3963 7.51326 35.2519 8.14559 35.0618C8.75123 37.322 9.48951 39.5364 10.5224 41.382C11.8154 43.6962 14.1864 43.0401 16.5175 42.4673C16.6223 42.7809 16.7103 43.1093 16.8247 43.4203C17.9363 46.4871 19.71 46.2292 22.5048 45.5321C24.2802 45.0874 27.2277 44.9602 27.785 42.906C28.1114 41.6901 27.4993 39.9078 27.2248 38.7287C26.6291 36.1965 25.9343 33.6807 25.242 31.1744C25.1877 30.9716 25.1333 30.7687 25.0816 30.5755C31.6774 28.7254 38.44 27.2653 44.9441 25.1499C45.5156 27.3986 46.1186 29.6492 46.7506 31.892C47.1679 33.3332 47.4233 35.2524 48.2571 36.5095C49.6929 38.6612 52.335 37.3942 54.4233 36.8036C56.7794 36.1308 58.7817 35.76 58.6024 32.8885C58.5682 32.2972 58.4683 31.6925 58.3368 31.0859C60.5287 30.4571 62.9313 29.803 62.9321 27.256C62.9297 25.2378 62.4008 23.0709 61.7657 20.9324C62.5198 20.7718 63.3691 20.5028 63.8878 20.0429C64.6143 19.3927 64.1421 18.2872 63.8719 17.5107L63.8544 17.4843ZM6.36713 34.0268C6.13905 33.446 6.02549 32.7518 5.8702 32.1722C5.77443 31.8148 5.66642 31.4504 5.57066 31.093C5.54478 30.9964 5.51265 30.5288 5.37414 30.5141C5.59043 30.394 6.096 30.3103 6.27694 30.2515C6.4991 30.192 6.7116 30.135 6.93377 30.0755C7.21796 31.252 7.49837 32.4917 7.80775 33.7236C7.34928 33.8672 6.83216 33.985 6.36454 34.0171L6.36713 34.0268ZM11.4701 39.896C10.9472 38.9491 10.7177 37.7062 10.3872 36.6662C9.47884 33.8556 8.63806 31.0268 7.89127 28.1625C7.45317 26.4889 6.73131 24.5289 6.68993 22.7904C6.63853 20.744 8.56229 20.4666 10.3582 19.944C11.1414 23.0988 12.3027 26.2351 13.0756 29.3512C14.0206 33.1873 14.8971 37.2696 16.0921 41.1112C13.9663 41.6394 12.7056 42.1118 11.4797 39.8935L11.4701 39.896ZM26.0997 40.055C26.3939 41.5395 26.828 42.5413 25.3783 43.3128C24.58 43.7337 23.2269 43.8996 22.3743 44.1177C20.7367 44.5358 18.9874 44.228 18.0657 42.6426C17.3963 41.4968 17.2857 39.5387 16.9222 38.2592C16.065 35.176 15.1814 32.1102 14.4208 29.0011C13.9107 26.943 13.3093 24.9301 12.7219 22.8927C12.2607 21.2873 11.9637 19.638 11.5218 18.0275C10.7811 15.379 12.405 14.2916 14.8392 13.6394C16.0176 13.3236 17.7094 13.5329 18.6677 14.4046C19.2197 14.9192 19.4373 16.4656 19.6778 17.2087C20.1796 18.7721 20.6401 20.3362 21.1032 21.91C22.0002 24.91 22.8805 27.9249 23.7318 30.9476C24.5683 33.9535 25.5047 36.9844 26.1094 40.0524L26.0997 40.055ZM24.6851 29.2117C24.3719 28.0429 24.0368 26.8697 23.7043 25.7061C26.7159 24.7749 29.7727 23.9351 32.805 23.0812C36.3396 22.0927 40.2251 21.4864 43.6731 20.2519C43.9766 21.4233 44.2731 22.6069 44.5766 23.7783C38.0654 25.906 31.2906 27.3589 24.6851 29.2117ZM51.7638 12.2347C52.2616 14.2858 52.7594 16.3368 53.3467 18.3742C54.1811 21.2565 54.9164 24.155 55.6542 27.0631C56.4723 30.2706 58.5556 34.1434 54.0435 35.4249C53.2927 35.6364 51.9671 36.2918 51.167 36.1646C48.8978 35.8098 48.8456 34.1467 48.374 32.5027C47.5525 29.6687 46.7864 26.8096 46.0616 23.9498C45.3056 20.974 44.5883 17.9879 43.8781 14.9896C43.1154 11.7568 40.6787 6.48795 45.3062 5.28943C48.0546 4.5737 49.3481 5.1899 50.576 7.95638C51.1708 9.28778 51.4323 10.8431 51.7664 12.2444L51.7638 12.2347ZM60.7451 23.4214C60.9672 24.3661 61.3692 25.48 61.3833 26.4597C61.4093 28.8753 59.9654 29.1276 57.9667 29.7046C57.5546 28.2828 57.0382 26.8579 56.7004 25.5197C56.0687 23.0076 55.408 20.5033 54.6894 18.0145C53.7877 14.8811 53.1609 11.6533 52.2302 8.5277C53.0687 8.33409 53.9689 8.06182 54.7889 8.06986C56.3974 8.08403 56.4652 8.22116 57.0753 9.87978C57.8327 11.9337 58.2779 14.1749 58.8711 16.2728C59.5368 18.6412 60.1928 21.0122 60.7522 23.4091L60.7451 23.4214ZM61.3247 19.5184C60.9303 18.2782 60.5314 17.0599 60.2163 15.9227C60.1956 15.8454 60.1775 15.7778 60.1568 15.7006C60.4659 15.6177 60.775 15.5349 61.0867 15.4618C61.5458 15.3594 61.5296 15.2602 61.758 15.5717C61.9393 15.8234 61.9651 16.3445 62.0646 16.6387C62.1875 17.0199 62.3464 17.3811 62.4789 17.7597C62.5907 18.0611 62.6831 18.3676 62.766 18.6767C62.7737 18.7056 62.7965 18.9066 62.8346 19.0103C62.7915 19.0425 62.7484 19.0748 62.7098 19.0851C62.2461 19.2094 61.7928 19.3722 61.3318 19.5061L61.3247 19.5184Z" fill="#06402B"/>
<path d="M12.8883 17.6405C12.6623 19.3472 13.3757 21.2369 14.0082 22.786C14.3422 23.6076 15.6874 23.2575 15.3508 22.4263C14.7661 20.9783 14.0696 19.2289 14.2784 17.6511C14.4016 16.7588 13.0045 16.7605 12.8883 17.6405Z" fill="#06402B"/>
<path d="M14.2071 15.1441C13.3377 15.3771 13.6975 16.7197 14.5668 16.4868C15.4361 16.2538 15.0764 14.9112 14.2071 15.1441Z" fill="#06402B"/>
<path d="M43.9317 8.65998C43.6292 9.42432 43.8423 10.4128 43.9572 11.1896C44.1072 12.1743 44.3133 13.1751 44.6494 14.1203C44.9473 14.9618 46.3022 14.6092 45.992 13.7605C45.7096 12.9769 45.5308 12.1552 45.3836 11.3354C45.2655 10.663 45.0067 9.69708 45.272 9.02555C45.5975 8.19291 44.2573 7.82734 43.9317 8.65998Z" fill="#06402B"/>
<path d="M45.3836 6.42832C44.5142 6.66126 44.874 8.0039 45.7433 7.77096C46.6127 7.53802 46.2529 6.19539 45.3836 6.42832Z" fill="#06402B"/>
</svg>
