<svg width="45" height="62" viewBox="0 0 45 62" fill="none" xmlns="http://www.w3.org/2000/svg">
<path d="M44.3963 37.9793C44.4563 29.3593 45.6763 20.6693 44.2163 12.0993C43.6263 8.65926 42.4263 8.88926 39.0663 8.84926C35.7863 8.79926 32.4963 8.81928 29.2163 8.70928C29.1863 8.70928 29.1663 8.71929 29.1363 8.71929C28.6363 8.41929 28.1063 8.10927 27.5863 7.76927C25.8863 6.65927 26.7963 6.56927 27.0463 4.76927C27.1963 3.67927 27.1263 2.50928 26.4563 1.58928C24.9363 -0.500718 20.8763 -0.370717 18.9763 1.05928C16.7963 2.69928 18.3063 4.40927 17.7963 6.38927C17.5663 7.26927 15.6963 7.82928 14.6263 8.61928C14.5863 8.61928 14.5563 8.59926 14.5063 8.59926C10.8563 8.66926 5.70629 7.87928 2.24629 9.27928C0.686287 9.90928 0.42629 10.8693 0.29629 12.4393C0.0662899 15.1893 0.166287 18.0393 0.106287 20.8093C-0.0437125 28.1793 -0.0137058 35.5593 0.0662942 42.9393C0.0962942 45.7693 0.136289 48.5993 0.186289 51.4293C0.216289 53.6193 -0.203705 56.4593 0.786295 58.4993C2.7463 62.5293 7.72629 61.7593 11.4063 61.8093C17.8963 61.8993 24.3763 61.5393 30.8763 61.5993C33.4563 61.6193 36.0163 61.3493 38.5863 61.3593C40.7063 61.3693 42.2363 61.5593 43.4963 59.5793C45.0863 57.0793 44.3563 53.2093 44.3863 50.4193C44.4263 46.2793 44.3863 42.1293 44.4063 37.9893L44.3963 37.9793ZM19.0163 7.73928C19.3063 7.59928 19.3963 7.23927 19.3363 6.94927C18.9163 4.92927 18.2163 2.71927 20.7663 1.72927C22.2963 1.13927 24.9563 1.30927 25.6563 3.13927C26.0763 4.24927 25.3863 5.79928 24.9063 6.77928C24.7763 7.03928 24.7663 7.41928 25.0163 7.61928C26.5963 8.93928 28.9863 9.67927 30.2163 11.3293C30.7163 11.9993 31.1363 12.9093 30.9063 13.8493C30.2763 16.4693 27.4863 16.0793 25.3363 16.0993C22.6863 16.1293 20.0263 16.1893 17.3763 16.1893C16.7063 16.1893 15.5263 16.3693 14.8963 16.1193C13.4263 15.5293 13.8663 15.3993 13.6663 14.1893C13.5563 13.5393 13.6663 12.8293 13.6463 12.1693C13.9363 9.88927 17.1563 8.60927 19.0063 7.72927L19.0163 7.73928ZM32.4663 14.4793C33.7563 14.5293 35.0663 14.6593 36.3463 14.6393C36.7963 14.6393 37.8163 14.7893 37.7463 14.6793C37.9363 14.9693 37.7763 16.0593 37.7763 16.3993C37.8063 18.9493 37.8263 21.4993 37.8363 24.0493C37.8763 31.3293 37.9063 38.6193 37.8763 45.8993C37.8763 48.4593 37.8763 51.0193 37.8063 53.5793C37.8063 53.8293 37.9263 55.0893 37.7463 55.2693C37.1063 55.8893 33.5263 55.2993 32.5463 55.3793C29.6363 55.6193 26.6263 55.8593 23.6963 55.7793C20.3763 55.6893 17.1563 55.9293 13.8163 55.9593C11.7663 55.9693 8.06629 56.5093 7.21629 54.5093C6.70629 53.3193 6.8663 51.4193 6.7863 50.1293C6.4063 43.5293 6.70628 36.9293 6.50628 30.3393C6.47628 27.3493 6.58628 24.3793 6.61628 21.3893C6.62628 20.1893 5.87629 16.0393 6.52629 15.0093C7.08629 14.1193 10.5463 14.3493 12.2163 14.4493C12.2463 15.6793 12.4663 16.9093 13.4763 17.3993C15.2763 18.2793 18.8263 17.5193 20.7263 17.4993C23.1563 17.4793 25.5763 17.5293 28.0063 17.4493C31.0963 17.3393 32.4863 16.8393 32.4663 14.4793ZM43.1763 31.8193C42.8763 38.4293 43.0463 45.0593 42.9663 51.6793C42.9263 55.3093 43.7263 59.7093 39.0463 59.9793C36.8663 60.0993 34.6663 60.2093 32.4863 60.2193C27.6763 60.2393 22.8963 60.2993 18.0863 60.4093C15.3863 60.4693 12.6863 60.4593 9.98629 60.4093C8.60629 60.3793 6.81629 60.6193 5.45629 60.2893C1.38629 59.2893 1.64629 55.9393 1.59629 52.6693C1.55629 50.1093 1.51629 47.5393 1.48629 44.9793C1.41629 39.2493 1.37629 33.5093 1.40629 27.7793C1.42629 24.6193 1.46628 21.4493 1.55628 18.2893C1.60628 16.6193 1.08629 13.4293 1.76629 11.8893C2.87629 9.37927 9.62628 9.86929 13.1963 9.99929C12.7763 10.5293 12.4863 11.1393 12.3363 11.8793C12.2863 11.9693 12.2563 12.0793 12.2563 12.2093C12.2563 12.4593 12.2563 12.7593 12.2363 13.0793C10.4063 12.9693 7.28628 12.5993 6.00628 13.3293C4.67628 14.0993 5.14629 15.8293 5.18629 17.1793C5.32629 21.5693 5.06629 25.9693 5.10629 30.3593C5.31629 37.3393 4.95629 44.3293 5.46629 51.3093C5.58629 52.9493 5.42628 55.5093 6.80628 56.6293C7.47628 57.1793 9.78629 57.1793 10.7463 57.2693C12.5863 57.4193 14.4263 57.3893 16.2663 57.2893C19.9563 57.0793 23.6663 56.9293 27.3563 56.9993C30.3563 57.0593 33.3163 56.8593 36.3163 56.7393C37.3863 56.6993 38.5363 56.7193 39.0763 55.6793C39.7563 54.3993 39.2263 51.4593 39.2363 50.0893C39.3063 41.8293 39.2663 33.5693 39.2263 25.2993C39.2063 22.0693 39.3163 18.7993 39.1463 15.5693C38.9763 12.4293 34.9263 13.0293 32.3263 13.0693C32.2863 12.8193 32.2363 12.5493 32.1763 12.2693C31.9863 11.3693 31.5763 10.6993 31.0463 10.1493C32.2563 10.1693 33.4663 10.1793 34.6863 10.1993C35.9463 10.2093 37.2063 10.2293 38.4763 10.2393C40.9563 10.2693 42.1063 9.94927 42.8763 12.4793C44.6763 18.3293 43.4463 25.8193 43.1763 31.8293V31.8193Z" fill="#06402B"/>
<path d="M23.6963 24.0394C21.5063 23.9094 19.5463 23.7394 17.3363 23.9694C16.4563 24.0594 16.4463 25.4594 17.3363 25.3594C19.5563 25.1294 21.4963 25.2894 23.6963 25.4294C24.7363 25.4994 25.6663 25.3594 26.6863 25.2494C28.2363 25.0694 29.6163 25.2594 31.1463 25.3294C32.0463 25.3694 32.0363 23.9694 31.1463 23.9394C30.0563 23.8894 28.9763 23.6894 27.8863 23.7294C26.4763 23.7794 25.1263 24.1394 23.6963 24.0494V24.0394Z" fill="#06402B"/>
<path d="M17.0963 31.4893C16.2063 31.5193 16.1963 32.9093 17.0963 32.8793C19.5763 32.7993 22.0563 32.7693 24.5363 32.8993C26.9363 33.0293 29.0163 32.8993 31.3763 32.7493C32.2663 32.6893 32.2763 31.2993 31.3763 31.3593C26.6263 31.6693 21.8863 31.3293 17.0863 31.4893H17.0963Z" fill="#06402B"/>
<path d="M31.5463 38.9493C29.0463 39.0593 26.5463 39.1193 24.0363 39.0793C21.5063 39.0393 19.1963 38.7593 16.7463 39.4093C15.8763 39.6393 16.2463 40.9794 17.1163 40.7494C19.6763 40.0694 22.2963 40.4593 24.9363 40.4793C27.1463 40.4993 29.3463 40.4293 31.5463 40.3393C32.4363 40.2993 32.4463 38.9093 31.5463 38.9493Z" fill="#06402B"/>
<path d="M31.5163 46.6293C26.6063 47.2793 21.7563 45.7393 16.9163 46.6293C16.0363 46.7893 16.4063 48.1393 17.2863 47.9693C21.9663 47.1093 26.7463 48.6493 31.5163 48.0193C32.3963 47.8993 32.4063 46.5093 31.5163 46.6293Z" fill="#06402B"/>
<path d="M14.4363 24.1693C14.0063 24.1193 13.5863 24.1093 13.1563 24.1293C12.2663 24.1693 12.2563 25.5593 13.1563 25.5193C13.5863 25.4993 14.0063 25.5193 14.4363 25.5593C15.3263 25.6593 15.3163 24.2593 14.4363 24.1693Z" fill="#06402B"/>
<path d="M13.0763 32.9192C13.0763 32.9192 13.7263 32.8792 13.5963 32.7392C13.5963 32.7392 13.5963 32.7292 13.5963 32.7192C13.8963 32.9492 14.3863 32.9892 14.6863 32.6092C14.6863 32.6092 14.6863 32.6092 14.6863 32.5992C14.8763 32.3492 14.7663 31.9692 14.5763 31.7592C14.1663 31.2992 13.2163 31.4592 12.6963 31.5792C11.8263 31.7992 12.1963 33.1392 13.0663 32.9192H13.0763Z" fill="#06402B"/>
<path d="M14.2163 39.5293C13.7963 39.5293 13.3863 39.5293 12.9663 39.5193C12.0663 39.5193 12.0663 40.9093 12.9663 40.9093C13.3863 40.9093 13.7963 40.9093 14.2163 40.9193C15.1163 40.9193 15.1163 39.5293 14.2163 39.5293Z" fill="#06402B"/>
<path d="M14.1363 46.6693C13.7563 46.6793 13.3663 46.6993 12.9863 46.7093C12.0963 46.7393 12.0863 48.1393 12.9863 48.0993C13.3663 48.0893 13.7563 48.0693 14.1363 48.0593C15.0263 48.0293 15.0363 46.6293 14.1363 46.6693Z" fill="#06402B"/>
<path d="M22.2963 5.01941H22.3263C23.2263 5.01941 23.2263 3.62939 22.3263 3.62939H22.2963C21.3963 3.62939 21.3963 5.01941 22.2963 5.01941Z" fill="#06402B"/>
<path d="M16.4163 14.0493C16.4663 13.4393 16.2563 12.8093 16.6163 12.2693C16.9563 11.7793 17.4463 11.4393 17.9763 11.1893C18.7863 10.7993 18.0763 9.59929 17.2763 9.98929C16.5163 10.3493 15.8663 10.8893 15.3963 11.5893C14.8663 12.3793 15.0863 13.1693 15.0163 14.0493C14.9463 14.9393 16.3363 14.9393 16.4063 14.0493H16.4163Z" fill="#06402B"/>
<path d="M19.3663 10.3893C20.2663 10.3893 20.2663 8.99927 19.3663 8.99927C18.4663 8.99927 18.4663 10.3893 19.3663 10.3893Z" fill="#06402B"/>
</svg>
