<svg width="54" height="54" viewBox="0 0 54 54" fill="none" xmlns="http://www.w3.org/2000/svg">
<path d="M50.9688 6.82671C47.2188 2.56671 40.3588 4.22671 35.2788 4.16671C33.6088 1.73671 30.7288 0.41671 27.0788 0.00670958C23.6688 -0.12329 20.4188 1.64671 18.5088 4.36671C14.9288 4.33671 11.2688 4.07671 7.6988 4.36671C5.7488 4.51671 3.8288 4.92671 2.5088 6.44671C1.1588 8.00671 0.648799 10.2667 0.508799 12.2667C0.298799 15.3367 0.318802 18.4667 0.198802 21.5467C0.0688018 24.9767 0.338799 28.4067 0.258799 31.8467C0.158799 35.8567 -0.141193 39.8667 0.0788066 43.8767C0.258807 47.1967 0.688809 51.6667 4.51881 52.4967C10.9288 53.8867 18.3088 53.0567 24.8188 52.9567C31.7588 52.8467 38.7188 53.3467 45.6488 52.8767C50.8488 52.5267 53.0788 51.1667 53.1088 45.6767C53.1388 38.4467 53.0788 31.2067 53.1988 23.9767C53.2788 18.7667 54.7288 11.1067 50.9688 6.84671V6.82671ZM27.0788 1.39671C31.6688 1.90671 35.2688 4.26671 35.4888 9.21671C35.7088 14.2367 32.1588 18.6767 26.9388 18.6467C22.2988 18.6167 18.1488 14.6267 18.1388 9.90671C18.1288 5.12671 22.3988 1.21671 27.0788 1.39671ZM51.8588 21.2667C51.7488 26.7167 51.7288 32.1767 51.7188 37.6267C51.7188 40.1367 51.7188 42.6467 51.7188 45.1567C51.7188 46.2967 51.8888 47.8567 51.4588 48.9067C50.3888 51.5267 47.3188 51.3667 45.0788 51.5067C39.8688 51.8167 34.6488 51.5867 29.4288 51.5367C24.1988 51.4867 18.9788 51.7667 13.7488 51.6367C11.2888 51.5767 8.6588 51.6167 6.2288 51.2467C2.9588 50.7567 2.0488 48.5567 1.6388 45.7167C0.828804 40.1267 1.74879 34.2767 1.68879 28.6467C1.62879 23.3067 1.64881 17.9767 1.89881 12.6467C2.10881 8.19671 4.35881 5.91671 8.89881 5.71671C11.8188 5.58671 14.7588 5.71671 17.6888 5.75671C17.1488 6.87671 16.8088 8.09671 16.7488 9.39671C16.4888 14.9867 21.3788 20.2067 27.0188 20.1867C32.6688 20.1667 36.9988 15.2567 36.8988 9.80671C36.8688 8.16671 36.5688 6.76671 36.0388 5.55671C37.7388 5.54671 39.4388 5.45671 41.1388 5.49671C43.3488 5.54671 46.3588 5.13671 48.2888 6.32671C53.0288 9.24671 51.9388 16.5067 51.8488 21.2867L51.8588 21.2667Z" fill="#06402B"/>
<path d="M25.5788 11.0868C26.4188 11.7268 27.4388 11.7968 28.0988 10.8768C28.5988 10.1768 28.5788 9.35682 28.1188 8.73682C28.1188 8.65682 28.0788 8.58682 28.0388 8.51682C28.4188 7.48682 28.7788 6.45682 29.1488 5.42682C29.4488 4.57682 28.0988 4.21682 27.8088 5.05682C27.4588 6.04682 27.1088 7.02682 26.7488 8.01682C25.1988 8.05682 23.9788 9.88682 25.5788 11.0968V11.0868ZM26.7888 9.37682C26.8488 9.40682 26.8988 9.43682 26.9588 9.45682C26.9688 9.45682 26.9788 9.47682 26.9888 9.48682C27.4088 9.79682 26.6588 10.5768 26.2888 9.84682C26.1088 9.49682 26.4588 9.35682 26.7888 9.37682Z" fill="#06402B"/>
<path d="M47.2687 28.0268C47.3487 25.8268 47.8087 22.7468 47.0487 20.6368C46.5287 19.1868 45.3787 18.3368 43.9087 18.1168C42.2487 17.8668 38.8387 17.7568 37.2587 18.5668C36.4787 18.9668 35.8988 20.0668 35.2788 20.6368C33.8888 21.8868 32.0787 22.7368 30.2887 23.2268C25.7187 24.4968 21.3287 22.9568 17.8487 19.9568C15.8287 18.1568 10.2587 18.1068 7.94874 19.2368C4.84874 20.7568 5.89873 25.0368 5.97873 27.7968C6.11873 33.0068 5.43875 38.7068 6.33875 43.8468C6.74875 46.2168 7.88873 47.5068 10.2587 47.9568C13.3087 48.5368 16.8587 48.4368 19.9687 48.5768C23.1787 48.7268 26.3987 48.5768 29.6087 48.4168C32.5587 48.2668 35.5087 48.0668 38.4687 48.0368C40.8287 48.0068 43.0787 48.5368 45.1387 47.2268C48.5487 45.0468 47.3787 40.6668 47.2287 37.1568C47.0987 34.1068 47.1687 31.0868 47.2687 28.0268ZM45.6787 44.3868C44.7287 46.7868 42.6088 46.5568 40.3088 46.6368C34.6088 46.8368 28.8687 47.2168 23.1687 47.2368C20.3687 47.2368 17.6287 46.9268 14.8387 46.7568C12.3087 46.5968 8.85873 47.4268 7.84873 44.4068C7.09873 42.1868 7.45874 39.3068 7.48874 36.9868C7.51874 34.3268 7.46875 31.6668 7.39875 29.0068C7.31875 26.3668 6.10873 21.6568 9.22873 20.3468C10.8687 19.6568 15.4987 19.7368 16.8587 20.9468C19.9787 23.6468 23.8687 25.4868 28.0987 25.0868C30.0687 24.8968 32.0988 24.2568 33.8388 23.3168C35.6288 22.3568 36.9787 20.2568 38.8987 19.6568C39.7387 19.3868 41.5187 19.4368 42.3487 19.5368C44.1087 19.1768 45.2787 20.0868 45.8687 22.2768C45.9187 22.9168 45.9387 23.5568 45.9387 24.1968C45.9887 26.9668 45.7587 29.7368 45.7287 32.5068C45.6987 35.1568 45.9087 37.7968 45.9687 40.4468C45.9987 41.7768 46.1787 43.1568 45.6787 44.4068V44.3868Z" fill="#06402B"/>
<path d="M20.9787 9.28659C21.1187 7.61659 21.9587 5.85659 23.4687 5.01659C24.2487 4.57659 23.5487 3.37659 22.7687 3.81659C20.8187 4.89659 19.7788 7.13659 19.5888 9.28659C19.5088 10.1766 20.9087 10.1766 20.9787 9.28659Z" fill="#06402B"/>
<path d="M20.1489 10.7168C19.2489 10.7168 19.2489 12.1068 20.1489 12.1068C21.0489 12.1068 21.0489 10.7168 20.1489 10.7168Z" fill="#06402B"/>
</svg>
