<svg width="45" height="62" viewBox="0 0 45 62" fill="none" xmlns="http://www.w3.org/2000/svg">
<path d="M44.396 37.9793C44.456 29.3593 45.676 20.6693 44.216 12.0993C43.626 8.65926 42.4261 8.88926 39.0661 8.84926C35.7861 8.79926 32.496 8.81928 29.216 8.70928C29.186 8.70928 29.166 8.71929 29.136 8.71929C28.636 8.41929 28.106 8.10927 27.586 7.76927C25.886 6.65927 26.796 6.56927 27.046 4.76927C27.196 3.67927 27.126 2.50928 26.456 1.58928C24.936 -0.500718 20.876 -0.370717 18.976 1.05928C16.796 2.69928 18.306 4.40927 17.796 6.38927C17.566 7.26927 15.696 7.82928 14.626 8.61928C14.586 8.61928 14.556 8.59926 14.506 8.59926C10.856 8.66926 5.70604 7.87928 2.24604 9.27928C0.686043 9.90928 0.426046 10.8693 0.296046 12.4393C0.0660457 15.1893 0.166043 18.0393 0.106043 20.8093C-0.0439567 28.1793 -0.01395 35.5593 0.06605 42.9393C0.09605 45.7693 0.136045 48.5993 0.186045 51.4293C0.216045 53.6193 -0.203949 56.4593 0.786051 58.4993C2.74605 62.5293 7.72605 61.7593 11.406 61.8093C17.896 61.8993 24.376 61.5393 30.876 61.5993C33.456 61.6193 36.016 61.3493 38.586 61.3593C40.706 61.3693 42.236 61.5593 43.496 59.5793C45.086 57.0793 44.356 53.2093 44.386 50.4193C44.426 46.2793 44.386 42.1293 44.406 37.9893L44.396 37.9793ZM19.016 7.73928C19.306 7.59928 19.396 7.23927 19.336 6.94927C18.916 4.92927 18.216 2.71927 20.766 1.72927C22.296 1.13927 24.956 1.30927 25.656 3.13927C26.076 4.24927 25.386 5.79928 24.906 6.77928C24.776 7.03928 24.766 7.41928 25.016 7.61928C26.596 8.93928 28.986 9.67927 30.216 11.3293C30.716 11.9993 31.136 12.9093 30.906 13.8493C30.276 16.4693 27.486 16.0793 25.336 16.0993C22.686 16.1293 20.026 16.1893 17.376 16.1893C16.706 16.1893 15.526 16.3693 14.896 16.1193C13.426 15.5293 13.866 15.3993 13.666 14.1893C13.556 13.5393 13.666 12.8293 13.646 12.1693C13.936 9.88927 17.156 8.60927 19.006 7.72927L19.016 7.73928ZM32.466 14.4793C33.756 14.5293 35.0661 14.6593 36.3461 14.6393C36.7961 14.6393 37.816 14.7893 37.746 14.6793C37.936 14.9693 37.776 16.0593 37.776 16.3993C37.806 18.9493 37.826 21.4993 37.836 24.0493C37.876 31.3293 37.906 38.6193 37.876 45.8993C37.876 48.4593 37.876 51.0193 37.806 53.5793C37.806 53.8293 37.926 55.0893 37.746 55.2693C37.106 55.8893 33.526 55.2993 32.546 55.3793C29.636 55.6193 26.626 55.8593 23.696 55.7793C20.376 55.6893 17.156 55.9293 13.816 55.9593C11.766 55.9693 8.06604 56.5093 7.21604 54.5093C6.70604 53.3193 6.86605 51.4193 6.78605 50.1293C6.40605 43.5293 6.70604 36.9293 6.50604 30.3393C6.47604 27.3493 6.58604 24.3793 6.61604 21.3893C6.62604 20.1893 5.87604 16.0393 6.52604 15.0093C7.08604 14.1193 10.546 14.3493 12.216 14.4493C12.246 15.6793 12.466 16.9093 13.476 17.3993C15.276 18.2793 18.826 17.5193 20.726 17.4993C23.156 17.4793 25.576 17.5293 28.006 17.4493C31.096 17.3393 32.486 16.8393 32.466 14.4793ZM43.1761 31.8193C42.8761 38.4293 43.046 45.0593 42.966 51.6793C42.926 55.3093 43.726 59.7093 39.046 59.9793C36.866 60.0993 34.666 60.2093 32.486 60.2193C27.6761 60.2393 22.896 60.2993 18.086 60.4093C15.386 60.4693 12.686 60.4593 9.98605 60.4093C8.60605 60.3793 6.81605 60.6193 5.45605 60.2893C1.38605 59.2893 1.64605 55.9393 1.59605 52.6693C1.55605 50.1093 1.51605 47.5393 1.48605 44.9793C1.41605 39.2493 1.37605 33.5093 1.40605 27.7793C1.42605 24.6193 1.46604 21.4493 1.55604 18.2893C1.60604 16.6193 1.08605 13.4293 1.76605 11.8893C2.87605 9.37927 9.62604 9.86929 13.196 9.99929C12.776 10.5293 12.486 11.1393 12.336 11.8793C12.286 11.9693 12.256 12.0793 12.256 12.2093C12.256 12.4593 12.256 12.7593 12.236 13.0793C10.406 12.9693 7.28604 12.5993 6.00604 13.3293C4.67604 14.0993 5.14605 15.8293 5.18605 17.1793C5.32605 21.5693 5.06604 25.9693 5.10604 30.3593C5.31604 37.3393 4.95604 44.3293 5.46604 51.3093C5.58604 52.9493 5.42604 55.5093 6.80604 56.6293C7.47604 57.1793 9.78604 57.1793 10.746 57.2693C12.586 57.4193 14.426 57.3893 16.266 57.2893C19.956 57.0793 23.666 56.9293 27.356 56.9993C30.356 57.0593 33.3161 56.8593 36.3161 56.7393C37.3861 56.6993 38.536 56.7193 39.076 55.6793C39.756 54.3993 39.2261 51.4593 39.236 50.0893C39.306 41.8293 39.266 33.5693 39.226 25.2993C39.206 22.0693 39.316 18.7993 39.146 15.5693C38.976 12.4293 34.926 13.0293 32.326 13.0693C32.286 12.8193 32.2361 12.5493 32.1761 12.2693C31.9861 11.3693 31.576 10.6993 31.046 10.1493C32.256 10.1693 33.466 10.1793 34.686 10.1993C35.946 10.2093 37.206 10.2293 38.476 10.2393C40.956 10.2693 42.106 9.94927 42.876 12.4793C44.676 18.3293 43.4461 25.8193 43.1761 31.8293V31.8193Z" fill="white"/>
<path d="M23.696 24.0394C21.506 23.9094 19.546 23.7394 17.336 23.9694C16.456 24.0594 16.446 25.4594 17.336 25.3594C19.556 25.1294 21.496 25.2894 23.696 25.4294C24.736 25.4994 25.666 25.3594 26.686 25.2494C28.236 25.0694 29.616 25.2594 31.146 25.3294C32.046 25.3694 32.036 23.9694 31.146 23.9394C30.056 23.8894 28.976 23.6894 27.886 23.7294C26.476 23.7794 25.126 24.1394 23.696 24.0494V24.0394Z" fill="white"/>
<path d="M17.0961 31.4893C16.2061 31.5193 16.1961 32.9093 17.0961 32.8793C19.5761 32.7993 22.0561 32.7693 24.5361 32.8993C26.9361 33.0293 29.0161 32.8993 31.3761 32.7493C32.2661 32.6893 32.2761 31.2993 31.3761 31.3593C26.6261 31.6693 21.8861 31.3293 17.0861 31.4893H17.0961Z" fill="white"/>
<path d="M31.5461 38.9493C29.0461 39.0593 26.5461 39.1193 24.0361 39.0793C21.5061 39.0393 19.196 38.7593 16.746 39.4093C15.876 39.6393 16.246 40.9794 17.116 40.7494C19.676 40.0694 22.2961 40.4593 24.9361 40.4793C27.1461 40.4993 29.3461 40.4293 31.5461 40.3393C32.4361 40.2993 32.4461 38.9093 31.5461 38.9493Z" fill="white"/>
<path d="M31.5161 46.6293C26.6061 47.2793 21.7561 45.7393 16.9161 46.6293C16.0361 46.7893 16.4061 48.1393 17.2861 47.9693C21.9661 47.1093 26.7461 48.6493 31.5161 48.0193C32.3961 47.8993 32.4061 46.5093 31.5161 46.6293Z" fill="white"/>
<path d="M14.4361 24.1693C14.0061 24.1193 13.5861 24.1093 13.1561 24.1293C12.2661 24.1693 12.2561 25.5593 13.1561 25.5193C13.5861 25.4993 14.0061 25.5193 14.4361 25.5593C15.3261 25.6593 15.3161 24.2593 14.4361 24.1693Z" fill="white"/>
<path d="M13.076 32.9192C13.076 32.9192 13.726 32.8792 13.596 32.7392C13.596 32.7392 13.596 32.7292 13.596 32.7192C13.896 32.9492 14.386 32.9892 14.686 32.6092C14.686 32.6092 14.686 32.6092 14.686 32.5992C14.876 32.3492 14.766 31.9692 14.576 31.7592C14.166 31.2992 13.216 31.4592 12.696 31.5792C11.826 31.7992 12.196 33.1392 13.066 32.9192H13.076Z" fill="white"/>
<path d="M14.216 39.5293C13.796 39.5293 13.386 39.5293 12.966 39.5193C12.066 39.5193 12.066 40.9093 12.966 40.9093C13.386 40.9093 13.796 40.9093 14.216 40.9193C15.116 40.9193 15.116 39.5293 14.216 39.5293Z" fill="white"/>
<path d="M14.1361 46.6693C13.7561 46.6793 13.3661 46.6993 12.9861 46.7093C12.0961 46.7393 12.0861 48.1393 12.9861 48.0993C13.3661 48.0893 13.7561 48.0693 14.1361 48.0593C15.0261 48.0293 15.0361 46.6293 14.1361 46.6693Z" fill="white"/>
<path d="M22.2961 5.01941H22.3261C23.2261 5.01941 23.2261 3.62939 22.3261 3.62939H22.2961C21.3961 3.62939 21.3961 5.01941 22.2961 5.01941Z" fill="white"/>
<path d="M16.416 14.0493C16.466 13.4393 16.256 12.8093 16.616 12.2693C16.956 11.7793 17.446 11.4393 17.976 11.1893C18.786 10.7993 18.076 9.59929 17.276 9.98929C16.516 10.3493 15.866 10.8893 15.396 11.5893C14.866 12.3793 15.086 13.1693 15.016 14.0493C14.946 14.9393 16.336 14.9393 16.406 14.0493H16.416Z" fill="white"/>
<path d="M19.366 10.3893C20.266 10.3893 20.266 8.99927 19.366 8.99927C18.466 8.99927 18.466 10.3893 19.366 10.3893Z" fill="white"/>
</svg>
