<svg width="62" height="45" viewBox="0 0 62 45" fill="none" xmlns="http://www.w3.org/2000/svg">
<path d="M61.1699 37.1386C60.9599 36.0186 60.5899 34.9486 59.4599 34.4786C58.7399 34.1786 57.9099 34.2286 57.1499 34.2086C56.0699 34.1686 54.9899 34.1486 53.8999 34.1986C53.6399 33.4886 53.3699 32.7986 53.1199 32.0886C51.9899 28.9086 50.8799 25.7086 49.9899 22.4586C49.2299 19.6486 48.0799 16.8086 47.4599 13.9886C49.5899 13.7486 51.7199 13.5086 53.8499 13.2286C55.8999 12.9586 59.4699 13.1086 59.2699 10.3186C59.0899 7.87862 57.8499 7.37862 56.2499 7.43862C55.7399 5.43862 54.5399 -0.251376 52.0599 0.00862432C50.5599 0.168624 48.2399 2.54862 47.0099 3.34862C44.3399 5.09862 41.6899 6.85862 39.2499 8.91862C39.1799 8.97862 39.1299 9.04862 39.0999 9.11862C38.4099 9.17862 37.7199 9.22862 37.0299 9.29862C31.4999 9.80862 25.9399 10.2686 20.4299 10.9086C18.1399 11.1686 15.1699 11.0586 15.4799 14.0086C15.7999 16.9486 18.0399 16.7286 20.3899 16.6086C26.4399 16.2986 32.4799 15.7586 38.4899 15.0186C38.4899 15.0686 38.4899 15.1186 38.5099 15.1686C40.8199 21.4886 42.9599 27.8686 45.0599 34.2586C31.4999 34.4686 17.9099 33.8586 4.37993 34.9386C0.719932 35.2286 -0.380065 35.8786 0.109935 39.8286C0.419935 42.2886 1.70993 42.4986 4.09993 42.5586C4.64993 42.5686 5.18993 42.5786 5.73993 42.5886C5.70993 42.6486 5.68993 42.7086 5.67993 42.7886C5.40993 45.4086 9.14993 44.6586 10.7499 44.6086C11.6599 44.5786 13.2199 44.8586 14.0499 44.4286C14.6099 44.1286 14.7699 43.3886 14.7799 42.7486C25.7599 42.8786 36.7399 42.8186 47.7199 42.8886C47.9699 43.3486 48.2499 43.7386 48.5999 43.9986C49.9899 45.0186 54.8499 44.9186 56.1399 44.1086C56.9399 43.6086 57.0599 43.0186 56.9199 42.3586C58.2899 42.2986 59.5199 42.1586 60.4799 40.9686C61.3899 39.8286 61.4399 38.5186 61.1799 37.1386H61.1699ZM51.0499 2.32862C51.1999 2.21862 51.9999 1.41862 52.2299 1.46862C52.6299 1.55862 52.9999 2.78863 53.2199 3.19863C53.9399 4.60863 54.4299 6.05862 54.8499 7.56862C54.3299 7.63862 53.7999 7.72863 53.2699 7.79863C49.3799 8.27863 45.4499 8.58862 41.5299 8.89862C44.5799 6.52862 47.9099 4.55862 51.0599 2.31862L51.0499 2.32862ZM16.9899 14.1086C16.4399 11.7786 24.7599 11.9086 26.5499 11.7286C30.2499 11.3486 33.9499 10.9686 37.6499 10.6286C40.9399 10.3286 44.2099 9.81863 47.5099 9.65863C49.0499 9.58863 50.5699 9.50863 52.0999 9.33863C52.9899 9.23863 56.4799 8.25862 57.2999 8.91862C59.3999 10.6086 55.7099 11.5686 54.7099 11.7086C52.8699 11.9786 51.0199 12.1886 49.1799 12.3986C45.7799 12.7886 42.3699 13.1386 38.9799 13.5586C35.1999 14.0286 31.4199 14.4286 27.6299 14.7286C25.6699 14.8886 17.5199 16.3486 16.9899 14.1086ZM12.7699 43.1586C12.1299 43.2586 11.3999 43.1986 10.7599 43.2186C10.2999 43.2286 6.99994 43.5986 7.07994 42.7886C7.07994 42.7186 7.07993 42.6686 7.05993 42.6086C9.16993 42.6486 11.2899 42.6886 13.3999 42.7186C13.3899 43.0386 13.2499 43.0786 12.7699 43.1586ZM8.95993 41.2086C7.19993 41.1886 5.30993 41.3686 3.55993 41.1486C1.49993 40.8886 1.54994 40.7586 1.43994 39.1986C1.34994 37.9286 1.27993 37.3486 2.27993 36.6886C4.11993 35.4786 8.91994 36.0086 11.1499 35.9086C22.5999 35.4186 34.0599 35.8286 45.5099 35.6386C45.6099 35.9586 45.7199 36.2686 45.8299 36.5886C46.2099 37.7486 46.5199 39.7786 47.0899 41.4786C34.3799 41.3986 21.6599 41.3086 8.94994 41.1986L8.95993 41.2086ZM51.7499 43.0486C49.6599 42.8486 49.1299 42.2286 48.5299 40.3586C47.9299 38.4786 47.3099 36.5986 46.6899 34.7186C46.6899 34.6886 46.6799 34.6686 46.6699 34.6486C46.3899 33.7986 46.1199 32.9486 45.8399 32.0986C43.9199 26.3286 41.9799 20.5686 39.8999 14.8586C41.9699 14.6086 44.0399 14.3786 46.1099 14.1486C46.1099 14.1786 46.1099 14.1986 46.1099 14.2186C46.5999 16.5086 47.6599 18.6386 48.1899 20.9286C48.7299 23.2686 49.4599 25.5586 50.2099 27.8286C51.0299 30.2986 51.8999 32.7586 52.7899 35.1986C52.8499 35.3686 52.9099 35.5486 52.9799 35.7186C53.5299 37.2186 55.5199 40.4086 55.3499 41.9786C55.2099 43.2886 53.0299 43.1686 51.7699 43.0486H51.7499ZM59.5899 39.8086C58.8699 41.0086 57.6499 40.9486 56.4299 40.9886C56.3899 40.8886 56.3499 40.7886 56.3099 40.6786C55.6599 38.9886 55.0499 37.2786 54.4199 35.5786C55.3299 35.5586 56.2399 35.5786 57.1499 35.6086C58.3799 35.6486 59.3299 35.5586 59.6999 36.8986C59.9599 37.8486 60.1299 38.9286 59.5899 39.8186V39.8086Z" fill="#06402B"/>
<path d="M45.2499 19.4487C44.9499 18.6087 43.6099 18.9687 43.9099 19.8187C45.9699 25.6587 47.7699 31.5987 49.9299 37.4087C50.2399 38.2387 51.5899 37.8787 51.2699 37.0387C49.1099 31.2287 47.3199 25.2887 45.2499 19.4487Z" fill="#06402B"/>
<path d="M27.55 23.3486C28.45 23.3486 28.45 21.9586 27.55 21.9586C24.03 21.9586 20.51 21.8286 17 21.8186C16.1 21.8186 16.1 23.2086 17 23.2086C20.52 23.2086 24.04 23.3486 27.55 23.3486Z" fill="#06402B"/>
<path d="M10.0599 23.2786C10.8599 23.2886 11.67 23.2686 12.47 23.2786C13.37 23.2886 13.37 21.8986 12.47 21.8886C11.67 21.8786 10.8599 21.8986 10.0599 21.8886C9.15995 21.8786 9.15995 23.2686 10.0599 23.2786Z" fill="#06402B"/>
<path d="M9.76995 29.1387C14.8299 28.8587 19.9599 29.1587 25.0399 29.0587C25.9399 29.0387 25.9399 27.6487 25.0399 27.6687C19.9699 27.7687 14.8299 27.4687 9.76995 27.7487C8.87995 27.7987 8.86995 29.1887 9.76995 29.1387Z" fill="#06402B"/>
<path d="M35.1299 29.1985C36.0199 29.2685 36.0199 27.8685 35.1299 27.8085C33.1199 27.6585 31.0999 27.7985 29.0899 27.7685C28.1899 27.7585 28.1899 29.1485 29.0899 29.1585C31.0999 29.1885 33.1199 29.0385 35.1299 29.1985Z" fill="#06402B"/>
<path d="M3.50991 29.1487C4.34991 29.0687 5.2299 29.0687 6.0699 29.1487C6.9599 29.2287 6.9599 27.8387 6.0699 27.7587C5.2299 27.6787 4.34991 27.6787 3.50991 27.7587C2.61991 27.8387 2.61991 29.2287 3.50991 29.1487Z" fill="#06402B"/>
</svg>
