<svg width="52" height="53" viewBox="0 0 52 53" fill="none" xmlns="http://www.w3.org/2000/svg">
<path d="M49.6325 0.0611105C48.6825 0.231111 48.1825 1.13111 47.6725 1.84111C47.1525 2.57111 46.7224 3.3611 46.2224 4.1111C45.1424 5.7211 44.0525 5.9411 42.2025 6.1011C39.5025 6.3411 36.6824 6.2511 33.9724 6.1911C32.5624 6.1611 30.9125 5.80111 30.4025 7.45111C29.4525 10.5611 34.4625 10.5211 37.7025 10.2911C34.6125 16.2211 32.0325 22.3311 29.5525 28.5311C28.2825 28.1911 27.0524 27.9111 25.9424 27.6911C22.3624 26.9211 18.3725 25.8611 14.5125 25.6711C13.3625 20.7911 11.9625 15.9811 10.7825 11.1011C10.7825 11.0811 10.7625 11.0711 10.7625 11.0511C12.2925 10.9011 13.8425 10.9611 15.3525 10.6811C18.0725 10.1911 17.4225 7.10111 14.8625 6.89111C12.7225 6.72111 10.7025 6.6011 8.57245 6.0811C6.53245 5.5911 4.79247 5.1211 2.71247 5.3811C2.61247 5.3711 2.51246 5.38111 2.39246 5.42111C2.22246 5.45111 2.11247 5.52111 2.03247 5.62111C0.142474 6.66111 -0.097531 9.5011 1.65247 10.9911C2.79247 11.9611 4.95247 12.2111 6.37247 12.0311C6.52247 12.0111 6.67247 11.9711 6.81247 11.9411C7.86247 16.6111 9.01245 21.2511 10.1324 25.9011C7.48245 26.3711 5.02246 27.5111 2.95246 29.7811C-1.82754 35.0511 -0.637548 43.1211 5.32245 46.8911C6.14245 47.4111 6.99247 47.8311 7.87247 48.1711C7.44247 48.5011 7.08247 48.9311 6.90247 49.5111C6.46247 50.9011 7.47246 51.9911 8.80246 52.2411C10.0325 52.4711 11.3925 51.8311 11.7625 50.5811C11.8925 50.1411 11.8625 49.6511 11.7125 49.2011C13.2825 49.4711 14.8925 49.5911 16.4925 49.6511C21.9625 49.8311 27.6425 49.8611 33.1025 49.4911C34.2925 49.4111 35.6325 49.3411 37.0125 49.2211C36.9725 49.3211 36.9025 49.4011 36.8625 49.5011C36.4225 50.8911 37.4325 51.9811 38.7625 52.2311C39.9925 52.4611 41.3524 51.8211 41.7224 50.5711C41.9124 49.9111 41.7525 49.1611 41.3625 48.5611C42.1225 48.3811 42.8425 48.1611 43.4925 47.8811C46.0025 46.8011 46.6025 43.7111 46.2025 41.2411C45.2925 35.5711 39.8225 32.0811 34.1525 29.9611C36.7825 23.3111 39.1825 16.5911 42.4625 10.2311C44.2925 10.3211 46.2225 10.2411 47.4525 9.07111C48.5725 8.0011 49.5125 6.02111 50.3425 4.70111C50.7825 4.00111 51.7824 2.77111 51.7524 1.92111C51.7224 0.791111 50.8425 -0.188888 49.6125 0.0311117L49.6325 0.0611105ZM4.23246 10.5711C2.85246 10.1911 0.452445 7.65111 2.75244 6.79111C5.11244 6.42111 7.24245 7.31111 9.51245 7.76111C10.5425 7.97111 13.1825 7.82111 14.0425 8.34111C15.6625 9.32111 12.6725 9.44111 11.9325 9.51111C10.7925 9.62111 9.66246 9.77111 8.55246 10.0411C7.11246 10.3911 5.77247 11.0011 4.24247 10.5711H4.23246ZM8.15247 11.6011C8.55247 11.4811 8.96247 11.3511 9.37247 11.2611C9.39247 11.2611 9.40246 11.2611 9.42246 11.2611C9.42246 11.3311 9.41246 11.4011 9.42246 11.4911C10.5725 16.2311 11.9225 20.9211 13.0525 25.6611C12.5325 25.6611 12.0225 25.6911 11.5125 25.7411C10.3725 21.0311 9.21247 16.3311 8.15247 11.6111V11.6011ZM10.4225 50.2311C10.2225 50.8211 9.52245 51.0211 8.97245 50.8711C8.34245 50.7111 8.00245 50.2911 8.35245 49.6711C8.60245 49.2311 9.03244 49.0011 9.50244 48.8911C9.54244 48.9011 9.57246 48.9311 9.61246 48.9311C10.1525 49.0211 10.6025 49.6811 10.4225 50.2211V50.2311ZM40.3825 50.2311C40.1825 50.8211 39.4825 51.0211 38.9325 50.8711C38.3025 50.7111 37.9625 50.2911 38.3125 49.6711C38.4925 49.3411 38.7925 49.1411 39.1225 49.0011C39.2725 48.9811 39.4325 48.9611 39.5825 48.9411C40.1225 49.0411 40.5625 49.6911 40.3825 50.2311ZM44.8825 43.1111C44.5025 47.6111 39.0125 47.3911 35.4825 47.8711C30.9325 48.4811 26.2424 48.2311 21.6624 48.2911C13.8224 48.3911 -1.01754 47.4311 1.52246 35.5311C3.99246 23.9411 17.4525 27.2911 25.5725 29.0511C32.1225 30.3511 45.6425 34.2811 44.8925 43.1211L44.8825 43.1111ZM32.8625 29.5311C32.2025 29.3111 31.5425 29.1011 30.8925 28.9111C33.4425 22.5611 36.0825 16.3011 39.2925 10.2511C39.3025 10.2211 39.3025 10.2011 39.3125 10.1711C39.5825 10.1511 39.8225 10.1311 39.9825 10.1211C40.2925 10.1211 40.6225 10.1511 40.9625 10.1711C37.7925 16.4311 35.4325 23.0111 32.8525 29.5311H32.8625ZM49.1525 4.04111C48.5925 4.96111 47.9424 6.0411 47.2524 6.8511C45.7224 8.6311 44.0625 8.8411 42.0825 8.8011C42.0825 8.8011 42.0825 8.8011 42.0725 8.8011C41.4125 8.7911 40.7225 8.75111 39.9825 8.73111C38.2125 8.79111 36.4324 8.7611 34.6624 8.7111C33.5024 8.6811 30.8025 8.42111 33.2325 7.56111C34.3025 7.18111 36.5225 7.6211 37.6425 7.6011C39.3025 7.5711 40.9825 7.56111 42.6425 7.50111C43.7325 7.46111 44.7424 7.4811 45.6924 6.8611C47.1124 5.9311 47.3425 4.0011 48.5625 2.9911C51.2325 0.771103 49.4825 3.49111 49.1425 4.04111H49.1525Z" fill="#06402B"/>
<path d="M22.5525 30.6312C22.3625 30.8212 22.3325 31.0512 22.3825 31.2512C22.3825 31.2612 22.3825 31.2712 22.3825 31.2912C22.3925 31.3412 22.4125 31.3912 22.4325 31.4312C22.4825 31.5412 22.5525 31.6512 22.6825 31.7312C23.2925 32.1412 23.8825 32.5911 24.4525 33.0511C23.7725 33.3811 23.0825 33.7112 22.4025 34.0412C21.5125 31.8012 19.5025 30.3412 16.1425 29.5312C11.5425 28.7112 6.63247 32.2612 5.62247 36.7812C4.48247 41.8412 8.22247 45.7412 12.9925 46.5112C17.9325 47.3112 21.7525 45.1211 22.6625 40.0511C22.9825 38.2611 23.0325 36.7212 22.7925 35.3912C23.7425 34.9312 24.6925 34.4712 25.6325 34.0212C26.0625 34.3812 26.4925 34.7412 26.9225 35.1012C27.1825 35.3212 27.4825 35.3112 27.7225 35.1812C27.8225 35.1612 27.9325 35.1112 28.0225 35.0312C28.5725 34.5612 29.9724 33.8412 29.7524 32.9312C29.5424 32.0712 28.0725 31.3212 27.4025 30.8112C26.6625 30.2412 25.5925 29.4612 24.6925 29.2012C23.7525 28.9412 23.1025 30.0512 22.5325 30.6412L22.5525 30.6312ZM21.4325 38.8412C20.9425 43.2912 18.2425 45.7311 13.7325 45.1911C9.62246 44.7011 6.02245 41.7212 6.97245 37.1512C7.74245 33.4412 11.9325 30.1912 15.7825 30.8812C17.9525 31.4012 20.4625 31.9211 21.3025 34.4111C21.3125 34.4511 21.3225 34.5111 21.3325 34.5511C19.0725 35.6211 16.7825 36.6412 14.3925 37.4312C13.5425 37.7112 13.9025 39.0512 14.7625 38.7712C17.0925 38.0112 19.3425 37.0212 21.5525 35.9812C21.6025 36.9612 21.5325 38.0012 21.4325 38.8412ZM28.2125 33.0912C27.9725 33.3112 27.7025 33.5111 27.4525 33.7211C26.3425 32.7911 25.2425 31.8512 24.0725 31.0112C24.2325 30.8512 24.3925 30.7112 24.5425 30.6812C24.7925 30.6312 25.6925 31.3112 25.9325 31.4612C26.3025 31.7012 27.6825 32.6012 28.2125 33.1012V33.0912Z" fill="#06402B"/>
<path d="M40.1425 41.0212C40.1225 41.9212 41.5125 41.9212 41.5325 41.0212C41.5825 39.1412 40.7725 37.3512 39.3025 36.1812C38.6125 35.6312 37.6125 36.6112 38.3125 37.1712C39.5225 38.1312 40.1725 39.4812 40.1425 41.0212Z" fill="#06402B"/>
<path d="M40.0225 42.821C39.1225 42.821 39.1225 44.211 40.0225 44.211C40.9225 44.211 40.9225 42.821 40.0225 42.821Z" fill="#06402B"/>
</svg>
