<svg width="48" height="54" viewBox="0 0 48 54" fill="none" xmlns="http://www.w3.org/2000/svg">
<path d="M46.8312 31.5931C46.2812 28.5131 44.5713 25.3631 42.3213 23.0331C44.1513 19.9431 46.1813 17.3531 46.5513 13.6031C46.8713 10.4031 46.3113 6.49307 44.2013 3.94307C42.1313 1.44307 39.3213 0.653074 36.2113 0.443074C32.0613 0.163074 27.8813 0.0830739 23.7313 0.133074C17.4013 0.213074 9.16127 -1.15693 3.98127 3.40307C1.48127 5.60307 0.25125 9.23307 0.0212504 12.4931C-0.27875 16.7731 2.66127 19.9831 4.82127 23.3831C2.75127 26.0831 1.43125 29.3731 0.741252 32.7031C-0.218748 37.3831 0.0112541 40.9731 1.93125 45.4231C2.95125 47.7831 4.76127 50.6631 6.95127 52.1431C8.45127 53.1531 10.2913 53.1231 12.0313 53.1831C17.3713 53.3931 22.7313 53.3431 28.0713 53.2531C31.5213 53.1931 35.7613 53.7031 39.1313 52.7631C42.4513 51.8331 44.1313 47.9931 45.4013 45.0931C47.2013 40.9931 47.6113 35.9731 46.8213 31.5931H46.8312ZM7.09126 3.02307C11.8613 0.603074 18.5013 1.58307 23.7213 1.52307C26.3513 1.49307 28.9913 1.52307 31.6213 1.63307C35.2613 1.79307 39.5113 1.42307 42.3813 4.06307C44.7613 6.24307 45.4113 9.99307 45.2013 13.0931C44.9513 16.7231 43.0213 19.1831 41.2713 22.0631C41.0413 21.8731 40.8213 21.6631 40.5913 21.4931C39.1813 20.4331 37.7813 19.5631 36.3713 18.8431C38.3813 15.6931 41.4413 11.1631 37.2913 8.22307C33.2213 5.34307 26.0113 6.53307 21.4013 6.58307C19.3813 6.60307 17.4113 6.78307 15.4113 7.00307C13.4313 7.21307 10.8412 7.13307 9.17124 8.39307C5.06124 11.4831 7.43125 15.8931 9.80125 19.0531C9.38125 19.2931 8.96126 19.5231 8.56126 19.7931C7.51126 20.5031 6.58125 21.3431 5.74125 22.2631C3.77125 19.2631 1.31126 16.3831 1.47126 12.6031C1.63126 8.67307 3.51127 4.86307 7.10127 3.04307L7.09126 3.02307ZM23.9413 16.0531C19.5713 16.0831 15.0312 16.5331 11.0512 18.3931C9.36125 16.2431 7.21126 13.4231 9.03126 10.6631C10.4413 8.51307 12.8612 8.64307 15.0812 8.41307C17.5712 8.15307 19.9913 7.96307 22.5013 7.95307C25.9813 7.94307 29.6513 7.70307 33.1013 8.20307C35.5513 8.55307 37.7012 9.57307 37.8312 12.4131C37.9312 14.6831 36.2813 16.4131 35.1213 18.2231C31.7113 16.7231 28.1313 16.0931 23.9513 16.0431L23.9413 16.0531ZM45.7013 37.3531C45.5413 41.3531 44.2213 45.0631 42.1013 48.4431C39.5413 52.5231 34.5813 51.7231 30.3513 51.8131C25.3013 51.9231 20.2513 51.9731 15.2013 51.8731C11.8713 51.8131 8.90127 52.0931 6.32127 49.6031C3.95127 47.3231 2.79125 44.1031 1.86125 41.0331C0.241247 35.6831 2.81125 27.8831 6.27125 23.7231C10.6213 18.4931 17.5213 17.4931 23.9313 17.4431C30.1813 17.5131 36.3313 19.0831 40.9813 23.5631C44.7213 27.1731 45.9013 32.3531 45.6913 37.3531H45.7013Z" fill="#06402B"/>
<path d="M25.1312 24.4831C21.5012 23.9731 18.1212 26.0731 17.1812 29.6531C16.2712 33.1431 17.6412 36.6331 21.3812 37.3831C24.9212 38.0931 29.8212 36.9431 30.5612 32.9131C31.2212 29.2931 28.7812 25.2231 25.1312 24.4831ZM22.8012 36.1331C15.4112 35.8431 18.0913 24.9031 24.7613 25.8331C27.3713 26.3631 29.1313 28.8531 29.2613 31.4731C29.4413 35.1931 25.8512 36.2531 22.8012 36.1331Z" fill="#06402B"/>
<path d="M13.2112 21.4832C9.3812 23.5732 6.64122 27.0532 5.48122 31.2632C5.24122 32.1332 6.59122 32.5032 6.82122 31.6332C7.88122 27.7632 10.3812 24.6132 13.9112 22.6832C14.7012 22.2532 13.9912 21.0532 13.2112 21.4832Z" fill="#06402B"/>
<path d="M5.37129 33.863C4.47129 33.863 4.47129 35.253 5.37129 35.253C6.27129 35.253 6.27129 33.863 5.37129 33.863Z" fill="#06402B"/>
</svg>
