<svg width="54" height="54" viewBox="0 0 54 54" fill="none" xmlns="http://www.w3.org/2000/svg">
<path d="M50.9685 6.82671C47.2185 2.56671 40.3586 4.22671 35.2786 4.16671C33.6086 1.73671 30.7286 0.41671 27.0786 0.00670958C23.6686 -0.12329 20.4186 1.64671 18.5086 4.36671C14.9286 4.33671 11.2686 4.07671 7.69856 4.36671C5.74856 4.51671 3.82856 4.92671 2.50856 6.44671C1.15856 8.00671 0.648555 10.2667 0.508555 12.2667C0.298555 15.3367 0.318558 18.4667 0.198558 21.5467C0.0685576 24.9767 0.338555 28.4067 0.258555 31.8467C0.158555 35.8567 -0.141438 39.8667 0.0785625 43.8767C0.258563 47.1967 0.688565 51.6667 4.51857 52.4967C10.9286 53.8867 18.3086 53.0567 24.8186 52.9567C31.7586 52.8467 38.7186 53.3467 45.6486 52.8767C50.8486 52.5267 53.0786 51.1667 53.1086 45.6767C53.1386 38.4467 53.0786 31.2067 53.1986 23.9767C53.2786 18.7667 54.7285 11.1067 50.9685 6.84671V6.82671ZM27.0786 1.39671C31.6686 1.90671 35.2686 4.26671 35.4886 9.21671C35.7086 14.2367 32.1585 18.6767 26.9385 18.6467C22.2985 18.6167 18.1486 14.6267 18.1386 9.90671C18.1286 5.12671 22.3986 1.21671 27.0786 1.39671ZM51.8586 21.2667C51.7486 26.7167 51.7285 32.1767 51.7185 37.6267C51.7185 40.1367 51.7185 42.6467 51.7185 45.1567C51.7185 46.2967 51.8886 47.8567 51.4586 48.9067C50.3886 51.5267 47.3186 51.3667 45.0786 51.5067C39.8686 51.8167 34.6486 51.5867 29.4286 51.5367C24.1986 51.4867 18.9786 51.7667 13.7486 51.6367C11.2886 51.5767 8.65856 51.6167 6.22856 51.2467C2.95856 50.7567 2.04856 48.5567 1.63856 45.7167C0.82856 40.1267 1.74855 34.2767 1.68855 28.6467C1.62855 23.3067 1.64857 17.9767 1.89857 12.6467C2.10857 8.19671 4.35857 5.91671 8.89857 5.71671C11.8186 5.58671 14.7585 5.71671 17.6885 5.75671C17.1485 6.87671 16.8086 8.09671 16.7486 9.39671C16.4886 14.9867 21.3786 20.2067 27.0186 20.1867C32.6686 20.1667 36.9986 15.2567 36.8986 9.80671C36.8686 8.16671 36.5686 6.76671 36.0386 5.55671C37.7386 5.54671 39.4386 5.45671 41.1386 5.49671C43.3486 5.54671 46.3586 5.13671 48.2886 6.32671C53.0286 9.24671 51.9386 16.5067 51.8486 21.2867L51.8586 21.2667Z" fill="white"/>
<path d="M25.5786 11.0868C26.4186 11.7268 27.4386 11.7968 28.0986 10.8768C28.5986 10.1768 28.5786 9.35682 28.1186 8.73682C28.1186 8.65682 28.0786 8.58682 28.0386 8.51682C28.4186 7.48682 28.7786 6.45682 29.1486 5.42682C29.4486 4.57682 28.0986 4.21682 27.8087 5.05682C27.4587 6.04682 27.1087 7.02682 26.7487 8.01682C25.1987 8.05682 23.9786 9.88682 25.5786 11.0968V11.0868ZM26.7886 9.37682C26.8486 9.40682 26.8986 9.43682 26.9586 9.45682C26.9686 9.45682 26.9786 9.47682 26.9886 9.48682C27.4086 9.79682 26.6586 10.5768 26.2886 9.84682C26.1086 9.49682 26.4586 9.35682 26.7886 9.37682Z" fill="white"/>
<path d="M47.2685 28.0268C47.3485 25.8268 47.8085 22.7468 47.0485 20.6368C46.5285 19.1868 45.3785 18.3368 43.9085 18.1168C42.2485 17.8668 38.8385 17.7568 37.2585 18.5668C36.4785 18.9668 35.8985 20.0668 35.2785 20.6368C33.8885 21.8868 32.0785 22.7368 30.2885 23.2268C25.7185 24.4968 21.3285 22.9568 17.8485 19.9568C15.8285 18.1568 10.2585 18.1068 7.94849 19.2368C4.84849 20.7568 5.89849 25.0368 5.97849 27.7968C6.11849 33.0068 5.43851 38.7068 6.33851 43.8468C6.74851 46.2168 7.88849 47.5068 10.2585 47.9568C13.3085 48.5368 16.8585 48.4368 19.9685 48.5768C23.1785 48.7268 26.3985 48.5768 29.6085 48.4168C32.5585 48.2668 35.5085 48.0668 38.4685 48.0368C40.8285 48.0068 43.0785 48.5368 45.1385 47.2268C48.5485 45.0468 47.3785 40.6668 47.2285 37.1568C47.0985 34.1068 47.1685 31.0868 47.2685 28.0268ZM45.6785 44.3868C44.7285 46.7868 42.6085 46.5568 40.3085 46.6368C34.6085 46.8368 28.8685 47.2168 23.1685 47.2368C20.3685 47.2368 17.6285 46.9268 14.8385 46.7568C12.3085 46.5968 8.85849 47.4268 7.84849 44.4068C7.09849 42.1868 7.4585 39.3068 7.4885 36.9868C7.5185 34.3268 7.4685 31.6668 7.3985 29.0068C7.3185 26.3668 6.10849 21.6568 9.22849 20.3468C10.8685 19.6568 15.4985 19.7368 16.8585 20.9468C19.9785 23.6468 23.8685 25.4868 28.0985 25.0868C30.0685 24.8968 32.0985 24.2568 33.8385 23.3168C35.6285 22.3568 36.9785 20.2568 38.8985 19.6568C39.7385 19.3868 41.5185 19.4368 42.3485 19.5368C44.1085 19.1768 45.2785 20.0868 45.8685 22.2768C45.9185 22.9168 45.9385 23.5568 45.9385 24.1968C45.9885 26.9668 45.7585 29.7368 45.7285 32.5068C45.6985 35.1568 45.9085 37.7968 45.9685 40.4468C45.9985 41.7768 46.1785 43.1568 45.6785 44.4068V44.3868Z" fill="white"/>
<path d="M20.9785 9.28659C21.1185 7.61659 21.9585 5.85659 23.4685 5.01659C24.2485 4.57659 23.5485 3.37659 22.7685 3.81659C20.8185 4.89659 19.7785 7.13659 19.5885 9.28659C19.5085 10.1766 20.9085 10.1766 20.9785 9.28659Z" fill="white"/>
<path d="M20.1486 10.7168C19.2486 10.7168 19.2486 12.1068 20.1486 12.1068C21.0486 12.1068 21.0486 10.7168 20.1486 10.7168Z" fill="white"/>
</svg>
