<svg width="24" height="24" viewBox="0 0 24 24" fill="none" xmlns="http://www.w3.org/2000/svg">
<path d="M22.1642 19.4326L21.8593 19.1277L19.128 21.8589L19.4329 22.1639C19.5768 22.3065 19.7712 22.3866 19.9739 22.3866C20.1765 22.3866 20.3709 22.3065 20.5148 22.1639L22.1642 20.5145C22.3069 20.3706 22.3869 20.1762 22.3869 19.9736C22.387 19.7709 22.3069 19.5765 22.1642 19.4326ZM3.48813 1.83841L1.83876 3.48778C1.69575 3.63079 1.6152 3.82462 1.61471 4.02686C1.61421 4.22911 1.69383 4.42332 1.83613 4.56703L2.14107 4.87197L4.87234 2.1407L4.56741 1.83576C4.42369 1.69345 4.22947 1.61384 4.02722 1.61433C3.82496 1.61483 3.63114 1.6954 3.48813 1.83841ZM6.23532 1.8384L1.8361 6.23761C1.62085 6.45387 1.5 6.74657 1.5 7.0517C1.5 7.35682 1.62085 7.64953 1.8361 7.86578L2.68998 8.71965L8.71998 2.68965L7.8661 1.83578C7.64929 1.62026 7.35587 1.49951 7.05017 1.5C6.74447 1.50049 6.45143 1.62219 6.23532 1.8384ZM12.2653 4.03934L11.1649 2.93889C11.058 2.83153 10.9311 2.7463 10.7912 2.68806C10.6514 2.62982 10.5015 2.59971 10.35 2.59947C10.1986 2.59922 10.0485 2.62884 9.90852 2.68662C9.76851 2.74441 9.64126 2.82923 9.53406 2.93623L2.93658 9.53372C2.72009 9.75039 2.59848 10.0442 2.59848 10.3504C2.59848 10.6567 2.72009 10.9505 2.93658 11.1672L4.03703 12.2676C4.25384 12.4832 4.54726 12.6039 4.85297 12.6034C5.15868 12.6029 5.45171 12.4812 5.66783 12.265L12.2653 5.66752C12.4812 5.45158 12.6024 5.15876 12.6024 4.85343C12.6024 4.54811 12.4812 4.25528 12.2653 4.03934ZM22.1642 16.1339L21.3103 15.28L15.2803 21.31L16.1342 22.1639C16.3505 22.3791 16.6432 22.5 16.9483 22.5C17.2534 22.5 17.5461 22.3791 17.7624 22.1639L22.1616 17.7647C22.3778 17.5486 22.4995 17.2555 22.5 16.9498C22.5005 16.6441 22.3797 16.3507 22.1642 16.1339ZM21.0637 12.8378L19.9633 11.7373C19.8564 11.6299 19.7295 11.5447 19.5897 11.4865C19.4498 11.4282 19.2999 11.3981 19.1484 11.3979C18.997 11.3976 18.8469 11.4272 18.7069 11.485C18.5669 11.5428 18.4397 11.6276 18.3325 11.7346L11.735 18.3321C11.5185 18.5488 11.3969 18.8426 11.3969 19.1489C11.3969 19.4552 11.5185 19.7489 11.735 19.9656L12.8354 21.066C13.0523 21.2816 13.3457 21.4023 13.6514 21.4018C13.9571 21.4013 14.2501 21.2796 14.4662 21.0634L21.0637 14.4659C21.2796 14.25 21.4009 13.9572 21.4009 13.6518C21.4009 13.3465 21.2796 13.0537 21.0637 12.8378Z" fill="#231F20"/>
<path d="M10.8621 8.13086L8.13086 10.8621L13.1374 15.8686L15.8686 13.1374L10.8621 8.13086Z" fill="#231F20"/>
</svg>
