<svg width="13" height="24" viewBox="0 0 13 24" fill="none" xmlns="http://www.w3.org/2000/svg">
<path d="M10.3029 4.61515H2.42516C1.96888 4.61508 1.5312 4.79602 1.20818 5.11828C0.885154 5.44054 0.703166 5.87778 0.702149 6.33406V7.23834H12.0259V6.33406C12.0249 5.87778 11.8429 5.44054 11.5198 5.11828C11.1968 4.79602 10.7591 4.61508 10.3029 4.61515ZM0.702149 9.73118C0.701956 9.95685 0.746496 10.1803 0.833195 10.3887C0.919893 10.597 1.04703 10.7861 1.20726 10.945C1.29152 11.0293 1.35836 11.1293 1.40396 11.2393C1.44956 11.3494 1.47303 11.4674 1.47303 11.5866C1.47303 11.7057 1.44956 11.8237 1.40396 11.9338C1.35836 12.0438 1.29152 12.1439 1.20726 12.2281C0.886152 12.5508 0.704741 12.9867 0.702149 13.4419V20.3706H12.0259V13.4419C12.0233 12.9867 11.8419 12.5508 11.5208 12.2281C11.4365 12.1439 11.3697 12.0438 11.3241 11.9338C11.2785 11.8237 11.255 11.7057 11.255 11.5866C11.255 11.4674 11.2785 11.3494 11.3241 11.2393C11.3697 11.1293 11.4365 11.0293 11.5208 10.945C11.6814 10.7855 11.8087 10.5958 11.8954 10.3867C11.9821 10.1776 12.0265 9.95344 12.0259 9.72711V8.053H0.702149V9.73118ZM3.73674 10.5214H8.99128C9.09784 10.5236 9.19928 10.5675 9.27385 10.6437C9.34842 10.7198 9.39018 10.8222 9.39018 10.9287C9.39017 11.0353 9.34841 11.1376 9.27383 11.2138C9.19925 11.2899 9.09781 11.3338 8.99125 11.336H3.73674C3.63019 11.3338 3.52874 11.2899 3.45417 11.2138C3.37959 11.1376 3.33783 11.0353 3.33783 10.9287C3.33783 10.8221 3.37959 10.7198 3.45417 10.6437C3.52874 10.5675 3.63019 10.5236 3.73674 10.5214ZM3.73674 13.8045H8.99128C9.09784 13.8067 9.19928 13.8506 9.27385 13.9267C9.34842 14.0029 9.39018 14.1052 9.39018 14.2118C9.39017 14.3184 9.34841 14.4207 9.27383 14.4968C9.19925 14.573 9.09781 14.6169 8.99125 14.6191H3.73674C3.63019 14.6169 3.52874 14.573 3.45417 14.4968C3.37959 14.4207 3.33783 14.3184 3.33783 14.2118C3.33783 14.1052 3.37959 14.0029 3.45417 13.9267C3.52874 13.8506 3.63019 13.8067 3.73674 13.8045ZM3.73674 17.0875H8.99128C9.09815 17.0893 9.20005 17.133 9.275 17.2092C9.34996 17.2854 9.39196 17.388 9.39196 17.4948C9.39196 17.6017 9.34995 17.7043 9.27499 17.7805C9.20003 17.8567 9.09813 17.9004 8.99126 17.9022H3.73674C3.62987 17.9004 3.52797 17.8567 3.45302 17.7805C3.37806 17.7043 3.33605 17.6017 3.33605 17.4948C3.33605 17.388 3.37806 17.2853 3.45302 17.2092C3.52797 17.133 3.62987 17.0893 3.73674 17.0875ZM0.702149 22.0936C0.70316 22.5499 0.885145 22.9871 1.20817 23.3094C1.53119 23.6316 1.96887 23.8126 2.42516 23.8125H10.3029C10.7592 23.8126 11.1968 23.6316 11.5199 23.3094C11.8429 22.9871 12.0249 22.5499 12.0259 22.0936V21.1852H0.702149V22.0936ZM4.97098 2.76182V3.80047H7.75709V2.76182C8.01382 2.60173 8.21143 2.36239 8.32004 2.08001C8.42864 1.79762 8.44233 1.48754 8.35903 1.19668C8.27573 0.905823 8.09997 0.650004 7.85834 0.467923C7.61671 0.285842 7.32236 0.187404 7.0198 0.1875H5.70822C5.40739 0.19082 5.11567 0.291149 4.87644 0.473565C4.6372 0.655982 4.46324 0.910743 4.38041 1.19996C4.29758 1.48918 4.31032 1.79741 4.41672 2.07881C4.52313 2.36021 4.71751 2.59976 4.97098 2.76182Z" fill="black"/>
</svg>
