<svg width="447" height="240" viewBox="0 0 447 240" fill="none" xmlns="http://www.w3.org/2000/svg">
<g clip-path="url(#clip0_617_103)">
<mask id="mask0_617_103" style="mask-type:luminance" maskUnits="userSpaceOnUse" x="22" y="27" width="400" height="150">
<path d="M422 27H22V177H422V27Z" fill="white"/>
</mask>
<g mask="url(#mask0_617_103)">
<path d="M377.307 44.8896C389.68 35.2682 402.042 33.5598 414.446 34.9004C420.659 35.5718 426.88 37.0087 433.126 38.6045C439.361 40.1976 445.634 41.9533 451.899 43.2441C476.98 48.4114 502.047 46.1571 514.545 45.0342L526.5 43.96V236.5H-1272.5V66.1445L-1260.87 78.7842C-1248.39 92.3491 -1223.32 119.598 -1198.22 131.622C-1173.05 143.677 -1147.9 140.42 -1122.86 132.983C-1110.3 129.255 -1097.87 124.512 -1085.39 121.721C-1072.94 118.935 -1060.54 118.123 -1048.16 122.242C-1035.74 126.374 -1023.31 135.465 -1010.77 143.702C-998.287 151.904 -985.676 159.265 -973.017 159.688C-960.335 160.114 -947.716 153.583 -935.187 143.481C-922.649 133.374 -910.122 119.626 -897.625 105.491C-885.117 91.344 -872.634 76.8055 -860.152 64.748C-847.666 52.686 -835.232 43.1597 -822.841 38.9922C-798.1 30.6714 -773.298 43.6541 -748.281 60.6357C-735.812 69.1001 -723.269 78.571 -710.745 85.6074C-698.214 92.6476 -685.604 97.3099 -672.952 96.1035C-660.327 94.8995 -647.73 87.8484 -635.256 80.8555C-622.73 73.8334 -610.325 66.8696 -597.949 65.6104C-585.593 64.3531 -573.199 68.783 -560.707 74.4756C-548.259 80.1481 -535.685 87.0917 -523.138 90.6836C-497.969 97.8885 -472.834 91.669 -447.787 79.8896C-441.529 76.9463 -435.264 73.6508 -429.024 70.4941C-422.777 67.3338 -416.545 64.3082 -410.318 61.8867C-397.864 57.043 -385.49 54.6392 -373.145 58.375C-360.767 62.1208 -348.342 72.055 -335.84 83.6533C-323.376 95.2164 -310.829 108.442 -298.314 118.578C-273.252 138.877 -248.149 146.938 -223.214 158.735C-210.753 164.63 -198.201 171.521 -185.678 176.279C-173.138 181.044 -160.534 183.712 -147.9 181.132C-135.298 178.558 -122.716 170.762 -110.244 163.32C-97.7251 155.85 -85.3177 148.736 -72.9434 147.319C-60.5861 145.904 -48.1931 150.168 -35.6992 155.603C-23.2488 161.018 -10.6744 167.613 1.88086 170.681C14.4673 173.756 27.0388 173.299 39.5713 171.504C52.0769 169.712 64.6402 166.569 77.0908 164.268C102.03 159.659 127.198 158.31 152.324 136.874C158.6 131.521 164.868 124.919 171.119 118.071C177.378 111.215 183.616 104.119 189.857 97.7363C196.099 91.3545 202.317 85.716 208.518 81.7812C214.719 77.8464 220.862 75.6415 226.966 76.0605C233.08 76.4803 239.239 79.5364 245.463 83.9033C251.685 88.2685 257.909 93.896 264.17 99.3984C270.416 104.888 276.698 110.253 282.992 114.033C289.286 117.813 295.655 120.047 302.066 119.191C308.465 118.337 314.807 114.418 321.083 108.801C327.366 103.177 333.639 95.8003 339.892 87.9453C346.158 80.073 352.386 71.745 358.637 64.1377C364.881 56.5376 371.102 49.714 377.307 44.8896Z" fill="url(#paint0_linear_617_103)" stroke="#06402B"/>
<path d="M-1273 64.8625L-1260.5 78.4459C-1248 92.0294 -1223 119.196 -1198 131.171C-1173 143.146 -1148 139.928 -1123 132.504C-1098 125.08 -1073 113.45 -1048 121.768C-1023 130.086 -998 158.352 -973 159.189C-948 160.027 -923 133.435 -898 105.16C-873 76.8845 -848 46.9261 -823 38.5179C-798 30.1098 -773 43.2519 -748 60.2219C-723 77.192 -698 97.9898 -673 95.606C-648 93.2221 -623 67.6565 -598 65.1127C-573 62.5688 -548 83.0467 -523 90.2032C-498 97.3597 -473 91.1948 -448 79.4375C-423 67.6803 -398 50.3306 -373 57.896C-348 65.4614 -323 97.9418 -298 118.19C-273 138.439 -248 146.455 -223 158.283C-198 170.11 -173 185.748 -148 180.642C-123 175.536 -98 149.685 -73 146.823C-48 143.96 -23.0001 164.086 1.99988 170.195C26.9999 176.304 52 168.397 77 163.776C102 159.156 127 157.822 152 136.494C177 115.167 202 73.8449 227 75.5613C252 77.2776 277 122.032 302 118.696C327 115.36 352 63.9342 377 44.495C402 25.0557 427 37.6035 452 42.7543C477 47.9051 502 45.6591 514.5 44.536L527 43.413" stroke="#06402B" stroke-width="4" stroke-linecap="round"/>
</g>
<g filter="url(#filter0_d_617_103)">
<path d="M75 187H30C21.7157 187 15 193.716 15 202V206C15 214.284 21.7157 221 30 221H75C83.2843 221 90 214.284 90 206V202C90 193.716 83.2843 187 75 187Z" fill="#06402B"/>
<path opacity="0.9" d="M36.3778 208.119C35.7926 208.119 35.2699 208.018 34.8097 207.817C34.3523 207.615 33.9901 207.335 33.723 206.977C33.4588 206.616 33.3168 206.199 33.2969 205.724H34.6349C34.652 205.983 34.7386 206.207 34.8949 206.398C35.054 206.585 35.2614 206.73 35.517 206.832C35.7727 206.935 36.0568 206.986 36.3693 206.986C36.7131 206.986 37.017 206.926 37.2812 206.807C37.5483 206.687 37.7571 206.521 37.9077 206.308C38.0582 206.092 38.1335 205.844 38.1335 205.562C38.1335 205.27 38.0582 205.013 37.9077 204.791C37.7599 204.567 37.5426 204.391 37.2557 204.263C36.9716 204.135 36.6278 204.071 36.2244 204.071H35.4872V202.997H36.2244C36.5483 202.997 36.8324 202.939 37.0767 202.822C37.3239 202.706 37.517 202.544 37.6562 202.337C37.7955 202.126 37.8651 201.881 37.8651 201.599C37.8651 201.33 37.804 201.095 37.6818 200.896C37.5625 200.695 37.392 200.537 37.1705 200.423C36.9517 200.31 36.6932 200.253 36.3949 200.253C36.1108 200.253 35.8452 200.305 35.598 200.411C35.3537 200.513 35.1548 200.661 35.0014 200.854C34.848 201.044 34.7656 201.273 34.7543 201.54H33.4801C33.4943 201.068 33.6335 200.653 33.8977 200.295C34.1648 199.937 34.517 199.658 34.9545 199.456C35.392 199.254 35.8778 199.153 36.4119 199.153C36.9716 199.153 37.4545 199.263 37.8608 199.482C38.2699 199.697 38.5852 199.986 38.8068 200.347C39.0313 200.707 39.142 201.102 39.1392 201.531C39.142 202.02 39.0057 202.435 38.7301 202.776C38.4574 203.116 38.0938 203.345 37.6392 203.462V203.53C38.2188 203.618 38.6676 203.848 38.9858 204.22C39.3068 204.592 39.4659 205.054 39.4631 205.605C39.4659 206.085 39.3324 206.516 39.0625 206.896C38.7955 207.277 38.4304 207.577 37.9673 207.795C37.5043 208.011 36.9744 208.119 36.3778 208.119ZM47.1942 208H44.369V199.273H47.2837C48.1388 199.273 48.8732 199.447 49.4869 199.797C50.1005 200.143 50.5707 200.642 50.8974 201.293C51.2269 201.94 51.3917 202.717 51.3917 203.624C51.3917 204.533 51.2255 205.314 50.8931 205.967C50.5636 206.621 50.0863 207.124 49.4613 207.476C48.8363 207.825 48.0806 208 47.1942 208ZM45.6857 206.849H47.1218C47.7866 206.849 48.3391 206.724 48.7795 206.474C49.2198 206.222 49.5494 205.857 49.7681 205.379C49.9869 204.899 50.0962 204.314 50.0962 203.624C50.0962 202.939 49.9869 202.358 49.7681 201.881C49.5522 201.403 49.2298 201.041 48.8008 200.794C48.3718 200.547 47.8391 200.423 47.2028 200.423H45.6857V206.849ZM54.8317 208.145C54.4169 208.145 54.0419 208.068 53.7067 207.915C53.3714 207.759 53.1058 207.533 52.9098 207.237C52.7166 206.942 52.62 206.58 52.62 206.151C52.62 205.781 52.6911 205.477 52.8331 205.239C52.9751 205 53.1669 204.811 53.4084 204.672C53.6499 204.533 53.9197 204.428 54.218 204.357C54.5163 204.286 54.8203 204.232 55.13 204.195C55.522 204.149 55.8402 204.112 56.0845 204.084C56.3288 204.053 56.5064 204.003 56.6172 203.935C56.728 203.866 56.7834 203.756 56.7834 203.602V203.572C56.7834 203.2 56.6783 202.912 56.468 202.707C56.2607 202.503 55.951 202.401 55.5391 202.401C55.1101 202.401 54.772 202.496 54.5249 202.686C54.2805 202.874 54.1115 203.082 54.0178 203.312L52.8203 203.04C52.9624 202.642 53.1697 202.321 53.4425 202.077C53.718 201.83 54.0348 201.651 54.3928 201.54C54.7507 201.426 55.1271 201.369 55.522 201.369C55.7834 201.369 56.0604 201.401 56.353 201.463C56.6484 201.523 56.924 201.634 57.1797 201.795C57.4382 201.957 57.6499 202.189 57.8146 202.49C57.9794 202.788 58.0618 203.176 58.0618 203.653V208H56.8175V207.105H56.7663C56.6839 207.27 56.5604 207.432 56.3956 207.591C56.2308 207.75 56.0192 207.882 55.7607 207.987C55.5021 208.092 55.1925 208.145 54.8317 208.145ZM55.1087 207.122C55.4609 207.122 55.7621 207.053 56.0121 206.913C56.2649 206.774 56.4567 206.592 56.5874 206.368C56.7209 206.141 56.7876 205.898 56.7876 205.639V204.795C56.7422 204.841 56.6541 204.884 56.5234 204.923C56.3956 204.96 56.2493 204.993 56.0845 205.021C55.9197 205.047 55.7592 205.071 55.603 205.094C55.4467 205.114 55.3161 205.131 55.2109 205.145C54.9638 205.176 54.7379 205.229 54.5334 205.303C54.3317 205.376 54.1697 205.483 54.0476 205.622C53.9283 205.759 53.8686 205.94 53.8686 206.168C53.8686 206.483 53.9851 206.722 54.218 206.884C54.451 207.043 54.7479 207.122 55.1087 207.122ZM60.3299 210.455C60.1396 210.455 59.9663 210.439 59.81 210.408C59.6538 210.379 59.5373 210.348 59.4606 210.314L59.7674 209.27C60.0004 209.332 60.2077 209.359 60.3896 209.351C60.5714 209.342 60.7319 209.274 60.8711 209.146C61.0131 209.018 61.1381 208.81 61.2461 208.52L61.4038 208.085L59.0089 201.455H60.3725L62.0302 206.534H62.0984L63.756 201.455H65.1239L62.4265 208.874C62.3015 209.214 62.1424 209.503 61.9492 209.739C61.756 209.977 61.5259 210.156 61.2589 210.276C60.9918 210.395 60.6822 210.455 60.3299 210.455ZM71.2262 203.053L70.0714 203.257C70.0231 203.109 69.9464 202.969 69.8413 202.835C69.739 202.702 69.5998 202.592 69.4237 202.507C69.2475 202.422 69.0273 202.379 68.7631 202.379C68.4023 202.379 68.1012 202.46 67.8597 202.622C67.6183 202.781 67.4975 202.987 67.4975 203.24C67.4975 203.459 67.5785 203.635 67.7404 203.768C67.9023 203.902 68.1637 204.011 68.5245 204.097L69.5643 204.335C70.1665 204.474 70.6154 204.689 70.9109 204.979C71.2063 205.268 71.354 205.645 71.354 206.108C71.354 206.5 71.2404 206.849 71.0131 207.156C70.7887 207.46 70.4748 207.699 70.0714 207.872C69.6708 208.045 69.2063 208.132 68.6779 208.132C67.945 208.132 67.3469 207.976 66.8839 207.663C66.4208 207.348 66.1367 206.901 66.0316 206.321L67.2631 206.134C67.3398 206.455 67.4975 206.697 67.7362 206.862C67.9748 207.024 68.2859 207.105 68.6694 207.105C69.087 207.105 69.4208 207.018 69.6708 206.845C69.9208 206.669 70.0458 206.455 70.0458 206.202C70.0458 205.997 69.9691 205.825 69.8157 205.686C69.6651 205.547 69.4336 205.442 69.1211 205.371L68.0131 205.128C67.4023 204.989 66.9506 204.767 66.658 204.463C66.3683 204.159 66.2234 203.774 66.2234 203.308C66.2234 202.922 66.3313 202.584 66.5472 202.294C66.7631 202.004 67.0614 201.778 67.4421 201.616C67.8228 201.452 68.2589 201.369 68.7504 201.369C69.4577 201.369 70.0146 201.523 70.4208 201.83C70.8271 202.134 71.0955 202.541 71.2262 203.053Z" fill="white"/>
</g>
<g filter="url(#filter1_d_617_103)">
<path d="M246 187H201C192.716 187 186 193.716 186 202V206C186 214.284 192.716 221 201 221H246C254.284 221 261 214.284 261 206V202C261 193.716 254.284 187 246 187Z" fill="#06402B"/>
<path opacity="0.9" d="M205.134 208L208.943 200.466V200.402H204.537V199.273H210.307V200.44L206.51 208H205.134ZM217.909 208H215.084V199.273H217.999C218.854 199.273 219.588 199.447 220.202 199.797C220.815 200.143 221.286 200.642 221.612 201.293C221.942 201.94 222.107 202.717 222.107 203.624C222.107 204.533 221.94 205.314 221.608 205.967C221.278 206.621 220.801 207.124 220.176 207.476C219.551 207.825 218.795 208 217.909 208ZM216.401 206.849H217.837C218.501 206.849 219.054 206.724 219.494 206.474C219.935 206.222 220.264 205.857 220.483 205.379C220.702 204.899 220.811 204.314 220.811 203.624C220.811 202.939 220.702 202.358 220.483 201.881C220.267 201.403 219.945 201.041 219.516 200.794C219.087 200.547 218.554 200.423 217.918 200.423H216.401V206.849ZM225.547 208.145C225.132 208.145 224.757 208.068 224.422 207.915C224.086 207.759 223.821 207.533 223.625 207.237C223.431 206.942 223.335 206.58 223.335 206.151C223.335 205.781 223.406 205.477 223.548 205.239C223.69 205 223.882 204.811 224.123 204.672C224.365 204.533 224.635 204.428 224.933 204.357C225.231 204.286 225.535 204.232 225.845 204.195C226.237 204.149 226.555 204.112 226.799 204.084C227.044 204.053 227.221 204.003 227.332 203.935C227.443 203.866 227.498 203.756 227.498 203.602V203.572C227.498 203.2 227.393 202.912 227.183 202.707C226.975 202.503 226.666 202.401 226.254 202.401C225.825 202.401 225.487 202.496 225.24 202.686C224.995 202.874 224.826 203.082 224.733 203.312L223.535 203.04C223.677 202.642 223.885 202.321 224.157 202.077C224.433 201.83 224.75 201.651 225.108 201.54C225.466 201.426 225.842 201.369 226.237 201.369C226.498 201.369 226.775 201.401 227.068 201.463C227.363 201.523 227.639 201.634 227.895 201.795C228.153 201.957 228.365 202.189 228.529 202.49C228.694 202.788 228.777 203.176 228.777 203.653V208H227.532V207.105H227.481C227.399 207.27 227.275 207.432 227.11 207.591C226.946 207.75 226.734 207.882 226.475 207.987C226.217 208.092 225.907 208.145 225.547 208.145ZM225.824 207.122C226.176 207.122 226.477 207.053 226.727 206.913C226.98 206.774 227.172 206.592 227.302 206.368C227.436 206.141 227.502 205.898 227.502 205.639V204.795C227.457 204.841 227.369 204.884 227.238 204.923C227.11 204.96 226.964 204.993 226.799 205.021C226.635 205.047 226.474 205.071 226.318 205.094C226.162 205.114 226.031 205.131 225.926 205.145C225.679 205.176 225.453 205.229 225.248 205.303C225.047 205.376 224.885 205.483 224.762 205.622C224.643 205.759 224.583 205.94 224.583 206.168C224.583 206.483 224.7 206.722 224.933 206.884C225.166 207.043 225.463 207.122 225.824 207.122ZM231.045 210.455C230.854 210.455 230.681 210.439 230.525 210.408C230.369 210.379 230.252 210.348 230.175 210.314L230.482 209.27C230.715 209.332 230.923 209.359 231.104 209.351C231.286 209.342 231.447 209.274 231.586 209.146C231.728 209.018 231.853 208.81 231.961 208.52L232.119 208.085L229.724 201.455H231.087L232.745 206.534H232.813L234.471 201.455H235.839L233.141 208.874C233.016 209.214 232.857 209.503 232.664 209.739C232.471 209.977 232.241 210.156 231.974 210.276C231.707 210.395 231.397 210.455 231.045 210.455ZM241.941 203.053L240.786 203.257C240.738 203.109 240.661 202.969 240.556 202.835C240.454 202.702 240.315 202.592 240.138 202.507C239.962 202.422 239.742 202.379 239.478 202.379C239.117 202.379 238.816 202.46 238.575 202.622C238.333 202.781 238.212 202.987 238.212 203.24C238.212 203.459 238.293 203.635 238.455 203.768C238.617 203.902 238.879 204.011 239.239 204.097L240.279 204.335C240.881 204.474 241.33 204.689 241.626 204.979C241.921 205.268 242.069 205.645 242.069 206.108C242.069 206.5 241.955 206.849 241.728 207.156C241.504 207.46 241.19 207.699 240.786 207.872C240.386 208.045 239.921 208.132 239.393 208.132C238.66 208.132 238.062 207.976 237.599 207.663C237.136 207.348 236.852 206.901 236.746 206.321L237.978 206.134C238.055 206.455 238.212 206.697 238.451 206.862C238.69 207.024 239.001 207.105 239.384 207.105C239.802 207.105 240.136 207.018 240.386 206.845C240.636 206.669 240.761 206.455 240.761 206.202C240.761 205.997 240.684 205.825 240.531 205.686C240.38 205.547 240.148 205.442 239.836 205.371L238.728 205.128C238.117 204.989 237.665 204.767 237.373 204.463C237.083 204.159 236.938 203.774 236.938 203.308C236.938 202.922 237.046 202.584 237.262 202.294C237.478 202.004 237.776 201.778 238.157 201.616C238.538 201.452 238.974 201.369 239.465 201.369C240.173 201.369 240.729 201.523 241.136 201.83C241.542 202.134 241.81 202.541 241.941 203.053Z" fill="white"/>
</g>
<g filter="url(#filter2_d_617_103)">
<path d="M417 187H372C363.716 187 357 193.716 357 202V206C357 214.284 363.716 221 372 221H417C425.284 221 432 214.284 432 206V202C432 193.716 425.284 187 417 187Z" fill="#06402B"/>
<path opacity="0.9" d="M374.378 208.119C373.793 208.119 373.27 208.018 372.81 207.817C372.352 207.615 371.99 207.335 371.723 206.977C371.459 206.616 371.317 206.199 371.297 205.724H372.635C372.652 205.983 372.739 206.207 372.895 206.398C373.054 206.585 373.261 206.73 373.517 206.832C373.773 206.935 374.057 206.986 374.369 206.986C374.713 206.986 375.017 206.926 375.281 206.807C375.548 206.687 375.757 206.521 375.908 206.308C376.058 206.092 376.134 205.844 376.134 205.562C376.134 205.27 376.058 205.013 375.908 204.791C375.76 204.567 375.543 204.391 375.256 204.263C374.972 204.135 374.628 204.071 374.224 204.071H373.487V202.997H374.224C374.548 202.997 374.832 202.939 375.077 202.822C375.324 202.706 375.517 202.544 375.656 202.337C375.795 202.126 375.865 201.881 375.865 201.599C375.865 201.33 375.804 201.095 375.682 200.896C375.563 200.695 375.392 200.537 375.17 200.423C374.952 200.31 374.693 200.253 374.395 200.253C374.111 200.253 373.845 200.305 373.598 200.411C373.354 200.513 373.155 200.661 373.001 200.854C372.848 201.044 372.766 201.273 372.754 201.54H371.48C371.494 201.068 371.634 200.653 371.898 200.295C372.165 199.937 372.517 199.658 372.955 199.456C373.392 199.254 373.878 199.153 374.412 199.153C374.972 199.153 375.455 199.263 375.861 199.482C376.27 199.697 376.585 199.986 376.807 200.347C377.031 200.707 377.142 201.102 377.139 201.531C377.142 202.02 377.006 202.435 376.73 202.776C376.457 203.116 376.094 203.345 375.639 203.462V203.53C376.219 203.618 376.668 203.848 376.986 204.22C377.307 204.592 377.466 205.054 377.463 205.605C377.466 206.085 377.332 206.516 377.062 206.896C376.795 207.277 376.43 207.577 375.967 207.795C375.504 208.011 374.974 208.119 374.378 208.119ZM382.112 208.145C381.439 208.142 380.864 207.964 380.386 207.612C379.909 207.26 379.544 206.747 379.291 206.074C379.038 205.401 378.912 204.589 378.912 203.641C378.912 202.695 379.038 201.886 379.291 201.216C379.547 200.545 379.913 200.034 380.391 199.682C380.871 199.33 381.445 199.153 382.112 199.153C382.78 199.153 383.352 199.331 383.83 199.686C384.307 200.038 384.672 200.55 384.925 201.22C385.18 201.888 385.308 202.695 385.308 203.641C385.308 204.592 385.182 205.405 384.929 206.078C384.676 206.749 384.311 207.261 383.834 207.616C383.357 207.969 382.783 208.145 382.112 208.145ZM382.112 207.007C382.703 207.007 383.165 206.719 383.497 206.142C383.832 205.565 384 204.732 384 203.641C384 202.916 383.923 202.304 383.77 201.804C383.619 201.301 383.402 200.92 383.118 200.662C382.837 200.401 382.501 200.27 382.112 200.27C381.524 200.27 381.063 200.56 380.727 201.139C380.392 201.719 380.223 202.553 380.22 203.641C380.22 204.368 380.295 204.983 380.446 205.486C380.599 205.986 380.817 206.365 381.098 206.624C381.379 206.879 381.717 207.007 382.112 207.007ZM392.94 208H390.115V199.273H393.03C393.885 199.273 394.619 199.447 395.233 199.797C395.847 200.143 396.317 200.642 396.643 201.293C396.973 201.94 397.138 202.717 397.138 203.624C397.138 204.533 396.972 205.314 396.639 205.967C396.31 206.621 395.832 207.124 395.207 207.476C394.582 207.825 393.827 208 392.94 208ZM391.432 206.849H392.868C393.533 206.849 394.085 206.724 394.526 206.474C394.966 206.222 395.295 205.857 395.514 205.379C395.733 204.899 395.842 204.314 395.842 203.624C395.842 202.939 395.733 202.358 395.514 201.881C395.298 201.403 394.976 201.041 394.547 200.794C394.118 200.547 393.585 200.423 392.949 200.423H391.432V206.849ZM400.578 208.145C400.163 208.145 399.788 208.068 399.453 207.915C399.118 207.759 398.852 207.533 398.656 207.237C398.463 206.942 398.366 206.58 398.366 206.151C398.366 205.781 398.437 205.477 398.579 205.239C398.721 205 398.913 204.811 399.154 204.672C399.396 204.533 399.666 204.428 399.964 204.357C400.262 204.286 400.566 204.232 400.876 204.195C401.268 204.149 401.586 204.112 401.831 204.084C402.075 204.053 402.252 204.003 402.363 203.935C402.474 203.866 402.529 203.756 402.529 203.602V203.572C402.529 203.2 402.424 202.912 402.214 202.707C402.007 202.503 401.697 202.401 401.285 202.401C400.856 202.401 400.518 202.496 400.271 202.686C400.027 202.874 399.858 203.082 399.764 203.312L398.566 203.04C398.708 202.642 398.916 202.321 399.189 202.077C399.464 201.83 399.781 201.651 400.139 201.54C400.497 201.426 400.873 201.369 401.268 201.369C401.529 201.369 401.806 201.401 402.099 201.463C402.395 201.523 402.67 201.634 402.926 201.795C403.184 201.957 403.396 202.189 403.561 202.49C403.725 202.788 403.808 203.176 403.808 203.653V208H402.564V207.105H402.512C402.43 207.27 402.306 207.432 402.142 207.591C401.977 207.75 401.765 207.882 401.507 207.987C401.248 208.092 400.939 208.145 400.578 208.145ZM400.855 207.122C401.207 207.122 401.508 207.053 401.758 206.913C402.011 206.774 402.203 206.592 402.333 206.368C402.467 206.141 402.534 205.898 402.534 205.639V204.795C402.488 204.841 402.4 204.884 402.27 204.923C402.142 204.96 401.995 204.993 401.831 205.021C401.666 205.047 401.505 205.071 401.349 205.094C401.193 205.114 401.062 205.131 400.957 205.145C400.71 205.176 400.484 205.229 400.279 205.303C400.078 205.376 399.916 205.483 399.794 205.622C399.674 205.759 399.615 205.94 399.615 206.168C399.615 206.483 399.731 206.722 399.964 206.884C400.197 207.043 400.494 207.122 400.855 207.122ZM406.076 210.455C405.886 210.455 405.712 210.439 405.556 210.408C405.4 210.379 405.283 210.348 405.207 210.314L405.513 209.27C405.746 209.332 405.954 209.359 406.136 209.351C406.317 209.342 406.478 209.274 406.617 209.146C406.759 209.018 406.884 208.81 406.992 208.52L407.15 208.085L404.755 201.455H406.119L407.776 206.534H407.844L409.502 201.455H410.87L408.173 208.874C408.048 209.214 407.888 209.503 407.695 209.739C407.502 209.977 407.272 210.156 407.005 210.276C406.738 210.395 406.428 210.455 406.076 210.455ZM416.972 203.053L415.817 203.257C415.769 203.109 415.692 202.969 415.587 202.835C415.485 202.702 415.346 202.592 415.17 202.507C414.994 202.422 414.773 202.379 414.509 202.379C414.148 202.379 413.847 202.46 413.606 202.622C413.364 202.781 413.244 202.987 413.244 203.24C413.244 203.459 413.325 203.635 413.487 203.768C413.648 203.902 413.91 204.011 414.271 204.097L415.31 204.335C415.913 204.474 416.362 204.689 416.657 204.979C416.952 205.268 417.1 205.645 417.1 206.108C417.1 206.5 416.987 206.849 416.759 207.156C416.535 207.46 416.221 207.699 415.817 207.872C415.417 208.045 414.952 208.132 414.424 208.132C413.691 208.132 413.093 207.976 412.63 207.663C412.167 207.348 411.883 206.901 411.778 206.321L413.009 206.134C413.086 206.455 413.244 206.697 413.482 206.862C413.721 207.024 414.032 207.105 414.415 207.105C414.833 207.105 415.167 207.018 415.417 206.845C415.667 206.669 415.792 206.455 415.792 206.202C415.792 205.997 415.715 205.825 415.562 205.686C415.411 205.547 415.18 205.442 414.867 205.371L413.759 205.128C413.148 204.989 412.697 204.767 412.404 204.463C412.114 204.159 411.969 203.774 411.969 203.308C411.969 202.922 412.077 202.584 412.293 202.294C412.509 202.004 412.808 201.778 413.188 201.616C413.569 201.452 414.005 201.369 414.496 201.369C415.204 201.369 415.761 201.523 416.167 201.83C416.573 202.134 416.842 202.541 416.972 203.053Z" fill="white"/>
</g>
<g filter="url(#filter3_d_617_103)">
<path d="M227 83C231.418 83 235 79.4183 235 75C235 70.5817 231.418 67 227 67C222.582 67 219 70.5817 219 75C219 79.4183 222.582 83 227 83Z" fill="#06402B"/>
<path d="M227 81.5C230.59 81.5 233.5 78.5899 233.5 75C233.5 71.4101 230.59 68.5 227 68.5C223.41 68.5 220.5 71.4101 220.5 75C220.5 78.5899 223.41 81.5 227 81.5Z" fill="#06402B" stroke="white" stroke-width="3"/>
</g>
<path d="M21 178C24.3137 178 27 175.314 27 172C27 168.686 24.3137 166 21 166C17.6863 166 15 168.686 15 172C15 175.314 17.6863 178 21 178Z" fill="#06402B"/>
<path d="M421 41C424.314 41 427 38.3137 427 35C427 31.6863 424.314 29 421 29C417.686 29 415 31.6863 415 35C415 38.3137 417.686 41 421 41Z" fill="#06402B"/>
<g filter="url(#filter4_d_617_103)">
<path d="M227 57C239.703 57 250 46.7025 250 34C250 21.2975 239.703 11 227 11C214.297 11 204 21.2975 204 34C204 46.7025 214.297 57 227 57Z" fill="url(#paint1_linear_617_103)"/>
</g>
<path d="M238.56 45.0219L234.223 37.4198C234.444 37.2417 234.712 37.1182 235.01 37.0723C235.682 36.9718 236.265 36.5782 236.604 35.9894C236.943 35.4007 236.995 34.6999 236.745 34.0681C236.481 33.3903 236.682 32.632 237.259 32.1754C237.523 31.9629 237.733 31.6988 237.874 31.4058C238.014 31.11 238.092 30.7826 238.092 30.4437C238.092 29.7659 237.787 29.1341 237.25 28.7062C236.682 28.2553 236.481 27.4971 236.748 26.8193C236.995 26.1875 236.943 25.4867 236.604 24.8979C236.265 24.3092 235.682 23.9157 235.01 23.8152C234.292 23.7089 233.735 23.1517 233.629 22.4338C233.528 21.7617 233.135 21.1816 232.546 20.8398C231.957 20.5009 231.257 20.4492 230.622 20.6991C229.947 20.9633 229.189 20.7621 228.735 20.1877C228.31 19.6564 227.678 19.3521 227 19.3521C226.322 19.3521 225.691 19.6565 225.263 20.1935C224.812 20.7593 224.059 20.9603 223.384 20.7019C223.382 20.699 223.379 20.699 223.376 20.6961C222.744 20.4492 222.043 20.5008 221.454 20.8397C220.866 21.1815 220.472 21.7617 220.372 22.4337C220.265 23.1517 219.708 23.7089 218.99 23.8151C218.318 23.9156 217.735 24.3091 217.396 24.8979C217.058 25.4867 217.003 26.1874 217.253 26.8221C217.52 27.497 217.319 28.2553 216.744 28.7119C216.213 29.134 215.909 29.7659 215.909 30.4437C215.909 31.1215 216.213 31.7532 216.75 32.1811C217.319 32.632 217.52 33.3904 217.253 34.0681C217.003 34.6999 217.058 35.4006 217.396 35.9894C217.735 36.5781 218.315 36.9717 218.99 37.0722C219.286 37.1181 219.556 37.2417 219.777 37.4197L215.44 45.0219C215.38 45.1225 215.392 45.2487 215.461 45.3378C215.532 45.4296 215.653 45.47 215.765 45.4412L219.892 44.3009L221.012 48.4338C221.047 48.5602 221.159 48.6463 221.291 48.6463C221.391 48.6463 221.489 48.5918 221.541 48.5027L225.742 41.139C226.107 41.3945 226.541 41.5353 227 41.5353C227.457 41.5353 227.893 41.3945 228.258 41.139L232.46 48.5027C232.514 48.5975 232.624 48.6578 232.747 48.6463C232.862 48.6291 232.957 48.5487 232.988 48.4338L234.108 44.3009L238.236 45.4412C238.348 45.4699 238.468 45.4296 238.54 45.3378C238.609 45.2487 238.62 45.1225 238.56 45.0219ZM233.06 38.3703C232.986 38.8701 232.695 39.2981 232.259 39.5508C231.822 39.8035 231.303 39.8409 230.834 39.6571C229.921 39.2981 228.899 39.5708 228.284 40.3405C227.971 40.734 227.503 40.9609 227 40.9609C226.498 40.9609 226.029 40.734 225.714 40.3377C225.105 39.5737 224.085 39.2951 223.192 39.6455C223.183 39.6484 223.172 39.6542 223.163 39.6571C222.695 39.8409 222.178 39.8036 221.742 39.5508C221.305 39.2981 221.012 38.87 220.94 38.3703C220.794 37.3996 220.044 36.6501 219.073 36.5036C218.577 36.4318 218.146 36.1389 217.893 35.7023C217.64 35.2658 217.603 34.7488 217.787 34.2779C218.149 33.3646 217.873 32.3422 217.103 31.7275C216.71 31.4145 216.483 30.9463 216.483 30.4437C216.483 29.9411 216.71 29.473 217.106 29.1571C217.873 28.5454 218.149 27.5229 217.787 26.6096C217.603 26.1414 217.64 25.6216 217.893 25.1851C218.146 24.7485 218.577 24.4584 219.073 24.3838C220.044 24.2373 220.794 23.4877 220.94 22.517C221.012 22.0201 221.305 21.5892 221.742 21.3365C222.175 21.0867 222.692 21.0465 223.157 21.2275C223.16 21.2303 223.163 21.2303 223.166 21.2332C224.079 21.5922 225.102 21.3165 225.716 20.5468C226.029 20.1534 226.498 19.9265 227 19.9265C227.503 19.9265 227.971 20.1534 228.287 20.5497C228.899 21.3165 229.921 21.5923 230.834 21.2304C231.303 21.0466 231.822 21.0868 232.259 21.3367C232.695 21.5894 232.988 22.0201 233.06 22.517C233.207 23.4877 233.956 24.2402 234.927 24.3838C235.424 24.4585 235.855 24.7515 236.107 25.1851C236.357 25.6216 236.397 26.1415 236.211 26.6096C235.852 27.5229 236.127 28.5454 236.897 29.16C237.291 29.4731 237.518 29.9412 237.518 30.4438C237.518 30.9464 237.291 31.4145 236.897 31.7276C236.894 31.7304 236.894 31.7303 236.894 31.7332C236.127 32.3421 235.852 33.3646 236.214 34.2808C236.397 34.7489 236.357 35.2659 236.107 35.7024C235.855 36.1389 235.424 36.4319 234.927 36.5037C233.956 36.65 233.207 37.3995 233.06 38.3703Z" fill="white"/>
<path d="M227 23.0195C222.905 23.0195 219.576 26.3511 219.576 30.4436C219.576 34.5391 222.905 37.8706 227 37.8706C231.096 37.8706 234.424 34.5391 234.424 30.4436C234.424 26.351 231.096 23.0195 227 23.0195ZM227 37.2962C223.224 37.2962 220.151 34.2203 220.151 30.4436C220.151 26.6669 223.224 23.5939 227 23.5939C230.777 23.5939 233.85 26.6669 233.85 30.4436C233.85 34.2203 230.777 37.2962 227 37.2962Z" fill="white"/>
<path d="M231.268 27.6292L227.546 31.3513C227.27 31.627 226.819 31.6298 226.541 31.3513C226.538 31.3484 226.538 31.3484 226.535 31.3484L225.289 30.1422C225.053 29.9038 225.053 29.519 225.291 29.2806C225.524 29.0479 225.906 29.0365 226.159 29.2892L226.845 29.9354C226.957 30.0416 227.135 30.0387 227.244 29.9296L230.406 26.7675C230.645 26.5292 231.03 26.532 231.268 26.7675C231.506 27.006 231.506 27.3908 231.268 27.6292Z" fill="white"/>
<path d="M230.599 30.4206C230.599 32.5315 228.882 34.2518 226.768 34.2518C224.657 34.2518 222.939 32.5315 222.939 30.4206C222.939 28.3068 224.657 26.5894 226.768 26.5894C227.615 26.5894 228.393 26.8679 229.028 27.3332L227.035 29.3264L226.558 28.8755C226.096 28.4131 225.346 28.4131 224.884 28.8755C224.424 29.335 224.421 30.0875 224.887 30.5528L226.136 31.759C226.636 32.2587 227.451 32.2587 227.951 31.7561L230.424 29.2862C230.536 29.6452 230.599 30.0243 230.599 30.4206Z" fill="white"/>
<g filter="url(#filter5_d_617_103)">
<path d="M226.5 66L233.861 54.75H219.139L226.5 66Z" fill="#06402B"/>
</g>
</g>
<defs>
<filter id="filter0_d_617_103" x="0" y="176" width="105" height="64" filterUnits="userSpaceOnUse" color-interpolation-filters="sRGB">
<feFlood flood-opacity="0" result="BackgroundImageFix"/>
<feColorMatrix in="SourceAlpha" type="matrix" values="0 0 0 0 0 0 0 0 0 0 0 0 0 0 0 0 0 0 127 0" result="hardAlpha"/>
<feOffset dy="4"/>
<feGaussianBlur stdDeviation="7.5"/>
<feComposite in2="hardAlpha" operator="out"/>
<feColorMatrix type="matrix" values="0 0 0 0 0 0 0 0 0 0 0 0 0 0 0 0 0 0 0.08 0"/>
<feBlend mode="normal" in2="BackgroundImageFix" result="effect1_dropShadow_617_103"/>
<feBlend mode="normal" in="SourceGraphic" in2="effect1_dropShadow_617_103" result="shape"/>
</filter>
<filter id="filter1_d_617_103" x="171" y="176" width="105" height="64" filterUnits="userSpaceOnUse" color-interpolation-filters="sRGB">
<feFlood flood-opacity="0" result="BackgroundImageFix"/>
<feColorMatrix in="SourceAlpha" type="matrix" values="0 0 0 0 0 0 0 0 0 0 0 0 0 0 0 0 0 0 127 0" result="hardAlpha"/>
<feOffset dy="4"/>
<feGaussianBlur stdDeviation="7.5"/>
<feComposite in2="hardAlpha" operator="out"/>
<feColorMatrix type="matrix" values="0 0 0 0 0 0 0 0 0 0 0 0 0 0 0 0 0 0 0.08 0"/>
<feBlend mode="normal" in2="BackgroundImageFix" result="effect1_dropShadow_617_103"/>
<feBlend mode="normal" in="SourceGraphic" in2="effect1_dropShadow_617_103" result="shape"/>
</filter>
<filter id="filter2_d_617_103" x="342" y="176" width="105" height="64" filterUnits="userSpaceOnUse" color-interpolation-filters="sRGB">
<feFlood flood-opacity="0" result="BackgroundImageFix"/>
<feColorMatrix in="SourceAlpha" type="matrix" values="0 0 0 0 0 0 0 0 0 0 0 0 0 0 0 0 0 0 127 0" result="hardAlpha"/>
<feOffset dy="4"/>
<feGaussianBlur stdDeviation="7.5"/>
<feComposite in2="hardAlpha" operator="out"/>
<feColorMatrix type="matrix" values="0 0 0 0 0 0 0 0 0 0 0 0 0 0 0 0 0 0 0.08 0"/>
<feBlend mode="normal" in2="BackgroundImageFix" result="effect1_dropShadow_617_103"/>
<feBlend mode="normal" in="SourceGraphic" in2="effect1_dropShadow_617_103" result="shape"/>
</filter>
<filter id="filter3_d_617_103" x="213" y="65" width="28" height="28" filterUnits="userSpaceOnUse" color-interpolation-filters="sRGB">
<feFlood flood-opacity="0" result="BackgroundImageFix"/>
<feColorMatrix in="SourceAlpha" type="matrix" values="0 0 0 0 0 0 0 0 0 0 0 0 0 0 0 0 0 0 127 0" result="hardAlpha"/>
<feOffset dy="4"/>
<feGaussianBlur stdDeviation="3"/>
<feComposite in2="hardAlpha" operator="out"/>
<feColorMatrix type="matrix" values="0 0 0 0 0 0 0 0 0 0 0 0 0 0 0 0 0 0 0.3 0"/>
<feBlend mode="normal" in2="BackgroundImageFix" result="effect1_dropShadow_617_103"/>
<feBlend mode="normal" in="SourceGraphic" in2="effect1_dropShadow_617_103" result="shape"/>
</filter>
<filter id="filter4_d_617_103" x="189" y="0" width="76" height="76" filterUnits="userSpaceOnUse" color-interpolation-filters="sRGB">
<feFlood flood-opacity="0" result="BackgroundImageFix"/>
<feColorMatrix in="SourceAlpha" type="matrix" values="0 0 0 0 0 0 0 0 0 0 0 0 0 0 0 0 0 0 127 0" result="hardAlpha"/>
<feOffset dy="4"/>
<feGaussianBlur stdDeviation="7.5"/>
<feComposite in2="hardAlpha" operator="out"/>
<feColorMatrix type="matrix" values="0 0 0 0 0 0 0 0 0 0 0 0 0 0 0 0 0 0 0.08 0"/>
<feBlend mode="normal" in2="BackgroundImageFix" result="effect1_dropShadow_617_103"/>
<feBlend mode="normal" in="SourceGraphic" in2="effect1_dropShadow_617_103" result="shape"/>
</filter>
<filter id="filter5_d_617_103" x="204.139" y="43.75" width="44.7217" height="41.25" filterUnits="userSpaceOnUse" color-interpolation-filters="sRGB">
<feFlood flood-opacity="0" result="BackgroundImageFix"/>
<feColorMatrix in="SourceAlpha" type="matrix" values="0 0 0 0 0 0 0 0 0 0 0 0 0 0 0 0 0 0 127 0" result="hardAlpha"/>
<feOffset dy="4"/>
<feGaussianBlur stdDeviation="7.5"/>
<feComposite in2="hardAlpha" operator="out"/>
<feColorMatrix type="matrix" values="0 0 0 0 0 0 0 0 0 0 0 0 0 0 0 0 0 0 0.15 0"/>
<feBlend mode="normal" in2="BackgroundImageFix" result="effect1_dropShadow_617_103"/>
<feBlend mode="normal" in="SourceGraphic" in2="effect1_dropShadow_617_103" result="shape"/>
</filter>
<linearGradient id="paint0_linear_617_103" x1="500.39" y1="34" x2="500.39" y2="169" gradientUnits="userSpaceOnUse">
<stop stop-color="#06402B"/>
<stop offset="1" stop-color="#06402B" stop-opacity="0"/>
</linearGradient>
<linearGradient id="paint1_linear_617_103" x1="230.503" y1="93.5909" x2="172.851" y2="-1.06681" gradientUnits="userSpaceOnUse">
<stop stop-color="#06402B"/>
<stop offset="1" stop-color="#06402B"/>
</linearGradient>
<clipPath id="clip0_617_103">
<rect width="447" height="240" fill="white"/>
</clipPath>
</defs>
</svg>
