<svg width="417" height="221" viewBox="0 0 417 221" fill="none" xmlns="http://www.w3.org/2000/svg">
<g clip-path="url(#clip0_227_59)">
<path d="M-1275.5 78.446L-1288 64.8625V237H512V43.413L499.5 44.536C487 45.6591 462 47.9051 437 42.7543C412 37.6035 387 25.0557 362 44.495C337 63.9342 312 115.36 287 118.696C262 122.032 237 77.2776 212 75.5613C187 73.8449 162 115.167 137 136.494C112 157.822 87 159.156 62 163.776C37 168.397 11.9999 176.304 -13.0001 170.195C-38.0001 164.086 -63 143.96 -88 146.823C-113 149.685 -138 175.536 -163 180.642C-188 185.748 -213 170.11 -238 158.283C-263 146.455 -288 138.439 -313 118.19C-338 97.9418 -363 65.4614 -388 57.896C-413 50.3306 -438 67.6803 -463 79.4375C-488 91.1948 -513 97.3597 -538 90.2032C-563 83.0467 -588 62.5688 -613 65.1127C-638 67.6565 -663 93.2221 -688 95.606C-713 97.9898 -738 77.192 -763 60.2219C-788 43.2519 -813 30.1098 -838 38.5179C-863 46.9261 -888 76.8845 -913 105.16C-938 133.435 -963 160.027 -988 159.189C-1013 158.352 -1038 130.086 -1063 121.768C-1088 113.45 -1113 125.08 -1138 132.504C-1163 139.928 -1188 143.146 -1213 131.171C-1238 119.196 -1263 92.0294 -1275.5 78.446Z" fill="url(#paint0_linear_227_59)"/>
<path d="M-1288 64.8625L-1275.5 78.4459C-1263 92.0294 -1238 119.196 -1213 131.171C-1188 143.146 -1163 139.928 -1138 132.504C-1113 125.08 -1088 113.45 -1063 121.768C-1038 130.086 -1013 158.352 -988 159.189C-963 160.027 -938 133.435 -913 105.16C-888 76.8845 -863 46.9261 -838 38.5179C-813 30.1098 -788 43.2519 -763 60.2219C-738 77.192 -713 97.9898 -688 95.606C-663 93.2221 -638 67.6565 -613 65.1127C-588 62.5688 -563 83.0467 -538 90.2032C-513 97.3597 -488 91.1948 -463 79.4375C-438 67.6802 -413 50.3306 -388 57.896C-363 65.4614 -338 97.9418 -313 118.19C-288 138.439 -263 146.455 -238 158.283C-213 170.11 -188 185.748 -163 180.642C-138 175.536 -113 149.685 -88 146.823C-63 143.96 -38.0001 164.086 -13.0001 170.195C11.9999 176.304 37 168.397 62 163.776C87 159.156 112 157.822 137 136.494C162 115.167 187 73.8449 212 75.5613C237 77.2776 262 122.032 287 118.696C312 115.36 337 63.9342 362 44.495C387 25.0557 412 37.6035 437 42.7543C462 47.9051 487 45.6591 499.5 44.536L512 43.413" stroke="#00744A" stroke-width="4" stroke-linecap="round"/>
</g>
<rect y="187" width="75" height="34" rx="17" fill="#EAECEF"/>
<path opacity="0.9" d="M21.3778 208.119C20.7926 208.119 20.2699 208.018 19.8097 207.817C19.3523 207.615 18.9901 207.335 18.723 206.977C18.4588 206.616 18.3168 206.199 18.2969 205.724H19.6349C19.652 205.983 19.7386 206.207 19.8949 206.398C20.054 206.585 20.2614 206.73 20.517 206.832C20.7727 206.935 21.0568 206.986 21.3693 206.986C21.7131 206.986 22.017 206.926 22.2812 206.807C22.5483 206.687 22.7571 206.521 22.9077 206.308C23.0582 206.092 23.1335 205.844 23.1335 205.562C23.1335 205.27 23.0582 205.013 22.9077 204.791C22.7599 204.567 22.5426 204.391 22.2557 204.263C21.9716 204.135 21.6278 204.071 21.2244 204.071H20.4872V202.997H21.2244C21.5483 202.997 21.8324 202.939 22.0767 202.822C22.3239 202.706 22.517 202.544 22.6562 202.337C22.7955 202.126 22.8651 201.881 22.8651 201.599C22.8651 201.33 22.804 201.095 22.6818 200.896C22.5625 200.695 22.392 200.537 22.1705 200.423C21.9517 200.31 21.6932 200.253 21.3949 200.253C21.1108 200.253 20.8452 200.305 20.598 200.411C20.3537 200.513 20.1548 200.661 20.0014 200.854C19.848 201.044 19.7656 201.273 19.7543 201.54H18.4801C18.4943 201.068 18.6335 200.653 18.8977 200.295C19.1648 199.937 19.517 199.658 19.9545 199.456C20.392 199.254 20.8778 199.153 21.4119 199.153C21.9716 199.153 22.4545 199.263 22.8608 199.482C23.2699 199.697 23.5852 199.986 23.8068 200.347C24.0313 200.707 24.142 201.102 24.1392 201.531C24.142 202.02 24.0057 202.435 23.7301 202.776C23.4574 203.116 23.0938 203.345 22.6392 203.462V203.53C23.2188 203.618 23.6676 203.848 23.9858 204.22C24.3068 204.592 24.4659 205.054 24.4631 205.605C24.4659 206.085 24.3324 206.516 24.0625 206.896C23.7955 207.277 23.4304 207.577 22.9673 207.795C22.5043 208.011 21.9744 208.119 21.3778 208.119ZM32.1942 208H29.369V199.273H32.2837C33.1388 199.273 33.8732 199.447 34.4869 199.797C35.1005 200.143 35.5707 200.642 35.8974 201.293C36.2269 201.94 36.3917 202.717 36.3917 203.624C36.3917 204.533 36.2255 205.314 35.8931 205.967C35.5636 206.621 35.0863 207.124 34.4613 207.476C33.8363 207.825 33.0806 208 32.1942 208ZM30.6857 206.849H32.1218C32.7866 206.849 33.3391 206.724 33.7795 206.474C34.2198 206.222 34.5494 205.857 34.7681 205.379C34.9869 204.899 35.0962 204.314 35.0962 203.624C35.0962 202.939 34.9869 202.358 34.7681 201.881C34.5522 201.403 34.2298 201.041 33.8008 200.794C33.3718 200.547 32.8391 200.423 32.2028 200.423H30.6857V206.849ZM39.8317 208.145C39.4169 208.145 39.0419 208.068 38.7067 207.915C38.3714 207.759 38.1058 207.533 37.9098 207.237C37.7166 206.942 37.62 206.58 37.62 206.151C37.62 205.781 37.6911 205.477 37.8331 205.239C37.9751 205 38.1669 204.811 38.4084 204.672C38.6499 204.533 38.9197 204.428 39.218 204.357C39.5163 204.286 39.8203 204.232 40.13 204.195C40.522 204.149 40.8402 204.112 41.0845 204.084C41.3288 204.053 41.5064 204.003 41.6172 203.935C41.728 203.866 41.7834 203.756 41.7834 203.602V203.572C41.7834 203.2 41.6783 202.912 41.468 202.707C41.2607 202.503 40.951 202.401 40.5391 202.401C40.1101 202.401 39.772 202.496 39.5249 202.686C39.2805 202.874 39.1115 203.082 39.0178 203.312L37.8203 203.04C37.9624 202.642 38.1697 202.321 38.4425 202.077C38.718 201.83 39.0348 201.651 39.3928 201.54C39.7507 201.426 40.1271 201.369 40.522 201.369C40.7834 201.369 41.0604 201.401 41.353 201.463C41.6484 201.523 41.924 201.634 42.1797 201.795C42.4382 201.957 42.6499 202.189 42.8146 202.49C42.9794 202.788 43.0618 203.176 43.0618 203.653V208H41.8175V207.105H41.7663C41.6839 207.27 41.5604 207.432 41.3956 207.591C41.2308 207.75 41.0192 207.882 40.7607 207.987C40.5021 208.092 40.1925 208.145 39.8317 208.145ZM40.1087 207.122C40.4609 207.122 40.7621 207.053 41.0121 206.913C41.2649 206.774 41.4567 206.592 41.5874 206.368C41.7209 206.141 41.7876 205.898 41.7876 205.639V204.795C41.7422 204.841 41.6541 204.884 41.5234 204.923C41.3956 204.96 41.2493 204.993 41.0845 205.021C40.9197 205.047 40.7592 205.071 40.603 205.094C40.4467 205.114 40.3161 205.131 40.2109 205.145C39.9638 205.176 39.7379 205.229 39.5334 205.303C39.3317 205.376 39.1697 205.483 39.0476 205.622C38.9283 205.759 38.8686 205.94 38.8686 206.168C38.8686 206.483 38.9851 206.722 39.218 206.884C39.451 207.043 39.7479 207.122 40.1087 207.122ZM45.3299 210.455C45.1396 210.455 44.9663 210.439 44.81 210.408C44.6538 210.379 44.5373 210.348 44.4606 210.314L44.7674 209.27C45.0004 209.332 45.2077 209.359 45.3896 209.351C45.5714 209.342 45.7319 209.274 45.8711 209.146C46.0131 209.018 46.1381 208.81 46.2461 208.52L46.4038 208.085L44.0089 201.455H45.3725L47.0302 206.534H47.0984L48.756 201.455H50.1239L47.4265 208.874C47.3015 209.214 47.1424 209.503 46.9492 209.739C46.756 209.977 46.5259 210.156 46.2589 210.276C45.9918 210.395 45.6822 210.455 45.3299 210.455ZM56.2262 203.053L55.0714 203.257C55.0231 203.109 54.9464 202.969 54.8413 202.835C54.739 202.702 54.5998 202.592 54.4237 202.507C54.2475 202.422 54.0273 202.379 53.7631 202.379C53.4023 202.379 53.1012 202.46 52.8597 202.622C52.6183 202.781 52.4975 202.987 52.4975 203.24C52.4975 203.459 52.5785 203.635 52.7404 203.768C52.9023 203.902 53.1637 204.011 53.5245 204.097L54.5643 204.335C55.1665 204.474 55.6154 204.689 55.9109 204.979C56.2063 205.268 56.354 205.645 56.354 206.108C56.354 206.5 56.2404 206.849 56.0131 207.156C55.7887 207.46 55.4748 207.699 55.0714 207.872C54.6708 208.045 54.2063 208.132 53.6779 208.132C52.945 208.132 52.3469 207.976 51.8839 207.663C51.4208 207.348 51.1367 206.901 51.0316 206.321L52.2631 206.134C52.3398 206.455 52.4975 206.697 52.7362 206.862C52.9748 207.024 53.2859 207.105 53.6694 207.105C54.087 207.105 54.4208 207.018 54.6708 206.845C54.9208 206.669 55.0458 206.455 55.0458 206.202C55.0458 205.997 54.9691 205.825 54.8157 205.686C54.6651 205.547 54.4336 205.442 54.1211 205.371L53.0131 205.128C52.4023 204.989 51.9506 204.767 51.658 204.463C51.3683 204.159 51.2234 203.774 51.2234 203.308C51.2234 202.922 51.3313 202.584 51.5472 202.294C51.7631 202.004 52.0614 201.778 52.4421 201.616C52.8228 201.452 53.2589 201.369 53.7504 201.369C54.4577 201.369 55.0146 201.523 55.4208 201.83C55.8271 202.134 56.0955 202.541 56.2262 203.053Z" fill="#1E1E1E"/>
<rect x="171" y="187" width="75" height="34" rx="17" fill="#EAECEF"/>
<path opacity="0.9" d="M190.134 208L193.943 200.466V200.402H189.537V199.273H195.307V200.44L191.51 208H190.134ZM202.909 208H200.084V199.273H202.999C203.854 199.273 204.588 199.447 205.202 199.797C205.815 200.143 206.286 200.642 206.612 201.293C206.942 201.94 207.107 202.717 207.107 203.624C207.107 204.533 206.94 205.314 206.608 205.967C206.278 206.621 205.801 207.124 205.176 207.476C204.551 207.825 203.795 208 202.909 208ZM201.401 206.849H202.837C203.501 206.849 204.054 206.724 204.494 206.474C204.935 206.222 205.264 205.857 205.483 205.379C205.702 204.899 205.811 204.314 205.811 203.624C205.811 202.939 205.702 202.358 205.483 201.881C205.267 201.403 204.945 201.041 204.516 200.794C204.087 200.547 203.554 200.423 202.918 200.423H201.401V206.849ZM210.547 208.145C210.132 208.145 209.757 208.068 209.422 207.915C209.086 207.759 208.821 207.533 208.625 207.237C208.431 206.942 208.335 206.58 208.335 206.151C208.335 205.781 208.406 205.477 208.548 205.239C208.69 205 208.882 204.811 209.123 204.672C209.365 204.533 209.635 204.428 209.933 204.357C210.231 204.286 210.535 204.232 210.845 204.195C211.237 204.149 211.555 204.112 211.799 204.084C212.044 204.053 212.221 204.003 212.332 203.935C212.443 203.866 212.498 203.756 212.498 203.602V203.572C212.498 203.2 212.393 202.912 212.183 202.707C211.975 202.503 211.666 202.401 211.254 202.401C210.825 202.401 210.487 202.496 210.24 202.686C209.995 202.874 209.826 203.082 209.733 203.312L208.535 203.04C208.677 202.642 208.885 202.321 209.157 202.077C209.433 201.83 209.75 201.651 210.108 201.54C210.466 201.426 210.842 201.369 211.237 201.369C211.498 201.369 211.775 201.401 212.068 201.463C212.363 201.523 212.639 201.634 212.895 201.795C213.153 201.957 213.365 202.189 213.529 202.49C213.694 202.788 213.777 203.176 213.777 203.653V208H212.532V207.105H212.481C212.399 207.27 212.275 207.432 212.11 207.591C211.946 207.75 211.734 207.882 211.475 207.987C211.217 208.092 210.907 208.145 210.547 208.145ZM210.824 207.122C211.176 207.122 211.477 207.053 211.727 206.913C211.98 206.774 212.172 206.592 212.302 206.368C212.436 206.141 212.502 205.898 212.502 205.639V204.795C212.457 204.841 212.369 204.884 212.238 204.923C212.11 204.96 211.964 204.993 211.799 205.021C211.635 205.047 211.474 205.071 211.318 205.094C211.162 205.114 211.031 205.131 210.926 205.145C210.679 205.176 210.453 205.229 210.248 205.303C210.047 205.376 209.885 205.483 209.762 205.622C209.643 205.759 209.583 205.94 209.583 206.168C209.583 206.483 209.7 206.722 209.933 206.884C210.166 207.043 210.463 207.122 210.824 207.122ZM216.045 210.455C215.854 210.455 215.681 210.439 215.525 210.408C215.369 210.379 215.252 210.348 215.175 210.314L215.482 209.27C215.715 209.332 215.923 209.359 216.104 209.351C216.286 209.342 216.447 209.274 216.586 209.146C216.728 209.018 216.853 208.81 216.961 208.52L217.119 208.085L214.724 201.455H216.087L217.745 206.534H217.813L219.471 201.455H220.839L218.141 208.874C218.016 209.214 217.857 209.503 217.664 209.739C217.471 209.977 217.241 210.156 216.974 210.276C216.707 210.395 216.397 210.455 216.045 210.455ZM226.941 203.053L225.786 203.257C225.738 203.109 225.661 202.969 225.556 202.835C225.454 202.702 225.315 202.592 225.138 202.507C224.962 202.422 224.742 202.379 224.478 202.379C224.117 202.379 223.816 202.46 223.575 202.622C223.333 202.781 223.212 202.987 223.212 203.24C223.212 203.459 223.293 203.635 223.455 203.768C223.617 203.902 223.879 204.011 224.239 204.097L225.279 204.335C225.881 204.474 226.33 204.689 226.626 204.979C226.921 205.268 227.069 205.645 227.069 206.108C227.069 206.5 226.955 206.849 226.728 207.156C226.504 207.46 226.19 207.699 225.786 207.872C225.386 208.045 224.921 208.132 224.393 208.132C223.66 208.132 223.062 207.976 222.599 207.663C222.136 207.348 221.852 206.901 221.746 206.321L222.978 206.134C223.055 206.455 223.212 206.697 223.451 206.862C223.69 207.024 224.001 207.105 224.384 207.105C224.802 207.105 225.136 207.018 225.386 206.845C225.636 206.669 225.761 206.455 225.761 206.202C225.761 205.997 225.684 205.825 225.531 205.686C225.38 205.547 225.148 205.442 224.836 205.371L223.728 205.128C223.117 204.989 222.665 204.767 222.373 204.463C222.083 204.159 221.938 203.774 221.938 203.308C221.938 202.922 222.046 202.584 222.262 202.294C222.478 202.004 222.776 201.778 223.157 201.616C223.538 201.452 223.974 201.369 224.465 201.369C225.173 201.369 225.729 201.523 226.136 201.83C226.542 202.134 226.81 202.541 226.941 203.053Z" fill="#1E1E1E"/>
<rect x="342" y="187" width="75" height="34" rx="17" fill="#EAECEF"/>
<path opacity="0.9" d="M359.378 208.119C358.793 208.119 358.27 208.018 357.81 207.817C357.352 207.615 356.99 207.335 356.723 206.977C356.459 206.616 356.317 206.199 356.297 205.724H357.635C357.652 205.983 357.739 206.207 357.895 206.398C358.054 206.585 358.261 206.73 358.517 206.832C358.773 206.935 359.057 206.986 359.369 206.986C359.713 206.986 360.017 206.926 360.281 206.807C360.548 206.687 360.757 206.521 360.908 206.308C361.058 206.092 361.134 205.844 361.134 205.562C361.134 205.27 361.058 205.013 360.908 204.791C360.76 204.567 360.543 204.391 360.256 204.263C359.972 204.135 359.628 204.071 359.224 204.071H358.487V202.997H359.224C359.548 202.997 359.832 202.939 360.077 202.822C360.324 202.706 360.517 202.544 360.656 202.337C360.795 202.126 360.865 201.881 360.865 201.599C360.865 201.33 360.804 201.095 360.682 200.896C360.563 200.695 360.392 200.537 360.17 200.423C359.952 200.31 359.693 200.253 359.395 200.253C359.111 200.253 358.845 200.305 358.598 200.411C358.354 200.513 358.155 200.661 358.001 200.854C357.848 201.044 357.766 201.273 357.754 201.54H356.48C356.494 201.068 356.634 200.653 356.898 200.295C357.165 199.937 357.517 199.658 357.955 199.456C358.392 199.254 358.878 199.153 359.412 199.153C359.972 199.153 360.455 199.263 360.861 199.482C361.27 199.697 361.585 199.986 361.807 200.347C362.031 200.707 362.142 201.102 362.139 201.531C362.142 202.02 362.006 202.435 361.73 202.776C361.457 203.116 361.094 203.345 360.639 203.462V203.53C361.219 203.618 361.668 203.848 361.986 204.22C362.307 204.592 362.466 205.054 362.463 205.605C362.466 206.085 362.332 206.516 362.062 206.896C361.795 207.277 361.43 207.577 360.967 207.795C360.504 208.011 359.974 208.119 359.378 208.119ZM367.112 208.145C366.439 208.142 365.864 207.964 365.386 207.612C364.909 207.26 364.544 206.747 364.291 206.074C364.038 205.401 363.912 204.589 363.912 203.641C363.912 202.695 364.038 201.886 364.291 201.216C364.547 200.545 364.913 200.034 365.391 199.682C365.871 199.33 366.445 199.153 367.112 199.153C367.78 199.153 368.352 199.331 368.83 199.686C369.307 200.038 369.672 200.55 369.925 201.22C370.18 201.888 370.308 202.695 370.308 203.641C370.308 204.592 370.182 205.405 369.929 206.078C369.676 206.749 369.311 207.261 368.834 207.616C368.357 207.969 367.783 208.145 367.112 208.145ZM367.112 207.007C367.703 207.007 368.165 206.719 368.497 206.142C368.832 205.565 369 204.732 369 203.641C369 202.916 368.923 202.304 368.77 201.804C368.619 201.301 368.402 200.92 368.118 200.662C367.837 200.401 367.501 200.27 367.112 200.27C366.524 200.27 366.063 200.56 365.727 201.139C365.392 201.719 365.223 202.553 365.22 203.641C365.22 204.368 365.295 204.983 365.446 205.486C365.599 205.986 365.817 206.365 366.098 206.624C366.379 206.879 366.717 207.007 367.112 207.007ZM377.94 208H375.115V199.273H378.03C378.885 199.273 379.619 199.447 380.233 199.797C380.847 200.143 381.317 200.642 381.643 201.293C381.973 201.94 382.138 202.717 382.138 203.624C382.138 204.533 381.972 205.314 381.639 205.967C381.31 206.621 380.832 207.124 380.207 207.476C379.582 207.825 378.827 208 377.94 208ZM376.432 206.849H377.868C378.533 206.849 379.085 206.724 379.526 206.474C379.966 206.222 380.295 205.857 380.514 205.379C380.733 204.899 380.842 204.314 380.842 203.624C380.842 202.939 380.733 202.358 380.514 201.881C380.298 201.403 379.976 201.041 379.547 200.794C379.118 200.547 378.585 200.423 377.949 200.423H376.432V206.849ZM385.578 208.145C385.163 208.145 384.788 208.068 384.453 207.915C384.118 207.759 383.852 207.533 383.656 207.237C383.463 206.942 383.366 206.58 383.366 206.151C383.366 205.781 383.437 205.477 383.579 205.239C383.721 205 383.913 204.811 384.154 204.672C384.396 204.533 384.666 204.428 384.964 204.357C385.262 204.286 385.566 204.232 385.876 204.195C386.268 204.149 386.586 204.112 386.831 204.084C387.075 204.053 387.252 204.003 387.363 203.935C387.474 203.866 387.529 203.756 387.529 203.602V203.572C387.529 203.2 387.424 202.912 387.214 202.707C387.007 202.503 386.697 202.401 386.285 202.401C385.856 202.401 385.518 202.496 385.271 202.686C385.027 202.874 384.858 203.082 384.764 203.312L383.566 203.04C383.708 202.642 383.916 202.321 384.189 202.077C384.464 201.83 384.781 201.651 385.139 201.54C385.497 201.426 385.873 201.369 386.268 201.369C386.529 201.369 386.806 201.401 387.099 201.463C387.395 201.523 387.67 201.634 387.926 201.795C388.184 201.957 388.396 202.189 388.561 202.49C388.725 202.788 388.808 203.176 388.808 203.653V208H387.564V207.105H387.512C387.43 207.27 387.306 207.432 387.142 207.591C386.977 207.75 386.765 207.882 386.507 207.987C386.248 208.092 385.939 208.145 385.578 208.145ZM385.855 207.122C386.207 207.122 386.508 207.053 386.758 206.913C387.011 206.774 387.203 206.592 387.333 206.368C387.467 206.141 387.534 205.898 387.534 205.639V204.795C387.488 204.841 387.4 204.884 387.27 204.923C387.142 204.96 386.995 204.993 386.831 205.021C386.666 205.047 386.505 205.071 386.349 205.094C386.193 205.114 386.062 205.131 385.957 205.145C385.71 205.176 385.484 205.229 385.279 205.303C385.078 205.376 384.916 205.483 384.794 205.622C384.674 205.759 384.615 205.94 384.615 206.168C384.615 206.483 384.731 206.722 384.964 206.884C385.197 207.043 385.494 207.122 385.855 207.122ZM391.076 210.455C390.886 210.455 390.712 210.439 390.556 210.408C390.4 210.379 390.283 210.348 390.207 210.314L390.513 209.27C390.746 209.332 390.954 209.359 391.136 209.351C391.317 209.342 391.478 209.274 391.617 209.146C391.759 209.018 391.884 208.81 391.992 208.52L392.15 208.085L389.755 201.455H391.119L392.776 206.534H392.844L394.502 201.455H395.87L393.173 208.874C393.048 209.214 392.888 209.503 392.695 209.739C392.502 209.977 392.272 210.156 392.005 210.276C391.738 210.395 391.428 210.455 391.076 210.455ZM401.972 203.053L400.817 203.257C400.769 203.109 400.692 202.969 400.587 202.835C400.485 202.702 400.346 202.592 400.17 202.507C399.994 202.422 399.773 202.379 399.509 202.379C399.148 202.379 398.847 202.46 398.606 202.622C398.364 202.781 398.244 202.987 398.244 203.24C398.244 203.459 398.325 203.635 398.487 203.768C398.648 203.902 398.91 204.011 399.271 204.097L400.31 204.335C400.913 204.474 401.362 204.689 401.657 204.979C401.952 205.268 402.1 205.645 402.1 206.108C402.1 206.5 401.987 206.849 401.759 207.156C401.535 207.46 401.221 207.699 400.817 207.872C400.417 208.045 399.952 208.132 399.424 208.132C398.691 208.132 398.093 207.976 397.63 207.663C397.167 207.348 396.883 206.901 396.778 206.321L398.009 206.134C398.086 206.455 398.244 206.697 398.482 206.862C398.721 207.024 399.032 207.105 399.415 207.105C399.833 207.105 400.167 207.018 400.417 206.845C400.667 206.669 400.792 206.455 400.792 206.202C400.792 205.997 400.715 205.825 400.562 205.686C400.411 205.547 400.18 205.442 399.867 205.371L398.759 205.128C398.148 204.989 397.697 204.767 397.404 204.463C397.114 204.159 396.969 203.774 396.969 203.308C396.969 202.922 397.077 202.584 397.293 202.294C397.509 202.004 397.808 201.778 398.188 201.616C398.569 201.452 399.005 201.369 399.496 201.369C400.204 201.369 400.761 201.523 401.167 201.83C401.573 202.134 401.842 202.541 401.972 203.053Z" fill="#1E1E1E"/>
<g filter="url(#filter0_d_227_59)">
<circle cx="212" cy="75" r="8" fill="url(#paint1_linear_227_59)"/>
<circle cx="212" cy="75" r="6.5" stroke="white" stroke-width="3"/>
</g>
<circle cx="6" cy="172" r="6" fill="#06402B"/>
<circle cx="406" cy="35" r="6" fill="#06402B"/>
<g filter="url(#filter1_d_227_59)">
<circle cx="212" cy="34" r="23" fill="url(#paint2_linear_227_59)"/>
</g>
<path d="M223.56 45.0219L219.223 37.4198C219.444 37.2417 219.712 37.1182 220.01 37.0723C220.682 36.9718 221.265 36.5783 221.604 35.9895C221.943 35.4008 221.995 34.7 221.745 34.0682C221.481 33.3904 221.682 32.6321 222.259 32.1755C222.523 31.963 222.733 31.6988 222.874 31.4058C223.014 31.11 223.092 30.7826 223.092 30.4437C223.092 29.7659 222.787 29.1341 222.25 28.7062C221.682 28.2553 221.481 27.4971 221.748 26.8193C221.995 26.1875 221.943 25.4867 221.604 24.8979C221.265 24.3092 220.682 23.9157 220.01 23.8152C219.292 23.7089 218.735 23.1517 218.629 22.4338C218.528 21.7617 218.135 21.1816 217.546 20.8398C216.957 20.5009 216.257 20.4492 215.622 20.6991C214.947 20.9633 214.189 20.7622 213.735 20.1878C213.31 19.6565 212.678 19.3521 212 19.3521C211.322 19.3521 210.691 19.6565 210.263 20.1935C209.812 20.7593 209.059 20.9603 208.384 20.7019C208.382 20.699 208.379 20.699 208.376 20.6961C207.744 20.4492 207.043 20.5008 206.454 20.8397C205.866 21.1815 205.472 21.7617 205.372 22.4337C205.265 23.1517 204.708 23.7089 203.99 23.8151C203.318 23.9156 202.735 24.3091 202.396 24.8979C202.058 25.4867 202.003 26.1874 202.253 26.8221C202.52 27.497 202.319 28.2553 201.744 28.7119C201.213 29.134 200.909 29.7659 200.909 30.4437C200.909 31.1215 201.213 31.7533 201.75 32.1812C202.319 32.6321 202.52 33.3904 202.253 34.0681C202.003 34.6999 202.058 35.4007 202.396 35.9895C202.735 36.5782 203.315 36.9717 203.99 37.0722C204.286 37.1181 204.556 37.2417 204.777 37.4197L200.44 45.0219C200.38 45.1225 200.392 45.2488 200.461 45.3379C200.532 45.4297 200.653 45.47 200.765 45.4412L204.892 44.301L206.012 48.4338C206.047 48.5602 206.159 48.6463 206.291 48.6463C206.391 48.6463 206.489 48.5918 206.541 48.5027L210.742 41.139C211.107 41.3946 211.541 41.5353 212 41.5353C212.457 41.5353 212.893 41.3946 213.258 41.139L217.46 48.5027C217.514 48.5975 217.624 48.6578 217.747 48.6463C217.862 48.6291 217.957 48.5487 217.988 48.4338L219.108 44.301L223.236 45.4412C223.348 45.4699 223.468 45.4297 223.54 45.3379C223.609 45.2488 223.62 45.1225 223.56 45.0219ZM218.06 38.3704C217.986 38.8702 217.695 39.2981 217.259 39.5508C216.822 39.8035 216.303 39.8409 215.834 39.6571C214.921 39.2981 213.899 39.5709 213.284 40.3406C212.971 40.7341 212.503 40.961 212 40.961C211.498 40.961 211.029 40.7341 210.714 40.3378C210.105 39.5738 209.085 39.2952 208.192 39.6456C208.183 39.6485 208.172 39.6542 208.163 39.6571C207.695 39.8409 207.178 39.8036 206.742 39.5508C206.305 39.2981 206.012 38.8701 205.94 38.3704C205.794 37.3997 205.044 36.6501 204.073 36.5036C203.577 36.4318 203.146 36.1389 202.893 35.7023C202.64 35.2658 202.603 34.7488 202.787 34.2779C203.149 33.3646 202.873 32.3422 202.103 31.7275C201.71 31.4145 201.483 30.9463 201.483 30.4437C201.483 29.9411 201.71 29.473 202.106 29.1571C202.873 28.5454 203.149 27.5229 202.787 26.6096C202.603 26.1414 202.64 25.6216 202.893 25.1851C203.146 24.7485 203.577 24.4584 204.073 24.3838C205.044 24.2373 205.794 23.4877 205.94 22.517C206.012 22.0201 206.305 21.5893 206.742 21.3366C207.175 21.0868 207.692 21.0465 208.157 21.2275C208.16 21.2303 208.163 21.2303 208.166 21.2332C209.079 21.5922 210.102 21.3165 210.716 20.5468C211.029 20.1534 211.498 19.9265 212 19.9265C212.503 19.9265 212.971 20.1534 213.287 20.5497C213.899 21.3165 214.921 21.5923 215.834 21.2304C216.303 21.0466 216.822 21.0868 217.259 21.3367C217.695 21.5894 217.988 22.0202 218.06 22.5171C218.207 23.4878 218.956 24.2402 219.927 24.3838C220.424 24.4585 220.855 24.7515 221.107 25.1851C221.357 25.6216 221.397 26.1415 221.211 26.6096C220.852 27.5229 221.127 28.5454 221.897 29.16C222.291 29.4731 222.517 29.9412 222.517 30.4438C222.517 30.9464 222.291 31.4145 221.897 31.7276C221.894 31.7304 221.894 31.7304 221.894 31.7333C221.127 32.3422 220.852 33.3646 221.214 34.2808C221.397 34.7489 221.357 35.2659 221.107 35.7024C220.855 36.1389 220.424 36.4319 219.927 36.5037C218.956 36.65 218.207 37.3996 218.06 38.3704Z" fill="white"/>
<path d="M212 23.0195C207.905 23.0195 204.576 26.3511 204.576 30.4436C204.576 34.5391 207.905 37.8706 212 37.8706C216.096 37.8706 219.424 34.5391 219.424 30.4436C219.424 26.351 216.096 23.0195 212 23.0195ZM212 37.2962C208.224 37.2962 205.151 34.2203 205.151 30.4436C205.151 26.6669 208.224 23.5939 212 23.5939C215.777 23.5939 218.85 26.6669 218.85 30.4436C218.85 34.2203 215.777 37.2962 212 37.2962Z" fill="white"/>
<path d="M216.268 27.6292L212.546 31.3513C212.27 31.627 211.819 31.6298 211.541 31.3513C211.538 31.3484 211.538 31.3484 211.535 31.3484L210.289 30.1422C210.053 29.9038 210.053 29.519 210.291 29.2806C210.524 29.0479 210.906 29.0365 211.159 29.2892L211.845 29.9354C211.957 30.0416 212.135 30.0387 212.244 29.9296L215.406 26.7675C215.645 26.5292 216.03 26.532 216.268 26.7675C216.506 27.006 216.506 27.3908 216.268 27.6292Z" fill="white"/>
<path d="M215.599 30.4206C215.599 32.5315 213.882 34.2518 211.768 34.2518C209.657 34.2518 207.939 32.5315 207.939 30.4206C207.939 28.3068 209.657 26.5894 211.768 26.5894C212.615 26.5894 213.393 26.8679 214.028 27.3332L212.035 29.3264L211.558 28.8755C211.096 28.4131 210.346 28.4131 209.884 28.8755C209.424 29.335 209.421 30.0875 209.887 30.5528L211.136 31.759C211.636 32.2587 212.451 32.2587 212.951 31.7561L215.424 29.2862C215.536 29.6452 215.599 30.0243 215.599 30.4206Z" fill="white"/>
<g filter="url(#filter2_d_227_59)">
<path d="M211.5 66L218.861 54.75H204.139L211.5 66Z" fill="url(#paint3_linear_227_59)"/>
</g>
<defs>
<filter id="filter0_d_227_59" x="198" y="65" width="28" height="28" filterUnits="userSpaceOnUse" color-interpolation-filters="sRGB">
<feFlood flood-opacity="0" result="BackgroundImageFix"/>
<feColorMatrix in="SourceAlpha" type="matrix" values="0 0 0 0 0 0 0 0 0 0 0 0 0 0 0 0 0 0 127 0" result="hardAlpha"/>
<feOffset dy="4"/>
<feGaussianBlur stdDeviation="3"/>
<feComposite in2="hardAlpha" operator="out"/>
<feColorMatrix type="matrix" values="0 0 0 0 0 0 0 0 0 0 0 0 0 0 0 0 0 0 0.3 0"/>
<feBlend mode="normal" in2="BackgroundImageFix" result="effect1_dropShadow_227_59"/>
<feBlend mode="normal" in="SourceGraphic" in2="effect1_dropShadow_227_59" result="shape"/>
</filter>
<filter id="filter1_d_227_59" x="174" y="0" width="76" height="76" filterUnits="userSpaceOnUse" color-interpolation-filters="sRGB">
<feFlood flood-opacity="0" result="BackgroundImageFix"/>
<feColorMatrix in="SourceAlpha" type="matrix" values="0 0 0 0 0 0 0 0 0 0 0 0 0 0 0 0 0 0 127 0" result="hardAlpha"/>
<feOffset dy="4"/>
<feGaussianBlur stdDeviation="7.5"/>
<feComposite in2="hardAlpha" operator="out"/>
<feColorMatrix type="matrix" values="0 0 0 0 0 0 0 0 0 0 0 0 0 0 0 0 0 0 0.15 0"/>
<feBlend mode="normal" in2="BackgroundImageFix" result="effect1_dropShadow_227_59"/>
<feBlend mode="normal" in="SourceGraphic" in2="effect1_dropShadow_227_59" result="shape"/>
</filter>
<filter id="filter2_d_227_59" x="189.139" y="43.75" width="44.7227" height="41.25" filterUnits="userSpaceOnUse" color-interpolation-filters="sRGB">
<feFlood flood-opacity="0" result="BackgroundImageFix"/>
<feColorMatrix in="SourceAlpha" type="matrix" values="0 0 0 0 0 0 0 0 0 0 0 0 0 0 0 0 0 0 127 0" result="hardAlpha"/>
<feOffset dy="4"/>
<feGaussianBlur stdDeviation="7.5"/>
<feComposite in2="hardAlpha" operator="out"/>
<feColorMatrix type="matrix" values="0 0 0 0 0 0 0 0 0 0 0 0 0 0 0 0 0 0 0.15 0"/>
<feBlend mode="normal" in2="BackgroundImageFix" result="effect1_dropShadow_227_59"/>
<feBlend mode="normal" in="SourceGraphic" in2="effect1_dropShadow_227_59" result="shape"/>
</filter>
<linearGradient id="paint0_linear_227_59" x1="485.39" y1="34" x2="485.39" y2="169" gradientUnits="userSpaceOnUse">
<stop stop-color="#B2DD7A"/>
<stop offset="1" stop-color="#B2DD7A" stop-opacity="0"/>
</linearGradient>
<linearGradient id="paint1_linear_227_59" x1="204.44" y1="69.0571" x2="220.821" y2="70.7081" gradientUnits="userSpaceOnUse">
<stop stop-color="#1CBE84"/>
<stop offset="1" stop-color="#06402B"/>
</linearGradient>
<linearGradient id="paint2_linear_227_59" x1="190.265" y1="16.9143" x2="237.359" y2="21.6607" gradientUnits="userSpaceOnUse">
<stop stop-color="#1CBE84"/>
<stop offset="1" stop-color="#06402B"/>
</linearGradient>
<linearGradient id="paint3_linear_227_59" x1="196" y1="51.5" x2="210.67" y2="69.7869" gradientUnits="userSpaceOnUse">
<stop stop-color="#1CBE84"/>
<stop offset="1" stop-color="#06402B"/>
</linearGradient>
<clipPath id="clip0_227_59">
<rect width="400" height="150" fill="white" transform="translate(7 27)"/>
</clipPath>
</defs>
</svg>
