<svg width="417" height="194" viewBox="0 0 417 194" fill="none" xmlns="http://www.w3.org/2000/svg">
<g clip-path="url(#clip0_123_196)">
<path d="M-1275.5 51.446L-1288 37.8625V210H512V16.413L499.5 17.536C487 18.6591 462 20.9051 437 15.7543C412 10.6035 387 -1.94427 362 17.495C337 36.9342 312 88.3604 287 91.6962C262 95.0321 237 50.2776 212 48.5613C187 46.8449 162 88.1667 137 109.494C112 130.822 87 132.156 62 136.776C37 141.397 11.9999 149.304 -13.0001 143.195C-38.0001 137.086 -63 116.96 -88 119.823C-113 122.685 -138 148.536 -163 153.642C-188 158.748 -213 143.11 -238 131.283C-263 119.455 -288 111.439 -313 91.1903C-338 70.9418 -363 38.4614 -388 30.896C-413 23.3306 -438 40.6803 -463 52.4375C-488 64.1948 -513 70.3597 -538 63.2032C-563 56.0467 -588 35.5688 -613 38.1127C-638 40.6565 -663 66.2221 -688 68.606C-713 70.9898 -738 50.192 -763 33.2219C-788 16.2519 -813 3.10975 -838 11.5179C-863 19.9261 -888 49.8845 -913 78.1597C-938 106.435 -963 133.027 -988 132.189C-1013 131.352 -1038 103.086 -1063 94.7677C-1088 86.4497 -1113 98.0799 -1138 105.504C-1163 112.928 -1188 116.146 -1213 104.171C-1238 92.1964 -1263 65.0294 -1275.5 51.446Z" fill="url(#paint0_linear_123_196)"/>
<path d="M-1288 37.8625L-1275.5 51.4459C-1263 65.0294 -1238 92.1964 -1213 104.171C-1188 116.146 -1163 112.928 -1138 105.504C-1113 98.0799 -1088 86.4497 -1063 94.7677C-1038 103.086 -1013 131.352 -988 132.189C-963 133.027 -938 106.435 -913 78.1597C-888 49.8845 -863 19.9261 -838 11.5179C-813 3.10975 -788 16.2519 -763 33.2219C-738 50.192 -713 70.9898 -688 68.606C-663 66.2221 -638 40.6565 -613 38.1127C-588 35.5688 -563 56.0467 -538 63.2032C-513 70.3597 -488 64.1948 -463 52.4375C-438 40.6802 -413 23.3306 -388 30.896C-363 38.4614 -338 70.9418 -313 91.1903C-288 111.439 -263 119.455 -238 131.283C-213 143.11 -188 158.748 -163 153.642C-138 148.536 -113 122.685 -88 119.823C-63 116.96 -38.0001 137.086 -13.0001 143.195C11.9999 149.304 37 141.397 62 136.776C87 132.156 112 130.822 137 109.494C162 88.1667 187 46.8449 212 48.5613C237 50.2776 262 95.0321 287 91.6962C312 88.3604 337 36.9342 362 17.495C387 -1.94427 412 10.6035 437 15.7543C462 20.9051 487 18.6591 499.5 17.536L512 16.413" stroke="#00744A" stroke-width="4" stroke-linecap="round"/>
</g>
<rect y="160" width="75" height="34" rx="17" fill="#EAECEF"/>
<path opacity="0.9" d="M21.3778 181.119C20.7926 181.119 20.2699 181.018 19.8097 180.817C19.3523 180.615 18.9901 180.335 18.723 179.977C18.4588 179.616 18.3168 179.199 18.2969 178.724H19.6349C19.652 178.983 19.7386 179.207 19.8949 179.398C20.054 179.585 20.2614 179.73 20.517 179.832C20.7727 179.935 21.0568 179.986 21.3693 179.986C21.7131 179.986 22.017 179.926 22.2812 179.807C22.5483 179.687 22.7571 179.521 22.9077 179.308C23.0582 179.092 23.1335 178.844 23.1335 178.562C23.1335 178.27 23.0582 178.013 22.9077 177.791C22.7599 177.567 22.5426 177.391 22.2557 177.263C21.9716 177.135 21.6278 177.071 21.2244 177.071H20.4872V175.997H21.2244C21.5483 175.997 21.8324 175.939 22.0767 175.822C22.3239 175.706 22.517 175.544 22.6562 175.337C22.7955 175.126 22.8651 174.881 22.8651 174.599C22.8651 174.33 22.804 174.095 22.6818 173.896C22.5625 173.695 22.392 173.537 22.1705 173.423C21.9517 173.31 21.6932 173.253 21.3949 173.253C21.1108 173.253 20.8452 173.305 20.598 173.411C20.3537 173.513 20.1548 173.661 20.0014 173.854C19.848 174.044 19.7656 174.273 19.7543 174.54H18.4801C18.4943 174.068 18.6335 173.653 18.8977 173.295C19.1648 172.937 19.517 172.658 19.9545 172.456C20.392 172.254 20.8778 172.153 21.4119 172.153C21.9716 172.153 22.4545 172.263 22.8608 172.482C23.2699 172.697 23.5852 172.986 23.8068 173.347C24.0313 173.707 24.142 174.102 24.1392 174.531C24.142 175.02 24.0057 175.435 23.7301 175.776C23.4574 176.116 23.0938 176.345 22.6392 176.462V176.53C23.2188 176.618 23.6676 176.848 23.9858 177.22C24.3068 177.592 24.4659 178.054 24.4631 178.605C24.4659 179.085 24.3324 179.516 24.0625 179.896C23.7955 180.277 23.4304 180.577 22.9673 180.795C22.5043 181.011 21.9744 181.119 21.3778 181.119ZM32.1942 181H29.369V172.273H32.2837C33.1388 172.273 33.8732 172.447 34.4869 172.797C35.1005 173.143 35.5707 173.642 35.8974 174.293C36.2269 174.94 36.3917 175.717 36.3917 176.624C36.3917 177.533 36.2255 178.314 35.8931 178.967C35.5636 179.621 35.0863 180.124 34.4613 180.476C33.8363 180.825 33.0806 181 32.1942 181ZM30.6857 179.849H32.1218C32.7866 179.849 33.3391 179.724 33.7795 179.474C34.2198 179.222 34.5494 178.857 34.7681 178.379C34.9869 177.899 35.0962 177.314 35.0962 176.624C35.0962 175.939 34.9869 175.358 34.7681 174.881C34.5522 174.403 34.2298 174.041 33.8008 173.794C33.3718 173.547 32.8391 173.423 32.2028 173.423H30.6857V179.849ZM39.8317 181.145C39.4169 181.145 39.0419 181.068 38.7067 180.915C38.3714 180.759 38.1058 180.533 37.9098 180.237C37.7166 179.942 37.62 179.58 37.62 179.151C37.62 178.781 37.6911 178.477 37.8331 178.239C37.9751 178 38.1669 177.811 38.4084 177.672C38.6499 177.533 38.9197 177.428 39.218 177.357C39.5163 177.286 39.8203 177.232 40.13 177.195C40.522 177.149 40.8402 177.112 41.0845 177.084C41.3288 177.053 41.5064 177.003 41.6172 176.935C41.728 176.866 41.7834 176.756 41.7834 176.602V176.572C41.7834 176.2 41.6783 175.912 41.468 175.707C41.2607 175.503 40.951 175.401 40.5391 175.401C40.1101 175.401 39.772 175.496 39.5249 175.686C39.2805 175.874 39.1115 176.082 39.0178 176.312L37.8203 176.04C37.9624 175.642 38.1697 175.321 38.4425 175.077C38.718 174.83 39.0348 174.651 39.3928 174.54C39.7507 174.426 40.1271 174.369 40.522 174.369C40.7834 174.369 41.0604 174.401 41.353 174.463C41.6484 174.523 41.924 174.634 42.1797 174.795C42.4382 174.957 42.6499 175.189 42.8146 175.49C42.9794 175.788 43.0618 176.176 43.0618 176.653V181H41.8175V180.105H41.7663C41.6839 180.27 41.5604 180.432 41.3956 180.591C41.2308 180.75 41.0192 180.882 40.7607 180.987C40.5021 181.092 40.1925 181.145 39.8317 181.145ZM40.1087 180.122C40.4609 180.122 40.7621 180.053 41.0121 179.913C41.2649 179.774 41.4567 179.592 41.5874 179.368C41.7209 179.141 41.7876 178.898 41.7876 178.639V177.795C41.7422 177.841 41.6541 177.884 41.5234 177.923C41.3956 177.96 41.2493 177.993 41.0845 178.021C40.9197 178.047 40.7592 178.071 40.603 178.094C40.4467 178.114 40.3161 178.131 40.2109 178.145C39.9638 178.176 39.7379 178.229 39.5334 178.303C39.3317 178.376 39.1697 178.483 39.0476 178.622C38.9283 178.759 38.8686 178.94 38.8686 179.168C38.8686 179.483 38.9851 179.722 39.218 179.884C39.451 180.043 39.7479 180.122 40.1087 180.122ZM45.3299 183.455C45.1396 183.455 44.9663 183.439 44.81 183.408C44.6538 183.379 44.5373 183.348 44.4606 183.314L44.7674 182.27C45.0004 182.332 45.2077 182.359 45.3896 182.351C45.5714 182.342 45.7319 182.274 45.8711 182.146C46.0131 182.018 46.1381 181.81 46.2461 181.52L46.4038 181.085L44.0089 174.455H45.3725L47.0302 179.534H47.0984L48.756 174.455H50.1239L47.4265 181.874C47.3015 182.214 47.1424 182.503 46.9492 182.739C46.756 182.977 46.5259 183.156 46.2589 183.276C45.9918 183.395 45.6822 183.455 45.3299 183.455ZM56.2262 176.053L55.0714 176.257C55.0231 176.109 54.9464 175.969 54.8413 175.835C54.739 175.702 54.5998 175.592 54.4237 175.507C54.2475 175.422 54.0273 175.379 53.7631 175.379C53.4023 175.379 53.1012 175.46 52.8597 175.622C52.6183 175.781 52.4975 175.987 52.4975 176.24C52.4975 176.459 52.5785 176.635 52.7404 176.768C52.9023 176.902 53.1637 177.011 53.5245 177.097L54.5643 177.335C55.1665 177.474 55.6154 177.689 55.9109 177.979C56.2063 178.268 56.354 178.645 56.354 179.108C56.354 179.5 56.2404 179.849 56.0131 180.156C55.7887 180.46 55.4748 180.699 55.0714 180.872C54.6708 181.045 54.2063 181.132 53.6779 181.132C52.945 181.132 52.3469 180.976 51.8839 180.663C51.4208 180.348 51.1367 179.901 51.0316 179.321L52.2631 179.134C52.3398 179.455 52.4975 179.697 52.7362 179.862C52.9748 180.024 53.2859 180.105 53.6694 180.105C54.087 180.105 54.4208 180.018 54.6708 179.845C54.9208 179.669 55.0458 179.455 55.0458 179.202C55.0458 178.997 54.9691 178.825 54.8157 178.686C54.6651 178.547 54.4336 178.442 54.1211 178.371L53.0131 178.128C52.4023 177.989 51.9506 177.767 51.658 177.463C51.3683 177.159 51.2234 176.774 51.2234 176.308C51.2234 175.922 51.3313 175.584 51.5472 175.294C51.7631 175.004 52.0614 174.778 52.4421 174.616C52.8228 174.452 53.2589 174.369 53.7504 174.369C54.4577 174.369 55.0146 174.523 55.4208 174.83C55.8271 175.134 56.0955 175.541 56.2262 176.053Z" fill="#1E1E1E"/>
<rect x="171" y="160" width="75" height="34" rx="17" fill="#EAECEF"/>
<path opacity="0.9" d="M190.134 181L193.943 173.466V173.402H189.537V172.273H195.307V173.44L191.51 181H190.134ZM202.909 181H200.084V172.273H202.999C203.854 172.273 204.588 172.447 205.202 172.797C205.815 173.143 206.286 173.642 206.612 174.293C206.942 174.94 207.107 175.717 207.107 176.624C207.107 177.533 206.94 178.314 206.608 178.967C206.278 179.621 205.801 180.124 205.176 180.476C204.551 180.825 203.795 181 202.909 181ZM201.401 179.849H202.837C203.501 179.849 204.054 179.724 204.494 179.474C204.935 179.222 205.264 178.857 205.483 178.379C205.702 177.899 205.811 177.314 205.811 176.624C205.811 175.939 205.702 175.358 205.483 174.881C205.267 174.403 204.945 174.041 204.516 173.794C204.087 173.547 203.554 173.423 202.918 173.423H201.401V179.849ZM210.547 181.145C210.132 181.145 209.757 181.068 209.422 180.915C209.086 180.759 208.821 180.533 208.625 180.237C208.431 179.942 208.335 179.58 208.335 179.151C208.335 178.781 208.406 178.477 208.548 178.239C208.69 178 208.882 177.811 209.123 177.672C209.365 177.533 209.635 177.428 209.933 177.357C210.231 177.286 210.535 177.232 210.845 177.195C211.237 177.149 211.555 177.112 211.799 177.084C212.044 177.053 212.221 177.003 212.332 176.935C212.443 176.866 212.498 176.756 212.498 176.602V176.572C212.498 176.2 212.393 175.912 212.183 175.707C211.975 175.503 211.666 175.401 211.254 175.401C210.825 175.401 210.487 175.496 210.24 175.686C209.995 175.874 209.826 176.082 209.733 176.312L208.535 176.04C208.677 175.642 208.885 175.321 209.157 175.077C209.433 174.83 209.75 174.651 210.108 174.54C210.466 174.426 210.842 174.369 211.237 174.369C211.498 174.369 211.775 174.401 212.068 174.463C212.363 174.523 212.639 174.634 212.895 174.795C213.153 174.957 213.365 175.189 213.529 175.49C213.694 175.788 213.777 176.176 213.777 176.653V181H212.532V180.105H212.481C212.399 180.27 212.275 180.432 212.11 180.591C211.946 180.75 211.734 180.882 211.475 180.987C211.217 181.092 210.907 181.145 210.547 181.145ZM210.824 180.122C211.176 180.122 211.477 180.053 211.727 179.913C211.98 179.774 212.172 179.592 212.302 179.368C212.436 179.141 212.502 178.898 212.502 178.639V177.795C212.457 177.841 212.369 177.884 212.238 177.923C212.11 177.96 211.964 177.993 211.799 178.021C211.635 178.047 211.474 178.071 211.318 178.094C211.162 178.114 211.031 178.131 210.926 178.145C210.679 178.176 210.453 178.229 210.248 178.303C210.047 178.376 209.885 178.483 209.762 178.622C209.643 178.759 209.583 178.94 209.583 179.168C209.583 179.483 209.7 179.722 209.933 179.884C210.166 180.043 210.463 180.122 210.824 180.122ZM216.045 183.455C215.854 183.455 215.681 183.439 215.525 183.408C215.369 183.379 215.252 183.348 215.175 183.314L215.482 182.27C215.715 182.332 215.923 182.359 216.104 182.351C216.286 182.342 216.447 182.274 216.586 182.146C216.728 182.018 216.853 181.81 216.961 181.52L217.119 181.085L214.724 174.455H216.087L217.745 179.534H217.813L219.471 174.455H220.839L218.141 181.874C218.016 182.214 217.857 182.503 217.664 182.739C217.471 182.977 217.241 183.156 216.974 183.276C216.707 183.395 216.397 183.455 216.045 183.455ZM226.941 176.053L225.786 176.257C225.738 176.109 225.661 175.969 225.556 175.835C225.454 175.702 225.315 175.592 225.138 175.507C224.962 175.422 224.742 175.379 224.478 175.379C224.117 175.379 223.816 175.46 223.575 175.622C223.333 175.781 223.212 175.987 223.212 176.24C223.212 176.459 223.293 176.635 223.455 176.768C223.617 176.902 223.879 177.011 224.239 177.097L225.279 177.335C225.881 177.474 226.33 177.689 226.626 177.979C226.921 178.268 227.069 178.645 227.069 179.108C227.069 179.5 226.955 179.849 226.728 180.156C226.504 180.46 226.19 180.699 225.786 180.872C225.386 181.045 224.921 181.132 224.393 181.132C223.66 181.132 223.062 180.976 222.599 180.663C222.136 180.348 221.852 179.901 221.746 179.321L222.978 179.134C223.055 179.455 223.212 179.697 223.451 179.862C223.69 180.024 224.001 180.105 224.384 180.105C224.802 180.105 225.136 180.018 225.386 179.845C225.636 179.669 225.761 179.455 225.761 179.202C225.761 178.997 225.684 178.825 225.531 178.686C225.38 178.547 225.148 178.442 224.836 178.371L223.728 178.128C223.117 177.989 222.665 177.767 222.373 177.463C222.083 177.159 221.938 176.774 221.938 176.308C221.938 175.922 222.046 175.584 222.262 175.294C222.478 175.004 222.776 174.778 223.157 174.616C223.538 174.452 223.974 174.369 224.465 174.369C225.173 174.369 225.729 174.523 226.136 174.83C226.542 175.134 226.81 175.541 226.941 176.053Z" fill="#1E1E1E"/>
<rect x="342" y="160" width="75" height="34" rx="17" fill="#EAECEF"/>
<path opacity="0.9" d="M359.378 181.119C358.793 181.119 358.27 181.018 357.81 180.817C357.352 180.615 356.99 180.335 356.723 179.977C356.459 179.616 356.317 179.199 356.297 178.724H357.635C357.652 178.983 357.739 179.207 357.895 179.398C358.054 179.585 358.261 179.73 358.517 179.832C358.773 179.935 359.057 179.986 359.369 179.986C359.713 179.986 360.017 179.926 360.281 179.807C360.548 179.687 360.757 179.521 360.908 179.308C361.058 179.092 361.134 178.844 361.134 178.562C361.134 178.27 361.058 178.013 360.908 177.791C360.76 177.567 360.543 177.391 360.256 177.263C359.972 177.135 359.628 177.071 359.224 177.071H358.487V175.997H359.224C359.548 175.997 359.832 175.939 360.077 175.822C360.324 175.706 360.517 175.544 360.656 175.337C360.795 175.126 360.865 174.881 360.865 174.599C360.865 174.33 360.804 174.095 360.682 173.896C360.563 173.695 360.392 173.537 360.17 173.423C359.952 173.31 359.693 173.253 359.395 173.253C359.111 173.253 358.845 173.305 358.598 173.411C358.354 173.513 358.155 173.661 358.001 173.854C357.848 174.044 357.766 174.273 357.754 174.54H356.48C356.494 174.068 356.634 173.653 356.898 173.295C357.165 172.937 357.517 172.658 357.955 172.456C358.392 172.254 358.878 172.153 359.412 172.153C359.972 172.153 360.455 172.263 360.861 172.482C361.27 172.697 361.585 172.986 361.807 173.347C362.031 173.707 362.142 174.102 362.139 174.531C362.142 175.02 362.006 175.435 361.73 175.776C361.457 176.116 361.094 176.345 360.639 176.462V176.53C361.219 176.618 361.668 176.848 361.986 177.22C362.307 177.592 362.466 178.054 362.463 178.605C362.466 179.085 362.332 179.516 362.062 179.896C361.795 180.277 361.43 180.577 360.967 180.795C360.504 181.011 359.974 181.119 359.378 181.119ZM367.112 181.145C366.439 181.142 365.864 180.964 365.386 180.612C364.909 180.26 364.544 179.747 364.291 179.074C364.038 178.401 363.912 177.589 363.912 176.641C363.912 175.695 364.038 174.886 364.291 174.216C364.547 173.545 364.913 173.034 365.391 172.682C365.871 172.33 366.445 172.153 367.112 172.153C367.78 172.153 368.352 172.331 368.83 172.686C369.307 173.038 369.672 173.55 369.925 174.22C370.18 174.888 370.308 175.695 370.308 176.641C370.308 177.592 370.182 178.405 369.929 179.078C369.676 179.749 369.311 180.261 368.834 180.616C368.357 180.969 367.783 181.145 367.112 181.145ZM367.112 180.007C367.703 180.007 368.165 179.719 368.497 179.142C368.832 178.565 369 177.732 369 176.641C369 175.916 368.923 175.304 368.77 174.804C368.619 174.301 368.402 173.92 368.118 173.662C367.837 173.401 367.501 173.27 367.112 173.27C366.524 173.27 366.063 173.56 365.727 174.139C365.392 174.719 365.223 175.553 365.22 176.641C365.22 177.368 365.295 177.983 365.446 178.486C365.599 178.986 365.817 179.365 366.098 179.624C366.379 179.879 366.717 180.007 367.112 180.007ZM377.94 181H375.115V172.273H378.03C378.885 172.273 379.619 172.447 380.233 172.797C380.847 173.143 381.317 173.642 381.643 174.293C381.973 174.94 382.138 175.717 382.138 176.624C382.138 177.533 381.972 178.314 381.639 178.967C381.31 179.621 380.832 180.124 380.207 180.476C379.582 180.825 378.827 181 377.94 181ZM376.432 179.849H377.868C378.533 179.849 379.085 179.724 379.526 179.474C379.966 179.222 380.295 178.857 380.514 178.379C380.733 177.899 380.842 177.314 380.842 176.624C380.842 175.939 380.733 175.358 380.514 174.881C380.298 174.403 379.976 174.041 379.547 173.794C379.118 173.547 378.585 173.423 377.949 173.423H376.432V179.849ZM385.578 181.145C385.163 181.145 384.788 181.068 384.453 180.915C384.118 180.759 383.852 180.533 383.656 180.237C383.463 179.942 383.366 179.58 383.366 179.151C383.366 178.781 383.437 178.477 383.579 178.239C383.721 178 383.913 177.811 384.154 177.672C384.396 177.533 384.666 177.428 384.964 177.357C385.262 177.286 385.566 177.232 385.876 177.195C386.268 177.149 386.586 177.112 386.831 177.084C387.075 177.053 387.252 177.003 387.363 176.935C387.474 176.866 387.529 176.756 387.529 176.602V176.572C387.529 176.2 387.424 175.912 387.214 175.707C387.007 175.503 386.697 175.401 386.285 175.401C385.856 175.401 385.518 175.496 385.271 175.686C385.027 175.874 384.858 176.082 384.764 176.312L383.566 176.04C383.708 175.642 383.916 175.321 384.189 175.077C384.464 174.83 384.781 174.651 385.139 174.54C385.497 174.426 385.873 174.369 386.268 174.369C386.529 174.369 386.806 174.401 387.099 174.463C387.395 174.523 387.67 174.634 387.926 174.795C388.184 174.957 388.396 175.189 388.561 175.49C388.725 175.788 388.808 176.176 388.808 176.653V181H387.564V180.105H387.512C387.43 180.27 387.306 180.432 387.142 180.591C386.977 180.75 386.765 180.882 386.507 180.987C386.248 181.092 385.939 181.145 385.578 181.145ZM385.855 180.122C386.207 180.122 386.508 180.053 386.758 179.913C387.011 179.774 387.203 179.592 387.333 179.368C387.467 179.141 387.534 178.898 387.534 178.639V177.795C387.488 177.841 387.4 177.884 387.27 177.923C387.142 177.96 386.995 177.993 386.831 178.021C386.666 178.047 386.505 178.071 386.349 178.094C386.193 178.114 386.062 178.131 385.957 178.145C385.71 178.176 385.484 178.229 385.279 178.303C385.078 178.376 384.916 178.483 384.794 178.622C384.674 178.759 384.615 178.94 384.615 179.168C384.615 179.483 384.731 179.722 384.964 179.884C385.197 180.043 385.494 180.122 385.855 180.122ZM391.076 183.455C390.886 183.455 390.712 183.439 390.556 183.408C390.4 183.379 390.283 183.348 390.207 183.314L390.513 182.27C390.746 182.332 390.954 182.359 391.136 182.351C391.317 182.342 391.478 182.274 391.617 182.146C391.759 182.018 391.884 181.81 391.992 181.52L392.15 181.085L389.755 174.455H391.119L392.776 179.534H392.844L394.502 174.455H395.87L393.173 181.874C393.048 182.214 392.888 182.503 392.695 182.739C392.502 182.977 392.272 183.156 392.005 183.276C391.738 183.395 391.428 183.455 391.076 183.455ZM401.972 176.053L400.817 176.257C400.769 176.109 400.692 175.969 400.587 175.835C400.485 175.702 400.346 175.592 400.17 175.507C399.994 175.422 399.773 175.379 399.509 175.379C399.148 175.379 398.847 175.46 398.606 175.622C398.364 175.781 398.244 175.987 398.244 176.24C398.244 176.459 398.325 176.635 398.487 176.768C398.648 176.902 398.91 177.011 399.271 177.097L400.31 177.335C400.913 177.474 401.362 177.689 401.657 177.979C401.952 178.268 402.1 178.645 402.1 179.108C402.1 179.5 401.987 179.849 401.759 180.156C401.535 180.46 401.221 180.699 400.817 180.872C400.417 181.045 399.952 181.132 399.424 181.132C398.691 181.132 398.093 180.976 397.63 180.663C397.167 180.348 396.883 179.901 396.778 179.321L398.009 179.134C398.086 179.455 398.244 179.697 398.482 179.862C398.721 180.024 399.032 180.105 399.415 180.105C399.833 180.105 400.167 180.018 400.417 179.845C400.667 179.669 400.792 179.455 400.792 179.202C400.792 178.997 400.715 178.825 400.562 178.686C400.411 178.547 400.18 178.442 399.867 178.371L398.759 178.128C398.148 177.989 397.697 177.767 397.404 177.463C397.114 177.159 396.969 176.774 396.969 176.308C396.969 175.922 397.077 175.584 397.293 175.294C397.509 175.004 397.808 174.778 398.188 174.616C398.569 174.452 399.005 174.369 399.496 174.369C400.204 174.369 400.761 174.523 401.167 174.83C401.573 175.134 401.842 175.541 401.972 176.053Z" fill="#1E1E1E"/>
<defs>
<linearGradient id="paint0_linear_123_196" x1="485.39" y1="7" x2="485.39" y2="142" gradientUnits="userSpaceOnUse">
<stop stop-color="#B2DD7A"/>
<stop offset="1" stop-color="#B2DD7A" stop-opacity="0"/>
</linearGradient>
<clipPath id="clip0_123_196">
<rect width="400" height="150" fill="white" transform="translate(7)"/>
</clipPath>
</defs>
</svg>
