<svg width="210" height="61" viewBox="0 0 210 61" fill="none" xmlns="http://www.w3.org/2000/svg">
<path d="M57.2248 18.9751V12.6364H87.0898V18.9751H75.957V49H68.3576V18.9751H57.2248ZM89.0341 49V21.7273H96.3672V26.4858H96.6513C97.1484 24.7931 97.983 23.5147 99.1548 22.6506C100.327 21.7746 101.676 21.3366 103.203 21.3366C103.582 21.3366 103.99 21.3603 104.428 21.4077C104.866 21.455 105.251 21.5201 105.582 21.603V28.3146C105.227 28.2081 104.736 28.1134 104.109 28.0305C103.481 27.9477 102.907 27.9062 102.386 27.9062C101.274 27.9062 100.279 28.1489 99.4034 28.6342C98.5393 29.1077 97.8527 29.7706 97.3438 30.6229C96.8466 31.4751 96.598 32.4576 96.598 33.5703V49H89.0341ZM120.546 49.5327C117.788 49.5327 115.403 48.9467 113.39 47.7749C111.39 46.5911 109.845 44.9458 108.756 42.8388C107.667 40.7199 107.123 38.2637 107.123 35.4702C107.123 32.6529 107.667 30.1908 108.756 28.0838C109.845 25.965 111.39 24.3196 113.39 23.1477C115.403 21.964 117.788 21.3722 120.546 21.3722C123.304 21.3722 125.683 21.964 127.684 23.1477C129.696 24.3196 131.247 25.965 132.336 28.0838C133.425 30.1908 133.969 32.6529 133.969 35.4702C133.969 38.2637 133.425 40.7199 132.336 42.8388C131.247 44.9458 129.696 46.5911 127.684 47.7749C125.683 48.9467 123.304 49.5327 120.546 49.5327ZM120.581 43.6733C121.836 43.6733 122.884 43.3182 123.724 42.608C124.565 41.8859 125.198 40.9034 125.624 39.6605C126.062 38.4176 126.281 37.0031 126.281 35.4169C126.281 33.8307 126.062 32.4162 125.624 31.1733C125.198 29.9304 124.565 28.9479 123.724 28.2259C122.884 27.5038 121.836 27.1428 120.581 27.1428C119.315 27.1428 118.25 27.5038 117.385 28.2259C116.533 28.9479 115.888 29.9304 115.45 31.1733C115.024 32.4162 114.811 33.8307 114.811 35.4169C114.811 37.0031 115.024 38.4176 115.45 39.6605C115.888 40.9034 116.533 41.8859 117.385 42.608C118.25 43.3182 119.315 43.6733 120.581 43.6733ZM138.888 49V21.7273H146.096V26.5391H146.416C146.984 24.9411 147.931 23.6804 149.257 22.7571C150.583 21.8338 152.169 21.3722 154.015 21.3722C155.886 21.3722 157.478 21.8397 158.792 22.7749C160.106 23.6982 160.982 24.9529 161.42 26.5391H161.704C162.26 24.9766 163.266 23.7277 164.722 22.7926C166.19 21.8456 167.924 21.3722 169.925 21.3722C172.47 21.3722 174.535 22.183 176.121 23.8047C177.719 25.4145 178.518 27.6991 178.518 30.6584V49H170.972V32.1499C170.972 30.6347 170.57 29.4983 169.765 28.7408C168.96 27.9832 167.954 27.6044 166.746 27.6044C165.373 27.6044 164.302 28.0424 163.532 28.9183C162.763 29.7824 162.378 30.9247 162.378 32.3452V49H155.045V31.9901C155.045 30.6525 154.661 29.5871 153.891 28.794C153.134 28.0009 152.133 27.6044 150.89 27.6044C150.05 27.6044 149.292 27.8175 148.618 28.2436C147.955 28.6579 147.428 29.2438 147.037 30.0014C146.647 30.7472 146.452 31.6231 146.452 32.6293V49H138.888ZM207.185 29.5043L200.26 29.9304C200.142 29.3385 199.887 28.8059 199.497 28.3324C199.106 27.8471 198.591 27.4624 197.952 27.1783C197.325 26.8823 196.573 26.7344 195.697 26.7344C194.525 26.7344 193.537 26.983 192.732 27.4801C191.927 27.9654 191.524 28.6165 191.524 29.4332C191.524 30.0843 191.785 30.6347 192.306 31.0845C192.826 31.5343 193.72 31.8954 194.987 32.1676L199.923 33.1619C202.574 33.7064 204.551 34.5824 205.853 35.7898C207.155 36.9972 207.806 38.5833 207.806 40.5483C207.806 42.3357 207.28 43.9041 206.226 45.2536C205.184 46.603 203.752 47.6565 201.929 48.4141C200.118 49.1598 198.029 49.5327 195.661 49.5327C192.051 49.5327 189.175 48.781 187.032 47.2777C184.901 45.7625 183.653 43.7029 183.286 41.0987L190.725 40.7081C190.95 41.8089 191.495 42.6494 192.359 43.2294C193.223 43.7976 194.33 44.0817 195.679 44.0817C197.005 44.0817 198.07 43.8272 198.875 43.3182C199.692 42.7973 200.106 42.1286 200.118 41.3118C200.106 40.6252 199.816 40.063 199.248 39.625C198.68 39.1752 197.804 38.8319 196.62 38.5952L191.897 37.6541C189.234 37.1214 187.251 36.1982 185.949 34.8842C184.659 33.5703 184.014 31.8954 184.014 29.8594C184.014 28.1075 184.487 26.5982 185.434 25.3317C186.393 24.0651 187.736 23.0885 189.465 22.402C191.205 21.7154 193.241 21.3722 195.573 21.3722C199.017 21.3722 201.728 22.1001 203.705 23.5561C205.693 25.0121 206.853 26.9948 207.185 29.5043Z" fill="#06402B"/>
<path d="M43.3013 31L9.95888e-06 56L1.21444e-05 6L43.3013 31Z" fill="#06402B"/>
<path d="M0.729005 31L44.0303 56L44.0303 6L0.729005 31Z" fill="#06402B"/>
</svg>
