<svg width="122" height="30" viewBox="0 0 122 30" fill="none" xmlns="http://www.w3.org/2000/svg">
<path d="M120.937 13.8478L115.353 14.1915C115.257 13.7142 115.052 13.2846 114.737 12.9028C114.422 12.5114 114.007 12.2011 113.491 11.972C112.985 11.7334 112.379 11.614 111.673 11.614C110.728 11.614 109.931 11.8145 109.281 12.2154C108.632 12.6068 108.308 13.1319 108.308 13.7906C108.308 14.3156 108.518 14.7595 108.938 15.1223C109.358 15.485 110.079 15.7762 111.1 15.9957L115.081 16.7976C117.219 17.2367 118.813 17.9432 119.863 18.9169C120.914 19.8906 121.439 21.1698 121.439 22.7544C121.439 24.1959 121.014 25.4608 120.164 26.549C119.324 27.6373 118.169 28.4869 116.699 29.0979C115.238 29.6993 113.553 30 111.644 30C108.733 30 106.413 29.3938 104.685 28.1814C102.967 26.9595 101.96 25.2985 101.664 23.1983L107.663 22.8833C107.845 23.7711 108.284 24.4489 108.981 24.9166C109.678 25.3749 110.57 25.604 111.658 25.604C112.728 25.604 113.587 25.3987 114.236 24.9882C114.895 24.5682 115.229 24.0289 115.238 23.3702C115.229 22.8165 114.995 22.363 114.537 22.0098C114.078 21.6471 113.372 21.3702 112.417 21.1793L108.608 20.4204C106.461 19.9908 104.862 19.2462 103.811 18.1866C102.771 17.127 102.251 15.7762 102.251 14.1342C102.251 12.7214 102.633 11.5043 103.396 10.4828C104.169 9.46137 105.253 8.67381 106.647 8.12013C108.05 7.56645 109.692 7.28961 111.573 7.28961C114.351 7.28961 116.537 7.8767 118.131 9.05088C119.735 10.2251 120.67 11.8241 120.937 13.8478Z" fill="#06402B"/>
<path d="M65.8584 29.5704V7.576H71.6721V11.4565H71.9298C72.388 10.1678 73.1517 9.15112 74.2209 8.40651C75.2901 7.66191 76.5693 7.28961 78.0585 7.28961C79.5668 7.28961 80.8508 7.66668 81.9104 8.42083C82.97 9.16544 83.6765 10.1773 84.0297 11.4565H84.2588C84.7074 10.1964 85.5189 9.1893 86.6931 8.43515C87.8768 7.67146 89.2753 7.28961 90.8886 7.28961C92.9411 7.28961 94.6069 7.94353 95.8861 9.25135C97.1748 10.5496 97.8192 12.392 97.8192 14.7786V29.5704H91.7335V15.9814C91.7335 14.7595 91.4089 13.8431 90.7598 13.2321C90.1106 12.6212 89.2992 12.3157 88.3255 12.3157C87.2181 12.3157 86.3542 12.6689 85.7337 13.3753C85.1132 14.0722 84.8029 14.9934 84.8029 16.1389V29.5704H78.889V15.8525C78.889 14.7738 78.5788 13.9147 77.9583 13.2751C77.3473 12.6355 76.5406 12.3157 75.5383 12.3157C74.8605 12.3157 74.2495 12.4875 73.7054 12.8312C73.1708 13.1653 72.746 13.6378 72.431 14.2488C72.116 14.8502 71.9584 15.5566 71.9584 16.368V29.5704H65.8584Z" fill="#06402B"/>
<path d="M51.0662 30C48.8419 30 46.9183 29.5275 45.2955 28.5824C43.6821 27.6278 42.4364 26.3008 41.5581 24.6016C40.6798 22.8929 40.2407 20.912 40.2407 18.6591C40.2407 16.3871 40.6798 14.4015 41.5581 12.7023C42.4364 10.9935 43.6821 9.66661 45.2955 8.72154C46.9183 7.76692 48.8419 7.28961 51.0662 7.28961C53.2904 7.28961 55.2092 7.76692 56.8225 8.72154C58.4454 9.66661 59.696 10.9935 60.5742 12.7023C61.4525 14.4015 61.8916 16.3871 61.8916 18.6591C61.8916 20.912 61.4525 22.8929 60.5742 24.6016C59.696 26.3008 58.4454 27.6278 56.8225 28.5824C55.2092 29.5275 53.2904 30 51.0662 30ZM51.0948 25.2746C52.1067 25.2746 52.9515 24.9882 53.6293 24.4155C54.3071 23.8332 54.8178 23.0408 55.1615 22.0385C55.5147 21.0361 55.6913 19.8954 55.6913 18.6162C55.6913 17.337 55.5147 16.1962 55.1615 15.1939C54.8178 14.1915 54.3071 13.3992 53.6293 12.8169C52.9515 12.2345 52.1067 11.9434 51.0948 11.9434C50.0734 11.9434 49.2142 12.2345 48.5173 12.8169C47.83 13.3992 47.3097 14.1915 46.9565 15.1939C46.6128 16.1962 46.441 17.337 46.441 18.6162C46.441 19.8954 46.6128 21.0361 46.9565 22.0385C47.3097 23.0408 47.83 23.8332 48.5173 24.4155C49.2142 24.9882 50.0734 25.2746 51.0948 25.2746Z" fill="#06402B"/>
<path d="M25.6533 29.5705V7.57607H31.5672V11.4136H31.7963C32.1973 10.0485 32.8703 9.01755 33.8154 8.32068C34.7604 7.61426 35.8487 7.26105 37.0802 7.26105C37.3857 7.26105 37.715 7.28014 38.0682 7.31832C38.4214 7.35651 38.7317 7.40901 38.999 7.47584V12.8885C38.7126 12.8026 38.3164 12.7262 37.8105 12.6594C37.3045 12.5926 36.8415 12.5592 36.4215 12.5592C35.5241 12.5592 34.7223 12.7549 34.0158 13.1463C33.319 13.5281 32.7653 14.0627 32.3548 14.75C31.9538 15.4374 31.7534 16.2297 31.7534 17.127V29.5705H25.6533Z" fill="#06402B"/>
<path d="M0 5.35645V0.244469H24.0852V5.35645H15.1069V29.5704H8.97824V5.35645H0Z" fill="#06402B"/>
</svg>
