<svg width="64" height="64" viewBox="0 0 64 64" fill="none" xmlns="http://www.w3.org/2000/svg">
<path d="M61.99 16.4651V10.0531C61.9879 9.12018 61.6158 8.22625 60.9553 7.56745C60.2948 6.90865 59.3999 6.5388 58.467 6.53906H23.185C23.179 6.53906 23.173 6.53906 23.166 6.53906C23.159 6.53906 23.154 6.53906 23.147 6.53906H8.08302C7.15005 6.53879 6.25507 6.90861 5.59442 7.56739C4.93377 8.22616 4.56141 9.12009 4.55902 10.0531V39.3091C2.7225 41.5158 1.81494 44.3496 2.02781 47.2127C2.24069 50.0757 3.55735 52.7442 5.70003 54.655C7.84271 56.5659 10.6439 57.5697 13.5125 57.4548C16.3812 57.3399 19.0931 56.1152 21.076 54.0391H58.467C59.4001 54.0393 60.2951 53.6693 60.9556 53.0103C61.6161 52.3513 61.9882 51.4571 61.99 50.5241V16.5621C61.99 16.5451 62 16.5311 62 16.5141C62 16.4971 61.991 16.4821 61.99 16.4651ZM59.99 10.0531V15.5141H24.166V8.53906H58.466C58.8688 8.538 59.2555 8.69685 59.5413 8.98072C59.827 9.2646 59.9884 9.65028 59.99 10.0531ZM8.08302 8.53906H22.166V15.5141H6.55902V10.0531C6.56088 9.65036 6.72235 9.26483 7.00805 8.98102C7.29374 8.6972 7.68032 8.53826 8.08302 8.53906ZM13.083 55.4651C11.2866 55.4651 9.53047 54.9324 8.03678 53.9343C6.54309 52.9362 5.3789 51.5177 4.69143 49.858C4.00396 48.1983 3.82408 46.372 4.17455 44.6101C4.52502 42.8481 5.39009 41.2297 6.66037 39.9594C7.93065 38.6891 9.54909 37.8241 11.311 37.4736C13.0729 37.1231 14.8992 37.303 16.5589 37.9905C18.2186 38.6779 19.6372 39.8421 20.6353 41.3358C21.6333 42.8295 22.166 44.5856 22.166 46.3821C22.1634 48.7902 21.2056 51.099 19.5028 52.8018C17.7999 54.5046 15.4912 55.4624 13.083 55.4651ZM58.467 52.0391H22.6C23.9669 49.7581 24.4637 47.0601 23.999 44.4418C23.5343 41.8236 22.1394 39.4613 20.071 37.7901L25.92 30.9251C26.5358 31.2197 27.221 31.3383 27.9 31.2678C28.5789 31.1972 29.2251 30.9401 29.767 30.5251L35.9 35.3001C35.7371 35.8767 35.7136 36.4838 35.8315 37.0713C35.9493 37.6587 36.2052 38.2098 36.578 38.6789C36.9508 39.148 37.4298 39.5217 37.9755 39.7692C38.5212 40.0168 39.1179 40.131 39.7164 40.1025C40.3149 40.074 40.8981 39.9036 41.4177 39.6053C41.9374 39.307 42.3787 38.8894 42.7052 38.387C43.0318 37.8846 43.2341 37.3117 43.2956 36.7157C43.3571 36.1197 43.276 35.5176 43.059 34.9591L51.9 25.7071C52.4479 26.0123 53.0639 26.1746 53.691 26.1791C54.4397 26.1795 55.1717 25.9577 55.7944 25.542C56.417 25.1262 56.9023 24.5351 57.1889 23.8434C57.4754 23.1517 57.5504 22.3905 57.4042 21.6562C57.258 20.9219 56.8973 20.2475 56.3676 19.7183C55.838 19.1891 55.1633 18.8289 54.4289 18.6833C53.6945 18.5377 52.9334 18.6132 52.2419 18.9003C51.5505 19.1875 50.9597 19.6732 50.5444 20.2962C50.1292 20.9192 49.908 21.6514 49.909 22.4001C49.9123 23.0807 50.1011 23.7476 50.455 24.3291L41.849 33.3351C41.1404 32.7691 40.2498 32.4809 39.344 32.5243C38.4382 32.5678 37.5792 32.9399 36.928 33.5711L31.006 28.9611C31.2585 28.3558 31.3493 27.6952 31.2696 27.0443C31.1899 26.3933 30.9423 25.7742 30.5512 25.2477C30.1601 24.7213 29.6389 24.3055 29.0386 24.0412C28.4384 23.7769 27.7798 23.6731 27.1274 23.7401C26.4749 23.807 25.8511 24.0424 25.3171 24.4231C24.7831 24.8038 24.3571 25.3168 24.0811 25.9118C23.8051 26.5067 23.6884 27.1631 23.7426 27.8168C23.7967 28.4704 24.0199 29.0987 24.39 29.6401L18.4 36.6641C16.5571 35.6508 14.4628 35.1858 12.3643 35.3238C10.2657 35.4618 8.25037 36.1972 6.55603 37.4431V17.5141H59.99V50.5241C59.9884 50.9268 59.8272 51.3124 59.5417 51.5964C59.2562 51.8804 58.8697 52.0396 58.467 52.0391ZM27.514 29.2891C27.1612 29.2887 26.8165 29.1837 26.5233 28.9874C26.2302 28.791 26.0018 28.5122 25.8672 28.1862C25.7325 27.8601 25.6975 27.5014 25.7666 27.1554C25.8358 26.8095 26.0059 26.4918 26.2556 26.2425C26.5053 25.9933 26.8233 25.8236 27.1693 25.7551C27.5154 25.6865 27.874 25.7221 28.1999 25.8573C28.5257 25.9926 28.8042 26.2214 29 26.5149C29.1958 26.8083 29.3002 27.1533 29.3 27.5061C29.2995 27.9793 29.1111 28.433 28.7761 28.7673C28.4412 29.1017 27.9873 29.2893 27.514 29.2891ZM41.314 36.3001C41.314 36.6529 41.2094 36.9979 41.0133 37.2913C40.8172 37.5847 40.5385 37.8134 40.2125 37.9484C39.8865 38.0834 39.5277 38.1186 39.1816 38.0497C38.8355 37.9808 38.5177 37.8108 38.2682 37.5612C38.0187 37.3116 37.8489 36.9936 37.7802 36.6475C37.7115 36.3014 37.7469 35.9426 37.8821 35.6167C38.0173 35.2907 38.2461 35.0121 38.5396 34.8162C38.8331 34.6203 39.1781 34.5159 39.531 34.5161C40.0041 34.5163 40.4577 34.7044 40.7922 35.0389C41.1267 35.3734 41.3138 35.827 41.314 36.3001ZM51.909 22.4001C51.9088 22.0471 52.0133 21.7021 52.2093 21.4086C52.4052 21.115 52.6838 20.8862 53.0099 20.7511C53.3359 20.6159 53.6947 20.5805 54.0408 20.6493C54.387 20.7181 54.7049 20.888 54.9545 21.1376C55.2041 21.3871 55.374 21.7051 55.4428 22.0513C55.5116 22.3974 55.4762 22.7562 55.341 23.0822C55.2059 23.4083 54.9771 23.6869 54.6835 23.8828C54.39 24.0788 54.045 24.1833 53.692 24.1831C53.2194 24.1823 52.7663 23.9942 52.4321 23.66C52.0979 23.3258 51.9098 22.8727 51.909 22.4001Z" fill="#06402B"/>
<path d="M9.35006 12.59C9.53962 12.7759 9.79454 12.88 10.0601 12.88C10.3256 12.88 10.5805 12.7759 10.7701 12.59C10.8613 12.493 10.9357 12.3815 10.9901 12.26C11.0834 12.0152 11.0834 11.7447 10.9901 11.5C10.9321 11.3805 10.8581 11.2694 10.7701 11.17L10.6201 11.05C10.5646 11.0117 10.504 10.9814 10.4401 10.96C10.3833 10.9312 10.3226 10.9107 10.2601 10.899C10.0651 10.8584 9.86232 10.8797 9.68006 10.96C9.55892 11.0107 9.44732 11.0817 9.35006 11.17C9.16732 11.3616 9.06374 11.6152 9.06006 11.88C9.06164 12.0106 9.08882 12.1397 9.14006 12.26C9.19079 12.3811 9.26181 12.4927 9.35006 12.59Z" fill="#06402B"/>
<path d="M13.3799 12.59C13.5695 12.7759 13.8244 12.8801 14.0899 12.8801C14.3554 12.8801 14.6103 12.7759 14.7999 12.59C14.8881 12.4928 14.9592 12.3812 15.0099 12.26C15.0611 12.1398 15.0883 12.0107 15.0899 11.88C15.0862 11.6153 14.9826 11.3617 14.7999 11.17C14.7026 11.0818 14.591 11.0108 14.4699 10.96C14.2878 10.8834 14.0871 10.8625 13.8931 10.8999C13.6991 10.9373 13.5205 11.0313 13.3799 11.17C13.2916 11.2673 13.2206 11.3789 13.1699 11.5C13.1138 11.6187 13.0864 11.7488 13.0899 11.88C13.0879 12.0101 13.1117 12.1392 13.1599 12.26C13.2118 12.3829 13.2864 12.4948 13.3799 12.59Z" fill="#06402B"/>
<path d="M17.4099 12.5899C17.5041 12.68 17.6121 12.7542 17.7299 12.8099C17.9781 12.9032 18.2517 12.9032 18.4999 12.8099C18.6177 12.7542 18.7258 12.68 18.8199 12.5899C19.0073 12.4005 19.1147 12.1463 19.1199 11.8799C19.1172 11.613 19.0094 11.3579 18.8199 11.1699C18.7279 11.0797 18.6192 11.0084 18.4999 10.9599C18.3788 10.9055 18.2476 10.8774 18.1149 10.8774C17.9822 10.8774 17.851 10.9055 17.7299 10.9599C17.6106 11.0084 17.5019 11.0797 17.4099 11.1699C17.3186 11.2668 17.2443 11.3784 17.1899 11.4999C17.0965 11.7446 17.0965 12.0152 17.1899 12.2599C17.2443 12.3814 17.3186 12.493 17.4099 12.5899Z" fill="#06402B"/>
<path d="M54.7711 39.988H49.5291C49.2638 39.988 49.0095 40.0934 48.8219 40.2809C48.6344 40.4685 48.5291 40.7228 48.5291 40.988C48.5291 41.2533 48.6344 41.5076 48.8219 41.6951C49.0095 41.8827 49.2638 41.988 49.5291 41.988H54.7711C55.0363 41.988 55.2906 41.8827 55.4782 41.6951C55.6657 41.5076 55.7711 41.2533 55.7711 40.988C55.7711 40.7228 55.6657 40.4685 55.4782 40.2809C55.2906 40.0934 55.0363 39.988 54.7711 39.988Z" fill="#06402B"/>
<path d="M54.7709 43.812H40.6489C40.3837 43.812 40.1294 43.9174 39.9418 44.1049C39.7543 44.2924 39.6489 44.5468 39.6489 44.812C39.6489 45.0772 39.7543 45.3316 39.9418 45.5191C40.1294 45.7067 40.3837 45.812 40.6489 45.812H54.7709C55.0361 45.812 55.2905 45.7067 55.478 45.5191C55.6656 45.3316 55.7709 45.0772 55.7709 44.812C55.7709 44.5468 55.6656 44.2924 55.478 44.1049C55.2905 43.9174 55.0361 43.812 54.7709 43.812Z" fill="#06402B"/>
<path d="M54.7711 47.636H46.5081C46.2428 47.636 45.9885 47.7413 45.8009 47.9289C45.6134 48.1164 45.5081 48.3708 45.5081 48.636C45.5081 48.9012 45.6134 49.1556 45.8009 49.3431C45.9885 49.5306 46.2428 49.636 46.5081 49.636H54.7711C55.0363 49.636 55.2906 49.5306 55.4782 49.3431C55.6657 49.1556 55.7711 48.9012 55.7711 48.636C55.7711 48.3708 55.6657 48.1164 55.4782 47.9289C55.2906 47.7413 55.0363 47.636 54.7711 47.636Z" fill="#06402B"/>
<path d="M14.083 45.9681V41.3411C14.083 41.0758 13.9777 40.8215 13.7901 40.634C13.6026 40.4464 13.3482 40.3411 13.083 40.3411C12.8178 40.3411 12.5634 40.4464 12.3759 40.634C12.1884 40.8215 12.083 41.0758 12.083 41.3411V46.3821C12.0831 46.6473 12.1885 46.9016 12.376 47.0891L15.7 50.4171C15.8879 50.605 16.1428 50.7105 16.4085 50.7105C16.6742 50.7105 16.9291 50.605 17.117 50.4171C17.3049 50.2292 17.4105 49.9743 17.4105 49.7086C17.4105 49.4428 17.3049 49.188 17.117 49.0001L14.083 45.9681Z" fill="#06402B"/>
</svg>
