<svg width="60" height="60" viewBox="0 0 60 60" fill="none" xmlns="http://www.w3.org/2000/svg">
<g clip-path="url(#clip0_14_163)">
<path d="M55.791 38.7949C55.2503 39.5667 54.5502 40.0574 53.7996 40.3673C52.7359 40.8066 51.5707 40.8831 50.6137 40.8831C48.2917 40.8831 46.4095 42.7654 46.4095 45.0873C46.4095 46.0444 46.333 47.2096 45.8937 48.2733C45.5837 49.0239 45.0932 49.7238 44.3213 50.2646H45.6071C51.2315 50.2646 55.7909 45.7052 55.7909 40.0808V38.7949H55.791Z" stroke="#06402B" stroke-width="2" stroke-miterlimit="10" stroke-linecap="round" stroke-linejoin="round"/>
<path d="M30.2617 20.4211H27.1885C26.1864 20.4211 25.3739 21.2336 25.3739 22.2358V25.3089C25.3739 26.3111 26.1864 27.1236 27.1885 27.1236H30.2617C31.2639 27.1236 32.0763 26.3111 32.0763 25.3089V22.2358C32.0763 21.2336 31.2639 20.4211 30.2617 20.4211Z" stroke="#06402B" stroke-width="2" stroke-miterlimit="10" stroke-linecap="round" stroke-linejoin="round"/>
<path d="M21.0422 25.7313L19.5376 24.2268C18.3647 23.054 16.4631 23.054 15.2903 24.2268L5.50327 34.0137C4.33045 35.1865 4.33045 37.0882 5.50327 38.261L7.00784 39.7656C8.18077 40.9384 10.0824 40.9384 11.2552 39.7656L21.0421 29.9787C22.215 28.8058 22.215 26.9042 21.0422 25.7313Z" stroke="#06402B" stroke-width="2" stroke-miterlimit="10" stroke-linecap="round" stroke-linejoin="round"/>
<path d="M37.5988 42.2878L39.1034 43.7924C40.2762 44.9653 40.2762 46.8669 39.1034 48.0397L29.3165 57.8266C28.1436 58.9996 26.242 58.9996 25.0691 57.8266L23.5645 56.3221C22.3917 55.1491 22.3917 53.2475 23.5645 52.0747L33.3515 42.2878C34.5244 41.115 36.426 41.115 37.5988 42.2878Z" stroke="#06402B" stroke-width="2" stroke-miterlimit="10" stroke-linecap="round" stroke-linejoin="round"/>
<path d="M31.7513 43.8881L19.4419 31.5789" stroke="#06402B" stroke-width="2" stroke-miterlimit="10" stroke-linecap="round" stroke-linejoin="round"/>
<path d="M12.8553 38.1653L25.1647 50.4745" stroke="#06402B" stroke-width="2" stroke-miterlimit="10" stroke-linecap="round" stroke-linejoin="round"/>
<path d="M13.696 25.821L11.6554 23.7804C10.5247 22.6497 8.6915 22.6497 7.56076 23.7804L5.05716 26.284C3.92642 27.4148 3.92642 29.2479 5.05716 30.3787L7.09775 32.4193" stroke="#06402B" stroke-width="2" stroke-miterlimit="10" stroke-linecap="round" stroke-linejoin="round"/>
<path d="M30.9109 56.2325L32.9515 58.2731C34.0822 59.4038 35.9154 59.4038 37.0461 58.2731L39.5497 55.7695C40.6805 54.6388 40.6805 52.8055 39.5497 51.6749L37.5091 49.6343" stroke="#06402B" stroke-width="2" stroke-miterlimit="10" stroke-linecap="round" stroke-linejoin="round"/>
<path d="M13.2543 38.5642V44.8939C13.2543 47.86 15.6588 50.2646 18.625 50.2646H24.9546" stroke="#06402B" stroke-width="2" stroke-miterlimit="10" stroke-linecap="round" stroke-linejoin="round"/>
<path d="M23.4941 0.878906H18.625C15.6588 0.878906 13.2543 3.28348 13.2543 6.24961V25.3795" stroke="#06402B" stroke-width="2" stroke-miterlimit="10" stroke-linecap="round" stroke-linejoin="round"/>
<path d="M55.7911 31.4617V6.24961C55.7911 3.28348 53.3865 0.878906 50.4204 0.878906H27.6327" stroke="#06402B" stroke-width="2" stroke-miterlimit="10" stroke-linecap="round" stroke-linejoin="round"/>
<path d="M55.791 38.795V35.6592" stroke="#06402B" stroke-width="2" stroke-miterlimit="10" stroke-linecap="round" stroke-linejoin="round"/>
<path d="M38.1395 50.2646H44.3215" stroke="#06402B" stroke-width="2" stroke-miterlimit="10" stroke-linecap="round" stroke-linejoin="round"/>
<path d="M27.4621 39.5988H30.2617C31.2639 39.5988 32.0763 38.7863 32.0763 37.7841V34.7109C32.0763 33.7087 31.2639 32.8962 30.2617 32.8962H27.1885C26.1864 32.8962 25.3739 33.7087 25.3739 34.7109V37.5105" stroke="#06402B" stroke-width="2" stroke-miterlimit="10" stroke-linecap="round" stroke-linejoin="round"/>
<path d="M36.5615 23.7725H47.1358" stroke="#06402B" stroke-width="2" stroke-miterlimit="10" stroke-linecap="round" stroke-linejoin="round"/>
<path d="M36.5615 36.2476H47.1358" stroke="#06402B" stroke-width="2" stroke-miterlimit="10" stroke-linecap="round" stroke-linejoin="round"/>
<path d="M26.8358 8.50244V9.90869" stroke="#06402B" stroke-width="2" stroke-miterlimit="10" stroke-linecap="round" stroke-linejoin="round"/>
<path d="M32.496 9.90015C32.9887 10.4656 33.7137 10.8235 34.5226 10.8235C35.3316 10.8235 36.0565 10.4657 36.5493 9.90015" stroke="#06402B" stroke-width="2" stroke-miterlimit="10" stroke-linecap="round" stroke-linejoin="round"/>
<path d="M40.8516 9.8696C40.8516 8.9696 41.5812 8.23999 42.4812 8.23999C43.3812 8.23999 44.1108 8.9696 44.1108 9.8696" stroke="#06402B" stroke-width="2" stroke-miterlimit="10" stroke-linecap="round" stroke-linejoin="round"/>
</g>
<defs>
<clipPath id="clip0_14_163">
<rect width="60" height="60" fill="white"/>
</clipPath>
</defs>
</svg>
