<svg width="60" height="60" viewBox="0 0 60 60" fill="none" xmlns="http://www.w3.org/2000/svg">
<mask id="mask0_14_105" style="mask-type:luminance" maskUnits="userSpaceOnUse" x="0" y="0" width="60" height="60">
<path d="M59 59V1H1V59H59Z" fill="white" stroke="white" stroke-width="2"/>
</mask>
<g mask="url(#mask0_14_105)">
<path d="M16.8486 22.485V30.0002C16.8486 31.0377 16.0074 31.8789 14.9697 31.8789H11.2122C10.1747 31.8789 9.3335 31.0377 9.3335 30.0002V22.485" stroke="#06402B" stroke-width="2" stroke-miterlimit="10" stroke-linecap="round" stroke-linejoin="round"/>
<path d="M13.0911 22.485V31.8789" stroke="#06402B" stroke-width="2" stroke-miterlimit="10" stroke-linecap="round" stroke-linejoin="round"/>
<path d="M14.9697 31.8787V46.909C14.9697 47.9466 14.1285 48.7878 13.0909 48.7878C12.0533 48.7878 11.2122 47.9466 11.2122 46.909V35.6362" stroke="#06402B" stroke-width="2" stroke-miterlimit="10" stroke-linecap="round" stroke-linejoin="round"/>
<path d="M22.485 39.3938H20.6062V24.3636C20.6062 23.326 21.4474 22.4848 22.485 22.4848C23.5225 22.4848 24.3637 23.326 24.3637 24.3636V37.515C24.3637 38.5526 23.5225 39.3938 22.485 39.3938Z" stroke="#06402B" stroke-width="2" stroke-miterlimit="10" stroke-linecap="round" stroke-linejoin="round"/>
<path d="M20.6062 48.7878V39.3939" stroke="#06402B" stroke-width="2" stroke-miterlimit="10" stroke-linecap="round" stroke-linejoin="round"/>
<path d="M10.2732 7.45459H49.7273" stroke="#06402B" stroke-width="2" stroke-miterlimit="10" stroke-linecap="round" stroke-linejoin="round"/>
<path d="M53.4847 7.45467H55.3635C57.4387 7.45467 59.1211 9.13701 59.1211 11.2122V52.5454C59.1211 54.6206 57.4387 56.303 55.3635 56.303H4.63641C2.56125 56.303 0.878906 54.6206 0.878906 52.5454V11.2122C0.878906 9.13701 2.56125 7.45467 4.63641 7.45467H6.51527" stroke="#06402B" stroke-width="2" stroke-miterlimit="10" stroke-linecap="round" stroke-linejoin="round"/>
<path d="M57.2422 14.9697H59.1212" stroke="#06402B" stroke-width="2" stroke-miterlimit="10" stroke-linecap="round" stroke-linejoin="round"/>
<path d="M0.878906 14.9697H53.4852" stroke="#06402B" stroke-width="2" stroke-miterlimit="10" stroke-linecap="round" stroke-linejoin="round"/>
<path d="M9.33351 11.2122H7.45476C6.93597 11.2122 6.51538 10.7916 6.51538 10.2728V4.63642C6.51538 4.11763 6.93597 3.69704 7.45476 3.69704H9.33351C9.85229 3.69704 10.2729 4.11763 10.2729 4.63642V10.2728C10.2729 10.7916 9.85229 11.2122 9.33351 11.2122Z" stroke="#06402B" stroke-width="2" stroke-miterlimit="10" stroke-linecap="round" stroke-linejoin="round"/>
<path d="M52.5454 11.2122H50.6667C50.1479 11.2122 49.7273 10.7916 49.7273 10.2728V4.63642C49.7273 4.11763 50.1479 3.69704 50.6667 3.69704H52.5454C53.0642 3.69704 53.4848 4.11763 53.4848 4.63642V10.2728C53.4848 10.7916 53.0642 11.2122 52.5454 11.2122Z" stroke="#06402B" stroke-width="2" stroke-miterlimit="10" stroke-linecap="round" stroke-linejoin="round"/>
<path d="M32.818 26.2424H30.9393C29.9016 26.2424 29.0605 25.4013 29.0605 24.3637C29.0605 23.326 29.9016 22.4849 30.9393 22.4849H32.818C33.8556 22.4849 34.6968 23.326 34.6968 24.3637C34.6968 25.4013 33.8556 26.2424 32.818 26.2424Z" stroke="#06402B" stroke-width="2" stroke-miterlimit="10" stroke-linecap="round" stroke-linejoin="round"/>
<path d="M42.2121 26.2424H40.3333C39.2958 26.2424 38.4546 25.4013 38.4546 24.3637C38.4546 23.326 39.2958 22.4849 40.3333 22.4849H42.2121C43.2497 22.4849 44.0908 23.326 44.0908 24.3637C44.0908 25.4013 43.2497 26.2424 42.2121 26.2424Z" stroke="#06402B" stroke-width="2" stroke-miterlimit="10" stroke-linecap="round" stroke-linejoin="round"/>
<path d="M51.6059 26.2424H49.7271C48.6894 26.2424 47.8484 25.4013 47.8484 24.3637C47.8484 23.326 48.6894 22.4849 49.7271 22.4849H51.6059C52.6435 22.4849 53.4846 23.326 53.4846 24.3637C53.4846 25.4013 52.6435 26.2424 51.6059 26.2424Z" stroke="#06402B" stroke-width="2" stroke-miterlimit="10" stroke-linecap="round" stroke-linejoin="round"/>
<path d="M32.818 33.7576H30.9393C29.9016 33.7576 29.0605 32.9164 29.0605 31.8788C29.0605 30.8411 29.9016 30.0001 30.9393 30.0001H32.818C33.8556 30.0001 34.6968 30.8411 34.6968 31.8788C34.6968 32.9164 33.8556 33.7576 32.818 33.7576Z" stroke="#06402B" stroke-width="2" stroke-miterlimit="10" stroke-linecap="round" stroke-linejoin="round"/>
<path d="M42.2121 33.7576H40.3333C39.2958 33.7576 38.4546 32.9164 38.4546 31.8788C38.4546 30.8411 39.2958 30.0001 40.3333 30.0001H42.2121C43.2497 30.0001 44.0908 30.8411 44.0908 31.8788C44.0908 32.9164 43.2497 33.7576 42.2121 33.7576Z" stroke="#06402B" stroke-width="2" stroke-miterlimit="10" stroke-linecap="round" stroke-linejoin="round"/>
<path d="M51.6059 33.7576H49.7271C48.6894 33.7576 47.8484 32.9164 47.8484 31.8788C47.8484 30.8411 48.6894 30.0001 49.7271 30.0001H51.6059C52.6435 30.0001 53.4846 30.8411 53.4846 31.8788C53.4846 32.9164 52.6435 33.7576 51.6059 33.7576Z" stroke="#06402B" stroke-width="2" stroke-miterlimit="10" stroke-linecap="round" stroke-linejoin="round"/>
<path d="M32.818 41.2727H30.9393C29.9016 41.2727 29.0605 40.4315 29.0605 39.394C29.0605 38.3564 29.9016 37.5152 30.9393 37.5152H32.818C33.8556 37.5152 34.6968 38.3564 34.6968 39.394C34.6968 40.4315 33.8556 41.2727 32.818 41.2727Z" stroke="#06402B" stroke-width="2" stroke-miterlimit="10" stroke-linecap="round" stroke-linejoin="round"/>
<path d="M42.2121 41.2727H40.3333C39.2958 41.2727 38.4546 40.4315 38.4546 39.394C38.4546 38.3564 39.2958 37.5152 40.3333 37.5152H42.2121C43.2497 37.5152 44.0908 38.3564 44.0908 39.394C44.0908 40.4315 43.2497 41.2727 42.2121 41.2727Z" stroke="#06402B" stroke-width="2" stroke-miterlimit="10" stroke-linecap="round" stroke-linejoin="round"/>
<path d="M51.6059 41.2727H49.7271C48.6894 41.2727 47.8484 40.4315 47.8484 39.394C47.8484 38.3564 48.6894 37.5152 49.7271 37.5152H51.6059C52.6435 37.5152 53.4846 38.3564 53.4846 39.394C53.4846 40.4315 52.6435 41.2727 51.6059 41.2727Z" stroke="#06402B" stroke-width="2" stroke-miterlimit="10" stroke-linecap="round" stroke-linejoin="round"/>
<path d="M32.818 48.7878H30.9393C29.9016 48.7878 29.0605 47.9467 29.0605 46.9091C29.0605 45.8714 29.9016 45.0303 30.9393 45.0303H32.818C33.8556 45.0303 34.6968 45.8714 34.6968 46.9091C34.6968 47.9467 33.8556 48.7878 32.818 48.7878Z" stroke="#06402B" stroke-width="2" stroke-miterlimit="10" stroke-linecap="round" stroke-linejoin="round"/>
<path d="M42.2121 48.7878H40.3333C39.2958 48.7878 38.4546 47.9467 38.4546 46.9091C38.4546 45.8714 39.2958 45.0303 40.3333 45.0303H42.2121C43.2497 45.0303 44.0908 45.8714 44.0908 46.9091C44.0908 47.9467 43.2497 48.7878 42.2121 48.7878Z" stroke="#06402B" stroke-width="2" stroke-miterlimit="10" stroke-linecap="round" stroke-linejoin="round"/>
<path d="M51.6059 48.7878H49.7271C48.6894 48.7878 47.8484 47.9467 47.8484 46.9091C47.8484 45.8714 48.6894 45.0303 49.7271 45.0303H51.6059C52.6435 45.0303 53.4846 45.8714 53.4846 46.9091C53.4846 47.9467 52.6435 48.7878 51.6059 48.7878Z" stroke="#06402B" stroke-width="2" stroke-miterlimit="10" stroke-linecap="round" stroke-linejoin="round"/>
</g>
</svg>
