<svg width="25" height="24" viewBox="0 0 25 24" fill="none" xmlns="http://www.w3.org/2000/svg">
<path d="M5.77491 7.17023C5.57938 7.09111 5.36897 7.0555 5.1583 7.06586C4.94762 7.07622 4.74173 7.13231 4.55491 7.23023V7.23523C4.33821 7.31168 4.14061 7.43407 3.97564 7.59402C3.81067 7.75397 3.68223 7.94769 3.59912 8.16192C3.51601 8.37614 3.4802 8.60581 3.49415 8.83516C3.50809 9.06452 3.57146 9.28815 3.67991 9.49073L3.71541 9.57023C4.26541 11.2002 5.36541 14.9452 5.46541 15.2852L6.28491 19.7002C6.40924 20.3504 6.75741 20.9365 7.26892 21.3567C7.78043 21.7768 8.42296 22.0045 9.08491 22.0002H15.3904C15.9931 22.0046 16.5815 21.817 17.0705 21.4647C17.5594 21.1123 17.9235 20.6134 18.1099 20.0402L18.6899 18.2302C18.7353 18.0939 18.7959 17.9631 18.8704 17.8402L21.3354 12.8152C21.5165 12.4493 21.5516 12.0282 21.4337 11.6373C21.3158 11.2464 21.0536 10.915 20.7004 10.7102C20.3279 10.4918 19.8855 10.4254 19.4653 10.5251C19.0451 10.6248 18.6796 10.8827 18.4449 11.2452L17.2549 13.1302L18.2004 4.53023C18.2044 4.51218 18.206 4.4937 18.2054 4.47523C18.1789 4.05619 17.988 3.66457 17.6742 3.38554C17.3604 3.10651 16.9492 2.96265 16.5299 2.98523C16.12 2.96399 15.7176 3.10109 15.4059 3.36818C15.0943 3.63526 14.8972 4.01191 14.8554 4.42023L14.0899 8.30523V3.65023C14.0898 3.41231 14.0379 3.17726 13.9378 2.9614C13.8378 2.74555 13.6919 2.55406 13.5104 2.40023C13.264 2.18942 12.9618 2.05448 12.6403 2.01173C12.3188 1.96897 11.9919 2.02023 11.6989 2.15931C11.4059 2.29839 11.1595 2.51933 10.9894 2.79545C10.8193 3.07156 10.7328 3.39102 10.7404 3.71523V8.86023L9.97541 5.40023C9.93055 4.99392 9.73215 4.62009 9.4208 4.35521C9.10944 4.09033 8.70866 3.9544 8.30041 3.97523C7.88176 3.95168 7.47078 4.09456 7.15703 4.37272C6.84328 4.65088 6.65219 5.04179 6.62541 5.46023C6.62466 5.48532 6.62617 5.51042 6.62991 5.53523L7.14591 9.02023L7.01091 8.67023C6.80164 8.0329 6.36047 7.4975 5.77491 7.17023Z" fill="black"/>
</svg>
