<svg width="24" height="24" viewBox="0 0 24 24" fill="none" xmlns="http://www.w3.org/2000/svg">
<path d="M12 2.25C10.0716 2.25 8.18657 2.82183 6.58319 3.89317C4.97982 4.96452 3.73013 6.48726 2.99218 8.26884C2.25422 10.0504 2.06114 12.0108 2.43735 13.9021C2.81355 15.7934 3.74215 17.5307 5.10571 18.8943C6.46928 20.2579 8.20656 21.1865 10.0979 21.5627C11.9892 21.9389 13.9496 21.7458 15.7312 21.0078C17.5127 20.2699 19.0355 19.0202 20.1068 17.4168C21.1782 15.8134 21.75 13.9284 21.75 12C21.7474 9.41495 20.7193 6.93654 18.8914 5.10863C17.0635 3.28073 14.5851 2.25265 12 2.25ZM17.24 9L11.41 16C11.3428 16.0791 11.2604 16.1437 11.1676 16.1901C11.0748 16.2365 10.9736 16.2637 10.87 16.27C10.7613 16.2678 10.6543 16.2426 10.5561 16.196C10.4578 16.1495 10.3706 16.0827 10.3 16L6.8 12.5C6.66752 12.3578 6.5954 12.1698 6.59883 11.9755C6.60226 11.7812 6.68097 11.5958 6.81838 11.4584C6.9558 11.321 7.14118 11.2423 7.33548 11.2388C7.52978 11.2354 7.71783 11.3075 7.86 11.44L10.78 14.36L16.09 8C16.1557 7.92449 16.2356 7.86265 16.3251 7.81802C16.4147 7.77338 16.5121 7.74682 16.612 7.73986C16.7118 7.7329 16.812 7.74566 16.9069 7.77743C17.0018 7.80919 17.0895 7.85934 17.165 7.925C17.2405 7.99066 17.3024 8.07055 17.347 8.16011C17.3916 8.24967 17.4182 8.34714 17.4251 8.44697C17.4321 8.54679 17.4193 8.64701 17.3876 8.7419C17.3558 8.83679 17.3057 8.92449 17.24 9Z" fill="#06402B"/>
</svg>
