<svg width="40" height="40" viewBox="0 0 40 40" fill="none" xmlns="http://www.w3.org/2000/svg">
<g clip-path="url(#clip0_616_96)">
<path d="M40 20C40 8.9543 31.0457 0 20 0C8.9543 0 0 8.9543 0 20C0 31.0457 8.9543 40 20 40C31.0457 40 40 31.0457 40 20Z" fill="#E3F7C8" fill-opacity="0.5"/>
<mask id="mask0_616_96" style="mask-type:luminance" maskUnits="userSpaceOnUse" x="9" y="9" width="22" height="22">
<path d="M31 9H9V31H31V9Z" fill="white"/>
</mask>
<g mask="url(#mask0_616_96)">
<path fill-rule="evenodd" clip-rule="evenodd" d="M22.54 9.29455C27.3907 10.4418 31 14.7997 31 20.0001C31 25.6535 26.7352 30.311 21.2475 30.9302C20.8786 30.9049 20.5126 30.8473 20.1537 30.7581C19.0191 30.4724 18.1119 29.8665 17.4797 28.8658C15.6624 25.9886 16.7382 23.3376 20.34 20.5087C24.4003 17.3197 25.7452 14.0051 23.4954 10.4427C23.2297 10.019 22.9085 9.63266 22.54 9.29455ZM17.2989 30.6659C12.5297 29.4617 9 25.1433 9 20.0001C9 14.362 13.2415 9.71514 18.7078 9.0752C19.054 9.10367 19.3953 9.15803 19.7269 9.2415C20.8619 9.52717 21.7691 10.1331 22.4012 11.1341C24.2182 14.0109 23.1424 16.6619 19.5406 19.4909C15.4806 22.6799 14.1357 25.9945 16.3855 29.5569C16.6411 29.9642 16.948 30.337 17.2989 30.6659Z" fill="#06402B"/>
</g>
</g>
<defs>
<clipPath id="clip0_616_96">
<rect width="40" height="40" fill="white"/>
</clipPath>
</defs>
</svg>
