<svg width="40" height="40" viewBox="0 0 40 40" fill="none" xmlns="http://www.w3.org/2000/svg">
<rect width="40" height="40" rx="20" fill="#E3F7C8" fill-opacity="0.5"/>
<g clip-path="url(#clip0_114_688)">
<path fill-rule="evenodd" clip-rule="evenodd" d="M22.54 9.29443C27.3907 10.4417 31 14.7996 31 20C31 25.6534 26.7352 30.3109 21.2475 30.9301C20.8786 30.9048 20.5126 30.8472 20.1537 30.758C19.0191 30.4723 18.1119 29.8664 17.4797 28.8657C15.6624 25.9885 16.7382 23.3375 20.34 20.5086C24.4003 17.3196 25.7452 14.005 23.4954 10.4426C23.2297 10.0189 22.9082 9.63286 22.5397 9.29475L22.54 9.29443ZM17.2989 30.6658C12.5297 29.4616 9 25.1432 9 20C9 14.3619 13.2415 9.71501 18.7078 9.07507C19.054 9.10354 19.3953 9.1579 19.7269 9.24137C20.8619 9.52704 21.7691 10.133 22.4012 11.134C24.2182 14.0108 23.1424 16.6618 19.5406 19.4908C15.4806 22.6798 14.1357 25.9944 16.3855 29.5568C16.6411 29.9641 16.948 30.3369 17.2989 30.6658Z" fill="url(#paint0_linear_114_688)"/>
</g>
<defs>
<linearGradient id="paint0_linear_114_688" x1="39.7872" y1="52.5424" x2="-10.4639" y2="46.6655" gradientUnits="userSpaceOnUse">
<stop stop-color="#06402B"/>
<stop offset="1" stop-color="#E2F163"/>
</linearGradient>
<clipPath id="clip0_114_688">
<rect width="22" height="22" fill="white" transform="translate(9 9)"/>
</clipPath>
</defs>
</svg>
