<svg width="36" height="24" viewBox="0 0 36 24" fill="none" xmlns="http://www.w3.org/2000/svg">
<g clip-path="url(#clip0_85_382)">
<path d="M10.435 5.01324C11.2608 3.25397 10.5033 1.15917 8.74333 0.333933C6.98337 -0.491304 4.88753 0.265587 4.06183 2.02486C3.5674 3.07829 3.64117 4.252 4.15759 5.20156C4.28297 5.24156 4.40564 5.29611 4.52187 5.36974L7.1671 7.03625C8.51808 7.06667 9.82427 6.3146 10.435 5.01324ZM10.9574 5.48181C10.2358 6.3682 10.0006 7.9393 10.9379 9.41187L11.54 9.79119L11.8293 7.88075C11.9475 7.09992 12.6321 6.51104 13.4214 6.51104C13.5019 6.51104 13.5834 6.51715 13.6634 6.52921C14.5422 6.66213 15.1487 7.48465 15.0158 8.36266L14.5157 11.6658L18.1901 13.9807C18.2807 14.0381 18.3535 14.1094 18.4084 14.1928C18.5506 14.0507 18.7257 13.973 18.9289 13.973H27.584C28.2175 13.973 28.7635 14.3494 29.0137 14.8895L29.0359 14.8905L32.2363 22.6466C32.5475 23.4007 33.2764 23.8565 34.0448 23.8565C34.2932 23.8565 34.5457 23.8088 34.7896 23.7083C35.7881 23.2968 36.2635 22.1541 35.8518 21.1562L32.1763 12.2484C31.8865 11.5458 31.2155 11.075 30.4559 11.041L22.0103 10.6631C21.839 10.585 21.65 10.5048 21.4398 10.421C18.8519 9.6056 16.7813 7.05892 14.9811 5.74156C13.7622 4.67449 11.8257 4.41484 10.9574 5.48181ZM8.3663 17.2632L10.6293 12.9413L10.8476 12.5243L11.102 12.6846L11.4634 10.2974L4.27068 5.76598C3.75656 5.44039 3.0694 5.59445 2.74366 6.10831C2.41791 6.62218 2.57207 7.30902 3.08618 7.6346L9.52003 11.6879L9.3017 12.1049L6.6008 17.2632H3.27525C1.94508 17.2632 0.862846 18.3449 0.862846 19.6745V22.4363H0V24H3.29008V22.4363H2.42724V19.6745C2.42724 19.2071 2.80763 18.8269 3.27527 18.8269H11.2088L11.1057 17.2632H8.3663Z" fill="black"/>
<path d="M27.523 18.8267C27.9906 18.8267 28.371 19.2069 28.371 19.6743V22.4362H27.5082V23.9998H30.7984V22.4362H29.9354V19.6743C29.9354 18.3448 28.8532 17.2631 27.523 17.2631H14.3352L14.4383 18.8267H27.523ZM27.584 14.4419H18.9289C18.3202 14.4419 18.3202 16.654 18.9289 16.654H27.584C28.1926 16.654 28.6906 16.1563 28.6906 15.548C28.6906 14.9396 28.1926 14.4419 27.584 14.4419ZM17.9388 14.3768L14.439 12.1719L14.1328 14.1942L14.1603 14.6112L16.7543 16.2454C17.2685 16.571 18.453 14.7024 17.9388 14.3768ZM11.3551 21.0449H10.5736V19.7989C10.5736 19.5468 10.3672 19.3406 10.1151 19.3406H9.12058C8.86836 19.3406 8.66211 19.5468 8.66211 19.7989V23.2246C8.66211 23.4767 8.86836 23.6829 9.12058 23.6829H10.1151C10.3672 23.6829 10.5736 23.4767 10.5736 23.2246V21.9786H11.5211C11.443 21.8068 11.3929 21.6193 11.3799 21.4212L11.3551 21.0449Z" fill="black"/>
<path d="M14.4549 21.9787H15.2269V23.2247C15.2269 23.4768 15.4333 23.683 15.6855 23.683H16.6799C16.9321 23.683 17.1385 23.4768 17.1385 23.2247V19.799C17.1385 19.5469 16.9321 19.3407 16.6799 19.3407H15.6855C15.4333 19.3407 15.2269 19.5469 15.2269 19.799V21.045H14.5843L14.5952 21.2094C14.6132 21.4829 14.5611 21.745 14.4549 21.9787ZM13.7709 14.179L14.6596 8.30874C14.763 7.62563 14.2928 6.98813 13.6095 6.88475C12.9258 6.78184 12.2882 7.25138 12.1847 7.93448L11.2758 13.9388C11.2623 14.0279 11.2585 14.1183 11.2644 14.2082L11.7387 21.3976C11.7822 22.059 12.3325 22.5663 12.9862 22.5663C13.0138 22.5663 13.0418 22.5654 13.0697 22.5636C13.7594 22.5181 14.2817 21.9224 14.2362 21.233L13.7709 14.179Z" fill="black"/>
</g>
<defs>
<clipPath id="clip0_85_382">
<rect width="36" height="24" fill="white"/>
</clipPath>
</defs>
</svg>
