<svg width="15" height="16" viewBox="0 0 15 16" fill="none" xmlns="http://www.w3.org/2000/svg">
<g clip-path="url(#clip0_112_566)">
<path d="M10.6152 13.8813L10.4056 14.738C9.77684 14.9862 9.27458 15.1751 8.90058 15.3049C8.52618 15.4352 8.09114 15.5 7.59547 15.5C6.8343 15.5 6.24224 15.3135 5.81997 14.9432C5.39771 14.5713 5.18651 14.1001 5.18651 13.5285C5.18651 13.3072 5.20184 13.0796 5.2337 12.8477C5.26583 12.6155 5.31691 12.3541 5.38682 12.0618L6.1726 9.28057C6.24251 9.01426 6.30193 8.76192 6.34952 8.52329C6.39778 8.28615 6.42104 8.06796 6.42104 7.87155C6.42104 7.51637 6.3475 7.26793 6.2011 7.12825C6.0547 6.98897 5.77534 6.91826 5.36061 6.91826C5.15747 6.91826 4.94869 6.95079 4.73588 7.01371C4.52213 7.07689 4.33943 7.13793 4.18604 7.19466L4.39616 6.33722C4.91092 6.12764 5.40295 5.94817 5.87361 5.79921C6.34428 5.64985 6.78899 5.57511 7.20964 5.57511C7.96558 5.57511 8.5489 5.7578 8.95852 6.1232C9.36815 6.48887 9.5729 6.96289 9.5729 7.54702C9.5729 7.66787 9.55945 7.88082 9.53055 8.18519C9.50232 8.49022 9.44975 8.76972 9.37313 9.02393L8.59071 11.794C8.52658 12.0165 8.46891 12.2708 8.41876 12.5571C8.367 12.8414 8.34227 13.0586 8.34227 13.2044C8.34227 13.5722 8.42427 13.8233 8.58869 13.9568C8.75432 14.0903 9.03959 14.1567 9.44478 14.1567C9.63501 14.1567 9.85145 14.123 10.092 14.0567C10.3318 13.9904 10.5067 13.9322 10.6152 13.8813ZM10.8136 2.25171C10.8136 2.73433 10.6317 3.14651 10.2662 3.48543C9.90159 3.82555 9.46226 3.99575 8.94831 3.99575C8.43274 3.99575 7.99233 3.82555 7.62357 3.48543C7.25549 3.14638 7.07104 2.73433 7.07104 2.25171C7.07104 1.77002 7.25549 1.35717 7.62357 1.01395C7.99166 0.671272 8.43288 0.5 8.94831 0.5C9.46212 0.5 9.90159 0.671675 10.2662 1.01395C10.632 1.35717 10.8136 1.77015 10.8136 2.25171Z" fill="url(#paint0_linear_112_566)"/>
</g>
<defs>
<linearGradient id="paint0_linear_112_566" x1="13.4608" y1="30.3333" x2="-1.84424" y2="29.5477" gradientUnits="userSpaceOnUse">
<stop stop-color="#06402B"/>
<stop offset="1" stop-color="#E2F163"/>
</linearGradient>
<clipPath id="clip0_112_566">
<rect width="15" height="15" fill="white" transform="translate(0 0.5)"/>
</clipPath>
</defs>
</svg>
