<svg width="15" height="16" viewBox="0 0 15 16" fill="none" xmlns="http://www.w3.org/2000/svg">
<g clip-path="url(#clip0_616_75)">
<mask id="mask0_616_75" style="mask-type:luminance" maskUnits="userSpaceOnUse" x="0" y="0" width="15" height="16">
<path d="M15 0.5H0V15.5H15V0.5Z" fill="white"/>
</mask>
<g mask="url(#mask0_616_75)">
<path d="M10.6157 13.8813L10.4061 14.738C9.77732 14.9862 9.27506 15.1751 8.90106 15.3049C8.52666 15.4352 8.09162 15.5 7.59595 15.5C6.83478 15.5 6.24272 15.3135 5.82045 14.9432C5.39819 14.5713 5.18699 14.1001 5.18699 13.5285C5.18699 13.3072 5.20232 13.0796 5.23418 12.8477C5.26631 12.6155 5.31739 12.3541 5.3873 12.0618L6.17308 9.28057C6.24299 9.01426 6.30241 8.76192 6.35 8.52329C6.39826 8.28615 6.42152 8.06796 6.42152 7.87155C6.42152 7.51637 6.34798 7.26793 6.20158 7.12825C6.05518 6.98897 5.77582 6.91826 5.36109 6.91826C5.15795 6.91826 4.94917 6.95079 4.73636 7.01371C4.52261 7.07689 4.33991 7.13793 4.18652 7.19466L4.39664 6.33722C4.9114 6.12764 5.40343 5.94817 5.87409 5.79921C6.34476 5.64985 6.78947 5.57511 7.21012 5.57511C7.96606 5.57511 8.54938 5.7578 8.959 6.1232C9.36863 6.48887 9.57338 6.96289 9.57338 7.54702C9.57338 7.66787 9.55993 7.88082 9.53103 8.18519C9.5028 8.49022 9.45023 8.76972 9.37361 9.02393L8.59119 11.794C8.52706 12.0165 8.46939 12.2708 8.41924 12.5571C8.36748 12.8414 8.34275 13.0586 8.34275 13.2044C8.34275 13.5722 8.42475 13.8233 8.58917 13.9568C8.7548 14.0903 9.04007 14.1567 9.44526 14.1567C9.63549 14.1567 9.85193 14.123 10.0925 14.0567C10.3323 13.9904 10.5072 13.9322 10.6157 13.8813ZM10.8141 2.25171C10.8141 2.73433 10.6322 3.14651 10.2667 3.48543C9.90207 3.82555 9.46274 3.99575 8.94879 3.99575C8.43322 3.99575 7.99281 3.82555 7.62405 3.48543C7.25597 3.14638 7.07152 2.73433 7.07152 2.25171C7.07152 1.77002 7.25597 1.35717 7.62405 1.01395C7.99214 0.671272 8.43336 0.5 8.94879 0.5C9.4626 0.5 9.90207 0.671675 10.2667 1.01395C10.6325 1.35717 10.8141 1.77015 10.8141 2.25171Z" fill="#06402B"/>
</g>
</g>
<defs>
<clipPath id="clip0_616_75">
<rect width="15" height="16" fill="white"/>
</clipPath>
</defs>
</svg>
