<svg width="30" height="30" viewBox="0 0 30 30" fill="none" xmlns="http://www.w3.org/2000/svg">
<path d="M22.5 0H7.5C3.36 0 0 3.36 0 7.5V22.5C0 26.64 3.36 30 7.5 30H22.5C26.64 30 30 26.64 30 22.5V7.5C30 3.36 26.64 0 22.5 0ZM15 22.5C10.86 22.5 7.5 19.14 7.5 15C7.5 10.86 10.86 7.5 15 7.5C19.14 7.5 22.5 10.86 22.5 15C22.5 19.14 19.14 22.5 15 22.5ZM23.025 8.43C22.2 8.43 21.525 7.755 21.525 6.93C21.525 6.105 22.2 5.43 23.025 5.43C23.85 5.43 24.525 6.105 24.525 6.93C24.525 7.755 23.85 8.43 23.025 8.43Z" fill="url(#paint0_linear_484_40)"/>
<path d="M15 19.5C17.4853 19.5 19.5 17.4853 19.5 15C19.5 12.5147 17.4853 10.5 15 10.5C12.5147 10.5 10.5 12.5147 10.5 15C10.5 17.4853 12.5147 19.5 15 19.5Z" fill="url(#paint1_linear_484_40)"/>
<defs>
<linearGradient id="paint0_linear_484_40" x1="36.7444" y1="7.27857" x2="-4.06279" y2="26.9073" gradientUnits="userSpaceOnUse">
<stop offset="0.17" stop-color="#06402B"/>
<stop offset="1" stop-color="#E2F163"/>
</linearGradient>
<linearGradient id="paint1_linear_484_40" x1="21.5233" y1="12.6836" x2="9.28116" y2="18.5722" gradientUnits="userSpaceOnUse">
<stop offset="0.17" stop-color="#06402B"/>
<stop offset="1" stop-color="#E2F163"/>
</linearGradient>
</defs>
</svg>
