<svg width="40" height="41" viewBox="0 0 40 41" fill="none" xmlns="http://www.w3.org/2000/svg">
<path d="M36.4241 16.7332H27.027C30.6861 11.6604 29.605 6.58762 29.7713 4.7581V4.67494C29.7713 2.42962 28.0249 0.600098 25.7796 0.600098C23.0353 0.600098 22.1206 2.92858 21.2058 5.34022C20.1247 8.16767 18.711 11.7435 14.0541 13.9889L11.0603 15.5689V15.4026C11.0603 14.4878 10.3119 13.7394 9.39709 13.7394H4.158C1.82952 13.7394 0 15.5689 0 17.8974V35.7768C0 38.1053 1.82952 39.9348 4.158 39.9348H9.39709C10.3119 39.9348 11.0603 39.1864 11.0603 38.2716V38.1885C12.474 38.5211 13.6383 38.8537 14.7193 39.1032C17.8794 39.9348 20.2079 40.6001 23.5343 40.6001H32.3493C34.262 40.6001 35.842 39.0201 35.842 37.0242C35.842 36.1926 35.5925 35.4442 35.0936 34.8621C36.4241 34.3631 37.3389 33.0325 37.3389 31.5357C37.3389 30.704 37.0894 29.9556 36.5904 29.3735C37.921 28.8745 38.8358 27.544 38.8358 26.0471C38.8358 25.1323 38.5031 24.3839 38.0042 23.7186C39.1684 23.1365 40 21.8891 40 20.4754C39.9168 18.3132 38.3368 16.7332 36.4241 16.7332ZM4.158 38.1885C2.74428 38.1885 1.6632 37.1074 1.6632 35.6937V17.8142C1.6632 16.4005 2.74428 15.3194 4.158 15.3194H9.39709V16.8163V37.0242V38.1053H4.158V38.1885ZM36.4241 22.2217C36.341 22.2217 31.4345 22.2217 31.5177 22.2217C31.0187 22.2217 30.6861 22.5544 30.6861 23.0533C30.6861 23.5523 31.0187 23.8849 31.5177 23.8849H35.2599C36.2578 23.8849 37.0894 24.7165 37.0894 25.7976C37.0894 26.8787 36.2578 27.7103 35.2599 27.7103C34.6778 27.7103 29.8545 27.7103 30.0208 27.7103C29.5218 27.7103 29.1892 28.0429 29.1892 28.5419C29.1892 29.0408 29.5218 29.3735 30.0208 29.3735C30.2703 29.3735 33.8462 29.3735 33.763 29.3735C34.7609 29.3735 35.5925 30.2051 35.5925 31.2862C35.5925 32.3673 34.7609 33.1989 33.763 33.1989C33.1809 33.1989 28.3576 33.1989 28.5239 33.1989C28.0249 33.1989 27.6923 33.5315 27.6923 34.0305C27.6923 35.4442 29.7713 34.6957 32.2661 34.8621C33.264 34.8621 34.0956 35.6937 34.0956 36.7747C34.0956 37.8558 33.264 38.8537 32.2661 38.8537H23.4511C20.2911 38.8537 18.2121 38.2716 15.052 37.44C13.8877 37.1074 12.5572 36.7747 10.9771 36.3589V17.3984L14.8025 15.5689C20.0416 12.991 21.6216 8.91611 22.7859 6.0055C23.7838 3.5107 24.2827 2.34646 25.7796 2.34646C27.027 2.34646 28.0249 3.42754 28.1081 4.67494C27.9418 6.75394 28.9397 11.2446 25.6133 15.8184L24.6985 17.0658C24.2827 17.5648 24.6985 18.3964 25.3638 18.3964H36.4241C37.422 18.3964 38.2536 19.228 38.2536 20.309C38.2536 21.3901 37.422 22.2217 36.4241 22.2217Z" fill="black"/>
</svg>
