<svg width="40" height="40" viewBox="0 0 40 40" fill="none" xmlns="http://www.w3.org/2000/svg">
<rect width="40" height="40" rx="20" fill="#E3F7C8" fill-opacity="0.5"/>
<g clip-path="url(#clip0_114_667)">
<path fill-rule="evenodd" clip-rule="evenodd" d="M15.0553 28.6941C14.9766 28.6493 14.9093 28.587 14.8587 28.5119C14.808 28.4368 14.7754 28.3511 14.7633 28.2613C14.7513 28.1716 14.7601 28.0803 14.7891 27.9945C14.8181 27.9087 14.8665 27.8308 14.9306 27.7668L27.7668 14.9306C27.8308 14.8666 27.9087 14.8182 27.9944 14.7892C28.0802 14.7603 28.1715 14.7515 28.2612 14.7635C28.3509 14.7756 28.4366 14.8082 28.5116 14.8588C28.5867 14.9094 28.649 14.9767 28.6938 15.0553C29.5524 16.5617 30.0026 18.2662 30 20C30 25.523 25.523 30 20 30C18.2662 30.0027 16.5617 29.5526 15.0553 28.6941ZM11.3062 24.9444C10.4477 23.4381 9.99746 21.7338 10 20C10 14.4771 14.4771 10 20 10C21.7338 9.99732 23.4383 10.4475 24.9447 11.3059C25.0234 11.3507 25.0907 11.4131 25.1413 11.4881C25.192 11.5632 25.2246 11.6489 25.2367 11.7387C25.2487 11.8284 25.2399 11.9198 25.2109 12.0055C25.1819 12.0913 25.1335 12.1692 25.0694 12.2332L12.2332 25.0694C12.1692 25.1334 12.0913 25.1818 12.0056 25.2108C11.9198 25.2398 11.8286 25.2486 11.7389 25.2365C11.6492 25.2244 11.5634 25.1918 11.4884 25.1412C11.4134 25.0906 11.351 25.0231 11.3062 24.9444Z" fill="url(#paint0_linear_114_667)"/>
</g>
<defs>
<linearGradient id="paint0_linear_114_667" x1="37.9884" y1="49.7778" x2="-7.70253" y2="44.4695" gradientUnits="userSpaceOnUse">
<stop stop-color="#06402B"/>
<stop offset="1" stop-color="#E2F163"/>
</linearGradient>
<clipPath id="clip0_114_667">
<rect width="20" height="20" fill="white" transform="translate(10 10)"/>
</clipPath>
</defs>
</svg>
