<svg width="24" height="24" viewBox="0 0 24 24" fill="none" xmlns="http://www.w3.org/2000/svg">
<path d="M21.7495 12.0375C19.8425 11.3555 18.1914 10.1035 17.0201 8.45123C15.8489 6.79898 15.2141 4.82646 15.202 2.80121C15.2018 2.53276 15.2131 2.26725 15.232 2.00996C13.1925 1.35501 11.0024 1.3341 8.95077 1.94999C9.72355 7.1063 6.44915 12.2608 1.60449 13.4662C1.79786 14.8408 2.26242 16.1632 2.9712 17.3568C3.67998 18.5503 4.61885 19.5911 5.73327 20.4187C6.55536 19.5349 7.54815 18.827 8.65163 18.3377C9.7551 17.8485 10.9463 17.5882 12.1533 17.5725C13.3281 17.5854 14.4885 17.8321 15.5669 18.2983C16.6454 18.7644 17.6202 19.4406 18.4345 20.2875C19.6635 19.3368 20.6653 18.1244 21.3671 16.7382C22.069 15.3521 22.4533 13.827 22.492 12.2737C22.2408 12.2062 21.9933 12.1275 21.7495 12.0375ZM12.142 16.3687C10.9837 16.3676 9.87318 15.9069 9.05413 15.0879C8.23508 14.2688 7.77443 13.1583 7.77327 12C8.01232 6.20382 16.275 6.20566 16.5108 12C16.5103 13.1585 16.0498 14.2694 15.2306 15.0886C14.4114 15.9078 13.3005 16.3682 12.142 16.3687Z" fill="#231F20"/>
<path d="M12.1538 18.3226C10.2283 18.3395 8.37347 19.0505 6.93007 20.3251C6.73506 20.4901 6.54756 20.6626 6.36381 20.8501C8.07779 21.947 10.0745 22.5202 12.1093 22.4995C14.1441 22.4789 16.1287 21.8653 17.8201 20.7338C16.3222 19.2157 14.2863 18.3494 12.1538 18.3226ZM21.7201 11.2276C21.9676 11.3288 22.2263 11.4151 22.4851 11.4938C22.3881 9.49704 21.7233 7.56939 20.5688 5.9373C19.4143 4.30521 17.8181 3.03646 15.9676 2.28008C15.8703 4.18572 16.373 6.0739 17.4049 7.67892C18.4368 9.28395 19.946 10.525 21.7201 11.2276ZM8.30631 3.44633C8.30768 3.03116 8.28011 2.61641 8.22381 2.20508C6.24603 2.96925 4.54553 4.31361 3.34558 6.06168C2.14563 7.80974 1.5023 9.87979 1.50007 12.0001C1.47334 12.8569 1.50672 12.7537 2.26138 12.4762C5.83881 11.1413 8.30631 7.56008 8.30631 3.44633ZM12.1426 8.38133C11.1832 8.38255 10.2635 8.7642 9.58507 9.44258C8.90669 10.121 8.52503 11.0407 8.52382 12.0001C8.72315 16.8007 15.5627 16.7993 15.7613 12.0001C15.7601 11.0407 15.3785 10.1209 14.7001 9.44256C14.0217 8.76419 13.1019 8.38254 12.1426 8.38133Z" fill="#231F20"/>
</svg>
