<svg width="40" height="40" viewBox="0 0 40 40" fill="none" xmlns="http://www.w3.org/2000/svg">
<g clip-path="url(#clip0_114_680)">
<rect width="40" height="40" rx="20" fill="#E3F7C8" fill-opacity="0.5"/>
<path fill-rule="evenodd" clip-rule="evenodd" d="M29.852 26.8527C29.793 26.9374 29.7161 27.0081 29.6268 27.0598C29.5376 27.1116 29.438 27.1432 29.3352 27.1523C29.2324 27.1614 29.1288 27.1479 29.0318 27.1126C28.9348 27.0774 28.8467 27.0213 28.7738 26.9483L22.3245 20.4991C22.1921 20.3667 22.1178 20.1872 22.1178 20C22.1178 19.8128 22.1921 19.6333 22.3245 19.5009L28.7738 13.0517C28.8467 12.9787 28.9348 12.9226 29.0318 12.8873C29.1288 12.852 29.2323 12.8385 29.3351 12.8476C29.4379 12.8566 29.5375 12.8882 29.6268 12.9399C29.7161 12.9916 29.793 13.0623 29.852 13.1469C31.2539 15.1569 32.0038 17.5494 32 20C32 22.4847 31.2426 24.8572 29.852 26.8527ZM10.148 13.1473C10.207 13.0626 10.2839 12.9919 10.3732 12.9402C10.4624 12.8884 10.562 12.8568 10.6648 12.8477C10.7676 12.8386 10.8712 12.8521 10.9682 12.8874C11.0652 12.9226 11.1533 12.9787 11.2262 13.0517L17.6755 19.5009C17.8079 19.6333 17.8822 19.8128 17.8822 20C17.8822 20.1872 17.8079 20.3667 17.6755 20.4991L11.2262 26.9483C11.1533 27.0213 11.0652 27.0774 10.9682 27.1127C10.8712 27.148 10.7677 27.1615 10.6649 27.1524C10.5621 27.1434 10.4625 27.1118 10.3732 27.0601C10.2839 27.0084 10.207 26.9377 10.148 26.8531C8.74606 24.8431 7.99617 22.4506 8.00001 20C8.00001 17.5153 8.75743 15.1428 10.148 13.1473ZM26.8527 29.852C24.8428 31.2539 22.4505 32.0038 20 32C17.5495 32.0038 15.1572 31.2539 13.1473 29.852C13.0626 29.793 12.9919 29.7161 12.9402 29.6268C12.8884 29.5376 12.8568 29.438 12.8477 29.3352C12.8386 29.2324 12.8521 29.1288 12.8874 29.0318C12.9226 28.9348 12.9787 28.8467 13.0517 28.7738L19.5009 22.3245C19.6333 22.1921 19.8128 22.1178 20 22.1178C20.1872 22.1178 20.3667 22.1921 20.4991 22.3245L26.9483 28.7738C27.0213 28.8467 27.0774 28.9348 27.1127 29.0318C27.148 29.1288 27.1615 29.2323 27.1524 29.3351C27.1434 29.4379 27.1118 29.5375 27.0601 29.6268C27.0084 29.7161 26.9374 29.793 26.8527 29.852ZM13.1473 10.148C15.1572 8.74613 17.5495 7.99624 20 8.00001C22.4847 8.00001 24.8572 8.75742 26.8527 10.148C26.9374 10.207 27.0081 10.2839 27.0598 10.3732C27.1116 10.4624 27.1432 10.562 27.1523 10.6648C27.1614 10.7676 27.1479 10.8711 27.1126 10.9682C27.0774 11.0652 27.0213 11.1533 26.9483 11.2262L20.4991 17.6755C20.3667 17.8079 20.1872 17.8822 20 17.8822C19.8128 17.8822 19.6333 17.8079 19.5009 17.6755L13.0517 11.2262C12.9787 11.1533 12.9226 11.0652 12.8873 10.9682C12.852 10.8712 12.8385 10.7677 12.8476 10.6649C12.8566 10.5621 12.8882 10.4625 12.9399 10.3732C12.9916 10.2839 13.0626 10.207 13.1473 10.148Z" fill="url(#paint0_linear_114_680)"/>
</g>
<defs>
<linearGradient id="paint0_linear_114_680" x1="41.586" y1="55.7333" x2="-13.243" y2="49.3634" gradientUnits="userSpaceOnUse">
<stop stop-color="#06402B"/>
<stop offset="1" stop-color="#E2F163"/>
</linearGradient>
<clipPath id="clip0_114_680">
<rect width="40" height="40" rx="20" fill="white"/>
</clipPath>
</defs>
</svg>
