<svg width="20" height="20" viewBox="0 0 20 20" fill="none" xmlns="http://www.w3.org/2000/svg">
<path d="M0.194765 9.61967L10.4496 2.23221C10.5196 2.18177 10.6022 2.15164 10.6882 2.14513C10.7743 2.13863 10.8604 2.15599 10.9373 2.19532C11.0141 2.23465 11.0785 2.29442 11.1235 2.36804C11.1685 2.44166 11.1923 2.52627 11.1923 2.61256V6.51928H19.5312C19.6556 6.51928 19.7748 6.56866 19.8627 6.65657C19.9506 6.74448 20 6.86371 20 6.98803V13.012C20 13.1363 19.9506 13.2556 19.8627 13.3435C19.7748 13.4314 19.6556 13.4808 19.5312 13.4808H11.1923V17.3875C11.1923 17.4738 11.1685 17.5584 11.1235 17.632C11.0785 17.7056 11.014 17.7654 10.9372 17.8047C10.8604 17.844 10.7743 17.8614 10.6882 17.8549C10.6022 17.8484 10.5196 17.8182 10.4496 17.7678L0.194765 10.3803C0.134486 10.3369 0.0853929 10.2798 0.0515318 10.2136C0.0176707 10.1475 1.19209e-05 10.0743 1.19209e-05 10C1.19209e-05 9.92571 0.0176707 9.85248 0.0515318 9.78635C0.0853929 9.72023 0.134486 9.66309 0.194765 9.61967ZM10.2548 16.4721V13.012C10.2548 12.8877 10.3042 12.7685 10.3921 12.6806C10.48 12.5926 10.5993 12.5433 10.7236 12.5433H19.0625V7.45678H10.7236C10.5993 7.45678 10.48 7.40739 10.3921 7.31948C10.3042 7.23158 10.2548 7.11235 10.2548 6.98803V3.52795L1.2707 10L10.2548 16.4721Z" fill="white"/>
</svg>
