<svg width="150" height="50" viewBox="0 0 150 50" fill="none" xmlns="http://www.w3.org/2000/svg">
<rect width="150" height="50" rx="6" fill="black"/>
<path d="M19.8048 22.4617L10.0896 33.0059C10.0905 33.0078 10.0905 33.0106 10.0914 33.0125C10.3898 34.1574 11.4118 35 12.6254 35C13.1108 35 13.5662 34.8656 13.9567 34.6305L13.9877 34.6118L24.9229 28.1593L19.8048 22.4617Z" fill="#EA4335"/>
<path d="M29.633 20.6662L29.6239 20.6597L24.9027 17.8612L19.5839 22.7013L24.9219 28.1582L29.6175 25.3878C30.4406 24.9324 30.9999 24.045 30.9999 23.0223C30.9999 22.0052 30.4488 21.1225 29.633 20.6662Z" fill="#FBBC04"/>
<path d="M10.0894 12.9932C10.031 13.2135 10 13.4449 10 13.6838V32.3163C10 32.5552 10.031 32.7866 10.0903 33.0059L20.1386 22.7313L10.0894 12.9932Z" fill="#4285F4"/>
<path d="M19.8765 23L24.9043 17.8594L13.9819 11.3836C13.585 11.1401 13.1214 11.0001 12.6259 11.0001C11.4123 11.0001 10.3885 11.8446 10.0901 12.9904C10.0901 12.9914 10.0892 12.9923 10.0892 12.9932L19.8765 23Z" fill="#34A853"/>
<path d="M81.1568 18.3197H80.2368V11.1597H81.3568L84.8368 16.7297H84.8768L84.8368 15.3497V11.1597H85.7568V18.3197H84.7968L81.1568 12.4797H81.1168L81.1568 13.8597V18.3197Z" fill="white"/>
<path d="M79.151 14.74C79.151 15.8 78.7977 16.6867 78.091 17.4C77.3777 18.12 76.5043 18.48 75.471 18.48C74.431 18.48 73.5577 18.12 72.851 17.4C72.1443 16.6867 71.791 15.8 71.791 14.74C71.791 13.68 72.1443 12.7933 72.851 12.08C73.5577 11.36 74.431 11 75.471 11C76.511 11 77.3843 11.3633 78.091 12.09C78.7977 12.8033 79.151 13.6867 79.151 14.74ZM72.731 14.74C72.731 15.5667 72.991 16.25 73.511 16.79C74.0377 17.33 74.691 17.6 75.471 17.6C76.251 17.6 76.901 17.33 77.421 16.79C77.9477 16.2567 78.211 15.5733 78.211 14.74C78.211 13.9067 77.9477 13.2233 77.421 12.69C76.901 12.15 76.251 11.88 75.471 11.88C74.691 11.88 74.0377 12.15 73.511 12.69C72.991 13.23 72.731 13.9133 72.731 14.74Z" fill="white"/>
<path d="M67.1788 12.0397V18.3197H66.2588V12.0397H64.2588V11.1597H69.1788V12.0397H67.1788Z" fill="white"/>
<path d="M63.2955 18.3197H62.3755V11.1597H63.2955V18.3197Z" fill="white"/>
<path d="M57.2179 12.0397V18.3197H56.2979V12.0397H54.2979V11.1597H59.2179V12.0397H57.2179Z" fill="white"/>
<path d="M53.5379 11.1597V12.0397H50.2779V14.3097H53.2179V15.1697H50.2779V17.4397H53.5379V18.3197H49.3579V11.1597H53.5379Z" fill="white"/>
<path d="M48.24 15.03C48.24 16.03 47.9433 16.8267 47.35 17.42C46.6833 18.1267 45.8067 18.48 44.72 18.48C43.68 18.48 42.8 18.12 42.08 17.4C41.36 16.68 41 15.7933 41 14.74C41 13.6867 41.36 12.8 42.08 12.08C42.8 11.36 43.68 11 44.72 11C45.2467 11 45.7433 11.0933 46.21 11.28C46.6767 11.4667 47.06 11.73 47.36 12.07L46.7 12.73C46.48 12.4633 46.1933 12.2567 45.84 12.11C45.4933 11.9567 45.12 11.88 44.72 11.88C43.94 11.88 43.28 12.15 42.74 12.69C42.2067 13.2367 41.94 13.92 41.94 14.74C41.94 15.56 42.2067 16.2433 42.74 16.79C43.28 17.33 43.94 17.6 44.72 17.6C45.4333 17.6 46.0267 17.4 46.5 17C46.9733 16.6 47.2467 16.05 47.32 15.35H44.72V14.49H48.19C48.2233 14.6767 48.24 14.8567 48.24 15.03Z" fill="white"/>
<path d="M110.177 36.6916H112.136V23.4778H110.177V36.6916ZM127.822 28.2375L125.576 33.9666H125.509L123.178 28.2375H121.068L124.563 36.2445L122.571 40.6987H124.613L130 28.2375H127.822ZM116.712 35.1906C116.07 35.1906 115.175 34.8682 115.175 34.0681C115.175 33.0491 116.289 32.658 117.252 32.658C118.113 32.658 118.519 32.8451 119.042 33.0998C118.89 34.3239 117.843 35.1906 116.712 35.1906ZM116.949 27.949C115.53 27.949 114.061 28.5779 113.454 29.9721L115.192 30.7025C115.564 29.9721 116.256 29.7332 116.982 29.7332C117.995 29.7332 119.025 30.3452 119.042 31.434V31.5693C118.687 31.3653 117.928 31.0598 116.999 31.0598C115.125 31.0598 113.216 32.0967 113.216 34.0342C113.216 35.8026 114.753 36.9421 116.475 36.9421C117.793 36.9421 118.519 36.347 118.975 35.6494H119.042V36.6694H120.933V31.6031C120.933 29.2576 119.194 27.949 116.949 27.949ZM104.842 29.8463H102.056V25.317H104.842C106.306 25.317 107.138 26.5378 107.138 27.5811C107.138 28.6054 106.306 29.8463 104.842 29.8463ZM104.792 23.4778H100.098V36.6916H102.056V31.6855H104.792C106.963 31.6855 109.097 30.1021 109.097 27.5811C109.097 25.0601 106.963 23.4778 104.792 23.4778ZM79.1958 35.1927C77.8426 35.1927 76.7098 34.0522 76.7098 32.4857C76.7098 30.9023 77.8426 29.7438 79.1958 29.7438C80.5322 29.7438 81.58 30.9023 81.58 32.4857C81.58 34.0522 80.5322 35.1927 79.1958 35.1927ZM81.4456 28.9774H81.3773C80.9375 28.45 80.0924 27.9733 79.0268 27.9733C76.7938 27.9733 74.7477 29.9478 74.7477 32.4857C74.7477 35.0056 76.7938 36.9643 79.0268 36.9643C80.0924 36.9643 80.9375 36.4876 81.3773 35.9422H81.4456V36.5901C81.4456 38.3099 80.5322 39.2295 79.0604 39.2295C77.8594 39.2295 77.1151 38.3606 76.8106 37.6281L75.1025 38.3437C75.5928 39.536 76.8956 41 79.0604 41C81.3605 41 83.3059 39.6375 83.3059 36.3174V28.2449H81.4456V28.9774ZM84.6591 36.6916H86.6212V23.4767H84.6591V36.6916ZM89.5124 32.3324C89.462 30.5957 90.8489 29.71 91.8462 29.71C92.6252 29.71 93.2845 30.1011 93.5039 30.6634L89.5124 32.3324ZM95.6014 30.8336C95.2298 29.8294 94.096 27.9733 91.779 27.9733C89.4788 27.9733 87.5682 29.7945 87.5682 32.4688C87.5682 34.9887 89.4621 36.9643 91.9984 36.9643C94.0456 36.9643 95.2298 35.7043 95.7201 34.9718L94.1978 33.9497C93.6907 34.6991 92.9968 35.1927 91.9984 35.1927C91.0011 35.1927 90.2904 34.7329 89.8337 33.8313L95.804 31.3441L95.6014 30.8336ZM48.0359 29.3527V31.2596H52.568C52.4326 32.3324 52.0778 33.1157 51.5371 33.66C50.8768 34.3249 49.8448 35.0574 48.0359 35.0574C45.2444 35.0574 43.0629 32.7922 43.0629 29.9827C43.0629 27.1721 45.2444 24.9079 48.0359 24.9079C49.5414 24.9079 50.6405 25.5041 51.4521 26.2704L52.7885 24.9248C51.6547 23.835 50.1503 23 48.0359 23C44.2135 23 41 26.1341 41 29.9827C41 33.8313 44.2135 36.9643 48.0359 36.9643C50.0988 36.9643 51.6547 36.2825 52.8725 35.0056C54.1249 33.7457 54.5134 31.9752 54.5134 30.544C54.5134 30.1011 54.4798 29.6931 54.4115 29.3527H48.0359ZM59.6669 35.1927C58.3137 35.1927 57.1463 34.0691 57.1463 32.4688C57.1463 30.8505 58.3137 29.7438 59.6669 29.7438C61.0191 29.7438 62.1865 30.8505 62.1865 32.4688C62.1865 34.0691 61.0191 35.1927 59.6669 35.1927ZM59.6669 27.9733C57.1967 27.9733 55.1842 29.8632 55.1842 32.4688C55.1842 35.0574 57.1967 36.9643 59.6669 36.9643C62.1361 36.9643 64.1487 35.0574 64.1487 32.4688C64.1487 29.8632 62.1361 27.9733 59.6669 27.9733ZM69.444 35.1927C68.0907 35.1927 66.9233 34.0691 66.9233 32.4688C66.9233 30.8505 68.0907 29.7438 69.444 29.7438C70.7972 29.7438 71.9636 30.8505 71.9636 32.4688C71.9636 34.0691 70.7972 35.1927 69.444 35.1927ZM69.444 27.9733C66.9748 27.9733 64.9623 29.8632 64.9623 32.4688C64.9623 35.0574 66.9748 36.9643 69.444 36.9643C71.9132 36.9643 73.9257 35.0574 73.9257 32.4688C73.9257 29.8632 71.9132 27.9733 69.444 27.9733Z" fill="white"/>
</svg>
