<svg width="25" height="24" viewBox="0 0 25 24" fill="none" xmlns="http://www.w3.org/2000/svg">
<path d="M23.4413 8.59778L23.0001 8.15307L22.5025 8.65425L22.9472 9.09895C23.0101 9.1635 23.0538 9.24423 23.0735 9.33215C23.0933 9.42008 23.0882 9.51175 23.059 9.59698C23.0297 9.68221 22.9774 9.75765 22.9078 9.81491C22.8382 9.87216 22.7541 9.909 22.6648 9.92131L16.4848 10.1295C16.4096 10.1348 16.3342 10.1348 16.259 10.1295C16.2166 10.1295 16.1778 10.1295 16.139 10.1295L14.3742 8.36484C14.3619 8.23808 14.3619 8.11042 14.3742 7.98366L14.579 1.83542C14.5897 1.74499 14.6259 1.65947 14.6834 1.58886C14.7409 1.51824 14.8173 1.46543 14.9037 1.4366C14.9536 1.41956 15.0062 1.4112 15.059 1.41189C15.1243 1.41036 15.1892 1.42208 15.2499 1.44635C15.3105 1.47061 15.3657 1.50692 15.4119 1.55307L15.8601 2.00131L16.3472 1.50013L15.899 1.05895C15.7407 0.900878 15.5412 0.790611 15.3231 0.740806C15.1051 0.691001 14.8775 0.703676 14.6663 0.777378C14.4552 0.851079 14.2691 0.982819 14.1294 1.15748C13.9897 1.33214 13.9021 1.54265 13.8766 1.76484V1.81072L13.6719 7.92719C13.6613 8.06463 13.6613 8.20269 13.6719 8.34013L11.2648 10.7472L11.2472 10.7684L8.85778 13.1578H8.75542C8.66141 13.1516 8.56709 13.1516 8.47307 13.1578L2.32131 13.366H2.26484C2.04265 13.3915 1.83214 13.4791 1.65748 13.6188C1.48282 13.7585 1.35108 13.9446 1.27738 14.1557C1.20368 14.3669 1.191 14.5945 1.24081 14.8126C1.29061 15.0306 1.40088 15.2302 1.55895 15.3884L2.00366 15.8331L2.50131 15.3354L2.05307 14.9013C1.9887 14.8371 1.9439 14.7558 1.92391 14.6671C1.90391 14.5784 1.90954 14.4858 1.94013 14.4001C1.96851 14.3145 2.02081 14.2387 2.09085 14.1818C2.16089 14.1249 2.24576 14.0892 2.33542 14.079L8.51542 13.8707C8.59063 13.8654 8.6661 13.8654 8.74131 13.8707C8.78366 13.8707 8.82248 13.8707 8.86484 13.8707L10.6295 15.6354C10.6419 15.761 10.6419 15.8875 10.6295 16.0131L10.4248 22.1542C10.4131 22.2438 10.3766 22.3283 10.3196 22.3984C10.2626 22.4684 10.1872 22.5212 10.1019 22.5509C10.0165 22.5805 9.92465 22.5859 9.83646 22.5663C9.74827 22.5468 9.66726 22.5031 9.60248 22.4401L9.15778 21.9954L8.66013 22.4931L9.10131 22.9413C9.21012 23.053 9.34019 23.1417 9.48385 23.2024C9.62751 23.263 9.78185 23.2942 9.93778 23.2942C10.0701 23.2947 10.2015 23.272 10.326 23.2272C10.5399 23.1555 10.7288 23.024 10.8702 22.8482C11.0116 22.6724 11.0995 22.4597 11.1237 22.2354V22.1931L11.3284 16.0801C11.3389 15.9427 11.3389 15.8046 11.3284 15.6672L13.7354 13.2601L13.7566 13.239L16.139 10.8531H16.2448C16.3388 10.8594 16.4332 10.8594 16.5272 10.8531L22.679 10.6484H22.7354C22.9576 10.6229 23.1681 10.5353 23.3428 10.3956C23.5174 10.2559 23.6492 10.0698 23.7229 9.85866C23.7966 9.64751 23.8093 9.41985 23.7595 9.20182C23.7096 8.98379 23.5994 8.78422 23.4413 8.62601" fill="black"/>
<path d="M16.2059 3.47646L21.0235 8.29411C21.1346 8.40467 21.285 8.46674 21.4418 8.46674C21.5985 8.46674 21.7489 8.40467 21.86 8.29411L22.64 7.51764C22.7499 7.40548 22.8115 7.25469 22.8115 7.09764C22.8115 6.94059 22.7499 6.7898 22.64 6.67764L17.8223 1.85999C17.7102 1.75005 17.5594 1.68848 17.4023 1.68848C17.2453 1.68848 17.0945 1.75005 16.9823 1.85999L16.2059 2.63999C16.0953 2.7511 16.0332 2.90148 16.0332 3.05823C16.0332 3.21498 16.0953 3.36535 16.2059 3.47646ZM8.79411 20.5235L3.97646 15.7059C3.92168 15.6507 3.85652 15.6069 3.78474 15.577C3.71296 15.5472 3.63598 15.5318 3.55823 15.5318C3.48048 15.5318 3.40349 15.5472 3.33171 15.577C3.25993 15.6069 3.19478 15.6507 3.13999 15.7059L2.35999 16.4823C2.25005 16.5945 2.18848 16.7453 2.18848 16.9023C2.18848 17.0594 2.25005 17.2102 2.35999 17.3223L7.17764 22.14C7.2898 22.2499 7.44059 22.3115 7.59764 22.3115C7.75469 22.3115 7.90548 22.2499 8.01764 22.14L8.79411 21.36C8.90467 21.2489 8.96674 21.0985 8.96674 20.9418C8.96674 20.785 8.90467 20.6346 8.79411 20.5235Z" fill="black"/>
</svg>
