<svg width="20" height="20" viewBox="0 0 20 20" fill="none" xmlns="http://www.w3.org/2000/svg">
<path d="M19.8052 9.61967L9.55039 2.23221C9.48038 2.18177 9.3978 2.15164 9.31176 2.14513C9.22572 2.13863 9.13955 2.15599 9.06275 2.19532C8.98594 2.23465 8.92149 2.29442 8.87648 2.36804C8.83147 2.44166 8.80765 2.52627 8.80766 2.61256V6.51928H0.46875C0.34443 6.51928 0.225201 6.56866 0.137294 6.65657C0.049386 6.74448 0 6.86371 0 6.98803L0 13.012C0 13.1363 0.049386 13.2556 0.137294 13.3435C0.225201 13.4314 0.34443 13.4808 0.46875 13.4808H8.80766V17.3875C8.80766 17.4738 8.83148 17.5584 8.87649 17.632C8.92151 17.7056 8.98596 17.7654 9.06277 17.8047C9.13957 17.844 9.22573 17.8614 9.31177 17.8549C9.39781 17.8484 9.48038 17.8182 9.55039 17.7678L19.8052 10.3803C19.8655 10.3369 19.9146 10.2798 19.9485 10.2136C19.9823 10.1475 20 10.0743 20 10C20 9.92571 19.9823 9.85248 19.9485 9.78635C19.9146 9.72023 19.8655 9.66309 19.8052 9.61967ZM9.74516 16.4721V13.012C9.74516 12.8877 9.69577 12.7685 9.60786 12.6806C9.51995 12.5926 9.40073 12.5433 9.27641 12.5433H0.9375V7.45678H9.27641C9.40073 7.45678 9.51995 7.40739 9.60786 7.31948C9.69577 7.23158 9.74516 7.11235 9.74516 6.98803V3.52795L18.7293 10L9.74516 16.4721Z" fill="white"/>
</svg>
