<svg width="29" height="24" viewBox="0 0 29 24" fill="none" xmlns="http://www.w3.org/2000/svg">
<g clip-path="url(#clip0_85_405)">
<path d="M26.8984 20.8983C26.9675 20.9058 27.036 20.9094 27.1039 20.9094C28.0609 20.9094 28.8838 20.1903 28.9888 19.221C29.1008 18.1829 28.3468 17.2508 27.3048 17.1392L18.126 16.1553C18.0608 16.1988 17.9931 16.2397 17.9224 16.277L12.2266 19.2785C12.6435 19.5123 12.9883 19.8553 13.2237 20.2703L16.52 19.9823L17.5297 19.8941L26.8984 20.8983Z" fill="black"/>
<path d="M6.17016 5.41679C7.28662 3.9018 6.95869 1.77216 5.43769 0.660108C3.9167 -0.451948 1.77862 -0.125307 0.66216 1.38968C-0.454303 2.90467 -0.126367 5.03431 1.39463 6.14637C2.91562 7.25842 5.0537 6.93178 6.17016 5.41679Z" fill="black"/>
<path d="M4.34146 8.99426C4.4649 8.99426 4.58865 9.00893 4.70921 9.03812C5.11521 9.13567 5.45897 9.38505 5.67685 9.74001C5.89474 10.095 5.96064 10.5134 5.8624 10.9178L4.21787 17.7043C4.64285 18.2989 5.13161 18.9096 5.70844 19.5738C6.107 19.9678 6.49312 20.2347 6.86542 20.4044C7.22431 20.6456 7.65554 20.7565 8.08679 20.7186L8.49857 20.6826C8.85538 19.6726 9.82045 18.9455 10.9548 18.9455C11.26 18.9455 11.5518 19.0007 11.8242 19.0971L17.7599 15.9693C17.8563 15.9185 17.9452 15.8589 18.029 15.7948L27.3429 16.7931C27.9729 16.8607 28.5132 17.1837 28.8745 17.6465C28.8764 17.64 28.879 17.6338 28.8807 17.6273C29.1619 16.6216 28.5709 15.5791 27.5612 15.2992L17.3813 12.4771C17.3614 12.4715 17.3415 12.4685 17.3217 12.4638C17.2889 12.4558 17.2563 12.4479 17.223 12.4417C17.1928 12.4362 17.1624 12.4315 17.1319 12.4275C17.1014 12.4232 17.0709 12.4192 17.0402 12.4164C17.0079 12.4134 16.9757 12.4119 16.9435 12.4107C16.9142 12.4094 16.8848 12.4088 16.8555 12.4089C16.8228 12.4092 16.7905 12.4107 16.758 12.4127C16.7287 12.4143 16.6997 12.4164 16.6704 12.4196C16.6384 12.4231 16.6065 12.4275 16.5747 12.4326C16.5454 12.4372 16.5162 12.4421 16.4871 12.4482C16.4552 12.4548 16.4241 12.4626 16.3928 12.4707C16.3644 12.4781 16.3362 12.4857 16.3079 12.4945C16.2756 12.5046 16.2437 12.5161 16.212 12.5277C16.186 12.5374 16.16 12.547 16.1344 12.558C16.1002 12.5722 16.0671 12.5882 16.034 12.6044C16.0176 12.6124 16.0009 12.6188 15.9847 12.6274L15.3401 12.9671L14.2454 13.5439L9.69139 15.9437C8.34582 14.0679 7.43268 11.6894 6.70584 9.99529C6.21617 8.50667 4.72773 7.33626 3.47463 7.79616C2.22092 8.25592 1.06318 9.88837 1.6813 12.1477C1.80201 12.579 1.92454 12.9825 2.05132 13.3679L2.82219 10.1869C2.90354 9.84669 3.09785 9.5438 3.37363 9.32734C3.64941 9.11087 3.99034 8.9935 4.34146 8.99426Z" fill="black"/>
<path d="M1.09073 23.9661C1.40387 24.0412 1.73415 23.9894 2.00899 23.8221C2.28382 23.6548 2.48071 23.3856 2.5564 23.0738L5.52235 10.8362C5.56099 10.6813 5.5685 10.5204 5.54443 10.3626C5.52036 10.2048 5.4652 10.0534 5.38212 9.91694C5.29904 9.7805 5.18969 9.66178 5.06036 9.56761C4.93102 9.47344 4.78426 9.40569 4.62853 9.36825C4.4728 9.33081 4.31117 9.32442 4.15295 9.34946C3.99473 9.37449 3.84304 9.43046 3.70662 9.51413C3.57021 9.5978 3.45176 9.70752 3.35809 9.83698C3.26442 9.96643 3.19739 10.1131 3.16085 10.2684L0.195048 22.506C0.157615 22.6605 0.151094 22.8208 0.175856 22.9777C0.200618 23.1347 0.256179 23.2853 0.339365 23.4209C0.422552 23.5564 0.531735 23.6744 0.66068 23.7679C0.789625 23.8615 0.935655 23.9288 1.09073 23.9661ZM10.954 19.2933C9.7077 19.2933 8.69739 20.2998 8.69739 21.5411C8.69739 22.7825 9.7077 23.7888 10.954 23.7888C12.2002 23.7888 13.2106 22.7825 13.2106 21.5411C13.2106 20.2998 12.2002 19.2933 10.954 19.2933ZM10.954 20.0676C11.771 20.0676 12.4333 20.7273 12.4333 21.5411C12.4333 22.3549 11.771 23.0146 10.954 23.0146C10.1369 23.0146 9.47463 22.3549 9.47463 21.5411C9.47463 20.7273 10.1369 20.0676 10.954 20.0676Z" fill="black"/>
</g>
<defs>
<clipPath id="clip0_85_405">
<rect width="29" height="24" fill="white"/>
</clipPath>
</defs>
</svg>
