<svg width="222" height="201" viewBox="0 0 222 201" fill="none" xmlns="http://www.w3.org/2000/svg">
<path opacity="0.3" d="M113.266 181.008C163.114 181.008 203.524 140.605 203.524 90.7668C203.524 40.9281 163.114 0.525879 113.266 0.525879C63.4184 0.525879 23.0088 40.9281 23.0088 90.7668C23.0088 140.605 63.4184 181.008 113.266 181.008Z" fill="#96CEFC"/>
<path d="M221.505 200.489H13.9546L35.8845 170.042H199.575L221.505 200.489Z" fill="#B2DD7A"/>
<path d="M135.255 103.399C134.661 104.19 133.346 104.087 132.215 104.334C130.759 104.65 129.276 104.842 127.792 104.971C124.451 105.262 121.083 105.239 117.735 105.081C113.948 104.902 110.161 104.547 106.412 103.98C106.223 103.997 105.866 103.082 105.8 102.843C104.794 97.8458 104.395 93.508 104.04 88.442C104.013 88.0224 104.659 87.8353 104.838 88.2088C114.751 89.1262 124.688 89.7083 134.647 89.6872C135.866 88.3559 135.768 92.9002 135.761 93.3369C135.72 96.3246 135.63 99.3129 135.574 102.3C135.566 102.789 135.449 103.142 135.255 103.399Z" fill="#FFC08C"/>
<path d="M103.497 104.449C103.497 104.449 103.498 104.449 103.499 104.45C103.498 104.45 103.497 104.449 103.497 104.449Z" fill="#9170F0"/>
<path d="M103.48 104.447C103.478 104.446 103.476 104.446 103.474 104.445C103.477 104.445 103.48 104.447 103.483 104.447C103.482 104.447 103.481 104.447 103.48 104.447Z" fill="#9170F0"/>
<path d="M103.473 104.444L103.471 104.443L103.474 104.444H103.473Z" fill="#9170F0"/>
<path d="M103.283 104.405C103.281 104.405 103.28 104.405 103.278 104.404C103.28 104.405 103.283 104.405 103.285 104.405C103.284 104.406 103.283 104.405 103.283 104.405Z" fill="#9170F0"/>
<path d="M103.27 104.403C103.268 104.402 103.266 104.402 103.264 104.402C103.269 104.403 103.274 104.404 103.279 104.405C103.275 104.404 103.272 104.404 103.27 104.403Z" fill="#9170F0"/>
<path d="M72.2659 159.383C68.1668 159.1 64.0346 159.174 59.9463 159.157C59.6936 159.36 59.9206 158.627 59.8761 158.298C58.2776 145.963 56.544 134.15 55.2717 121.774C54.491 114.179 51.3876 104.25 58.7607 100.284C63.4078 97.7834 79.331 100.571 84.8684 101.834C86.0438 103.361 85.8407 105.807 86.1344 107.705C86.5587 113.524 86.8051 119.375 87.1775 125.162C87.2345 125.181 87.2909 125.2 87.348 125.219C87.3001 125.511 87.291 125.81 87.206 126.096C82.8759 124.662 77.8409 123.15 73.4469 121.969C74.4632 126.273 75.0882 130.669 74.8709 135.075C74.5242 142.342 74.4432 149.75 73.9106 156.945C73.7977 158.257 73.9032 159.685 72.2659 159.383Z" fill="#FFC08C"/>
<path d="M73.7748 124.81C73.2775 122.267 72.2185 119.835 70.6405 117.775C69.76 116.677 68.7005 115.808 67.7082 114.838C67.4419 114.394 68.0726 113.934 68.4125 114.327C68.4034 114.314 68.3908 114.305 68.3788 114.294C70.153 115.82 71.821 117.513 72.8635 119.636C73.2918 120.095 75.8557 126.59 73.7748 124.81Z" fill="black"/>
<path d="M74.3976 148.489C74.7985 148.489 74.3075 152.349 74.2505 154.412C74.0976 159.977 74.0064 165.543 73.8809 171.108C74.8173 173.076 67.3456 173.517 66.0482 173.388C65.1426 173.286 59.9109 172.964 60.8598 171.534C60.0991 164.942 59.3383 158.351 58.577 151.759C58.6637 150.929 57.6623 148.49 58.7076 148.49C63.8024 148.491 69.333 148.281 74.3976 148.489Z" fill="white"/>
<path d="M61.149 153.773C60.6928 153.717 60.1066 153.849 59.7547 153.519C59.4912 153.203 59.7792 152.739 60.1961 152.794C64.354 153.149 68.5883 152.788 72.7667 152.85C73.1995 152.868 73.9352 152.707 73.9654 153.287C73.9654 153.526 73.7493 153.726 73.4903 153.726C69.377 153.702 65.2624 153.885 61.149 153.773Z" fill="#C0B3FF"/>
<path d="M60.8127 156.952C60.0981 157.122 59.7577 156.14 60.5577 156.067C64.6882 156.118 68.8205 155.886 72.9532 155.943C73.5708 155.954 73.5811 156.805 72.9532 156.82C68.9054 156.769 64.8588 156.974 60.8127 156.952Z" fill="#C0B3FF"/>
<path d="M184.774 156.099C184.933 156.292 184.873 156.6 184.668 156.734C181.257 161.794 177.291 166.542 173.975 171.688C170.088 176.712 165.395 187.531 157.569 186.705C154.78 186.411 152.641 184.072 150.603 182.349C148.183 180.304 145.88 178.124 143.675 175.85C139.264 171.298 135.253 166.372 131.476 161.287C131.236 160.687 129.568 159.26 130.816 158.98C137.715 155.829 144.723 152.793 151.99 150.592C152.374 150.468 153.021 150.267 153.065 150.869C155.147 154.569 157.049 158.371 159.288 161.978C161.726 156.27 168.886 149.511 174.083 146.482C178.075 148.81 181.58 152.772 184.774 156.099Z" fill="#FFC08C"/>
<path d="M161.411 168.749C160.592 166.777 159.922 164.743 159.055 162.793C158.612 162.262 159.501 161.644 159.788 162.304C160.58 163.976 161.132 165.753 161.845 167.461C161.949 167.924 162.593 168.66 161.986 168.983C161.772 169.074 161.5 168.971 161.411 168.749Z" fill="black"/>
<path d="M74.3982 184.129H39.7551V186.635H74.3982V184.129Z" fill="white"/>
<path d="M74.5181 170.48C74.5152 173.893 74.3955 176.404 74.4194 179.817C74.2341 180.655 74.8814 184.767 73.986 184.71C66.9597 184.795 59.9345 184.884 52.9081 184.969C49.2121 185.016 45.5156 185.06 41.8197 185.106C41.2796 185.011 40.4122 185.403 40.1208 184.811C39.948 184.772 39.8032 184.628 39.7798 184.444C39.619 180.38 41.4484 178.795 44.853 177.073C50.2717 174.437 55.557 172.228 60.5498 168.845C64.2549 169.525 70.2325 169.964 73.9319 168.845C74.4508 168.792 74.5192 168.845 74.5181 170.48Z" fill="#C0B3FF"/>
<path d="M52.41 177.085C51.9909 176.354 51.5467 175.571 51.1064 174.862C50.762 174.4 51.4469 173.874 51.8004 174.327C52.0622 175.047 53.6812 176.63 53.0111 177.243C52.8075 177.362 52.5292 177.293 52.41 177.085Z" fill="black"/>
<path d="M54.8539 175.784C54.7085 175.062 52.9469 173.145 54.1274 172.83C54.8613 173.127 55.1596 174.751 55.662 175.443C55.8775 175.971 55.1003 176.31 54.8539 175.784Z" fill="black"/>
<path d="M57.392 174.469C57.2466 173.746 55.485 171.829 56.6655 171.515C57.3994 171.811 57.6976 173.436 58.2001 174.127C58.4162 174.656 57.6389 174.996 57.392 174.469Z" fill="black"/>
<path d="M56.9962 170.48C57.5391 169.774 58.6597 168.074 58.2337 167.211C57.3925 167.339 57.0851 169.747 56.9962 170.48ZM55.9229 171.38C55.9343 171.362 55.9474 171.346 55.9611 171.33C55.3407 169.881 54.8593 168.201 53.5466 167.22C52.3216 166.42 52.4916 167.566 52.8166 168.388C53.2557 169.841 54.4003 171.096 55.9229 171.38ZM55.9098 172.265C53.4508 171.913 51.0419 169.255 51.7251 166.935C52.552 164.125 55.7444 168.06 56.2183 169.646C57.4301 162.887 61.8743 167.695 56.7509 171.886C56.654 172.25 56.2252 172.308 55.9098 172.265Z" fill="black"/>
<path d="M39.8447 184.736C39.7883 183.806 44.8443 184.453 45.7778 184.24C49.5582 184.203 53.3391 184.167 57.12 184.129C60.8764 184.09 64.6329 184.058 68.3893 184.018C69.4157 184.213 74.6788 183.457 74.6537 184.396C74.6566 185.314 70.5899 184.682 69.7408 184.883C65.969 184.917 62.1978 184.96 58.426 184.993C52.8378 185.046 47.2497 185.104 41.6616 185.157C41.0925 185.047 39.9918 185.518 39.8447 184.736Z" fill="black"/>
<path d="M40.1474 187.41C39.5926 187.416 39.5697 186.531 40.1434 186.533C43.877 186.498 47.6095 186.458 51.3442 186.424C56.9802 186.366 62.6174 186.315 68.2534 186.258C69.2799 186.453 74.543 185.696 74.5179 186.635C74.5202 186.876 74.3223 187.075 74.0828 187.078C70.7239 187.117 67.365 187.14 64.006 187.177C56.053 187.255 48.1005 187.331 40.1474 187.41Z" fill="black"/>
<path d="M172.573 146.412C172.284 146.134 175.311 143.69 176.781 142.24C180.745 138.332 184.666 134.38 188.611 130.452C189.298 128.383 194.994 133.238 195.841 134.23C196.424 134.93 199.974 138.785 198.3 139.159C194.283 144.441 190.267 149.723 186.25 155.006C185.613 155.545 184.646 157.998 183.892 157.274C180.218 153.747 176.083 150.068 172.573 146.412Z" fill="white"/>
<path d="M185.791 151.772C186.081 152.129 186.595 152.44 186.621 152.921C186.592 153.331 186.063 153.466 185.8 153.139C183.047 150.004 179.741 147.333 176.77 144.395C176.47 144.083 175.829 143.689 176.208 143.25C176.374 143.077 176.668 143.083 176.855 143.262C179.805 146.127 182.901 148.843 185.791 151.772Z" fill="#C0B3FF"/>
<path d="M188.234 149.712C188.868 150.084 188.433 151.028 187.805 150.527C184.861 147.631 181.719 144.936 178.777 142.035C178.339 141.599 178.921 140.978 179.384 141.402C182.27 144.241 185.331 146.895 188.234 149.712Z" fill="#C0B3FF"/>
<path d="M184.109 125.305L218.43 120.584L218.089 118.102L183.768 122.823L184.109 125.305Z" fill="white"/>
<path d="M185.865 138.836C185.402 135.455 185.179 132.952 184.69 129.573C184.76 128.718 183.557 124.732 184.452 124.667C191.402 123.625 198.349 122.58 205.298 121.539C208.953 120.989 212.609 120.442 216.264 119.892C216.812 119.913 217.618 119.407 217.987 119.953C218.164 119.968 218.327 120.091 218.375 120.271C219.088 124.275 217.492 126.094 214.354 128.264C209.345 131.613 201.919 135.332 197.434 139.363C193.671 139.194 190.181 138.765 186.668 140.376C186.161 140.499 186.087 140.456 185.865 138.836Z" fill="#C0B3FF"/>
<path d="M206.866 129.282C207.381 129.949 207.928 130.664 208.461 131.306C208.865 131.717 208.258 132.331 207.846 131.931C207.489 131.254 205.67 129.906 206.25 129.207C206.435 129.061 206.72 129.092 206.866 129.282Z" fill="black"/>
<path d="M204.623 130.903C204.865 131.599 206.871 133.258 205.745 133.731C204.977 133.537 204.461 131.968 203.869 131.352C203.583 130.857 204.307 130.415 204.623 130.903Z" fill="black"/>
<path d="M202.287 132.553C202.53 133.249 204.536 134.907 203.41 135.38C202.642 135.186 202.125 133.618 201.533 133.001C201.247 132.507 201.971 132.065 202.287 132.553Z" fill="black"/>
<path d="M202.98 136.45C202.538 137.223 201.66 139.06 202.2 139.857C203.016 139.615 202.992 137.188 202.98 136.45ZM203.921 135.411C203.911 135.43 203.901 135.449 203.889 135.466C204.701 136.817 205.407 138.416 206.842 139.209C208.164 139.834 207.84 138.723 207.406 137.953C206.773 136.573 205.468 135.485 203.921 135.411ZM203.813 134.533C206.297 134.548 209.046 136.852 208.686 139.243C208.25 142.139 204.551 138.676 203.865 137.169C203.585 144.031 198.527 139.872 203.032 135.022C203.078 134.65 203.495 134.534 203.813 134.533Z" fill="black"/>
<path d="M218.272 119.989C218.454 120.903 213.357 120.951 212.462 121.289C208.722 121.841 204.981 122.392 201.24 122.945C197.525 123.495 193.807 124.038 190.092 124.589C189.048 124.536 183.937 126.001 183.834 125.068C183.706 124.159 187.821 124.231 188.635 123.917C192.366 123.369 196.097 122.813 199.828 122.266C205.357 121.452 210.886 120.634 216.414 119.819C216.993 119.852 218.02 119.236 218.272 119.989Z" fill="black"/>
<path d="M217.607 117.382C218.156 117.301 218.299 118.174 217.731 118.251C214.037 118.795 210.345 119.341 206.65 119.885C201.074 120.71 195.497 121.529 189.921 122.354C188.877 122.301 183.767 123.766 183.663 122.833C183.628 122.595 183.797 122.371 184.034 122.336C187.356 121.839 190.681 121.359 194.003 120.865C201.872 119.703 209.74 118.544 217.607 117.382Z" fill="black"/>
<path d="M132.996 164.75C132.855 164.714 132.706 164.545 132.701 164.376C125.952 154.851 120.471 144.499 114.814 134.31C104.733 131.862 94.1057 129.129 84.2907 125.778C82.1533 124.626 80.2001 99.304 82.2936 100.928C88.0374 102.065 93.8673 102.731 99.6299 103.771C100.554 103.938 105.848 104.958 105.847 104.942C105.847 104.952 105.893 102.526 105.593 102.012C112.717 102.246 119.176 102.403 126.042 102.134C129.154 102.026 132.538 102.049 135.575 102.3C136.453 103.198 136.335 104.044 136.793 105.196C148.954 110.776 149.865 124.643 148.617 136.252C150.367 142.161 152.959 147.844 155.21 153.577C155.504 154.835 151.085 156.858 150.35 157.419C144.867 160.34 139.039 163.574 132.996 164.75Z" fill="#C0B3FF"/>
<path d="M133.833 161.821C133.319 161.712 133.4 160.985 133.904 160.93C140.065 158.926 145.895 156.002 151.617 152.992C155.984 153.108 134.779 161.94 133.833 161.821Z" fill="black"/>
<path d="M115.148 132.529C113.968 129.616 112.865 126.668 111.784 123.717C109.988 118.367 108.417 112.915 107.241 107.39C107.262 107.319 107.267 107.239 107.245 107.148C107.113 106.6 106.992 106.048 106.876 105.496C106.855 105.209 106.83 104.919 106.718 104.717C106.514 103.679 106.331 102.635 106.165 101.588C104.709 99.8323 105.627 104.042 106.133 106.214C107.857 115.363 110.852 124.252 114.339 132.871C114.563 133.403 115.371 133.039 115.148 132.529Z" fill="black"/>
<path d="M125.937 105.605C125.104 105.346 108.357 106.114 111.809 104.49C119.608 104.465 127.487 105.283 135.244 104.251C138.6 105.666 126.611 105.692 125.937 105.605Z" fill="black"/>
<path d="M140.93 61.9671C139.149 58.4497 139.149 53.7715 134.393 51.1344C132.543 50.1092 130.339 51.1082 130.212 50.1993C129.838 47.5406 129.405 44.8528 128.861 39.1865C129.799 38.8524 129.359 34.104 128.699 32.4653C128.667 31.9829 129.046 31.5679 129.273 31.167C130.383 29.3414 131.263 26.0116 128.805 24.8963C126.995 24.386 125.21 23.7064 123.77 22.4634C121.449 20.4598 119.647 17.463 116.7 16.3204C113.721 15.1646 110.546 16.2462 107.706 17.2919C106.691 17.6654 106.955 19.645 106.941 20.5368C106.915 22.2439 106.94 23.9521 107.001 25.658C107.135 29.4018 107.313 33.3075 108.335 36.9326C109.005 40.7966 109.743 42.8989 110.364 43.241C111.753 44.0061 114.652 43.7769 116.539 43.3527C116.815 46.1927 117.39 48.6821 117.45 51.3676C116.192 52.6995 110.808 59.3637 108.315 62.2003C107.516 63.1091 102.476 68.8017 104.332 69.1313C104.289 69.3935 104.45 69.6969 104.886 69.7106C111.334 72.6207 117.899 75.3096 124.463 77.9644C127.899 79.4896 131.332 81.484 135 82.2423C135.638 82.3547 135.651 82.7686 136.13 81.894C136.681 80.891 136.815 79.5443 136.993 78.4359C137.797 73.4184 143.947 67.9259 140.93 61.9671Z" fill="#FFC08C"/>
<path d="M165.159 31.4897C167.776 34.6632 166.49 38.8112 163.893 41.5304C163.858 47.3296 157.474 50.6588 152.289 49.1216C148.694 52.5843 141.561 46.9533 145.08 42.9119C145.437 42.4991 146.302 42.3486 146.297 43.0944C143.145 49.9963 155.435 45.5176 151.508 35.6132C150.517 34.5469 149.143 33.9962 147.913 33.2629C145.715 31.9515 143.564 30.7371 142.277 28.4205C141.656 27.3029 141.287 26.0662 141.043 24.8164C140.767 23.4098 141.008 21.9388 140.638 20.5453C140.226 18.9876 138.734 18.6608 137.431 18.142C136.828 17.9019 136.17 17.5673 135.691 17.1231C135.049 16.5284 135.091 16.005 134.824 15.2592C134.226 13.5926 139.535 10.3962 143.734 10.6876C152.144 11.2714 149.516 24.0153 156.659 26.6569C159.544 28.0852 163.098 28.8486 165.159 31.4897ZM165.752 35.1302C165.479 32.987 164.252 31.4361 162.581 30.3471C164.514 32.6129 165.318 35.8002 164.86 38.7388C165.452 37.635 165.768 36.3681 165.752 35.1302ZM150.723 33.8587C148.554 30.6008 144.638 28.7038 142.295 25.63C143.464 29.2746 147.228 32.0906 150.723 33.8587Z" fill="#363636"/>
<path d="M138.982 24.033C138.707 18.7555 135.804 14.254 131.285 11.7737C128.109 10.0301 124.199 9.18115 120.616 9.30716C116.182 9.46338 112.772 10.7172 108.994 12.7778C107.827 13.4141 106.059 14.4792 105.938 16.0426C105.868 16.9571 106.644 17.9378 107.693 17.8158C110.593 17.48 110.955 17.8249 111.937 17.9276C116.54 18.4088 120.407 20.0001 122.385 22.4165C122.64 22.7278 125.104 25.4464 125.166 25.3666C129.202 25.0057 129.723 28.8783 128.037 31.3693C126.501 33.6398 125.039 32.4395 125.562 33.8576C125.936 36.27 126.18 36.908 126.774 39.0974C127.137 40.4333 129.215 40.0251 130.18 39.8769C131.596 39.6602 132.97 39.1767 134.205 38.4503C135.128 37.9075 136.002 37.2313 136.613 36.3412C137.256 35.4033 137.534 34.2732 137.784 33.1796C137.955 32.4253 138.117 31.6687 138.271 30.9104C139.074 28.7323 139.364 26.3689 138.982 24.033ZM136.356 35.4877C135.87 36.4273 135.074 37.1252 134.193 37.6874C133.426 38.1772 132.598 38.5632 131.732 38.8409C132.016 38.6727 132.288 38.4948 132.542 38.314C134.01 37.2672 135.313 35.9729 136.371 34.4927C136.613 34.1541 136.839 33.8045 137.053 33.447C136.888 34.1512 136.687 34.8497 136.356 35.4877Z" fill="#363636"/>
<path d="M110.722 37.8169C110.068 37.7844 107.37 37.3903 108.599 36.4317C109.306 36.5811 110.018 36.9466 110.801 36.9449C112.591 37.2894 114.17 35.3253 114.604 35.9658C114.972 37.2289 111.685 37.9589 110.722 37.8169Z" fill="black"/>
<path d="M116.441 43.4844C116.384 42.9717 116.975 42.966 117.334 42.8975C119.044 42.5508 120.631 41.8305 122.132 40.9626C122.633 40.6849 123.066 41.4171 122.575 41.7199C121.709 42.2246 116.9 44.7184 116.441 43.4844Z" fill="black"/>
<path d="M126.121 33.388C125.606 33.4217 125.536 32.6662 126.05 32.6063C126.672 32.5733 127.213 32.1895 127.635 31.7562C128.794 30.5047 129.699 27.4816 127.905 26.4217C127.444 26.1925 127.767 25.5003 128.237 25.7107C131.214 27.3015 129.214 33.1679 126.121 33.388Z" fill="black"/>
<path d="M125.45 29.3501C124.576 28.8819 126.266 27.2281 126.858 27.0878C127.325 26.826 128.18 27.2703 127.646 27.7761C127.436 27.9392 127.218 27.7316 127.004 27.8702C126.274 28.0801 126.11 29.4413 125.45 29.3501Z" fill="black"/>
<path d="M137.623 17.7163C136.961 16.358 136.109 15.0999 135.099 13.9753C134.816 13.6594 134.352 14.1259 134.634 14.4407C135.606 15.5242 136.418 16.7395 137.055 18.0482C137.24 18.4292 137.807 18.0956 137.623 17.7163Z" fill="black"/>
<path d="M122.943 26.272C122.787 24.7975 122.568 23.3305 122.346 21.8583C122.158 20.6159 122.267 19.0132 120.618 18.9453C116.475 18.776 112.308 19.2749 108.171 19.5862C106.099 19.7418 103.969 19.9528 101.951 20.438C100.573 20.7693 99.5103 21.1376 99.4259 22.6309C99.2543 25.6773 99.7629 28.7511 100.341 31.7388C100.969 34.9814 106.125 34.2801 108.662 34.1107C112.227 33.873 115.759 33.3364 119.286 32.8216C120.026 32.7138 120.766 32.598 121.511 32.5216C123.073 32.3609 123.245 30.8545 123.194 29.6252C123.148 28.5076 123.06 27.3838 122.943 26.272Z" fill="#9170F0"/>
<path d="M118.206 32.3245C117.98 27.9325 117.907 23.5564 117.232 19.21C117.276 18.8708 117.746 18.7174 117.988 18.9814C118.758 22.3135 118.734 25.889 118.944 29.3072C118.978 30.2856 118.994 31.2629 119.077 32.2384C119.123 32.7886 118.278 32.8793 118.206 32.3245Z" fill="black"/>
<path d="M136.759 26.1318C131.75 26.5521 121.436 27.0014 121.164 26.8942C121.193 28.3139 121.133 30.5205 121.199 31.9402C121.172 32.5092 120.345 32.4921 120.345 31.9117C120.163 27.6502 119.959 23.3545 119.614 19.1741C120.868 18.1825 120.519 21.5825 120.724 22.2393C126.076 21.9816 131.427 21.7204 136.779 21.461C138.84 21.2825 139.15 21.282 139.527 21.7432C139.904 22.2045 139.889 23.0923 139.826 25.0651C139.786 26.3012 137.488 25.8895 136.759 26.1318Z" fill="black"/>
<path d="M104.631 22.4086C105.939 21.9593 103.661 26.2219 103.644 26.8571C103.335 27.5869 103.209 28.4507 102.71 29.0739C102.369 29.3162 101.988 28.8133 102.314 28.5493C102.3 28.559 102.289 28.571 102.277 28.5835C103.209 26.6016 103.628 24.3272 104.631 22.4086Z" fill="#BAA2F5"/>
<path d="M107.38 21.2828C108.118 21.65 105.586 26.4593 105.412 27.4976C104.973 28.2246 104.225 31.7562 103.419 31.5698C103.217 31.4814 103.153 31.1958 103.318 31.0407C104.536 28.1436 105.566 25.1502 106.703 22.2281C106.886 21.9088 106.874 21.1921 107.38 21.2828Z" fill="#BAA2F5"/>
<path d="M115.045 27.8764C115.107 28.287 115.491 28.5693 115.901 28.5066C116.312 28.4439 116.594 28.0606 116.531 27.65C116.469 27.2394 116.085 26.9572 115.675 27.0193C115.264 27.0821 114.982 27.4658 115.045 27.8764Z" fill="#BAA2F5"/>
<path d="M115.237 30.6045C115.299 31.0151 115.683 31.2974 116.093 31.2347C116.504 31.1725 116.786 30.7887 116.723 30.3781C116.661 29.9675 116.277 29.6853 115.867 29.748C115.456 29.8101 115.174 30.1939 115.237 30.6045Z" fill="#BAA2F5"/>
<path d="M197.287 138.891C197.929 139.827 197.905 141.046 196.843 141.642C196.731 141.741 196.537 141.808 196.555 141.985C196.572 143.371 196.2 144.737 194.856 145.015C194.261 145.139 194.835 146.399 194.536 146.973C194.054 147.898 192.427 147.692 191.116 146.531C192.202 148.254 192.458 150.356 189.76 149.98C187.21 148.167 185.391 145.437 183.015 143.386C183.011 144.841 182.892 146.313 182.331 147.662C181.379 149.797 180.428 149.734 179.943 147.664C178.786 142.726 176.968 140.592 177.122 136.972C170.421 130.233 163.527 123.524 157.873 115.846C154.248 111.228 151.437 106.047 148.197 101.168C143.672 95.3673 138.568 89.9752 133.423 84.7422C125.721 77.7365 121.709 66.2926 126.246 56.4515C126.996 54.7637 128.258 53.3794 129.493 52.0315C129.982 51.6825 131.52 50.4932 132.065 50.5456C137.671 51.792 139.813 58.8559 142.482 63.4423C147.994 72.3125 153.329 81.2904 158.676 90.2591C162.975 94.2908 165.832 99.5945 168.776 104.673C173.65 112.418 177.653 120.718 183.378 127.9C187.748 130.798 192.065 134.028 195.977 137.588C196.676 137.383 196.91 138.478 197.287 138.891Z" fill="#FFC08C"/>
<path d="M180.611 149.361C180.444 149.196 180.419 148.923 180.587 148.742C182.377 147.289 182.063 144.799 182.039 142.743C183.325 140.563 182.963 146.215 182.759 146.763C182.554 147.536 181.585 149.918 180.608 149.357L180.611 149.361Z" fill="black"/>
<path d="M191.111 148.038C189.913 146.533 188.881 144.938 187.679 143.445C187.318 143.003 187.992 142.444 188.354 142.89C188.354 142.889 188.355 142.888 188.356 142.887C189.56 144.396 190.598 145.981 191.789 147.481C192.15 147.916 191.467 148.481 191.111 148.038Z" fill="black"/>
<path d="M196.926 139.084C193.188 135.435 189.043 132.201 184.584 129.489C184.236 129.363 183.967 129.03 184.253 128.689C184.713 127.488 201.119 140.132 196.926 139.084Z" fill="black"/>
<path d="M136.652 81.5442C136.862 81.5938 136.065 85.3957 135.99 89.591C135.976 90.3333 136.201 92.3928 135.415 92.4099C126.703 92.5946 118.013 92.8113 109.364 91.9817C107.907 91.6784 104.903 91.7132 103.91 90.7923C102.544 88.5618 102.137 85.6311 101.182 83.1423C100.387 80.458 99.5273 77.7286 99.655 74.896C99.8164 70.3682 105.749 63.9464 107.341 62.7793C107.512 62.6544 108.498 62.7747 108.709 62.7776C112.017 62.8249 113.793 63.0655 117.16 62.6179C121.359 59.6154 122.741 56.8221 126.356 53.2038C127.881 51.5099 129.393 50.0171 130.749 50.4026C131.262 50.5485 131.866 50.5554 132.864 50.7624C134.096 51.0184 132.817 51.787 132.414 52.352C129.145 55.9897 126.296 60.0191 124.269 64.4824C125.446 67.5054 126.417 71.4607 129 75.3755C130.866 78.2024 133.896 80.694 136.652 81.5442Z" fill="#C0B3FF"/>
<path d="M124.025 91.1213C117.335 90.8709 110.495 90.8515 103.95 89.3962C103.61 89.3854 103.422 88.9788 103.602 88.7045C104.231 88.133 105.952 89.1213 106.824 89.1008C115.575 90.1934 124.467 90.502 133.269 89.9973C133.884 90.1358 134.886 89.415 135.205 90.1461C135.478 91.4937 125.43 90.9662 124.025 91.1213Z" fill="black"/>
<path d="M138.116 55.887C136.965 52.7396 134.025 50.7167 130.678 50.7914C129.442 50.7001 128.111 50.6431 126.9 50.6996C126.332 50.7532 126.225 49.9076 126.798 49.8283C130.69 49.7383 135.396 49.7115 137.745 53.3845C138.035 54.0636 139.475 55.558 138.686 56.1333C138.463 56.2234 138.21 56.1093 138.116 55.887Z" fill="black"/>
<path d="M178.128 131.667C178.098 131.499 178.04 131.335 177.942 131.176C177.535 130.517 176.743 130.114 176.201 129.578C174.612 128.006 173.048 126.407 171.506 124.789C168.422 121.551 165.423 118.232 162.471 114.874C162.323 114.706 162.179 114.535 162.028 114.37C157.181 109.075 153.98 102.65 150.576 96.4113C148.51 93.1619 145.765 90.4228 143.412 87.3872C138.492 81.3006 134.1 74.8058 129.187 68.7158C129.037 68.5305 128.765 68.4878 128.572 68.6371C128.031 69.2409 129.083 69.7723 129.361 70.2912C133.631 75.8458 137.703 81.5612 142.033 87.0742C145 90.9753 148.665 94.3963 150.93 98.79C156.931 111.739 167.302 121.833 177.237 131.817C176.797 134.405 176.569 137.124 177.056 139.719C177.175 140.288 178.008 140.131 177.921 139.568C177.705 138.558 177.643 137.523 177.658 136.494C177.679 135.483 177.729 134.459 177.891 133.46C177.984 132.876 178.23 132.252 178.128 131.667Z" fill="black"/>
<path d="M34.0791 124.244H23.7543L18.5916 115.304L23.7543 106.364H34.0791L39.2418 115.304L34.0791 124.244ZM24.2607 123.367H33.5727L38.229 115.305L33.5727 107.242H24.2607L19.6049 115.305L24.2607 123.367Z" fill="#96CEFC"/>
<path d="M45.4794 135.313H39.2788L36.1782 129.944L39.2788 124.574H45.4794L48.58 129.944L45.4794 135.313ZM39.7852 134.435H44.973L47.5672 129.944L44.973 125.451H39.7852L37.191 129.944L39.7852 134.435Z" fill="#96CEFC"/>
<path d="M187.087 89.8501H180.575L177.319 84.2117L180.575 78.5732H187.087L190.342 84.2117L187.087 89.8501ZM181.081 88.9731H186.58L189.329 84.2122L186.58 79.4507H181.081L178.332 84.2122L181.081 88.9731Z" fill="#96CEFC"/>
<path d="M192.431 53.5178H182.72L177.864 45.1095L182.72 36.7012H192.431L197.287 45.1095L192.431 53.5178ZM183.227 52.6403H191.925L196.274 45.1089L191.925 37.5775H183.227L178.878 45.1089L183.227 52.6403Z" fill="#96CEFC"/>
<path d="M203.352 105.01H193.641L188.785 96.6017L193.641 88.1929H203.352L208.207 96.6017L203.352 105.01ZM194.147 104.133H202.846L207.195 96.6012L202.846 89.0692H194.147L189.798 96.6012L194.147 104.133Z" fill="#96CEFC"/>
<path opacity="0.7" d="M18.2299 80.1902L79.8903 62.5138L69.0751 18.8296L5.96387 28.4626L18.2299 80.1902Z" fill="#70BFFF"/>
<path d="M49.181 28.247C49.1531 28.0805 49.2665 27.9334 49.4262 27.8997C51.9406 27.3654 54.4526 26.831 56.9664 26.2972C59.4602 25.7686 61.9534 25.2354 64.4473 24.7084C65.0107 24.7244 66.214 23.9899 66.5105 24.5893C66.4752 25.1664 65.5422 24.9856 65.1356 25.1766C62.0219 25.837 58.9093 26.5014 55.7962 27.1606C53.7067 27.6054 51.6172 28.0491 49.5277 28.4928C49.3709 28.5264 49.2078 28.4038 49.181 28.247Z" fill="#70BFFF"/>
<path d="M55.6463 30.8429C54.95 30.0393 57.056 30.1317 57.4877 29.907C59.3788 29.5027 61.2681 29.0995 63.1591 28.6952C63.6073 28.6912 67.9243 27.3146 66.5842 28.5777C62.9407 29.2877 59.2875 30.2726 55.6463 30.8429Z" fill="#70BFFF"/>
<path d="M63.2211 47.5096C63.1681 46.872 66.4272 46.5213 67.0927 46.1951C67.9167 46.1495 71.5996 44.6114 71.8214 45.2764C71.7752 45.951 69.0864 46.1347 68.4163 46.4688C67.57 46.5184 63.399 48.1876 63.2211 47.5096Z" fill="#70BFFF"/>
<path d="M64.1337 50.3678C64.0921 49.6641 67.3295 49.4531 68.0304 49.1172C68.9183 49.0761 72.2635 47.7206 72.6376 48.316C72.7021 48.9969 69.8461 49.1434 69.2143 49.4542C68.2927 49.501 64.4759 50.9734 64.1337 50.3678Z" fill="#70BFFF"/>
<path d="M20.1768 55.9406C20.1768 55.2523 23.883 55.0504 24.7065 54.7174C25.7837 54.6769 30.5871 53.1252 30.9179 53.7742C30.9173 54.4596 27.3291 54.6421 26.5239 54.97C25.4661 55.0105 20.4585 56.5942 20.1768 55.9406Z" fill="#70BFFF"/>
<path d="M20.8674 59.256C20.8709 58.5677 24.0923 58.3475 24.8092 58.0099C25.7456 57.9643 29.9268 56.3881 30.2108 57.0359C30.2068 57.7214 27.0886 57.9221 26.3865 58.2534C25.4678 58.2991 21.1087 59.9072 20.8674 59.256Z" fill="#70BFFF"/>
<path d="M21.7302 61.8247C21.7006 61.6616 21.8095 61.5139 21.9646 61.4762L21.964 61.4768C22.9033 61.4146 28.1162 59.5487 28.2405 60.2536C28.1595 60.9288 25.3999 61.085 24.7008 61.4198C24.0301 61.434 21.9971 62.456 21.7302 61.8247Z" fill="#70BFFF"/>
<path d="M43.859 53.1567C45.486 53.553 46.7651 54.674 47.5441 56.1256C48.7206 57.2984 50.2769 58.6931 51.5035 59.8163C52.1457 58.5505 53.1904 56.9803 54.1279 55.9642C53.3621 55.3011 52.4838 54.7874 51.625 54.3598C49.1301 53.0752 46.8085 51.4878 44.3329 50.1639C44.094 51.1463 43.9138 52.1435 43.859 53.1567ZM34.815 68.5091C33.971 67.7862 36.7106 65.7735 37.1435 65.0465C35.9561 62.8747 34.5202 60.8848 33.4395 58.6623C32.2499 56.2562 37.8842 55.0736 40.0262 54.5559C40.0091 54.4647 39.9851 54.3729 39.964 54.2822L39.9834 54.2919C39.3778 51.1845 38.7026 47.9921 41.1502 45.4822C41.185 45.1373 41.3407 44.4981 41.3863 44.1543C37.5729 42.9005 40.2018 37.6447 43.5773 39.5422C44.9003 38.2057 47.9279 37.8967 48.1178 40.3342C48.1788 41.5749 47.6833 44.1993 49.6581 43.6018C51.4642 43.3475 48.586 45.9349 47.4785 45.6094C44.4606 44.7233 47.3571 41.0925 44.5747 40.4853C45.0087 41.755 44.2964 43.2574 43.1844 44.0272C43.1838 44.5574 43.1924 45.0899 43.2346 45.6174C46.5222 47.7783 49.4112 50.465 52.7336 52.6077C53.6746 52.952 54.6144 53.6875 55.5827 54.1169C55.7812 53.6841 56.0783 53.2075 56.198 52.9241C56.0925 51.6247 59.5695 53.817 60.085 53.8221C64.86 55.3707 58.0611 55.361 56.6554 55.4009C55.6055 57.0932 54.1354 64.3275 51.7385 63.6815C48.4805 62.2059 45.2516 59.7148 42.4476 57.5311C40.8183 58.1873 39.075 58.6914 37.4628 59.3539C38.5862 61.4242 38.9181 64.384 39.7336 66.558C39.9315 67.086 39.3088 67.1299 38.8725 67.253C37.5272 67.6368 36.2173 68.4533 34.815 68.5091Z" fill="#70BFFF"/>
<path d="M24.7794 71.3001C24.6876 70.9728 25.0183 70.8582 25.255 70.8205C28.6732 69.9151 32.0949 69.0102 35.5017 68.1088C35.9465 67.9885 36.3936 67.8733 36.8361 67.7559C36.8333 67.757 36.8299 67.7576 36.8276 67.7581C37.3813 67.6105 37.9162 67.4696 38.462 67.3254C38.4506 67.3277 38.442 67.3311 38.4335 67.3322C39.2313 67.1196 40.0702 66.9006 40.8611 66.6902C41.6287 66.4878 42.3632 66.2922 43.1211 66.0921C43.1188 66.0927 43.1154 66.0933 43.1131 66.0944H43.1137C43.1097 66.095 43.1063 66.0967 43.1029 66.0978C43.1177 66.0938 43.1325 66.0904 43.1474 66.0858C43.1382 66.0881 43.1291 66.091 43.12 66.0927C44.9397 65.6137 46.7492 65.1308 48.5598 64.6541C48.5587 64.6541 48.5581 64.6541 48.557 64.6547C48.5541 64.6553 48.5513 64.6564 48.5484 64.6564C48.5536 64.6553 48.5581 64.6536 48.5604 64.653V64.6536C48.561 64.6536 48.5621 64.653 48.5627 64.653C48.5633 64.6524 48.5633 64.6524 48.5638 64.6524C49.8053 64.3212 51.0525 63.9933 52.2906 63.6655L52.29 63.666C54.6492 63.0394 56.9971 62.4208 59.3489 61.7976C59.3934 61.785 59.4367 61.7754 59.4812 61.7622L59.4806 61.7628C60.1284 61.5912 60.7489 61.4253 61.3887 61.2576C61.8746 61.1288 62.312 61.013 62.7797 60.8893C62.7711 60.891 62.7625 60.8933 62.754 60.8956C63.7833 60.623 64.8087 60.3522 65.8261 60.0825C67.2295 60.5769 64.6827 61.0472 64.2236 61.1704C64.223 61.1704 64.2219 61.1704 64.2213 61.171C62.6223 61.5935 61.0329 62.0154 59.4447 62.435C59.4424 62.4356 59.4395 62.4362 59.4373 62.4368C59.4378 62.4368 59.439 62.4362 59.4395 62.4362C59.4373 62.4367 59.435 62.4385 59.4327 62.4379C58.0754 62.7971 56.7239 63.1557 55.3718 63.5121C55.378 63.511 55.3837 63.5081 55.39 63.5075C54.2666 63.8052 53.1414 64.1045 52.0277 64.3976C52.0265 64.3981 52.0248 64.3981 52.0237 64.3987C52.0243 64.3987 52.0248 64.3987 52.0254 64.3981C51.2447 64.604 50.468 64.8127 49.6913 65.0156C49.6924 65.0151 49.6936 65.0151 49.6941 65.0145C48.5484 65.3201 47.3948 65.6223 46.2611 65.9233C46.0746 65.9712 45.9126 66.0163 45.7421 66.0602C45.7415 66.0613 45.733 66.0625 45.7301 66.0636C45.7296 66.0636 45.7284 66.0642 45.7279 66.0642C44.8998 66.2848 44.0398 66.5106 43.2243 66.7267C41.4263 67.2051 39.6527 67.6709 37.8666 68.1459C36.8059 68.4235 35.7429 68.7103 34.689 68.9857C34.6885 68.9874 34.6879 68.9857 34.6873 68.9874C34.6868 68.9874 34.6868 68.9874 34.6873 68.9874C32.9149 69.4538 31.1636 69.9219 29.3997 70.3866C29.4003 70.3866 29.4015 70.3861 29.402 70.3861C29.398 70.3872 29.394 70.3878 29.39 70.3889C29.39 70.3889 29.39 70.3889 29.3906 70.3883C29.2965 70.4123 29.207 70.4397 29.1135 70.4619C27.8264 70.5742 25.8332 71.8086 24.7794 71.3001Z" fill="#70BFFF"/>
<path d="M31.5479 69.1567L31.5459 69.1577L31.5479 69.1567Z" fill="#9170F0"/>
<path d="M40.4182 66.1016L40.4199 66.1011C40.4199 66.1022 40.4182 66.1016 40.4182 66.1016Z" fill="#9170F0"/>
<path d="M40.4199 66.1012L40.4222 66.1006L40.4199 66.1012Z" fill="#9170F0"/>
<path d="M53.8138 63.0531C53.8161 63.0525 53.8189 63.0514 53.8212 63.0508C53.8178 63.0514 53.8144 63.0531 53.8115 63.0536C53.8115 63.0536 53.8127 63.0536 53.8138 63.0531Z" fill="#70BFFF"/>
<path d="M61.106 61.0543L61.1078 61.0537L61.1066 61.0543L61.1038 61.0549L61.106 61.0543Z" fill="#70BFFF"/>
<path d="M18.897 31.0101C18.6986 31.0152 18.491 31.0363 18.3108 31.0654V31.066C12.4871 32.1892 14.4991 40.8678 20.2206 39.3186C24.8929 37.9616 23.7478 30.8447 18.897 31.0101ZM18.4568 40.0672C12.9975 39.4994 12.746 31.3904 18.154 30.4798C22.9728 29.5419 25.9228 36.0042 22.0495 39.0204C21.0527 39.8306 19.7313 40.2161 18.4568 40.0672Z" fill="#70BFFF"/>
<path d="M19.2107 37.3C18.4391 36.8061 16.7408 35.3485 16.9301 34.3545C17.1309 33.4495 18.2418 33.6228 18.7693 34.1925C19.1782 33.2048 20.5531 32.6385 20.7173 34.0825C20.6694 34.902 20.0792 37.6359 19.2107 37.3Z" fill="#70BFFF"/>
<path d="M21.5807 42.8823C15.4959 44.8294 19.3977 53.7292 24.9516 50.579C29.073 48.0789 26.1999 41.5481 21.5807 42.8823ZM22.1698 51.7861C16.7111 51.2188 16.4591 43.1092 21.8664 42.1987C26.6847 41.2602 29.6358 47.7231 25.7619 50.7393C24.7657 51.5495 23.4449 51.9349 22.1698 51.7861Z" fill="#70BFFF"/>
<path d="M22.9339 44.9128L21.7769 45.1938L22.7172 49.0656L23.8742 48.7846L22.9339 44.9128Z" fill="#70BFFF"/>
<path d="M24.883 45.4662L23.7524 45.7407L24.4596 48.6525L25.5901 48.3779L24.883 45.4662Z" fill="#70BFFF"/>
<path d="M21.634 47.782L20.4487 48.0698L20.8034 49.53L21.9887 49.2421L21.634 47.782Z" fill="#70BFFF"/>
<path d="M68.4238 35.7959L63.1316 36.8344L62.0225 32.4912L67.3357 31.5234L68.4238 35.7959Z" fill="#70BFFF"/>
<path d="M66.9881 38.8596L65.5776 39.2021L66.7242 43.9233L68.1346 43.5808L66.9881 38.8596Z" fill="#70BFFF"/>
<path d="M69.3937 39.462L68.0149 39.7969L68.8772 43.3476L70.256 43.0127L69.3937 39.462Z" fill="#70BFFF"/>
<path d="M65.1488 41.6588L63.7036 42.0098L64.3037 44.4801L65.7489 44.1291L65.1488 41.6588Z" fill="#70BFFF"/>
<path d="M63.1642 42.9948L61.719 43.3457L62.1103 44.9566L63.5555 44.6056L63.1642 42.9948Z" fill="#70BFFF"/>
<path d="M61.0846 43.6666L59.6394 44.0176L60.0307 45.6284L61.4759 45.2775L61.0846 43.6666Z" fill="#70BFFF"/>
<path d="M32.8232 34.7663C32.7468 34.7635 32.6778 34.7167 32.647 34.6454L31.0685 30.9855L30.5678 32.8562C30.5478 32.9298 30.4885 32.9862 30.4133 33.0011L27.2556 33.6328C27.1473 33.6539 27.0412 33.5843 27.0196 33.4754C26.9979 33.3665 27.068 33.2611 27.1769 33.2394L30.212 32.6322L30.8296 30.3241C30.8518 30.2414 30.9237 30.1821 31.0086 30.1759C31.093 30.1702 31.1734 30.2181 31.2077 30.2967L32.7577 33.8911L33.162 31.818C33.178 31.737 33.2413 31.6743 33.3222 31.6589C33.4032 31.6441 33.4853 31.68 33.5287 31.749L34.0414 32.5632L35.2327 28.5406C35.256 28.4614 35.3256 28.4044 35.4083 28.3975C35.491 28.389 35.5691 28.4346 35.605 28.5093L37.9346 33.2628L38.7609 29.8617C38.7809 29.7802 38.8488 29.7197 38.932 29.71C39.0153 29.6992 39.0957 29.7425 39.1339 29.8167L40.3891 32.2319L40.4467 30.7375C40.4501 30.6451 40.5168 30.5664 40.6081 30.5482L43.7383 29.9204C43.8467 29.8993 43.9527 29.9689 43.9744 30.0778C43.9961 30.1867 43.9259 30.2922 43.817 30.3138L40.8413 30.9102L40.7609 33.0045C40.7575 33.0957 40.693 33.1727 40.6041 33.1926C40.5151 33.212 40.4244 33.1698 40.3822 33.0894L39.0244 30.4763L38.1935 33.8968C38.1736 33.9789 38.104 34.0399 38.0202 34.049C37.9358 34.057 37.8554 34.0137 37.8183 33.9379L35.471 29.1479L34.2997 33.102C34.2774 33.1778 34.2124 33.2331 34.1349 33.244C34.0562 33.2554 33.9798 33.2189 33.9376 33.1522L33.4585 32.3915L33.0268 34.605C33.0097 34.6916 32.939 34.7566 32.8512 34.7663C32.8426 34.7663 32.8324 34.7669 32.8232 34.7663Z" fill="#70BFFF"/>
<path d="M14.5289 86.2817L0 24.9068L71.9584 14.1187L84.7583 65.9848L14.5289 86.2817ZM1.22723 25.737L15.2623 85.0251L83.5533 65.2886L71.2034 15.2459L1.22723 25.737Z" fill="#96CEFC"/>
<path d="M53.7599 13.9615C53.4901 13.9615 53.2552 13.7625 53.2175 13.4882C53.1765 13.1882 53.3858 12.9116 53.6857 12.8706L76.6114 9.71753C76.9113 9.67647 77.1879 9.88633 77.229 10.1857C77.2706 10.4857 77.0607 10.7623 76.7608 10.8033L53.8351 13.9564C53.8101 13.9598 53.7844 13.9615 53.7599 13.9615Z" fill="#96CEFC"/>
<path d="M7.60868 93.4199C7.36746 93.4199 7.14619 93.2591 7.08004 93.0151C7.00077 92.7232 7.17357 92.4216 7.46555 92.3423L43.3427 82.6135C43.6347 82.5342 43.9363 82.707 44.015 82.9989C44.0943 83.2909 43.9215 83.5925 43.6295 83.6717L7.75239 93.4005C7.70449 93.4137 7.65602 93.4199 7.60868 93.4199Z" fill="#96CEFC"/>
</svg>
