<svg width="100" height="100" viewBox="0 0 100 100" fill="none" xmlns="http://www.w3.org/2000/svg">
<g clip-path="url(#clip0_279_312)">
<path d="M83.1299 83.1406C101.433 64.8376 101.433 35.1624 83.1299 16.8594C64.8268 -1.44368 35.1517 -1.44368 16.8486 16.8594C-1.45443 35.1624 -1.45443 64.8376 16.8486 83.1406C35.1517 101.444 64.8268 101.444 83.1299 83.1406Z" fill="#8EE26B"/>
<path fill-rule="evenodd" clip-rule="evenodd" d="M96.7482 46.5556C96.7422 46.4729 96.7365 46.3903 96.7303 46.3079L77.9828 23.854L78.0443 23.9321L78.1008 24.014L78.1518 24.0991L78.1973 24.1882L78.2363 24.2804L78.2699 24.3759L78.2975 24.4735L79.5686 29.6979L79.633 29.9786L79.6891 30.2589L79.7373 30.5392L79.7764 30.819L79.8086 31.0983L79.8328 31.3769L79.849 31.655L79.8572 31.9323V32.2085L79.8498 32.4841L79.8344 32.7575L79.8109 33.031L79.7801 33.3026L79.741 33.5731L79.6943 33.8421L79.6398 34.1097L79.5799 34.3747L79.5102 34.6386L79.432 34.9007L79.3467 35.1604L79.2539 35.4185L79.1533 35.6739L79.0453 35.9278L78.9295 36.1788L78.8062 36.4272L78.6756 36.6729L78.5371 36.9161L78.3914 37.1565L78.2383 37.3938L78.0775 37.6282L77.9092 37.8595L77.7334 38.0874L55.174 66.6079L39.4158 51.4571L39.6398 51.6839L43.6348 55.8554L55.0262 66.795L50.1473 72.9628L49.9666 73.1851L49.7812 73.3999L49.5914 73.6093L49.3961 73.812L49.1973 74.0073L48.9943 74.197L48.7869 74.38L48.5756 74.5558L48.3607 74.7255L48.1414 74.8884L47.918 75.0446L47.6908 75.1936L47.4598 75.336L47.2254 75.4716L46.9873 75.5999L46.7459 75.7214L46.5012 75.8358L46.2531 75.9431L46.0016 76.0433L45.7477 76.1362L45.4904 76.222L45.2301 76.3001L44.967 76.3712L44.701 76.4352L44.4324 76.4919L44.1613 76.5409L43.8879 76.5827L43.6117 76.6171L43.3336 76.6436L43.0531 76.6632L42.7705 76.6749L42.4857 76.6788H42.4562H42.4266H42.368H42.3383H42.3086H42.2789H42.2492L41.9562 76.6683L41.6652 76.6487L41.3766 76.622L41.0908 76.5878L40.8074 76.5456L40.5271 76.4954L40.2496 76.4368L39.975 76.3712L39.7037 76.2979L39.4354 76.2173L39.1703 76.129L38.9088 76.0331L38.6506 75.9298L38.3967 75.819L38.1457 75.7019L37.8984 75.5765L37.6551 75.4436L37.4154 75.3038L37.1799 75.1567L36.9484 75.0024L36.7189 74.8435L36.4959 74.6751L36.2773 74.4993L36.0625 74.3173L60.4043 95.7097C61.2549 95.5162 62.0966 95.2998 62.9293 95.0606C62.9844 95.0448 63.0387 95.0276 63.0936 95.0116C68.1633 93.5318 72.9454 91.2032 77.2367 88.1247L77.2387 88.1267C77.2973 88.0849 77.3547 88.0417 77.4129 87.9995L77.4187 87.9952L77.4176 87.994C83.4191 83.6762 88.3115 77.9971 91.6934 71.4226C95.0753 64.8481 96.8504 57.5655 96.873 50.1722C96.873 50.1145 96.8752 50.0573 96.8752 49.9997C96.8752 48.8409 96.8329 47.6928 96.7482 46.5556Z" fill="#00DA80"/>
<path fill-rule="evenodd" clip-rule="evenodd" d="M78.2979 24.4737C78.2344 24.2131 78.1027 23.974 77.9163 23.781C77.7299 23.5881 77.4955 23.4482 77.2372 23.3756C76.9789 23.3031 76.706 23.3006 76.4464 23.3684C76.1868 23.4361 75.9499 23.5717 75.76 23.7612L43.6346 55.8556L39.6395 51.6839C38.5114 50.4827 37.0937 49.5915 35.5222 49.0956C33.9508 48.5997 32.2783 48.5158 30.6651 48.8519L21.3547 50.6946C21.1061 50.7438 20.8738 50.8546 20.6792 51.017C20.4846 51.1793 20.3339 51.388 20.241 51.6238C20.1481 51.8596 20.1159 52.115 20.1475 52.3665C20.1791 52.618 20.2734 52.8575 20.4217 53.063L34.5233 72.6138C35.3971 73.8547 36.5531 74.8703 37.8962 75.5772C39.2392 76.284 40.7309 76.6619 42.2485 76.6796C42.3276 76.6814 42.4067 76.6814 42.4854 76.6814C43.9627 76.6947 45.4231 76.366 46.7523 75.721C48.0814 75.0761 49.2434 74.1323 50.1471 72.9636L77.7344 38.0884C78.6705 36.9282 79.3237 35.5661 79.6421 34.1098C79.9606 32.6535 79.9356 31.1431 79.5692 29.6981L78.2979 24.4737Z" fill="white"/>
</g>
<defs>
<clipPath id="clip0_279_312">
<rect width="100" height="100" fill="white"/>
</clipPath>
</defs>
</svg>
