<svg width="25" height="24" viewBox="0 0 25 24" fill="none" xmlns="http://www.w3.org/2000/svg">
<g clip-path="url(#clip0_85_393)">
<path d="M2.71875 22.9221C2.71875 23.5174 3.20321 24 3.80072 24C4.39823 24 4.8827 23.5174 4.8827 22.9221C4.8827 22.916 4.88183 22.9099 4.88175 22.9038H2.71962C2.71953 22.91 2.71875 22.916 2.71875 22.9221ZM20.1169 22.9221C20.1169 23.5174 20.6014 24 21.1989 24C21.7964 24 22.2808 23.5174 22.2808 22.9221C22.2808 22.916 22.28 22.9099 22.2799 22.9038H20.1178C20.1177 22.91 20.1169 22.916 20.1169 22.9221Z" fill="black"/>
<path d="M15.7597 2.55519C16.1002 1.53901 15.5494 0.440198 14.5294 0.10092C13.5094 -0.238359 12.4064 0.310377 12.0659 1.32655C11.7253 2.34273 12.2761 3.44154 13.2961 3.78082C14.3161 4.1201 15.4191 3.57137 15.7597 2.55519Z" fill="black"/>
<path d="M11.4022 10.8004C11.2 10.5243 11.025 10.2503 10.8773 9.97939C10.8618 9.95076 10.8458 9.92213 10.8309 9.89351C10.4558 9.1795 10.2662 8.47222 10.2669 7.79133C10.2657 6.73878 10.7151 5.97028 11.092 5.51075C11.4509 5.07234 11.8007 4.82753 11.9341 4.74276C11.9816 4.71353 12.0312 4.69094 12.0816 4.67128C12.1821 4.63221 12.2872 4.61048 12.394 4.61048C12.6964 4.61048 12.9717 4.7632 13.1305 5.01888C13.3796 5.41951 13.2571 5.94907 12.858 6.20095L12.8525 6.205L12.8411 6.21285C12.82 6.22777 12.788 6.25148 12.7476 6.28442C12.6845 6.33599 12.5606 6.4443 12.4356 6.59814C12.2894 6.7794 12.1804 6.96738 12.1078 7.1646C12.0346 7.36328 11.9983 7.57144 11.998 7.79176C11.9985 8.19671 12.1188 8.6233 12.3654 9.09508C12.5079 9.36749 12.6937 9.64904 12.9167 9.93731C12.9218 9.85901 12.9277 9.78071 12.9355 9.70198C13.1551 10.0883 13.4266 10.4612 13.7602 10.8003H15.6406C15.6147 10.6092 15.5095 10.4299 15.335 10.3156C14.5149 9.77925 14.0329 8.98496 13.7465 8.12695C13.6349 7.79211 13.5567 7.4508 13.5026 7.12183C13.5988 6.79794 13.6937 6.49216 13.7757 6.21501C14.1034 5.38356 13.8761 4.33066 13.1576 4.07929C12.439 3.82792 11.3351 4.12646 10.783 5.34294C10.0337 7.02033 9.80152 8.13609 9.84506 10.0642C9.87423 10.3579 9.93845 10.5997 10.0286 10.8002H10.4967L11.4022 10.8004ZM8.41702 19.8526C8.89387 20.2115 9.5724 20.1172 9.93265 19.6423C11.6656 17.3498 12.3184 14.9524 12.5552 13.2194C12.9868 13.8511 13.3242 14.6517 13.325 15.6502C13.3237 16.4357 13.1185 17.3755 12.5028 18.5154C12.2192 19.0393 12.4153 19.6931 12.9413 19.9759C13.1047 20.0637 13.2806 20.1052 13.454 20.1052C13.839 20.1052 14.2117 19.9002 14.4074 19.539C15.1682 18.1371 15.4902 16.8244 15.4891 15.6502C15.4898 14.1421 14.9656 12.9169 14.3461 12.0072H14.112C14.072 12.0965 14.0174 12.1796 13.9476 12.2523C13.7828 12.4245 13.5604 12.5193 13.3217 12.5193C13.0984 12.5193 12.8863 12.4346 12.7242 12.2809C12.6283 12.1896 12.5354 12.0984 12.4448 12.0072H10.5015C10.419 13.4352 9.98987 15.9998 8.20625 18.3425C7.84574 18.8177 7.94035 19.4936 8.41702 19.8526Z" fill="black"/>
<path d="M0.759674 22.7313H2.737H4.86512H20.1351H22.2633H24.2404C24.3838 22.7313 24.5001 22.6154 24.5001 22.4726V20.6618C24.5001 20.5189 24.3838 20.4031 24.2404 20.4031H23.1164L19.6739 9.60667C19.6465 9.52061 19.5734 9.46162 19.4876 9.44369L21.634 6.8268C21.6769 6.77428 21.6691 6.69676 21.6164 6.65364L21.1067 6.23878C21.0538 6.19566 20.976 6.20351 20.9329 6.2562L17.0643 10.9726H15.6424L13.9385 10.9725H13.8569C13.878 10.9928 13.8975 11.0129 13.9189 11.0332C14.0861 11.192 14.1812 11.4063 14.187 11.6363C14.1871 11.645 14.1864 11.6537 14.1863 11.6624C14.186 11.6994 14.1834 11.736 14.1786 11.772C14.1757 11.7932 14.1723 11.814 14.1678 11.8347H14.2244H18.3864L21.1184 20.403H4.82781V13.1285C4.82928 12.4141 5.40931 11.8362 6.12609 11.8347H10.5097H12.2762C12.2576 11.8152 12.2396 11.7958 12.2212 11.7764C12.1853 11.7383 12.1496 11.7004 12.1147 11.6624C11.9024 11.4314 11.7081 11.2014 11.5319 10.9725H10.5063H10.1185L6.12618 10.9724C4.9309 10.9727 3.96258 11.9374 3.96232 13.1285V20.403H0.759674C0.616247 20.403 0.5 20.5188 0.5 20.6616V22.4724C0.5 22.6155 0.616247 22.7313 0.759674 22.7313Z" fill="black"/>
<path d="M12.3504 11.6625C12.3736 11.687 12.3971 11.7116 12.4208 11.7362C12.4524 11.7689 12.484 11.8018 12.5164 11.8348C12.5726 11.892 12.6301 11.9494 12.689 12.0071C12.7393 12.0564 12.7905 12.1059 12.8427 12.1557C12.9769 12.2832 13.1491 12.3466 13.3208 12.3466C13.5034 12.3466 13.6856 12.2751 13.8217 12.133C13.8591 12.094 13.8903 12.0516 13.9167 12.0071C13.9492 11.9524 13.9739 11.8946 13.9899 11.8348C14.005 11.7784 14.0121 11.7205 14.0127 11.6625C14.013 11.6238 14.01 11.5853 14.0037 11.547C13.9805 11.4035 13.9127 11.266 13.7989 11.1579C13.7332 11.0954 13.6703 11.0338 13.6086 10.9726C13.5501 10.9146 13.4936 10.8571 13.4385 10.8002C13.2383 10.5931 13.0608 10.3934 12.9044 10.2018C12.5999 9.82855 12.3741 9.48534 12.2115 9.17465C11.9181 8.61319 11.825 8.16133 11.8244 7.79139C11.825 7.40913 11.9263 7.09584 12.0661 6.83879C12.1369 6.7084 12.2177 6.59216 12.3005 6.48937C12.4229 6.33907 12.5476 6.22412 12.6372 6.151C12.6819 6.11426 12.7177 6.08788 12.7395 6.07253C12.7503 6.06494 12.7577 6.06011 12.7611 6.05761C12.7625 6.05692 12.7633 6.05649 12.7636 6.05623L12.7634 6.05597C13.085 5.85436 13.1833 5.43173 12.983 5.10922C12.7853 4.79155 12.3713 4.69022 12.0486 4.87571C12.0423 4.87924 12.0359 4.88226 12.0297 4.88606C11.9869 4.91331 11.6129 5.14622 11.2257 5.61938C10.8406 6.08857 10.4383 6.82758 10.4395 7.79131C10.4387 8.40244 10.6017 9.08583 10.9838 9.8132C10.9951 9.83467 11.0071 9.85631 11.0187 9.87787C11.18 10.1768 11.3771 10.4839 11.6157 10.8001C11.6588 10.8573 11.7037 10.9148 11.7495 10.9725C11.9285 11.1979 12.1283 11.4278 12.3504 11.6625Z" fill="black"/>
</g>
<defs>
<clipPath id="clip0_85_393">
<rect width="24" height="24" fill="white" transform="translate(0.5)"/>
</clipPath>
</defs>
</svg>
