<svg width="302" height="198" viewBox="0 0 302 198" fill="none" xmlns="http://www.w3.org/2000/svg">
<path d="M166 32C166 20.799 166 15.1984 168.18 10.9202C170.097 7.15695 173.157 4.09734 176.92 2.17987C181.198 0 186.799 0 198 0H255C266.201 0 271.802 0 276.08 2.17987C279.843 4.09734 282.903 7.15695 284.82 10.9202C287 15.1984 287 20.799 287 32V147C287 158.201 287 163.802 284.82 168.08C282.903 171.843 279.843 174.903 276.08 176.82C271.802 179 266.201 179 255 179H198C186.799 179 181.198 179 176.92 176.82C173.157 174.903 170.097 171.843 168.18 168.08C166 163.802 166 158.201 166 147V32Z" fill="black" fill-opacity="0.1"/>
<g filter="url(#filter0_d_227_67)">
<path d="M166 65C166 55.0589 174.059 47 184 47H269C278.941 47 287 55.0589 287 65V161C287 170.941 278.941 179 269 179H184C174.059 179 166 170.941 166 161V65Z" fill="url(#paint0_linear_227_67)"/>
</g>
<path d="M15 32C15 20.799 15 15.1984 17.1799 10.9202C19.0973 7.15695 22.1569 4.09734 25.9202 2.17987C30.1984 0 35.799 0 47 0H104C115.201 0 120.802 0 125.08 2.17987C128.843 4.09734 131.903 7.15695 133.82 10.9202C136 15.1984 136 20.799 136 32V147C136 158.201 136 163.802 133.82 168.08C131.903 171.843 128.843 174.903 125.08 176.82C120.802 179 115.201 179 104 179H47C35.799 179 30.1984 179 25.9202 176.82C22.1569 174.903 19.0973 171.843 17.1799 168.08C15 163.802 15 158.201 15 147V32Z" fill="black" fill-opacity="0.1"/>
<path d="M31.5235 29L28.7345 18.8182H29.6791L31.9859 27.5732H32.0654L34.3722 18.8182H35.4461L37.7529 27.5732H37.8325L40.1393 18.8182H41.0889L38.2998 29H37.3055L34.944 20.3643H34.8794L32.5178 29H31.5235ZM42.5953 29V21.3636H43.4852V29H42.5953ZM43.0477 20.0511C42.8654 20.0511 42.7096 19.9898 42.5803 19.8672C42.4511 19.7412 42.3865 19.5904 42.3865 19.4148C42.3865 19.2391 42.4511 19.09 42.5803 18.9673C42.7096 18.8414 42.8654 18.7784 43.0477 18.7784C43.23 18.7784 43.3857 18.8414 43.515 18.9673C43.6443 19.09 43.7089 19.2391 43.7089 19.4148C43.7089 19.5904 43.6443 19.7412 43.515 19.8672C43.3857 19.9898 43.23 20.0511 43.0477 20.0511ZM48.8334 21.3636V22.1342H45.1892V21.3636H48.8334ZM46.3277 19.5341H47.2176V27.0064C47.2176 27.3246 47.2723 27.5748 47.3817 27.7571C47.491 27.9361 47.6336 28.0637 47.8092 28.1399C47.9849 28.2128 48.1721 28.2493 48.371 28.2493C48.487 28.2493 48.5864 28.2427 48.6693 28.2294C48.7522 28.2128 48.8251 28.1963 48.8881 28.1797L49.077 28.9801C48.9908 29.0133 48.8847 29.0431 48.7588 29.0696C48.6328 29.0994 48.4771 29.1143 48.2915 29.1143C47.9666 29.1143 47.6534 29.0431 47.3518 28.9006C47.0535 28.758 46.8083 28.5459 46.616 28.2642C46.4238 27.9825 46.3277 27.6328 46.3277 27.2152V19.5341ZM51.8921 24.2273V29H51.0072V18.8182H51.8921V22.5618H51.9717C52.1507 22.1674 52.4274 21.8525 52.8019 21.6172C53.1798 21.3819 53.657 21.2642 54.2338 21.2642C54.7508 21.2642 55.2049 21.3703 55.596 21.5824C55.9871 21.7945 56.292 22.1077 56.5107 22.522C56.7295 22.9363 56.8389 23.4467 56.8389 24.0533V29H55.949V24.108C55.949 23.4782 55.7733 22.9827 55.422 22.6214C55.074 22.2569 54.6033 22.0746 54.01 22.0746C53.6024 22.0746 53.2394 22.1607 52.9213 22.3331C52.6031 22.5054 52.3512 22.754 52.1656 23.0788C51.9833 23.4003 51.8921 23.7831 51.8921 24.2273ZM62.1373 29.1591C61.4778 29.1591 60.8944 28.9917 60.3873 28.657C59.8836 28.3222 59.4891 27.8598 59.2041 27.2699C58.9191 26.6766 58.7765 25.9922 58.7765 25.2166C58.7765 24.4344 58.9191 23.7467 59.2041 23.1534C59.4891 22.5568 59.8836 22.0928 60.3873 21.7614C60.8944 21.4266 61.4778 21.2592 62.1373 21.2592C62.7969 21.2592 63.3786 21.4266 63.8824 21.7614C64.3862 22.0961 64.7806 22.5601 65.0656 23.1534C65.354 23.7467 65.4981 24.4344 65.4981 25.2166C65.4981 25.9922 65.3556 26.6766 65.0706 27.2699C64.7855 27.8598 64.3895 28.3222 63.8824 28.657C63.3786 28.9917 62.7969 29.1591 62.1373 29.1591ZM62.1373 28.3487C62.6676 28.3487 63.1167 28.2062 63.4846 27.9212C63.8525 27.6361 64.1309 27.2566 64.3199 26.7827C64.5121 26.3087 64.6082 25.7867 64.6082 25.2166C64.6082 24.6465 64.5121 24.1229 64.3199 23.6456C64.1309 23.1683 63.8525 22.7855 63.4846 22.4972C63.1167 22.2088 62.6676 22.0646 62.1373 22.0646C61.6104 22.0646 61.1613 22.2088 60.79 22.4972C60.4221 22.7855 60.1421 23.1683 59.9498 23.6456C59.7609 24.1229 59.6665 24.6465 59.6665 25.2166C59.6665 25.7867 59.7609 26.3087 59.9498 26.7827C60.1421 27.2566 60.4221 27.6361 60.79 27.9212C61.1579 28.2062 61.607 28.3487 62.1373 28.3487ZM72.2931 26.0817V21.3636H73.178V29H72.2931V27.7322H72.2235C72.0445 28.1233 71.7611 28.4498 71.3733 28.7116C70.9855 28.9702 70.5116 29.0994 69.9514 29.0994C69.4642 29.0994 69.0317 28.9934 68.6539 28.7812C68.276 28.5658 67.9794 28.2509 67.7639 27.8366C67.5485 27.4223 67.4408 26.9136 67.4408 26.3104V21.3636H68.3257V26.2557C68.3257 26.8523 68.5014 27.3329 68.8527 27.6974C69.204 28.0587 69.6548 28.2393 70.205 28.2393C70.5497 28.2393 70.8811 28.1565 71.1993 27.9908C71.5175 27.825 71.7793 27.5831 71.9848 27.2649C72.1903 26.9434 72.2931 26.549 72.2931 26.0817ZM78.5287 21.3636V22.1342H74.8845V21.3636H78.5287ZM76.023 19.5341H76.9129V27.0064C76.9129 27.3246 76.9676 27.5748 77.077 27.7571C77.1863 27.9361 77.3289 28.0637 77.5045 28.1399C77.6802 28.2128 77.8675 28.2493 78.0663 28.2493C78.1823 28.2493 78.2818 28.2427 78.3646 28.2294C78.4475 28.2128 78.5204 28.1963 78.5834 28.1797L78.7723 28.9801C78.6861 29.0133 78.58 29.0431 78.4541 29.0696C78.3282 29.0994 78.1724 29.1143 77.9868 29.1143C77.662 29.1143 77.3488 29.0431 77.0471 28.9006C76.7488 28.758 76.5036 28.5459 76.3113 28.2642C76.1191 27.9825 76.023 27.6328 76.023 27.2152V19.5341ZM84.0434 19.6534V18.8182H91.4262V19.6534H88.1997V29H87.27V19.6534H84.0434ZM92.5423 29V21.3636H93.4024V22.5369H93.4671C93.6195 22.1525 93.8847 21.8426 94.2625 21.6072C94.6437 21.3686 95.0745 21.2493 95.5551 21.2493C95.628 21.2493 95.7093 21.2509 95.7987 21.2543C95.8882 21.2576 95.9628 21.2609 96.0225 21.2642V22.1641C95.9827 22.1574 95.9131 22.1475 95.8137 22.1342C95.7142 22.121 95.6065 22.1143 95.4905 22.1143C95.0928 22.1143 94.7381 22.1989 94.4266 22.3679C94.1183 22.5336 93.8747 22.764 93.6958 23.0589C93.5168 23.3539 93.4273 23.6903 93.4273 24.0682V29H92.5423ZM100.268 29.1591C99.6086 29.1591 99.0253 28.9917 98.5182 28.657C98.0144 28.3222 97.62 27.8598 97.335 27.2699C97.0499 26.6766 96.9074 25.9922 96.9074 25.2166C96.9074 24.4344 97.0499 23.7467 97.335 23.1534C97.62 22.5568 98.0144 22.0928 98.5182 21.7614C99.0253 21.4266 99.6086 21.2592 100.268 21.2592C100.928 21.2592 101.509 21.4266 102.013 21.7614C102.517 22.0961 102.911 22.5601 103.196 23.1534C103.485 23.7467 103.629 24.4344 103.629 25.2166C103.629 25.9922 103.486 26.6766 103.201 27.2699C102.916 27.8598 102.52 28.3222 102.013 28.657C101.509 28.9917 100.928 29.1591 100.268 29.1591ZM100.268 28.3487C100.799 28.3487 101.248 28.2062 101.616 27.9212C101.983 27.6361 102.262 27.2566 102.451 26.7827C102.643 26.3087 102.739 25.7867 102.739 25.2166C102.739 24.6465 102.643 24.1229 102.451 23.6456C102.262 23.1683 101.983 22.7855 101.616 22.4972C101.248 22.2088 100.799 22.0646 100.268 22.0646C99.7412 22.0646 99.2921 22.2088 98.9209 22.4972C98.553 22.7855 98.2729 23.1683 98.0807 23.6456C97.8918 24.1229 97.7973 24.6465 97.7973 25.2166C97.7973 25.7867 97.8918 26.3087 98.0807 26.7827C98.2729 27.2566 98.553 27.6361 98.9209 27.9212C99.2888 28.2062 99.7379 28.3487 100.268 28.3487ZM105.572 29V21.3636H106.432V22.5369H106.511C106.664 22.1425 106.917 21.8326 107.272 21.6072C107.63 21.3786 108.059 21.2642 108.56 21.2642C109.087 21.2642 109.519 21.3885 109.857 21.6371C110.199 21.8823 110.454 22.2204 110.623 22.6513H110.687C110.86 22.227 111.14 21.8906 111.528 21.642C111.919 21.3902 112.393 21.2642 112.949 21.2642C113.659 21.2642 114.219 21.4879 114.63 21.9354C115.041 22.3795 115.246 23.0291 115.246 23.8842V29H114.361V23.8842C114.361 23.281 114.207 22.8286 113.899 22.527C113.591 22.2254 113.185 22.0746 112.681 22.0746C112.098 22.0746 111.649 22.2536 111.334 22.6115C111.019 22.9695 110.861 23.4235 110.861 23.9737V29H109.957V23.8047C109.957 23.2876 109.812 22.87 109.524 22.5518C109.236 22.2337 108.83 22.0746 108.306 22.0746C107.955 22.0746 107.638 22.1607 107.356 22.3331C107.078 22.5054 106.858 22.7457 106.695 23.054C106.536 23.3589 106.457 23.7102 106.457 24.108V29H105.572ZM122.72 23.0391L121.91 23.2678C121.83 23.0391 121.717 22.8319 121.571 22.6463C121.426 22.4607 121.235 22.3132 121 22.2038C120.768 22.0945 120.479 22.0398 120.135 22.0398C119.618 22.0398 119.193 22.1624 118.862 22.4077C118.531 22.6529 118.365 22.9695 118.365 23.3572C118.365 23.6854 118.477 23.9522 118.703 24.1577C118.932 24.3598 119.283 24.5206 119.757 24.6399L120.91 24.9233C121.55 25.0791 122.029 25.326 122.347 25.6641C122.669 26.0021 122.829 26.4264 122.829 26.9368C122.829 27.3677 122.71 27.7505 122.471 28.0852C122.233 28.42 121.9 28.6835 121.472 28.8757C121.048 29.0646 120.556 29.1591 119.995 29.1591C119.25 29.1591 118.635 28.9917 118.151 28.657C117.667 28.3189 117.357 27.8317 117.221 27.1953L118.071 26.9865C118.181 27.4406 118.395 27.7836 118.713 28.0156C119.034 28.2476 119.457 28.3636 119.981 28.3636C120.567 28.3636 121.036 28.2327 121.388 27.9709C121.739 27.7057 121.915 27.3743 121.915 26.9766C121.915 26.6683 121.812 26.4098 121.606 26.201C121.401 25.9889 121.089 25.8331 120.672 25.7337L119.424 25.4354C118.761 25.2763 118.27 25.0244 117.952 24.6797C117.634 24.335 117.475 23.9074 117.475 23.397C117.475 22.9761 117.589 22.6065 117.818 22.2884C118.047 21.9669 118.361 21.715 118.763 21.5327C119.164 21.3504 119.621 21.2592 120.135 21.2592C120.834 21.2592 121.392 21.4183 121.81 21.7365C122.231 22.0514 122.534 22.4856 122.72 23.0391Z" fill="black"/>
<path d="M193.208 29L190.419 18.8182H191.364L193.67 27.5732H193.75L196.057 18.8182H197.131L199.438 27.5732H199.517L201.824 18.8182H202.773L199.984 29H198.99L196.629 20.3643H196.564L194.202 29H193.208ZM204.28 29V21.3636H205.17V29H204.28ZM204.732 20.0511C204.55 20.0511 204.394 19.9898 204.265 19.8672C204.136 19.7412 204.071 19.5904 204.071 19.4148C204.071 19.2391 204.136 19.09 204.265 18.9673C204.394 18.8414 204.55 18.7784 204.732 18.7784C204.915 18.7784 205.07 18.8414 205.2 18.9673C205.329 19.09 205.393 19.2391 205.393 19.4148C205.393 19.5904 205.329 19.7412 205.2 19.8672C205.07 19.9898 204.915 20.0511 204.732 20.0511ZM210.518 21.3636V22.1342H206.874V21.3636H210.518ZM208.012 19.5341H208.902V27.0064C208.902 27.3246 208.957 27.5748 209.066 27.7571C209.176 27.9361 209.318 28.0637 209.494 28.1399C209.669 28.2128 209.857 28.2493 210.056 28.2493C210.172 28.2493 210.271 28.2427 210.354 28.2294C210.437 28.2128 210.51 28.1963 210.573 28.1797L210.762 28.9801C210.675 29.0133 210.569 29.0431 210.443 29.0696C210.317 29.0994 210.162 29.1143 209.976 29.1143C209.651 29.1143 209.338 29.0431 209.036 28.9006C208.738 28.758 208.493 28.5459 208.301 28.2642C208.108 27.9825 208.012 27.6328 208.012 27.2152V19.5341ZM213.577 24.2273V29H212.692V18.8182H213.577V22.5618H213.656C213.835 22.1674 214.112 21.8525 214.487 21.6172C214.864 21.3819 215.342 21.2642 215.918 21.2642C216.435 21.2642 216.889 21.3703 217.281 21.5824C217.672 21.7945 217.977 22.1077 218.195 22.522C218.414 22.9363 218.523 23.4467 218.523 24.0533V29H217.634V24.108C217.634 23.4782 217.458 22.9827 217.107 22.6214C216.759 22.2569 216.288 22.0746 215.695 22.0746C215.287 22.0746 214.924 22.1607 214.606 22.3331C214.288 22.5054 214.036 22.754 213.85 23.0788C213.668 23.4003 213.577 23.7831 213.577 24.2273ZM224.359 19.6534V18.8182H231.742V19.6534H228.515V29H227.585V19.6534H224.359ZM232.858 29V21.3636H233.718V22.5369H233.782C233.935 22.1525 234.2 21.8426 234.578 21.6072C234.959 21.3686 235.39 21.2493 235.871 21.2493C235.943 21.2493 236.025 21.2509 236.114 21.2543C236.204 21.2576 236.278 21.2609 236.338 21.2642V22.1641C236.298 22.1574 236.229 22.1475 236.129 22.1342C236.03 22.121 235.922 22.1143 235.806 22.1143C235.408 22.1143 235.054 22.1989 234.742 22.3679C234.434 22.5336 234.19 22.764 234.011 23.0589C233.832 23.3539 233.743 23.6903 233.743 24.0682V29H232.858ZM240.584 29.1591C239.924 29.1591 239.341 28.9917 238.834 28.657C238.33 28.3222 237.935 27.8598 237.65 27.2699C237.365 26.6766 237.223 25.9922 237.223 25.2166C237.223 24.4344 237.365 23.7467 237.65 23.1534C237.935 22.5568 238.33 22.0928 238.834 21.7614C239.341 21.4266 239.924 21.2592 240.584 21.2592C241.243 21.2592 241.825 21.4266 242.329 21.7614C242.832 22.0961 243.227 22.5601 243.512 23.1534C243.8 23.7467 243.944 24.4344 243.944 25.2166C243.944 25.9922 243.802 26.6766 243.517 27.2699C243.232 27.8598 242.836 28.3222 242.329 28.657C241.825 28.9917 241.243 29.1591 240.584 29.1591ZM240.584 28.3487C241.114 28.3487 241.563 28.2062 241.931 27.9212C242.299 27.6361 242.577 27.2566 242.766 26.7827C242.958 26.3087 243.055 25.7867 243.055 25.2166C243.055 24.6465 242.958 24.1229 242.766 23.6456C242.577 23.1683 242.299 22.7855 241.931 22.4972C241.563 22.2088 241.114 22.0646 240.584 22.0646C240.057 22.0646 239.608 22.2088 239.236 22.4972C238.868 22.7855 238.588 23.1683 238.396 23.6456C238.207 24.1229 238.113 24.6465 238.113 25.2166C238.113 25.7867 238.207 26.3087 238.396 26.7827C238.588 27.2566 238.868 27.6361 239.236 27.9212C239.604 28.2062 240.053 28.3487 240.584 28.3487ZM245.887 29V21.3636H246.747V22.5369H246.827C246.979 22.1425 247.233 21.8326 247.587 21.6072C247.945 21.3786 248.375 21.2642 248.875 21.2642C249.402 21.2642 249.835 21.3885 250.173 21.6371C250.514 21.8823 250.769 22.2204 250.938 22.6513H251.003C251.175 22.227 251.455 21.8906 251.843 21.642C252.234 21.3902 252.708 21.2642 253.265 21.2642C253.974 21.2642 254.534 21.4879 254.945 21.9354C255.356 22.3795 255.562 23.0291 255.562 23.8842V29H254.677V23.8842C254.677 23.281 254.523 22.8286 254.214 22.527C253.906 22.2254 253.5 22.0746 252.996 22.0746C252.413 22.0746 251.964 22.2536 251.649 22.6115C251.334 22.9695 251.177 23.4235 251.177 23.9737V29H250.272V23.8047C250.272 23.2876 250.128 22.87 249.839 22.5518C249.551 22.2337 249.145 22.0746 248.621 22.0746C248.27 22.0746 247.954 22.1607 247.672 22.3331C247.393 22.5054 247.173 22.7457 247.011 23.054C246.852 23.3589 246.772 23.7102 246.772 24.108V29H245.887ZM263.035 23.0391L262.225 23.2678C262.145 23.0391 262.033 22.8319 261.887 22.6463C261.741 22.4607 261.55 22.3132 261.315 22.2038C261.083 22.0945 260.795 22.0398 260.45 22.0398C259.933 22.0398 259.509 22.1624 259.177 22.4077C258.846 22.6529 258.68 22.9695 258.68 23.3572C258.68 23.6854 258.793 23.9522 259.018 24.1577C259.247 24.3598 259.598 24.5206 260.072 24.6399L261.226 24.9233C261.865 25.0791 262.344 25.326 262.662 25.6641C262.984 26.0021 263.145 26.4264 263.145 26.9368C263.145 27.3677 263.025 27.7505 262.787 28.0852C262.548 28.42 262.215 28.6835 261.787 28.8757C261.363 29.0646 260.871 29.1591 260.311 29.1591C259.565 29.1591 258.95 28.9917 258.466 28.657C257.983 28.3189 257.673 27.8317 257.537 27.1953L258.387 26.9865C258.496 27.4406 258.71 27.7836 259.028 28.0156C259.35 28.2476 259.772 28.3636 260.296 28.3636C260.883 28.3636 261.352 28.2327 261.703 27.9709C262.054 27.7057 262.23 27.3743 262.23 26.9766C262.23 26.6683 262.127 26.4098 261.922 26.201C261.716 25.9889 261.405 25.8331 260.987 25.7337L259.739 25.4354C259.076 25.2763 258.586 25.0244 258.268 24.6797C257.949 24.335 257.79 23.9074 257.79 23.397C257.79 22.9761 257.905 22.6065 258.133 22.2884C258.362 21.9669 258.677 21.715 259.078 21.5327C259.479 21.3504 259.936 21.2592 260.45 21.2592C261.149 21.2592 261.708 21.4183 262.126 21.7365C262.546 22.0514 262.85 22.4856 263.035 23.0391Z" fill="black"/>
<g filter="url(#filter1_d_227_67)">
<path d="M15 157C15 147.059 23.0589 139 33 139H118C127.941 139 136 147.059 136 157V161C136 170.941 127.941 179 118 179H33C23.0589 179 15 170.941 15 161V157Z" fill="url(#paint1_linear_227_67)"/>
</g>
<path d="M59.1783 165.193C58.2805 165.189 57.5135 164.953 56.8771 164.483C56.2408 164.013 55.754 163.33 55.4169 162.432C55.0798 161.534 54.9112 160.453 54.9112 159.188C54.9112 157.926 55.0798 156.848 55.4169 155.955C55.7578 155.061 56.2464 154.379 56.8828 153.909C57.523 153.439 58.2881 153.205 59.1783 153.205C60.0684 153.205 60.8317 153.441 61.468 153.915C62.1044 154.384 62.5911 155.066 62.9283 155.96C63.2692 156.85 63.4396 157.926 63.4396 159.188C63.4396 160.456 63.2711 161.54 62.9339 162.438C62.5968 163.331 62.1101 164.015 61.4737 164.489C60.8374 164.958 60.0722 165.193 59.1783 165.193ZM59.1783 163.676C59.9661 163.676 60.5817 163.292 61.0249 162.523C61.4718 161.754 61.6953 160.642 61.6953 159.188C61.6953 158.222 61.593 157.405 61.3885 156.739C61.1877 156.068 60.898 155.561 60.5192 155.216C60.1442 154.867 59.6972 154.693 59.1783 154.693C58.3942 154.693 57.7786 155.08 57.3317 155.852C56.8847 156.625 56.6593 157.737 56.6555 159.188C56.6555 160.157 56.7559 160.977 56.9567 161.648C57.1612 162.314 57.451 162.82 57.826 163.165C58.201 163.506 58.6518 163.676 59.1783 163.676ZM66.1754 165.108C65.8648 165.108 65.5978 164.998 65.3743 164.778C65.1508 164.555 65.0391 164.286 65.0391 163.972C65.0391 163.661 65.1508 163.396 65.3743 163.176C65.5978 162.953 65.8648 162.841 66.1754 162.841C66.486 162.841 66.7531 162.953 66.9766 163.176C67.2 163.396 67.3118 163.661 67.3118 163.972C67.3118 164.18 67.2588 164.371 67.1527 164.545C67.0504 164.716 66.9141 164.852 66.7436 164.955C66.5732 165.057 66.3838 165.108 66.1754 165.108ZM69.6598 165L74.7393 154.955V154.869H68.8643V153.364H76.5575V154.92L71.495 165H69.6598ZM82.218 165.159C81.5059 165.159 80.8658 165.023 80.2976 164.75C79.7332 164.473 79.2824 164.095 78.9453 163.614C78.6082 163.133 78.4283 162.583 78.4055 161.966H80.1101C80.1518 162.466 80.3733 162.877 80.7749 163.199C81.1764 163.521 81.6574 163.682 82.218 163.682C82.665 163.682 83.0608 163.58 83.4055 163.375C83.754 163.167 84.0268 162.881 84.2237 162.517C84.4245 162.153 84.5249 161.739 84.5249 161.273C84.5249 160.799 84.4226 160.377 84.218 160.006C84.0135 159.634 83.7313 159.343 83.3714 159.131C83.0154 158.919 82.6063 158.811 82.1442 158.807C81.7919 158.807 81.4377 158.867 81.0817 158.989C80.7256 159.11 80.4377 159.269 80.218 159.466L78.6101 159.227L79.2635 153.364H85.6612V154.869H80.7237L80.3544 158.125H80.4226C80.6499 157.905 80.951 157.722 81.326 157.574C81.7048 157.426 82.1101 157.352 82.5419 157.352C83.2502 157.352 83.8809 157.521 84.4339 157.858C84.9908 158.195 85.4283 158.655 85.7464 159.239C86.0684 159.818 86.2275 160.485 86.2237 161.239C86.2275 161.992 86.0571 162.665 85.7124 163.256C85.3714 163.847 84.898 164.312 84.2919 164.653C83.6896 164.991 82.9983 165.159 82.218 165.159ZM89.6626 156.273L91.5888 159.67L93.532 156.273H95.3899L92.6683 160.636L95.4126 165H93.5547L91.5888 161.739L89.6286 165H87.7649L90.4808 160.636L87.799 156.273H89.6626Z" fill="white"/>
<path d="M218.307 165V163.727L222.244 159.648C222.665 159.205 223.011 158.816 223.284 158.483C223.561 158.146 223.767 157.826 223.903 157.523C224.04 157.22 224.108 156.898 224.108 156.557C224.108 156.17 224.017 155.837 223.835 155.557C223.653 155.273 223.405 155.055 223.091 154.903C222.777 154.748 222.422 154.67 222.028 154.67C221.612 154.67 221.248 154.756 220.938 154.926C220.627 155.097 220.388 155.337 220.222 155.648C220.055 155.958 219.972 156.322 219.972 156.739H218.295C218.295 156.03 218.458 155.411 218.784 154.881C219.11 154.35 219.557 153.939 220.125 153.648C220.693 153.352 221.339 153.205 222.062 153.205C222.794 153.205 223.438 153.35 223.994 153.642C224.555 153.93 224.992 154.324 225.307 154.824C225.621 155.32 225.778 155.881 225.778 156.506C225.778 156.938 225.697 157.36 225.534 157.773C225.375 158.186 225.097 158.646 224.699 159.153C224.301 159.657 223.748 160.269 223.04 160.989L220.727 163.409V163.494H225.966V165H218.307ZM229.483 156.273L231.409 159.67L233.352 156.273H235.21L232.489 160.636L235.233 165H233.375L231.409 161.739L229.449 165H227.585L230.301 160.636L227.619 156.273H229.483Z" fill="white"/>
<defs>
<filter id="filter0_d_227_67" x="151" y="36" width="151" height="162" filterUnits="userSpaceOnUse" color-interpolation-filters="sRGB">
<feFlood flood-opacity="0" result="BackgroundImageFix"/>
<feColorMatrix in="SourceAlpha" type="matrix" values="0 0 0 0 0 0 0 0 0 0 0 0 0 0 0 0 0 0 127 0" result="hardAlpha"/>
<feOffset dy="4"/>
<feGaussianBlur stdDeviation="7.5"/>
<feComposite in2="hardAlpha" operator="out"/>
<feColorMatrix type="matrix" values="0 0 0 0 0 0 0 0 0 0 0 0 0 0 0 0 0 0 0.15 0"/>
<feBlend mode="normal" in2="BackgroundImageFix" result="effect1_dropShadow_227_67"/>
<feBlend mode="normal" in="SourceGraphic" in2="effect1_dropShadow_227_67" result="shape"/>
</filter>
<filter id="filter1_d_227_67" x="0" y="128" width="151" height="70" filterUnits="userSpaceOnUse" color-interpolation-filters="sRGB">
<feFlood flood-opacity="0" result="BackgroundImageFix"/>
<feColorMatrix in="SourceAlpha" type="matrix" values="0 0 0 0 0 0 0 0 0 0 0 0 0 0 0 0 0 0 127 0" result="hardAlpha"/>
<feOffset dy="4"/>
<feGaussianBlur stdDeviation="7.5"/>
<feComposite in2="hardAlpha" operator="out"/>
<feColorMatrix type="matrix" values="0 0 0 0 0 0 0 0 0 0 0 0 0 0 0 0 0 0 0.15 0"/>
<feBlend mode="normal" in2="BackgroundImageFix" result="effect1_dropShadow_227_67"/>
<feBlend mode="normal" in="SourceGraphic" in2="effect1_dropShadow_227_67" result="shape"/>
</filter>
<linearGradient id="paint0_linear_227_67" x1="169.328" y1="63.9714" x2="293.405" y2="75.4345" gradientUnits="userSpaceOnUse">
<stop stop-color="#1CBE84"/>
<stop offset="1" stop-color="#06402B"/>
</linearGradient>
<linearGradient id="paint1_linear_227_67" x1="18.3275" y1="144.143" x2="132.822" y2="179.049" gradientUnits="userSpaceOnUse">
<stop stop-color="#1CBE84"/>
<stop offset="1" stop-color="#06402B"/>
</linearGradient>
</defs>
</svg>
