<svg width="312" height="219" viewBox="0 0 312 219" fill="none" xmlns="http://www.w3.org/2000/svg">
<g clip-path="url(#clip0_615_53)">
<g filter="url(#filter0_di_615_53)">
<path d="M277 16H186C177.716 16 171 22.7157 171 31V180C171 188.284 177.716 195 186 195H277C285.284 195 292 188.284 292 180V31C292 22.7157 285.284 16 277 16Z" fill="white" fill-opacity="0.2"/>
<path d="M277 16.5H186C177.992 16.5 171.5 22.9919 171.5 31V180C171.5 188.008 177.992 194.5 186 194.5H277C285.008 194.5 291.5 188.008 291.5 180V31C291.5 22.9919 285.008 16.5 277 16.5Z" stroke="white" stroke-opacity="0.4"/>
</g>
<g filter="url(#filter1_d_615_53)">
<path d="M277 63H186C177.716 63 171 69.7157 171 78V180C171 188.284 177.716 195 186 195H277C285.284 195 292 188.284 292 180V78C292 69.7157 285.284 63 277 63Z" fill="#06402B"/>
</g>
<g filter="url(#filter2_di_615_53)">
<path d="M126 16H35C26.7157 16 20 22.7157 20 31V180C20 188.284 26.7157 195 35 195H126C134.284 195 141 188.284 141 180V31C141 22.7157 134.284 16 126 16Z" fill="white" fill-opacity="0.2"/>
<path d="M126 16.5H35C26.9919 16.5 20.5 22.9919 20.5 31V180C20.5 188.008 26.9919 194.5 35 194.5H126C134.008 194.5 140.5 188.008 140.5 180V31C140.5 22.9919 134.008 16.5 126 16.5Z" stroke="white" stroke-opacity="0.4"/>
</g>
<path d="M36.5234 44.9999L33.7344 34.8181H34.679L36.9858 43.5731H37.0653L39.3721 34.8181H40.446L42.7528 43.5731H42.8324L45.1392 34.8181H46.0888L43.2997 44.9999H42.3054L39.9439 36.3642H39.8793L37.5177 44.9999H36.5234ZM47.5952 44.9999V37.3635H48.4851V44.9999H47.5952ZM48.0476 36.051C47.8653 36.051 47.7095 35.9897 47.5802 35.8671C47.451 35.7411 47.3864 35.5903 47.3864 35.4147C47.3864 35.239 47.451 35.0899 47.5802 34.9672C47.7095 34.8413 47.8653 34.7783 48.0476 34.7783C48.2299 34.7783 48.3856 34.8413 48.5149 34.9672C48.6442 35.0899 48.7088 35.239 48.7088 35.4147C48.7088 35.5903 48.6442 35.7411 48.5149 35.8671C48.3856 35.9897 48.2299 36.051 48.0476 36.051ZM53.8333 37.3635V38.1341H50.1891V37.3635H53.8333ZM51.3276 35.534H52.2175V43.0063C52.2175 43.3245 52.2722 43.5747 52.3816 43.757C52.4909 43.936 52.6335 44.0636 52.8091 44.1398C52.9848 44.2127 53.172 44.2492 53.3709 44.2492C53.4869 44.2492 53.5863 44.2426 53.6692 44.2293C53.7521 44.2127 53.825 44.1962 53.888 44.1796L54.0769 44.98C53.9907 45.0132 53.8846 45.043 53.7587 45.0695C53.6327 45.0993 53.477 45.1142 53.2914 45.1142C52.9665 45.1142 52.6533 45.043 52.3517 44.9005C52.0534 44.7579 51.8082 44.5458 51.6159 44.2641C51.4237 43.9824 51.3276 43.6327 51.3276 43.2151V35.534ZM56.892 40.2272V44.9999H56.0071V34.8181H56.892V38.5617H56.9716C57.1506 38.1673 57.4273 37.8524 57.8018 37.6171C58.1797 37.3818 58.6569 37.2641 59.2337 37.2641C59.7507 37.2641 60.2048 37.3702 60.5959 37.5823C60.987 37.7944 61.2919 38.1076 61.5106 38.5219C61.7294 38.9362 61.8388 39.4466 61.8388 40.0532V44.9999H60.9489V40.1079C60.9489 39.4781 60.7732 38.9826 60.4219 38.6213C60.0739 38.2568 59.6032 38.0745 59.0099 38.0745C58.6023 38.0745 58.2393 38.1606 57.9212 38.333C57.603 38.5053 57.3511 38.7539 57.1655 39.0787C56.9832 39.4002 56.892 39.783 56.892 40.2272ZM67.1372 45.159C66.4777 45.159 65.8943 44.9916 65.3872 44.6569C64.8835 44.3221 64.489 43.8597 64.204 43.2698C63.919 42.6765 63.7764 41.9921 63.7764 41.2165C63.7764 40.4343 63.919 39.7466 64.204 39.1533C64.489 38.5567 64.8835 38.0927 65.3872 37.7613C65.8943 37.4265 66.4777 37.2591 67.1372 37.2591C67.7968 37.2591 68.3785 37.4265 68.8823 37.7613C69.3861 38.096 69.7805 38.56 70.0655 39.1533C70.3539 39.7466 70.498 40.4343 70.498 41.2165C70.498 41.9921 70.3555 42.6765 70.0705 43.2698C69.7854 43.8597 69.3894 44.3221 68.8823 44.6569C68.3785 44.9916 67.7968 45.159 67.1372 45.159ZM67.1372 44.3486C67.6675 44.3486 68.1166 44.2061 68.4845 43.9211C68.8524 43.636 69.1308 43.2565 69.3198 42.7826C69.512 42.3086 69.6081 41.7866 69.6081 41.2165C69.6081 40.6464 69.512 40.1228 69.3198 39.6455C69.1308 39.1682 68.8524 38.7854 68.4845 38.4971C68.1166 38.2087 67.6675 38.0645 67.1372 38.0645C66.6103 38.0645 66.1612 38.2087 65.7899 38.4971C65.422 38.7854 65.142 39.1682 64.9497 39.6455C64.7608 40.1228 64.6664 40.6464 64.6664 41.2165C64.6664 41.7866 64.7608 42.3086 64.9497 42.7826C65.142 43.2565 65.422 43.636 65.7899 43.9211C66.1578 44.2061 66.6069 44.3486 67.1372 44.3486ZM77.293 42.0816V37.3635H78.1779V44.9999H77.293V43.7321H77.2234C77.0444 44.1232 76.761 44.4497 76.3732 44.7115C75.9854 44.9701 75.5115 45.0993 74.9513 45.0993C74.4641 45.0993 74.0316 44.9933 73.6538 44.7811C73.2759 44.5657 72.9793 44.2508 72.7638 43.8365C72.5484 43.4222 72.4407 42.9135 72.4407 42.3103V37.3635H73.3256V42.2556C73.3256 42.8522 73.5013 43.3328 73.8526 43.6973C74.2039 44.0586 74.6547 44.2392 75.2049 44.2392C75.5496 44.2392 75.881 44.1564 76.1992 43.9907C76.5174 43.8249 76.7792 43.583 76.9847 43.2648C77.1902 42.9433 77.293 42.5489 77.293 42.0816ZM83.5286 37.3635V38.1341H79.8844V37.3635H83.5286ZM81.0229 35.534H81.9128V43.0063C81.9128 43.3245 81.9675 43.5747 82.0769 43.757C82.1862 43.936 82.3288 44.0636 82.5044 44.1398C82.6801 44.2127 82.8674 44.2492 83.0662 44.2492C83.1822 44.2492 83.2817 44.2426 83.3645 44.2293C83.4474 44.2127 83.5203 44.1962 83.5833 44.1796L83.7722 44.98C83.686 45.0132 83.5799 45.043 83.454 45.0695C83.3281 45.0993 83.1723 45.1142 82.9867 45.1142C82.6619 45.1142 82.3487 45.043 82.047 44.9005C81.7487 44.7579 81.5035 44.5458 81.3112 44.2641C81.119 43.9824 81.0229 43.6327 81.0229 43.2151V35.534ZM89.0433 35.6533V34.8181H96.4261V35.6533H93.1996V44.9999H92.2699V35.6533H89.0433ZM97.5422 44.9999V37.3635H98.4023V38.5368H98.467C98.6194 38.1524 98.8846 37.8425 99.2624 37.6071C99.6436 37.3685 100.075 37.2492 100.555 37.2492C100.628 37.2492 100.709 37.2508 100.799 37.2542C100.888 37.2575 100.963 37.2608 101.022 37.2641V38.164C100.983 38.1573 100.913 38.1474 100.814 38.1341C100.714 38.1209 100.607 38.1142 100.491 38.1142C100.093 38.1142 99.738 38.1988 99.4265 38.3678C99.1182 38.5335 98.8746 38.7639 98.6957 39.0588C98.5167 39.3538 98.4272 39.6902 98.4272 40.0681V44.9999H97.5422ZM105.268 45.159C104.609 45.159 104.025 44.9916 103.518 44.6569C103.014 44.3221 102.62 43.8597 102.335 43.2698C102.05 42.6765 101.907 41.9921 101.907 41.2165C101.907 40.4343 102.05 39.7466 102.335 39.1533C102.62 38.5567 103.014 38.0927 103.518 37.7613C104.025 37.4265 104.609 37.2591 105.268 37.2591C105.928 37.2591 106.509 37.4265 107.013 37.7613C107.517 38.096 107.911 38.56 108.196 39.1533C108.485 39.7466 108.629 40.4343 108.629 41.2165C108.629 41.9921 108.486 42.6765 108.201 43.2698C107.916 43.8597 107.52 44.3221 107.013 44.6569C106.509 44.9916 105.928 45.159 105.268 45.159ZM105.268 44.3486C105.799 44.3486 106.248 44.2061 106.616 43.9211C106.983 43.636 107.262 43.2565 107.451 42.7826C107.643 42.3086 107.739 41.7866 107.739 41.2165C107.739 40.6464 107.643 40.1228 107.451 39.6455C107.262 39.1682 106.983 38.7854 106.616 38.4971C106.248 38.2087 105.799 38.0645 105.268 38.0645C104.741 38.0645 104.292 38.2087 103.921 38.4971C103.553 38.7854 103.273 39.1682 103.081 39.6455C102.892 40.1228 102.797 40.6464 102.797 41.2165C102.797 41.7866 102.892 42.3086 103.081 42.7826C103.273 43.2565 103.553 43.636 103.921 43.9211C104.289 44.2061 104.738 44.3486 105.268 44.3486ZM110.572 44.9999V37.3635H111.432V38.5368H111.511C111.664 38.1424 111.917 37.8325 112.272 37.6071C112.63 37.3785 113.059 37.2641 113.56 37.2641C114.087 37.2641 114.519 37.3884 114.857 37.637C115.199 37.8822 115.454 38.2203 115.623 38.6512H115.687C115.86 38.2269 116.14 37.8905 116.528 37.6419C116.919 37.3901 117.393 37.2641 117.949 37.2641C118.659 37.2641 119.219 37.4878 119.63 37.9353C120.041 38.3794 120.246 39.029 120.246 39.8841V44.9999H119.361V39.8841C119.361 39.2809 119.207 38.8285 118.899 38.5269C118.591 38.2253 118.185 38.0745 117.681 38.0745C117.098 38.0745 116.649 38.2535 116.334 38.6114C116.019 38.9694 115.861 39.4234 115.861 39.9736V44.9999H114.957V39.8046C114.957 39.2875 114.812 38.8699 114.524 38.5517C114.236 38.2336 113.83 38.0745 113.306 38.0745C112.955 38.0745 112.638 38.1606 112.356 38.333C112.078 38.5053 111.858 38.7456 111.695 39.0539C111.536 39.3588 111.457 39.7101 111.457 40.1079V44.9999H110.572ZM127.72 39.039L126.91 39.2677C126.83 39.039 126.717 38.8318 126.571 38.6462C126.426 38.4606 126.235 38.3131 126 38.2037C125.768 38.0944 125.479 38.0397 125.135 38.0397C124.618 38.0397 124.193 38.1623 123.862 38.4076C123.531 38.6528 123.365 38.9694 123.365 39.3571C123.365 39.6853 123.477 39.9521 123.703 40.1576C123.932 40.3597 124.283 40.5205 124.757 40.6398L125.91 40.9232C126.55 41.079 127.029 41.3259 127.347 41.664C127.669 42.002 127.829 42.4263 127.829 42.9367C127.829 43.3676 127.71 43.7504 127.471 44.0851C127.233 44.4199 126.9 44.6834 126.472 44.8756C126.048 45.0645 125.556 45.159 124.995 45.159C124.25 45.159 123.635 44.9916 123.151 44.6569C122.667 44.3188 122.357 43.8316 122.221 43.1952L123.071 42.9864C123.181 43.4405 123.395 43.7835 123.713 44.0155C124.034 44.2475 124.457 44.3635 124.981 44.3635C125.567 44.3635 126.036 44.2326 126.388 43.9708C126.739 43.7056 126.915 43.3742 126.915 42.9765C126.915 42.6682 126.812 42.4097 126.606 42.2009C126.401 41.9888 126.089 41.833 125.672 41.7336L124.424 41.4353C123.761 41.2762 123.27 41.0243 122.952 40.6796C122.634 40.3349 122.475 39.9073 122.475 39.3969C122.475 38.976 122.589 38.6064 122.818 38.2883C123.047 37.9668 123.361 37.7149 123.763 37.5326C124.164 37.3503 124.621 37.2591 125.135 37.2591C125.834 37.2591 126.392 37.4182 126.81 37.7364C127.231 38.0513 127.534 38.4855 127.72 39.039Z" fill="black"/>
<path d="M198.208 44.9999L195.419 34.8181H196.364L198.67 43.5731H198.75L201.057 34.8181H202.131L204.438 43.5731H204.517L206.824 34.8181H207.773L204.984 44.9999H203.99L201.629 36.3642H201.564L199.202 44.9999H198.208ZM209.28 44.9999V37.3635H210.17V44.9999H209.28ZM209.732 36.051C209.55 36.051 209.394 35.9897 209.265 35.8671C209.136 35.7411 209.071 35.5903 209.071 35.4147C209.071 35.239 209.136 35.0899 209.265 34.9672C209.394 34.8413 209.55 34.7783 209.732 34.7783C209.915 34.7783 210.07 34.8413 210.2 34.9672C210.329 35.0899 210.393 35.239 210.393 35.4147C210.393 35.5903 210.329 35.7411 210.2 35.8671C210.07 35.9897 209.915 36.051 209.732 36.051ZM215.518 37.3635V38.1341H211.874V37.3635H215.518ZM213.012 35.534H213.902V43.0063C213.902 43.3245 213.957 43.5747 214.066 43.757C214.176 43.936 214.318 44.0636 214.494 44.1398C214.669 44.2127 214.857 44.2492 215.056 44.2492C215.172 44.2492 215.271 44.2426 215.354 44.2293C215.437 44.2127 215.51 44.1962 215.573 44.1796L215.762 44.98C215.675 45.0132 215.569 45.043 215.443 45.0695C215.317 45.0993 215.162 45.1142 214.976 45.1142C214.651 45.1142 214.338 45.043 214.036 44.9005C213.738 44.7579 213.493 44.5458 213.301 44.2641C213.108 43.9824 213.012 43.6327 213.012 43.2151V35.534ZM218.577 40.2272V44.9999H217.692V34.8181H218.577V38.5617H218.656C218.835 38.1673 219.112 37.8524 219.487 37.6171C219.864 37.3818 220.342 37.2641 220.918 37.2641C221.435 37.2641 221.889 37.3702 222.281 37.5823C222.672 37.7944 222.977 38.1076 223.195 38.5219C223.414 38.9362 223.523 39.4466 223.523 40.0532V44.9999H222.634V40.1079C222.634 39.4781 222.458 38.9826 222.107 38.6213C221.759 38.2568 221.288 38.0745 220.695 38.0745C220.287 38.0745 219.924 38.1606 219.606 38.333C219.288 38.5053 219.036 38.7539 218.85 39.0787C218.668 39.4002 218.577 39.783 218.577 40.2272ZM229.359 35.6533V34.8181H236.742V35.6533H233.515V44.9999H232.585V35.6533H229.359ZM237.858 44.9999V37.3635H238.718V38.5368H238.782C238.935 38.1524 239.2 37.8425 239.578 37.6071C239.959 37.3685 240.39 37.2492 240.871 37.2492C240.943 37.2492 241.025 37.2508 241.114 37.2542C241.204 37.2575 241.278 37.2608 241.338 37.2641V38.164C241.298 38.1573 241.229 38.1474 241.129 38.1341C241.03 38.1209 240.922 38.1142 240.806 38.1142C240.408 38.1142 240.054 38.1988 239.742 38.3678C239.434 38.5335 239.19 38.7639 239.011 39.0588C238.832 39.3538 238.743 39.6902 238.743 40.0681V44.9999H237.858ZM245.584 45.159C244.924 45.159 244.341 44.9916 243.834 44.6569C243.33 44.3221 242.935 43.8597 242.65 43.2698C242.365 42.6765 242.223 41.9921 242.223 41.2165C242.223 40.4343 242.365 39.7466 242.65 39.1533C242.935 38.5567 243.33 38.0927 243.834 37.7613C244.341 37.4265 244.924 37.2591 245.584 37.2591C246.243 37.2591 246.825 37.4265 247.329 37.7613C247.832 38.096 248.227 38.56 248.512 39.1533C248.8 39.7466 248.944 40.4343 248.944 41.2165C248.944 41.9921 248.802 42.6765 248.517 43.2698C248.232 43.8597 247.836 44.3221 247.329 44.6569C246.825 44.9916 246.243 45.159 245.584 45.159ZM245.584 44.3486C246.114 44.3486 246.563 44.2061 246.931 43.9211C247.299 43.636 247.577 43.2565 247.766 42.7826C247.958 42.3086 248.055 41.7866 248.055 41.2165C248.055 40.6464 247.958 40.1228 247.766 39.6455C247.577 39.1682 247.299 38.7854 246.931 38.4971C246.563 38.2087 246.114 38.0645 245.584 38.0645C245.057 38.0645 244.608 38.2087 244.236 38.4971C243.868 38.7854 243.588 39.1682 243.396 39.6455C243.207 40.1228 243.113 40.6464 243.113 41.2165C243.113 41.7866 243.207 42.3086 243.396 42.7826C243.588 43.2565 243.868 43.636 244.236 43.9211C244.604 44.2061 245.053 44.3486 245.584 44.3486ZM250.887 44.9999V37.3635H251.747V38.5368H251.827C251.979 38.1424 252.233 37.8325 252.587 37.6071C252.945 37.3785 253.375 37.2641 253.875 37.2641C254.402 37.2641 254.835 37.3884 255.173 37.637C255.514 37.8822 255.769 38.2203 255.938 38.6512H256.003C256.175 38.2269 256.455 37.8905 256.843 37.6419C257.234 37.3901 257.708 37.2641 258.265 37.2641C258.974 37.2641 259.534 37.4878 259.945 37.9353C260.356 38.3794 260.562 39.029 260.562 39.8841V44.9999H259.677V39.8841C259.677 39.2809 259.523 38.8285 259.214 38.5269C258.906 38.2253 258.5 38.0745 257.996 38.0745C257.413 38.0745 256.964 38.2535 256.649 38.6114C256.334 38.9694 256.177 39.4234 256.177 39.9736V44.9999H255.272V39.8046C255.272 39.2875 255.128 38.8699 254.839 38.5517C254.551 38.2336 254.145 38.0745 253.621 38.0745C253.27 38.0745 252.954 38.1606 252.672 38.333C252.393 38.5053 252.173 38.7456 252.011 39.0539C251.852 39.3588 251.772 39.7101 251.772 40.1079V44.9999H250.887ZM268.035 39.039L267.225 39.2677C267.145 39.039 267.033 38.8318 266.887 38.6462C266.741 38.4606 266.55 38.3131 266.315 38.2037C266.083 38.0944 265.795 38.0397 265.45 38.0397C264.933 38.0397 264.509 38.1623 264.177 38.4076C263.846 38.6528 263.68 38.9694 263.68 39.3571C263.68 39.6853 263.793 39.9521 264.018 40.1576C264.247 40.3597 264.598 40.5205 265.072 40.6398L266.226 40.9232C266.865 41.079 267.344 41.3259 267.662 41.664C267.984 42.002 268.145 42.4263 268.145 42.9367C268.145 43.3676 268.025 43.7504 267.787 44.0851C267.548 44.4199 267.215 44.6834 266.787 44.8756C266.363 45.0645 265.871 45.159 265.311 45.159C264.565 45.159 263.95 44.9916 263.466 44.6569C262.983 44.3188 262.673 43.8316 262.537 43.1952L263.387 42.9864C263.496 43.4405 263.71 43.7835 264.028 44.0155C264.35 44.2475 264.772 44.3635 265.296 44.3635C265.883 44.3635 266.352 44.2326 266.703 43.9708C267.054 43.7056 267.23 43.3742 267.23 42.9765C267.23 42.6682 267.127 42.4097 266.922 42.2009C266.716 41.9888 266.405 41.833 265.987 41.7336L264.739 41.4353C264.076 41.2762 263.586 41.0243 263.268 40.6796C262.949 40.3349 262.79 39.9073 262.79 39.3969C262.79 38.976 262.905 38.6064 263.133 38.2883C263.362 37.9668 263.677 37.7149 264.078 37.5326C264.479 37.3503 264.936 37.2591 265.45 37.2591C266.149 37.2591 266.708 37.4182 267.126 37.7364C267.546 38.0513 267.85 38.4855 268.035 39.039Z" fill="black"/>
<g filter="url(#filter3_d_615_53)">
<path d="M126 155H35C26.7157 155 20 161.716 20 170V180C20 188.284 26.7157 195 35 195H126C134.284 195 141 188.284 141 180V170C141 161.716 134.284 155 126 155Z" fill="#06402B"/>
</g>
<path d="M64.1782 181.193C63.2804 181.189 62.5134 180.953 61.877 180.483C61.2407 180.013 60.7539 179.33 60.4168 178.432C60.0797 177.534 59.9111 176.453 59.9111 175.188C59.9111 173.926 60.0797 172.848 60.4168 171.955C60.7577 171.061 61.2463 170.379 61.8827 169.909C62.5229 169.439 63.288 169.205 64.1782 169.205C65.0683 169.205 65.8316 169.441 66.4679 169.915C67.1043 170.384 67.591 171.066 67.9282 171.96C68.2691 172.85 68.4395 173.926 68.4395 175.188C68.4395 176.456 68.271 177.54 67.9338 178.438C67.5967 179.331 67.11 180.015 66.4736 180.489C65.8373 180.958 65.0721 181.193 64.1782 181.193ZM64.1782 179.676C64.966 179.676 65.5816 179.292 66.0248 178.523C66.4717 177.754 66.6952 176.642 66.6952 175.188C66.6952 174.222 66.5929 173.405 66.3884 172.739C66.1876 172.068 65.8979 171.561 65.5191 171.216C65.1441 170.867 64.6971 170.693 64.1782 170.693C63.3941 170.693 62.7785 171.08 62.3316 171.852C61.8846 172.625 61.6592 173.737 61.6554 175.188C61.6554 176.157 61.7558 176.977 61.9566 177.648C62.1611 178.314 62.4509 178.82 62.8259 179.165C63.2009 179.506 63.6517 179.676 64.1782 179.676ZM71.1753 181.108C70.8647 181.108 70.5977 180.998 70.3742 180.778C70.1507 180.555 70.039 180.286 70.039 179.972C70.039 179.661 70.1507 179.396 70.3742 179.176C70.5977 178.953 70.8647 178.841 71.1753 178.841C71.4859 178.841 71.753 178.953 71.9765 179.176C72.1999 179.396 72.3117 179.661 72.3117 179.972C72.3117 180.18 72.2587 180.371 72.1526 180.545C72.0503 180.716 71.914 180.852 71.7435 180.955C71.5731 181.057 71.3837 181.108 71.1753 181.108ZM74.6597 181L79.7392 170.955V170.869H73.8642V169.364H81.5574V170.92L76.4949 181H74.6597ZM87.2179 181.159C86.5058 181.159 85.8657 181.023 85.2975 180.75C84.7331 180.473 84.2823 180.095 83.9452 179.614C83.6081 179.133 83.4282 178.583 83.4054 177.966H85.11C85.1517 178.466 85.3732 178.877 85.7748 179.199C86.1763 179.521 86.6573 179.682 87.2179 179.682C87.6649 179.682 88.0607 179.58 88.4054 179.375C88.7539 179.167 89.0267 178.881 89.2236 178.517C89.4244 178.153 89.5248 177.739 89.5248 177.273C89.5248 176.799 89.4225 176.377 89.2179 176.006C89.0134 175.634 88.7312 175.343 88.3713 175.131C88.0153 174.919 87.6062 174.811 87.1441 174.807C86.7918 174.807 86.4376 174.867 86.0816 174.989C85.7255 175.11 85.4376 175.269 85.2179 175.466L83.61 175.227L84.2634 169.364H90.6611V170.869H85.7236L85.3543 174.125H85.4225C85.6498 173.905 85.9509 173.722 86.3259 173.574C86.7047 173.426 87.11 173.352 87.5418 173.352C88.2501 173.352 88.8808 173.521 89.4338 173.858C89.9907 174.195 90.4282 174.655 90.7463 175.239C91.0683 175.818 91.2274 176.485 91.2236 177.239C91.2274 177.992 91.057 178.665 90.7123 179.256C90.3713 179.847 89.8979 180.312 89.2918 180.653C88.6895 180.991 87.9982 181.159 87.2179 181.159ZM94.6625 172.273L96.5887 175.67L98.5319 172.273H100.39L97.6682 176.636L100.413 181H98.5546L96.5887 177.739L94.6285 181H92.7648L95.4807 176.636L92.7989 172.273H94.6625Z" fill="white"/>
<path d="M223.307 181V179.727L227.244 175.648C227.665 175.205 228.011 174.816 228.284 174.483C228.561 174.146 228.767 173.826 228.903 173.523C229.04 173.22 229.108 172.898 229.108 172.557C229.108 172.17 229.017 171.837 228.835 171.557C228.653 171.273 228.405 171.055 228.091 170.903C227.777 170.748 227.422 170.67 227.028 170.67C226.612 170.67 226.248 170.756 225.938 170.926C225.627 171.097 225.388 171.337 225.222 171.648C225.055 171.958 224.972 172.322 224.972 172.739H223.295C223.295 172.03 223.458 171.411 223.784 170.881C224.11 170.35 224.557 169.939 225.125 169.648C225.693 169.352 226.339 169.205 227.062 169.205C227.794 169.205 228.438 169.35 228.994 169.642C229.555 169.93 229.992 170.324 230.307 170.824C230.621 171.32 230.778 171.881 230.778 172.506C230.778 172.938 230.697 173.36 230.534 173.773C230.375 174.186 230.097 174.646 229.699 175.153C229.301 175.657 228.748 176.269 228.04 176.989L225.727 179.409V179.494H230.966V181H223.307ZM234.483 172.273L236.409 175.67L238.352 172.273H240.21L237.489 176.636L240.233 181H238.375L236.409 177.739L234.449 181H232.585L235.301 176.636L232.619 172.273H234.483Z" fill="white"/>
</g>
<defs>
<filter id="filter0_di_615_53" x="151" y="0" width="161" height="219" filterUnits="userSpaceOnUse" color-interpolation-filters="sRGB">
<feFlood flood-opacity="0" result="BackgroundImageFix"/>
<feColorMatrix in="SourceAlpha" type="matrix" values="0 0 0 0 0 0 0 0 0 0 0 0 0 0 0 0 0 0 127 0" result="hardAlpha"/>
<feOffset dy="4"/>
<feGaussianBlur stdDeviation="10"/>
<feComposite in2="hardAlpha" operator="out"/>
<feColorMatrix type="matrix" values="0 0 0 0 0 0 0 0 0 0 0 0 0 0 0 0 0 0 0.15 0"/>
<feBlend mode="normal" in2="BackgroundImageFix" result="effect1_dropShadow_615_53"/>
<feBlend mode="normal" in="SourceGraphic" in2="effect1_dropShadow_615_53" result="shape"/>
<feColorMatrix in="SourceAlpha" type="matrix" values="0 0 0 0 0 0 0 0 0 0 0 0 0 0 0 0 0 0 127 0" result="hardAlpha"/>
<feOffset dy="2"/>
<feGaussianBlur stdDeviation="2"/>
<feComposite in2="hardAlpha" operator="arithmetic" k2="-1" k3="1"/>
<feColorMatrix type="matrix" values="0 0 0 0 0 0 0 0 0 0 0 0 0 0 0 0 0 0 0.08 0"/>
<feBlend mode="normal" in2="shape" result="effect2_innerShadow_615_53"/>
</filter>
<filter id="filter1_d_615_53" x="156" y="52" width="151" height="162" filterUnits="userSpaceOnUse" color-interpolation-filters="sRGB">
<feFlood flood-opacity="0" result="BackgroundImageFix"/>
<feColorMatrix in="SourceAlpha" type="matrix" values="0 0 0 0 0 0 0 0 0 0 0 0 0 0 0 0 0 0 127 0" result="hardAlpha"/>
<feOffset dy="4"/>
<feGaussianBlur stdDeviation="7.5"/>
<feComposite in2="hardAlpha" operator="out"/>
<feColorMatrix type="matrix" values="0 0 0 0 0 0 0 0 0 0 0 0 0 0 0 0 0 0 0.08 0"/>
<feBlend mode="normal" in2="BackgroundImageFix" result="effect1_dropShadow_615_53"/>
<feBlend mode="normal" in="SourceGraphic" in2="effect1_dropShadow_615_53" result="shape"/>
</filter>
<filter id="filter2_di_615_53" x="0" y="0" width="161" height="219" filterUnits="userSpaceOnUse" color-interpolation-filters="sRGB">
<feFlood flood-opacity="0" result="BackgroundImageFix"/>
<feColorMatrix in="SourceAlpha" type="matrix" values="0 0 0 0 0 0 0 0 0 0 0 0 0 0 0 0 0 0 127 0" result="hardAlpha"/>
<feOffset dy="4"/>
<feGaussianBlur stdDeviation="10"/>
<feComposite in2="hardAlpha" operator="out"/>
<feColorMatrix type="matrix" values="0 0 0 0 0 0 0 0 0 0 0 0 0 0 0 0 0 0 0.15 0"/>
<feBlend mode="normal" in2="BackgroundImageFix" result="effect1_dropShadow_615_53"/>
<feBlend mode="normal" in="SourceGraphic" in2="effect1_dropShadow_615_53" result="shape"/>
<feColorMatrix in="SourceAlpha" type="matrix" values="0 0 0 0 0 0 0 0 0 0 0 0 0 0 0 0 0 0 127 0" result="hardAlpha"/>
<feOffset dy="2"/>
<feGaussianBlur stdDeviation="2"/>
<feComposite in2="hardAlpha" operator="arithmetic" k2="-1" k3="1"/>
<feColorMatrix type="matrix" values="0 0 0 0 0 0 0 0 0 0 0 0 0 0 0 0 0 0 0.08 0"/>
<feBlend mode="normal" in2="shape" result="effect2_innerShadow_615_53"/>
</filter>
<filter id="filter3_d_615_53" x="5" y="144" width="151" height="70" filterUnits="userSpaceOnUse" color-interpolation-filters="sRGB">
<feFlood flood-opacity="0" result="BackgroundImageFix"/>
<feColorMatrix in="SourceAlpha" type="matrix" values="0 0 0 0 0 0 0 0 0 0 0 0 0 0 0 0 0 0 127 0" result="hardAlpha"/>
<feOffset dy="4"/>
<feGaussianBlur stdDeviation="7.5"/>
<feComposite in2="hardAlpha" operator="out"/>
<feColorMatrix type="matrix" values="0 0 0 0 0 0 0 0 0 0 0 0 0 0 0 0 0 0 0.08 0"/>
<feBlend mode="normal" in2="BackgroundImageFix" result="effect1_dropShadow_615_53"/>
<feBlend mode="normal" in="SourceGraphic" in2="effect1_dropShadow_615_53" result="shape"/>
</filter>
<clipPath id="clip0_615_53">
<rect width="312" height="219" fill="white"/>
</clipPath>
</defs>
</svg>
