<svg width="40" height="41" viewBox="0 0 40 41" fill="none" xmlns="http://www.w3.org/2000/svg">
<path d="M36.4241 24.467H27.027C30.6861 29.5398 29.605 34.6126 29.7713 36.4421V36.5253C29.7713 38.7706 28.0249 40.6001 25.7796 40.6001C23.0353 40.6001 22.1206 38.2716 21.2058 35.86C20.1247 33.0325 18.711 29.4566 14.0541 27.2113L11.0603 25.6313V25.7976C11.0603 26.7124 10.3119 27.4608 9.39709 27.4608H4.158C1.82952 27.4608 0 25.6313 0 23.3028V5.42338C0 3.0949 1.82952 1.26538 4.158 1.26538H9.39709C10.3119 1.26538 11.0603 2.01382 11.0603 2.92858V3.01174C12.474 2.6791 13.6383 2.34646 14.7193 2.09698C17.8794 1.26538 20.2079 0.600098 23.5343 0.600098H32.3493C34.262 0.600098 35.842 2.18014 35.842 4.17598C35.842 5.00758 35.5925 5.75602 35.0936 6.33814C36.4241 6.8371 37.3389 8.16766 37.3389 9.66455C37.3389 10.4961 37.0894 11.2446 36.5904 11.8267C37.921 12.3257 38.8358 13.6562 38.8358 15.1531C38.8358 16.0679 38.5031 16.8163 38.0042 17.4816C39.1684 18.0637 40 19.3111 40 20.7248C39.9168 22.887 38.3368 24.467 36.4241 24.467ZM4.158 3.01174C2.74428 3.01174 1.6632 4.09282 1.6632 5.50654V23.386C1.6632 24.7997 2.74428 25.8808 4.158 25.8808H9.39709V24.3839V4.17598V3.0949H4.158V3.01174ZM36.4241 18.9785C36.341 18.9785 31.4345 18.9785 31.5177 18.9785C31.0187 18.9785 30.6861 18.6458 30.6861 18.1469C30.6861 17.6479 31.0187 17.3153 31.5177 17.3153H35.2599C36.2578 17.3153 37.0894 16.4837 37.0894 15.4026C37.0894 14.3215 36.2578 13.4899 35.2599 13.4899C34.6778 13.4899 29.8545 13.4899 30.0208 13.4899C29.5218 13.4899 29.1892 13.1573 29.1892 12.6583C29.1892 12.1593 29.5218 11.8267 30.0208 11.8267C30.2703 11.8267 33.8462 11.8267 33.763 11.8267C34.7609 11.8267 35.5925 10.9951 35.5925 9.91402C35.5925 8.83294 34.7609 8.00134 33.763 8.00134C33.1809 8.00134 28.3576 8.00134 28.5239 8.00134C28.0249 8.00134 27.6923 7.6687 27.6923 7.16974C27.6923 5.75602 29.7713 6.50446 32.2661 6.33814C33.264 6.33814 34.0956 5.50654 34.0956 4.42546C34.0956 3.34438 33.264 2.34646 32.2661 2.34646H23.4511C20.2911 2.34646 18.2121 2.92858 15.052 3.76018C13.8877 4.09282 12.5572 4.42546 10.9771 4.84126V23.8018L14.8025 25.6313C20.0416 28.2092 21.6216 32.2841 22.7859 35.1947C23.7838 37.6895 24.2827 38.8537 25.7796 38.8537C27.027 38.8537 28.0249 37.7727 28.1081 36.5253C27.9418 34.4463 28.9397 29.9556 25.6133 25.3818L24.6985 24.1344C24.2827 23.6354 24.6985 22.8038 25.3638 22.8038H36.4241C37.422 22.8038 38.2536 21.9722 38.2536 20.8912C38.2536 19.8101 37.422 18.9785 36.4241 18.9785Z" fill="black"/>
</svg>
