<svg width="25" height="24" viewBox="0 0 25 24" fill="none" xmlns="http://www.w3.org/2000/svg">
<path d="M17.1723 16.7512C19.2135 12.8677 17.4636 7.73468 13.4222 5.97377C5.71986 2.56359 -1.28057 11.7104 4.05485 18.2513C7.6108 22.5829 14.6753 21.7705 17.1723 16.7512ZM16.051 13.6837C15.9479 14.8578 15.499 15.9748 14.761 16.8937C14.023 17.8126 13.0291 18.492 11.905 18.846C10.7809 19.2001 9.57703 19.2128 8.44567 18.8826C7.31432 18.5525 6.30627 17.8943 5.549 16.9912C4.79173 16.0882 4.31926 14.9808 4.19132 13.8092C4.06338 12.6377 4.28572 11.4544 4.83023 10.4092C5.37474 9.36401 6.21696 8.50373 7.25039 7.93717C8.28382 7.37061 9.46205 7.12322 10.6361 7.22628C12.2069 7.37325 13.6564 8.13367 14.6702 9.34257C15.6839 10.5515 16.1801 12.1113 16.051 13.6837Z" fill="black"/>
<path d="M10.6885 7.9874C9.99938 7.91369 9.30243 7.97781 8.63827 8.17603C7.97412 8.37425 7.35603 8.70261 6.82 9.14199C6.28396 9.58136 5.84068 10.123 5.51596 10.7353C5.19125 11.3476 4.99158 12.0185 4.9286 12.7087C4.49984 17.9936 11.282 20.4709 14.3673 16.1698C16.6688 13.0631 14.5587 8.35458 10.6885 7.9874ZM12.436 13.3686C12.0672 16.4333 7.61221 16.0292 7.7973 12.9598C8.15101 9.89931 12.6197 10.2962 12.436 13.3686Z" fill="black"/>
<path d="M10.2532 11.5911C8.1762 11.4573 7.90715 14.5054 9.97952 14.7374C10.3947 14.7699 10.8059 14.6371 11.1236 14.3679C11.4413 14.0986 11.6399 13.7148 11.676 13.2999C11.712 12.8851 11.5828 12.4727 11.3163 12.1527C11.0499 11.8326 10.6678 11.6308 10.2532 11.5911ZM21.3495 5.74864C18.7891 2.5588 13.7354 1.99312 10.5382 4.51123C11.5401 4.56016 12.5259 4.78216 13.452 5.16739C14.2106 4.91905 15.012 4.82844 15.807 4.90114C20.4712 5.24269 22.9073 10.9276 19.9618 14.5312C19.5071 15.107 18.9488 15.5928 18.3157 15.9636C18.0233 16.8247 17.5954 17.6336 17.0482 18.3599C16.9882 18.4386 16.932 18.5136 16.8682 18.5886C18.3226 18.2965 19.6644 17.5983 20.7382 16.5749C23.7124 13.8806 24.0459 8.81314 21.3495 5.74864Z" fill="black"/>
<path d="M18.6792 14.4413C18.6666 14.5766 18.644 14.7107 18.6117 14.8426C19.1436 14.405 19.5825 13.8653 19.9026 13.2554C20.2227 12.6455 20.4175 11.9777 20.4754 11.2913C20.5399 10.5058 20.4262 9.71586 20.1428 8.98043C19.8593 8.24501 19.4134 7.5831 18.8383 7.0441C18.2633 6.5051 17.5739 6.10294 16.8217 5.86762C16.0695 5.63231 15.2738 5.56992 14.4941 5.6851C15.9896 6.55642 17.1883 7.85738 17.9347 9.41893C18.681 10.9805 18.9404 12.7304 18.6792 14.4413Z" fill="black"/>
</svg>
