<svg width="121" height="36" viewBox="0 0 121 36" fill="none" xmlns="http://www.w3.org/2000/svg">
<path d="M18.8572 18L3.33706e-05 29L3.43323e-05 7L18.8572 18Z" fill="white"/>
<path d="M4.80825e-07 18L18.8571 29L18.8571 7L4.80825e-07 18Z" fill="white"/>
<path d="M29.3349 10.9851V7.18182H47.2539V10.9851H40.5742V29H36.0146V10.9851H29.3349ZM48.4205 29V12.6364H52.8203V15.4915H52.9908C53.2891 14.4759 53.7898 13.7088 54.4929 13.1903C55.196 12.6648 56.0057 12.402 56.9219 12.402C57.1491 12.402 57.3942 12.4162 57.657 12.4446C57.9197 12.473 58.1506 12.5121 58.3494 12.5618V16.5888C58.1364 16.5249 57.8416 16.468 57.4652 16.4183C57.0888 16.3686 56.7443 16.3438 56.4318 16.3438C55.7642 16.3438 55.1676 16.4893 54.642 16.7805C54.1236 17.0646 53.7116 17.4624 53.4062 17.9737C53.108 18.4851 52.9588 19.0746 52.9588 19.7422V29H48.4205ZM67.3276 29.3196C65.6728 29.3196 64.2417 28.968 63.0343 28.2649C61.834 27.5547 60.9071 26.5675 60.2537 25.3033C59.6003 24.032 59.2736 22.5582 59.2736 20.8821C59.2736 19.1918 59.6003 17.7145 60.2537 16.4503C60.9071 15.179 61.834 14.1918 63.0343 13.4886C64.2417 12.7784 65.6728 12.4233 67.3276 12.4233C68.9824 12.4233 70.41 12.7784 71.6103 13.4886C72.8176 14.1918 73.748 15.179 74.4015 16.4503C75.0549 17.7145 75.3816 19.1918 75.3816 20.8821C75.3816 22.5582 75.0549 24.032 74.4015 25.3033C73.748 26.5675 72.8176 27.5547 71.6103 28.2649C70.41 28.968 68.9824 29.3196 67.3276 29.3196ZM67.3489 25.804C68.1017 25.804 68.7303 25.5909 69.2346 25.1648C69.7388 24.7315 70.1188 24.142 70.3745 23.3963C70.6373 22.6506 70.7686 21.8018 70.7686 20.8501C70.7686 19.8984 70.6373 19.0497 70.3745 18.304C70.1188 17.5582 69.7388 16.9687 69.2346 16.5355C68.7303 16.1023 68.1017 15.8857 67.3489 15.8857C66.589 15.8857 65.9498 16.1023 65.4313 16.5355C64.9199 16.9687 64.5328 17.5582 64.2701 18.304C64.0144 19.0497 63.8865 19.8984 63.8865 20.8501C63.8865 21.8018 64.0144 22.6506 64.2701 23.3963C64.5328 24.142 64.9199 24.7315 65.4313 25.1648C65.9498 25.5909 66.589 25.804 67.3489 25.804ZM78.3326 29V12.6364H82.6578V15.5234H82.8496C83.1905 14.5646 83.7587 13.8082 84.5542 13.2543C85.3496 12.7003 86.3013 12.4233 87.4093 12.4233C88.5314 12.4233 89.4867 12.7038 90.275 13.2649C91.0634 13.8189 91.589 14.5717 91.8517 15.5234H92.0222C92.356 14.5859 92.9597 13.8366 93.8333 13.2756C94.714 12.7074 95.7544 12.4233 96.9547 12.4233C98.4817 12.4233 99.7211 12.9098 100.673 13.8828C101.632 14.8487 102.111 16.2195 102.111 17.995V29H97.5833V18.8899C97.5833 17.9808 97.3418 17.299 96.8588 16.8445C96.3759 16.3899 95.7722 16.1626 95.0478 16.1626C94.2239 16.1626 93.5811 16.4254 93.1195 16.951C92.6578 17.4695 92.427 18.1548 92.427 19.0071V29H88.0272V18.794C88.0272 17.9915 87.7963 17.3523 87.3347 16.8764C86.8801 16.4006 86.28 16.1626 85.5343 16.1626C85.03 16.1626 84.5755 16.2905 84.1706 16.5462C83.7729 16.7947 83.4569 17.1463 83.2225 17.6009C82.9881 18.0483 82.8709 18.5739 82.8709 19.1776V29H78.3326ZM119.311 17.3026L115.156 17.5582C115.085 17.2031 114.932 16.8835 114.698 16.5994C114.464 16.3082 114.155 16.0774 113.771 15.907C113.395 15.7294 112.944 15.6406 112.418 15.6406C111.715 15.6406 111.122 15.7898 110.639 16.0881C110.156 16.3793 109.915 16.7699 109.915 17.2599C109.915 17.6506 110.071 17.9808 110.383 18.2507C110.696 18.5206 111.232 18.7372 111.992 18.9006L114.954 19.4972C116.545 19.8239 117.731 20.3494 118.512 21.0739C119.293 21.7983 119.684 22.75 119.684 23.929C119.684 25.0014 119.368 25.9425 118.736 26.7521C118.111 27.5618 117.251 28.1939 116.157 28.6484C115.071 29.0959 113.817 29.3196 112.397 29.3196C110.231 29.3196 108.505 28.8686 107.219 27.9666C105.941 27.0575 105.192 25.8217 104.971 24.2592L109.435 24.0249C109.57 24.6854 109.897 25.1896 110.415 25.5376C110.934 25.8786 111.598 26.049 112.407 26.049C113.203 26.049 113.842 25.8963 114.325 25.5909C114.815 25.2784 115.064 24.8771 115.071 24.3871C115.064 23.9751 114.89 23.6378 114.549 23.375C114.208 23.1051 113.682 22.8991 112.972 22.7571L110.138 22.1925C108.54 21.8729 107.351 21.3189 106.569 20.5305C105.795 19.7422 105.408 18.7372 105.408 17.5156C105.408 16.4645 105.692 15.5589 106.26 14.799C106.836 14.0391 107.642 13.4531 108.679 13.0412C109.723 12.6293 110.944 12.4233 112.344 12.4233C114.41 12.4233 116.037 12.8601 117.223 13.7337C118.416 14.6072 119.112 15.7969 119.311 17.3026Z" fill="white"/>
</svg>
