<svg width="24" height="24" viewBox="0 0 24 24" fill="none" xmlns="http://www.w3.org/2000/svg">
<path d="M14.2182 8.7636C14.4728 9.12724 15.0909 10.1818 15.0182 10.5454C15.2 10.3636 14.9455 9.45451 14.4 8.65451C13.9637 8.07269 13.4182 7.59996 12.7637 7.23633C13.3091 7.70906 13.8182 8.18178 14.2182 8.7636Z" fill="black"/>
<path d="M15.636 11.2726C15.8178 11.1271 15.8542 9.70896 14.7632 8.39987C14.5451 8.10896 14.2542 7.85441 13.9632 7.63623C15.3814 9.23623 15.8178 10.8726 15.636 11.2726ZM5.59961 18.1453C5.41779 17.8544 5.05416 17.1271 5.23597 16.909C4.94507 17.0544 5.12688 17.7817 5.38143 18.1817C5.7087 18.6544 6.14507 19.018 6.65416 19.309C6.21779 18.909 5.85416 18.5453 5.59961 18.1453Z" fill="black"/>
<path d="M4.76374 16.4001C4.50919 16.4728 4.21828 17.3819 4.94556 18.291C5.09101 18.5092 5.30919 18.691 5.56374 18.8728C4.61828 17.7455 4.50919 16.6183 4.76374 16.4001ZM11.3819 6.72735C12.2183 4.5819 11.9274 2.25463 11.6728 0.981899C11.6001 0.581899 11.2001 0.29099 10.7637 0.363717C10.3637 0.436444 10.0728 0.836444 10.1456 1.27281C10.3637 2.43644 10.6183 4.54554 9.81828 6.36372C10.3637 6.32735 10.9092 6.43644 11.3819 6.72735Z" fill="black"/>
<path d="M6.07296 8.10929C7.23778 8.10929 8.18205 7.16502 8.18205 6.0002C8.18205 4.83539 7.23778 3.89111 6.07296 3.89111C4.90814 3.89111 3.96387 4.83539 3.96387 6.0002C3.96387 7.16502 4.90814 8.10929 6.07296 8.10929Z" fill="black"/>
<path d="M19.9273 21.9636L15.7818 13.9636C15.7818 13.709 15.7455 13.4545 15.6364 13.1999C14.2546 9.63628 11.5636 7.38174 11.4546 7.27265C10.4727 6.47265 9.05456 6.58174 8.21819 7.52719C7.81819 7.99992 7.63638 8.58174 7.67274 9.12719C7.63638 9.45446 8.14547 13.5999 6.00001 16.6545C5.74547 17.0181 5.85456 17.4908 6.18183 17.709C6.54547 17.9636 7.01819 17.8545 7.23638 17.5272C8.61819 15.5636 9.05456 13.1999 9.20001 11.4908C9.85456 12.1817 10.7636 13.3817 11.3455 14.8726C11.4546 15.1999 11.6727 15.4908 11.8909 15.709L8.94547 21.9999C8.69092 22.5817 8.9091 23.2726 9.49092 23.5272C10.0727 23.7817 10.7636 23.5636 11.0182 22.9817L14.1818 16.2181C14.2182 16.2181 14.2546 16.2181 14.2909 16.1817C14.2909 16.1817 14.2909 16.1817 14.3273 16.1817L17.8909 23.0181C18.1818 23.5999 18.8727 23.8181 19.4546 23.4908C20 23.1999 20.2182 22.509 19.9273 21.9636Z" fill="black"/>
</svg>
